<?xml version="1.0" encoding="UTF-8" standalone="no"?>
<!DOCTYPE svg PUBLIC "-//W3C//DTD SVG 1.1//EN" "http://www.w3.org/Graphics/SVG/1.1/DTD/svg11.dtd">
<svg xmlns="http://www.w3.org/2000/svg" xmlns:xlink="http://www.w3.org/1999/xlink" version="1.1" width="509.76pt" height="215.53pt" viewBox="0 0 509.76 215.53">
<g enable-background="new">
<path transform="matrix(1,0,0,-1,121.339008,112.55299)" stroke-width=".3985" stroke-linecap="butt" stroke-miterlimit="10" stroke-linejoin="miter" fill="none" stroke="#000000" d="M 0 0 "/>
<text xml:space="preserve" transform="matrix(1 0 -0 1 75.52 73.715)" font-size="7.9701" font-family="CMMI8" font-style="italic"><tspan y="40.554" x="49.339">v</tspan></text>
<path transform="matrix(1,0,0,-1,121.339008,112.55299)" stroke-width=".3985" stroke-linecap="butt" stroke-miterlimit="10" stroke-linejoin="miter" fill="none" stroke="#000000" d="M 0 85.04045 "/>
<text xml:space="preserve" transform="matrix(1 0 -0 1 67.473 -17.668007)" font-size="7.9701" font-family="CMMI8" font-style="italic"><tspan y="40.554" x="49.339">u</tspan></text>
<text xml:space="preserve" transform="matrix(1 0 -0 1 67.473 -17.668007)" font-size="5.9776" font-family="CMR6"><tspan y="41.661" x="54.242">1</tspan></text>
<path transform="matrix(1,0,0,-1,121.339008,112.55299)" stroke-width=".3985" stroke-linecap="butt" stroke-miterlimit="10" stroke-linejoin="miter" fill="none" stroke="#000000" d="M -73.64738 42.52022 "/>
<text xml:space="preserve" transform="matrix(1 0 -0 1 -14.221001 24.851994)" font-size="7.9701" font-family="CMMI8" font-style="italic"><tspan y="40.554" x="49.339">u</tspan></text>
<text xml:space="preserve" transform="matrix(1 0 -0 1 -14.221001 24.851994)" font-size="5.9776" font-family="CMR6"><tspan y="41.661" x="54.242">2</tspan></text>
<path transform="matrix(1,0,0,-1,121.339008,112.55299)" stroke-width=".3985" stroke-linecap="butt" stroke-miterlimit="10" stroke-linejoin="miter" fill="none" stroke="#000000" d="M -73.64738 -42.52022 "/>
<text xml:space="preserve" transform="matrix(1 0 -0 1 -14.221001 121.47099)" font-size="7.9701" font-family="CMMI8" font-style="italic"><tspan y="40.554" x="49.339">u</tspan></text>
<text xml:space="preserve" transform="matrix(1 0 -0 1 -14.221001 121.47099)" font-size="5.9776" font-family="CMR6"><tspan y="41.661" x="54.242">3</tspan></text>
<path transform="matrix(1,0,0,-1,121.339008,112.55299)" stroke-width=".3985" stroke-linecap="butt" stroke-miterlimit="10" stroke-linejoin="miter" fill="none" stroke="#000000" d="M 0 -85.04045 "/>
<text xml:space="preserve" transform="matrix(1 0 -0 1 67.473 163.991)" font-size="7.9701" font-family="CMMI8" font-style="italic"><tspan y="40.554" x="49.339">u</tspan></text>
<text xml:space="preserve" transform="matrix(1 0 -0 1 67.473 163.991)" font-size="5.9776" font-family="CMR6"><tspan y="41.661" x="54.242">4</tspan></text>
<path transform="matrix(1,0,0,-1,121.339008,112.55299)" stroke-width=".3985" stroke-linecap="butt" stroke-miterlimit="10" stroke-linejoin="miter" fill="none" stroke="#000000" d="M 73.64738 -42.52022 "/>
<text xml:space="preserve" transform="matrix(1 0 -0 1 149.16699 121.47099)" font-size="7.9701" font-family="CMMI8" font-style="italic"><tspan y="40.554" x="49.339">u</tspan></text>
<text xml:space="preserve" transform="matrix(1 0 -0 1 149.16699 121.47099)" font-size="5.9776" font-family="CMR6"><tspan y="41.661" x="54.242">5</tspan></text>
<path transform="matrix(1,0,0,-1,121.339008,112.55299)" stroke-width=".3985" stroke-linecap="butt" stroke-miterlimit="10" stroke-linejoin="miter" fill="none" stroke="#000000" d="M 73.64738 42.52022 "/>
<text xml:space="preserve" transform="matrix(1 0 -0 1 149.16699 24.851994)" font-size="7.9701" font-family="CMMI8" font-style="italic"><tspan y="40.554" x="49.339">u</tspan></text>
<text xml:space="preserve" transform="matrix(1 0 -0 1 149.16699 24.851994)" font-size="5.9776" font-family="CMR6"><tspan y="41.661" x="54.242">6</tspan></text>
<path transform="matrix(1,0,0,-1,121.339008,112.55299)" stroke-width=".3985" stroke-linecap="butt" stroke-miterlimit="10" stroke-linejoin="miter" fill="none" stroke="#000000" d="M 0 0 L 73.64738 42.52022 "/>
<path transform="matrix(1,0,0,-1,121.339008,112.55299)" stroke-width=".3985" stroke-linecap="butt" stroke-miterlimit="10" stroke-linejoin="miter" fill="none" stroke="#000000" d="M 0 0 L 0 85.04045 "/>
<path transform="matrix(1,0,0,-1,121.339008,112.55299)" stroke-width=".3985" stroke-linecap="butt" stroke-miterlimit="10" stroke-linejoin="miter" fill="none" stroke="#000000" d="M 0 0 L -73.64738 42.52022 "/>
<path transform="matrix(1,0,0,-1,121.339008,112.55299)" stroke-width=".3985" stroke-linecap="butt" stroke-miterlimit="10" stroke-linejoin="miter" fill="none" stroke="#000000" d="M 0 0 L -73.64738 -42.52022 "/>
<path transform="matrix(1,0,0,-1,121.339008,112.55299)" stroke-width=".3985" stroke-linecap="butt" stroke-miterlimit="10" stroke-linejoin="miter" fill="none" stroke="#000000" d="M 0 0 L 0 -85.04045 "/>
<path transform="matrix(1,0,0,-1,121.339008,112.55299)" stroke-width=".3985" stroke-linecap="butt" stroke-miterlimit="10" stroke-linejoin="miter" fill="none" stroke="#000000" d="M 0 0 L 73.64738 -42.52022 "/>
<path transform="matrix(1,0,0,-1,121.339008,112.55299)" stroke-width=".3985" stroke-linecap="butt" stroke-miterlimit="10" stroke-linejoin="miter" fill="none" stroke="#000000" d="M 73.64738 42.52022 L 0 85.04045 L -73.64738 42.52022 L -73.64738 -42.52022 L 0 -85.04045 L 73.64738 -42.52022 Z "/>
<path transform="matrix(1,0,0,-1,121.339008,112.55299)" d="M .99628 0 C .99628 .55023 .55023 .99628 0 .99628 C -.55023 .99628 -.99628 .55023 -.99628 0 C -.99628 -.55023 -.55023 -.99628 0 -.99628 C .55023 -.99628 .99628 -.55023 .99628 0 Z M 0 0 "/>
<path transform="matrix(1,0,0,-1,121.339008,112.55299)" stroke-width=".3985" stroke-linecap="butt" stroke-miterlimit="10" stroke-linejoin="miter" fill="none" stroke="#000000" d="M .99628 0 C .99628 .55023 .55023 .99628 0 .99628 C -.55023 .99628 -.99628 .55023 -.99628 0 C -.99628 -.55023 -.55023 -.99628 0 -.99628 C .55023 -.99628 .99628 -.55023 .99628 0 Z M 0 0 "/>
<path transform="matrix(1,0,0,-1,121.339008,112.55299)" d="M .99628 85.04045 C .99628 85.59068 .55023 86.03673 0 86.03673 C -.55023 86.03673 -.99628 85.59068 -.99628 85.04045 C -.99628 84.49022 -.55023 84.04417 0 84.04417 C .55023 84.04417 .99628 84.49022 .99628 85.04045 Z M 0 85.04045 "/>
<path transform="matrix(1,0,0,-1,121.339008,112.55299)" stroke-width=".3985" stroke-linecap="butt" stroke-miterlimit="10" stroke-linejoin="miter" fill="none" stroke="#000000" d="M .99628 85.04045 C .99628 85.59068 .55023 86.03673 0 86.03673 C -.55023 86.03673 -.99628 85.59068 -.99628 85.04045 C -.99628 84.49022 -.55023 84.04417 0 84.04417 C .55023 84.04417 .99628 84.49022 .99628 85.04045 Z M 0 85.04045 "/>
<path transform="matrix(1,0,0,-1,121.339008,112.55299)" d="M -72.65111 -42.52022 C -72.65111 -41.96999 -73.09715 -41.52394 -73.64738 -41.52394 C -74.19763 -41.52394 -74.64366 -41.96999 -74.64366 -42.52022 C -74.64366 -43.07045 -74.19763 -43.5165 -73.64738 -43.5165 C -73.09715 -43.5165 -72.65111 -43.07045 -72.65111 -42.52022 Z M -73.64738 -42.52022 "/>
<path transform="matrix(1,0,0,-1,121.339008,112.55299)" stroke-width=".3985" stroke-linecap="butt" stroke-miterlimit="10" stroke-linejoin="miter" fill="none" stroke="#000000" d="M -72.65111 -42.52022 C -72.65111 -41.96999 -73.09715 -41.52394 -73.64738 -41.52394 C -74.19763 -41.52394 -74.64366 -41.96999 -74.64366 -42.52022 C -74.64366 -43.07045 -74.19763 -43.5165 -73.64738 -43.5165 C -73.09715 -43.5165 -72.65111 -43.07045 -72.65111 -42.52022 Z M -73.64738 -42.52022 "/>
<path transform="matrix(1,0,0,-1,121.339008,112.55299)" stroke-width=".79701" stroke-linecap="butt" stroke-miterlimit="10" stroke-linejoin="miter" fill="none" stroke="#000000" d="M 0 0 L 0 85.04045 "/>
<path transform="matrix(1,0,0,-1,121.339008,112.55299)" stroke-width=".79701" stroke-linecap="butt" stroke-miterlimit="10" stroke-linejoin="miter" fill="none" stroke="#000000" d="M 0 0 L -73.64738 -42.52022 "/>
<path transform="matrix(1,0,0,-1,121.339008,112.55299)" stroke-width=".79701" stroke-linecap="butt" stroke-dasharray="2.98883,2.98883" stroke-miterlimit="10" stroke-linejoin="miter" fill="none" stroke="#000000" d="M 0 85.04045 C -35.22575 105.37799 -80.26744 93.30907 -100.60498 58.0833 C -120.94252 22.85753 -108.8736 -22.18413 -73.64783 -42.52167 "/>
<path transform="matrix(1,0,0,-1,121.339008,112.55299)" stroke-width=".3985" stroke-linecap="butt" stroke-miterlimit="10" stroke-linejoin="miter" fill="none" stroke="#000000" d="M 226.77457 0 "/>
<text xml:space="preserve" transform="matrix(1 0 -0 1 302.294 73.715)" font-size="7.9701" font-family="CMMI8" font-style="italic"><tspan y="40.554" x="49.339">v</tspan></text>
<path transform="matrix(1,0,0,-1,121.339008,112.55299)" stroke-width=".3985" stroke-linecap="butt" stroke-miterlimit="10" stroke-linejoin="miter" fill="none" stroke="#000000" d="M 226.77457 85.04045 "/>
<text xml:space="preserve" transform="matrix(1 0 -0 1 294.248 -17.668007)" font-size="7.9701" font-family="CMMI8" font-style="italic"><tspan y="40.554" x="49.339">u</tspan></text>
<text xml:space="preserve" transform="matrix(1 0 -0 1 294.248 -17.668007)" font-size="5.9776" font-family="CMR6"><tspan y="41.661" x="54.242">1</tspan></text>
<path transform="matrix(1,0,0,-1,121.339008,112.55299)" stroke-width=".3985" stroke-linecap="butt" stroke-miterlimit="10" stroke-linejoin="miter" fill="none" stroke="#000000" d="M 153.12717 42.52022 "/>
<text xml:space="preserve" transform="matrix(1 0 -0 1 212.553 24.851994)" font-size="7.9701" font-family="CMMI8" font-style="italic"><tspan y="40.554" x="49.339">u</tspan></text>
<text xml:space="preserve" transform="matrix(1 0 -0 1 212.553 24.851994)" font-size="5.9776" font-family="CMR6"><tspan y="41.661" x="54.242">2</tspan></text>
<path transform="matrix(1,0,0,-1,121.339008,112.55299)" stroke-width=".3985" stroke-linecap="butt" stroke-miterlimit="10" stroke-linejoin="miter" fill="none" stroke="#000000" d="M 153.12717 -42.52022 "/>
<text xml:space="preserve" transform="matrix(1 0 -0 1 212.553 121.47099)" font-size="7.9701" font-family="CMMI8" font-style="italic"><tspan y="40.554" x="49.339">u</tspan></text>
<text xml:space="preserve" transform="matrix(1 0 -0 1 212.553 121.47099)" font-size="5.9776" font-family="CMR6"><tspan y="41.661" x="54.242">3</tspan></text>
<path transform="matrix(1,0,0,-1,121.339008,112.55299)" stroke-width=".3985" stroke-linecap="butt" stroke-miterlimit="10" stroke-linejoin="miter" fill="none" stroke="#000000" d="M 226.77457 -85.04045 "/>
<text xml:space="preserve" transform="matrix(1 0 -0 1 294.248 163.991)" font-size="7.9701" font-family="CMMI8" font-style="italic"><tspan y="40.554" x="49.339">u</tspan></text>
<text xml:space="preserve" transform="matrix(1 0 -0 1 294.248 163.991)" font-size="5.9776" font-family="CMR6"><tspan y="41.661" x="54.242">4</tspan></text>
<path transform="matrix(1,0,0,-1,121.339008,112.55299)" stroke-width=".3985" stroke-linecap="butt" stroke-miterlimit="10" stroke-linejoin="miter" fill="none" stroke="#000000" d="M 300.42198 -42.52022 "/>
<text xml:space="preserve" transform="matrix(1 0 -0 1 375.942 121.47099)" font-size="7.9701" font-family="CMMI8" font-style="italic"><tspan y="40.554" x="49.339">u</tspan></text>
<text xml:space="preserve" transform="matrix(1 0 -0 1 375.942 121.47099)" font-size="5.9776" font-family="CMR6"><tspan y="41.661" x="54.242">5</tspan></text>
<path transform="matrix(1,0,0,-1,121.339008,112.55299)" stroke-width=".3985" stroke-linecap="butt" stroke-miterlimit="10" stroke-linejoin="miter" fill="none" stroke="#000000" d="M 300.42198 42.52022 "/>
<text xml:space="preserve" transform="matrix(1 0 -0 1 375.942 24.851994)" font-size="7.9701" font-family="CMMI8" font-style="italic"><tspan y="40.554" x="49.339">u</tspan></text>
<text xml:space="preserve" transform="matrix(1 0 -0 1 375.942 24.851994)" font-size="5.9776" font-family="CMR6"><tspan y="41.661" x="54.242">6</tspan></text>
<path transform="matrix(1,0,0,-1,121.339008,112.55299)" stroke-width=".3985" stroke-linecap="butt" stroke-miterlimit="10" stroke-linejoin="miter" fill="none" stroke="#000000" d="M 226.77457 0 L 300.42198 42.52022 "/>
<path transform="matrix(1,0,0,-1,121.339008,112.55299)" stroke-width=".3985" stroke-linecap="butt" stroke-miterlimit="10" stroke-linejoin="miter" fill="none" stroke="#000000" d="M 226.77457 0 L 226.77457 85.04045 "/>
<path transform="matrix(1,0,0,-1,121.339008,112.55299)" stroke-width=".3985" stroke-linecap="butt" stroke-miterlimit="10" stroke-linejoin="miter" fill="none" stroke="#000000" d="M 226.77457 0 L 153.12717 42.52022 "/>
<path transform="matrix(1,0,0,-1,121.339008,112.55299)" stroke-width=".3985" stroke-linecap="butt" stroke-miterlimit="10" stroke-linejoin="miter" fill="none" stroke="#000000" d="M 226.77457 0 L 153.12717 -42.52022 "/>
<path transform="matrix(1,0,0,-1,121.339008,112.55299)" stroke-width=".3985" stroke-linecap="butt" stroke-miterlimit="10" stroke-linejoin="miter" fill="none" stroke="#000000" d="M 226.77457 0 L 226.77457 -85.04045 "/>
<path transform="matrix(1,0,0,-1,121.339008,112.55299)" stroke-width=".3985" stroke-linecap="butt" stroke-miterlimit="10" stroke-linejoin="miter" fill="none" stroke="#000000" d="M 226.77457 0 L 300.42198 -42.52022 "/>
<path transform="matrix(1,0,0,-1,121.339008,112.55299)" stroke-width=".3985" stroke-linecap="butt" stroke-miterlimit="10" stroke-linejoin="miter" fill="none" stroke="#000000" d="M 300.42198 42.52022 L 226.77457 85.04045 L 153.12717 42.52022 L 153.12717 -42.52022 L 226.77457 -85.04045 L 300.42198 -42.52022 Z "/>
<path transform="matrix(1,0,0,-1,121.339008,112.55299)" d="M 227.77085 0 C 227.77085 .55023 227.3248 .99628 226.77457 .99628 C 226.22432 .99628 225.77829 .55023 225.77829 0 C 225.77829 -.55023 226.22432 -.99628 226.77457 -.99628 C 227.3248 -.99628 227.77085 -.55023 227.77085 0 Z M 226.77457 0 "/>
<path transform="matrix(1,0,0,-1,121.339008,112.55299)" stroke-width=".3985" stroke-linecap="butt" stroke-miterlimit="10" stroke-linejoin="miter" fill="none" stroke="#000000" d="M 227.77085 0 C 227.77085 .55023 227.3248 .99628 226.77457 .99628 C 226.22432 .99628 225.77829 .55023 225.77829 0 C 225.77829 -.55023 226.22432 -.99628 226.77457 -.99628 C 227.3248 -.99628 227.77085 -.55023 227.77085 0 Z M 226.77457 0 "/>
<path transform="matrix(1,0,0,-1,121.339008,112.55299)" d="M 227.77085 85.04045 C 227.77085 85.59068 227.3248 86.03673 226.77457 86.03673 C 226.22432 86.03673 225.77829 85.59068 225.77829 85.04045 C 225.77829 84.49022 226.22432 84.04417 226.77457 84.04417 C 227.3248 84.04417 227.77085 84.49022 227.77085 85.04045 Z M 226.77457 85.04045 "/>
<path transform="matrix(1,0,0,-1,121.339008,112.55299)" stroke-width=".3985" stroke-linecap="butt" stroke-miterlimit="10" stroke-linejoin="miter" fill="none" stroke="#000000" d="M 227.77085 85.04045 C 227.77085 85.59068 227.3248 86.03673 226.77457 86.03673 C 226.22432 86.03673 225.77829 85.59068 225.77829 85.04045 C 225.77829 84.49022 226.22432 84.04417 226.77457 84.04417 C 227.3248 84.04417 227.77085 84.49022 227.77085 85.04045 Z M 226.77457 85.04045 "/>
<path transform="matrix(1,0,0,-1,121.339008,112.55299)" d="M 227.77085 -85.04045 C 227.77085 -84.49022 227.3248 -84.04417 226.77457 -84.04417 C 226.22432 -84.04417 225.77829 -84.49022 225.77829 -85.04045 C 225.77829 -85.59068 226.22432 -86.03673 226.77457 -86.03673 C 227.3248 -86.03673 227.77085 -85.59068 227.77085 -85.04045 Z M 226.77457 -85.04045 "/>
<path transform="matrix(1,0,0,-1,121.339008,112.55299)" stroke-width=".3985" stroke-linecap="butt" stroke-miterlimit="10" stroke-linejoin="miter" fill="none" stroke="#000000" d="M 227.77085 -85.04045 C 227.77085 -84.49022 227.3248 -84.04417 226.77457 -84.04417 C 226.22432 -84.04417 225.77829 -84.49022 225.77829 -85.04045 C 225.77829 -85.59068 226.22432 -86.03673 226.77457 -86.03673 C 227.3248 -86.03673 227.77085 -85.59068 227.77085 -85.04045 Z M 226.77457 -85.04045 "/>
<path transform="matrix(1,0,0,-1,121.339008,112.55299)" stroke-width=".79701" stroke-linecap="butt" stroke-miterlimit="10" stroke-linejoin="miter" fill="none" stroke="#000000" d="M 226.77457 0 L 226.77457 85.04045 "/>
<path transform="matrix(1,0,0,-1,121.339008,112.55299)" stroke-width=".79701" stroke-linecap="butt" stroke-miterlimit="10" stroke-linejoin="miter" fill="none" stroke="#000000" d="M 226.77457 0 L 226.77457 -85.04045 "/>
<path transform="matrix(1,0,0,-1,121.339008,112.55299)" stroke-width=".79701" stroke-linecap="butt" stroke-dasharray="2.98883,2.98883" stroke-miterlimit="10" stroke-linejoin="miter" fill="none" stroke="#000000" d="M 226.77457 85.04045 C 273.74177 112.1569 333.79676 96.06514 360.9132 49.09795 C 388.02964 2.13075 371.93788 -57.92421 324.97068 -85.04066 C 294.5922 -102.57965 257.15306 -102.57965 226.77457 -85.04066 "/>
</g>
</svg>
