<?xml version="1.0" encoding="UTF-8" standalone="no"?>
<!DOCTYPE svg PUBLIC "-//W3C//DTD SVG 1.1//EN" "http://www.w3.org/Graphics/SVG/1.1/DTD/svg11.dtd">
<svg xmlns="http://www.w3.org/2000/svg" xmlns:xlink="http://www.w3.org/1999/xlink" version="1.1" width="239.65pt" height="182.72pt" viewBox="0 0 239.65 182.72">
<g enable-background="new">
<path transform="matrix(1,0,0,-1,14.988998,168.34799)" stroke-width=".19925" stroke-linecap="butt" stroke-miterlimit="10" stroke-linejoin="miter" fill="none" stroke="#929292" d="M 28.3468 -14.17339 L 28.3468 155.90744 "/>
<path transform="matrix(1,0,0,-1,14.988998,168.34799)" stroke-width=".19925" stroke-linecap="butt" stroke-miterlimit="10" stroke-linejoin="miter" fill="none" stroke="#929292" d="M 56.69362 -14.17339 L 56.69362 155.90744 "/>
<path transform="matrix(1,0,0,-1,14.988998,168.34799)" stroke-width=".19925" stroke-linecap="butt" stroke-miterlimit="10" stroke-linejoin="miter" fill="none" stroke="#929292" d="M 85.04042 -14.17339 L 85.04042 155.90744 "/>
<path transform="matrix(1,0,0,-1,14.988998,168.34799)" stroke-width=".19925" stroke-linecap="butt" stroke-miterlimit="10" stroke-linejoin="miter" fill="none" stroke="#929292" d="M 113.38724 -14.17339 L 113.38724 155.90744 "/>
<path transform="matrix(1,0,0,-1,14.988998,168.34799)" stroke-width=".19925" stroke-linecap="butt" stroke-miterlimit="10" stroke-linejoin="miter" fill="none" stroke="#929292" d="M 141.73404 -14.17339 L 141.73404 155.90744 "/>
<path transform="matrix(1,0,0,-1,14.988998,168.34799)" stroke-width=".19925" stroke-linecap="butt" stroke-miterlimit="10" stroke-linejoin="miter" fill="none" stroke="#929292" d="M 170.08086 -14.17339 L 170.08086 155.90744 "/>
<path transform="matrix(1,0,0,-1,14.988998,168.34799)" stroke-width=".19925" stroke-linecap="butt" stroke-miterlimit="10" stroke-linejoin="miter" fill="none" stroke="#929292" d="M 198.42766 -14.17339 L 198.42766 155.90744 "/>
<path transform="matrix(1,0,0,-1,14.988998,168.34799)" stroke-width=".19925" stroke-linecap="butt" stroke-miterlimit="10" stroke-linejoin="miter" fill="none" stroke="#929292" d="M -14.17339 28.3468 L 212.60106 28.3468 "/>
<path transform="matrix(1,0,0,-1,14.988998,168.34799)" stroke-width=".19925" stroke-linecap="butt" stroke-miterlimit="10" stroke-linejoin="miter" fill="none" stroke="#929292" d="M -14.17339 56.69362 L 212.60106 56.69362 "/>
<path transform="matrix(1,0,0,-1,14.988998,168.34799)" stroke-width=".19925" stroke-linecap="butt" stroke-miterlimit="10" stroke-linejoin="miter" fill="none" stroke="#929292" d="M -14.17339 85.04042 L 212.60106 85.04042 "/>
<path transform="matrix(1,0,0,-1,14.988998,168.34799)" stroke-width=".19925" stroke-linecap="butt" stroke-miterlimit="10" stroke-linejoin="miter" fill="none" stroke="#929292" d="M -14.17339 113.38724 L 212.60106 113.38724 "/>
<path transform="matrix(1,0,0,-1,14.988998,168.34799)" stroke-width=".19925" stroke-linecap="butt" stroke-miterlimit="10" stroke-linejoin="miter" fill="none" stroke="#929292" d="M -14.17339 141.73404 L 212.60106 141.73404 "/>
<path transform="matrix(1,0,0,-1,14.988998,168.34799)" stroke-width=".3985" stroke-linecap="butt" stroke-miterlimit="10" stroke-linejoin="miter" fill="none" stroke="#000000" d="M -14.17339 0 L 210.60854 0 "/>
<path transform="matrix(1,0,0,-1,225.59754,168.34799)" d="M 1.99252 0 L -1.19551 1.59401 L 0 0 L -1.19551 -1.59401 "/>
<text xml:space="preserve" transform="matrix(1 0 -0 1 288.121 73.92799)" font-size="8.9664" font-family="CMMI9" font-style="italic"><tspan y="96.35" x="-57.011">x</tspan></text>
<path transform="matrix(1,0,0,-1,14.988998,168.34799)" stroke-width=".3985" stroke-linecap="butt" stroke-miterlimit="10" stroke-linejoin="miter" fill="none" stroke="#000000" d="M 0 -14.17339 L 0 153.91492 "/>
<path transform="matrix(0,-1,-1,-0,14.988998,14.433075)" d="M 1.99252 0 L -1.19551 1.59401 L 0 0 L -1.19551 -1.59401 "/>
<text xml:space="preserve" transform="matrix(1 0 -0 1 69.57 -89.17301)" font-size="8.9664" font-family="CMMI9" font-style="italic"><tspan y="96.35" x="-57.011">y</tspan></text>
<path transform="matrix(1,0,0,-1,14.988998,168.34799)" d="M .99628 0 C .99628 .55023 .55023 .99628 0 .99628 C -.55023 .99628 -.99628 .55023 -.99628 0 C -.99628 -.55023 -.55023 -.99628 0 -.99628 C .55023 -.99628 .99628 -.55023 .99628 0 Z M 0 0 "/>
<path transform="matrix(1,0,0,-1,14.988998,168.34799)" stroke-width=".19925" stroke-linecap="butt" stroke-miterlimit="10" stroke-linejoin="miter" fill="none" stroke="#000000" d="M .99628 0 C .99628 .55023 .55023 .99628 0 .99628 C -.55023 .99628 -.99628 .55023 -.99628 0 C -.99628 -.55023 -.55023 -.99628 0 -.99628 C .55023 -.99628 .99628 -.55023 .99628 0 Z M 0 0 "/>
<text xml:space="preserve" transform="matrix(1 0 -0 1 60.331 78.82199)" font-size="4.9813" font-family="CMMI5" font-style="italic"><tspan y="96.35" x="-57.011">P</tspan></text>
<text xml:space="preserve" transform="matrix(1 0 -0 1 60.331 78.82199)" font-size="4.9813" font-family="CMR5"><tspan y="97.844" x="-52.65">1</tspan></text>
<path transform="matrix(1,0,0,-1,14.988998,168.34799)" d="M .99628 141.73404 C .99628 142.28427 .55023 142.73032 0 142.73032 C -.55023 142.73032 -.99628 142.28427 -.99628 141.73404 C -.99628 141.1838 -.55023 140.73777 0 140.73777 C .55023 140.73777 .99628 141.1838 .99628 141.73404 Z M 0 141.73404 "/>
<path transform="matrix(1,0,0,-1,14.988998,168.34799)" stroke-width=".19925" stroke-linecap="butt" stroke-miterlimit="10" stroke-linejoin="miter" fill="none" stroke="#000000" d="M .99628 141.73404 C .99628 142.28427 .55023 142.73032 0 142.73032 C -.55023 142.73032 -.99628 142.28427 -.99628 141.73404 C -.99628 141.1838 -.55023 140.73777 0 140.73777 C .55023 140.73777 .99628 141.1838 .99628 141.73404 Z M 0 141.73404 "/>
<text xml:space="preserve" transform="matrix(1 0 -0 1 60.331 -74.65101)" font-size="4.9813" font-family="CMMI5" font-style="italic"><tspan y="96.35" x="-57.011">P</tspan></text>
<text xml:space="preserve" transform="matrix(1 0 -0 1 60.331 -74.65101)" font-size="4.9813" font-family="CMR5"><tspan y="97.844" x="-52.65">2</tspan></text>
<path transform="matrix(1,0,0,-1,14.988998,168.34799)" d="M 29.34308 28.3468 C 29.34308 28.89703 28.89703 29.34308 28.3468 29.34308 C 27.79657 29.34308 27.35052 28.89703 27.35052 28.3468 C 27.35052 27.79657 27.79657 27.35052 28.3468 27.35052 C 28.89703 27.35052 29.34308 27.79657 29.34308 28.3468 Z M 28.3468 28.3468 "/>
<path transform="matrix(1,0,0,-1,14.988998,168.34799)" stroke-width=".19925" stroke-linecap="butt" stroke-miterlimit="10" stroke-linejoin="miter" fill="none" stroke="#000000" d="M 29.34308 28.3468 C 29.34308 28.89703 28.89703 29.34308 28.3468 29.34308 C 27.79657 29.34308 27.35052 28.89703 27.35052 28.3468 C 27.35052 27.79657 27.79657 27.35052 28.3468 27.35052 C 28.89703 27.35052 29.34308 27.79657 29.34308 28.3468 Z M 28.3468 28.3468 "/>
<text xml:space="preserve" transform="matrix(1 0 -0 1 88.678 38.73699)" font-size="4.9813" font-family="CMMI5" font-style="italic"><tspan y="96.35" x="-57.011">P</tspan></text>
<text xml:space="preserve" transform="matrix(1 0 -0 1 88.678 38.73699)" font-size="4.9813" font-family="CMR5"><tspan y="97.844" x="-52.65">3</tspan></text>
<path transform="matrix(1,0,0,-1,14.988998,168.34799)" d="M 29.34308 56.69362 C 29.34308 57.24385 28.89703 57.6899 28.3468 57.6899 C 27.79657 57.6899 27.35052 57.24385 27.35052 56.69362 C 27.35052 56.14337 27.79657 55.69734 28.3468 55.69734 C 28.89703 55.69734 29.34308 56.14337 29.34308 56.69362 Z M 28.3468 56.69362 "/>
<path transform="matrix(1,0,0,-1,14.988998,168.34799)" stroke-width=".19925" stroke-linecap="butt" stroke-miterlimit="10" stroke-linejoin="miter" fill="none" stroke="#000000" d="M 29.34308 56.69362 C 29.34308 57.24385 28.89703 57.6899 28.3468 57.6899 C 27.79657 57.6899 27.35052 57.24385 27.35052 56.69362 C 27.35052 56.14337 27.79657 55.69734 28.3468 55.69734 C 28.89703 55.69734 29.34308 56.14337 29.34308 56.69362 Z M 28.3468 56.69362 "/>
<text xml:space="preserve" transform="matrix(1 0 -0 1 88.678 16.258996)" font-size="4.9813" font-family="CMMI5" font-style="italic"><tspan y="96.35" x="-57.011">P</tspan></text>
<text xml:space="preserve" transform="matrix(1 0 -0 1 88.678 16.258996)" font-size="4.9813" font-family="CMR5"><tspan y="97.844" x="-52.65">4</tspan></text>
<path transform="matrix(1,0,0,-1,14.988998,168.34799)" d="M 29.34308 113.38724 C 29.34308 113.93747 28.89703 114.38351 28.3468 114.38351 C 27.79657 114.38351 27.35052 113.93747 27.35052 113.38724 C 27.35052 112.83699 27.79657 112.39096 28.3468 112.39096 C 28.89703 112.39096 29.34308 112.83699 29.34308 113.38724 Z M 28.3468 113.38724 "/>
<path transform="matrix(1,0,0,-1,14.988998,168.34799)" stroke-width=".19925" stroke-linecap="butt" stroke-miterlimit="10" stroke-linejoin="miter" fill="none" stroke="#000000" d="M 29.34308 113.38724 C 29.34308 113.93747 28.89703 114.38351 28.3468 114.38351 C 27.79657 114.38351 27.35052 113.93747 27.35052 113.38724 C 27.35052 112.83699 27.79657 112.39096 28.3468 112.39096 C 28.89703 112.39096 29.34308 112.83699 29.34308 113.38724 Z M 28.3468 113.38724 "/>
<text xml:space="preserve" transform="matrix(1 0 -0 1 88.678 -34.56501)" font-size="4.9813" font-family="CMMI5" font-style="italic"><tspan y="96.35" x="-57.011">P</tspan></text>
<text xml:space="preserve" transform="matrix(1 0 -0 1 88.678 -34.56501)" font-size="4.9813" font-family="CMR5"><tspan y="97.844" x="-52.65">5</tspan></text>
<path transform="matrix(1,0,0,-1,14.988998,168.34799)" d="M 57.6899 28.3468 C 57.6899 28.89703 57.24385 29.34308 56.69362 29.34308 C 56.14337 29.34308 55.69734 28.89703 55.69734 28.3468 C 55.69734 27.79657 56.14337 27.35052 56.69362 27.35052 C 57.24385 27.35052 57.6899 27.79657 57.6899 28.3468 Z M 56.69362 28.3468 "/>
<path transform="matrix(1,0,0,-1,14.988998,168.34799)" stroke-width=".19925" stroke-linecap="butt" stroke-miterlimit="10" stroke-linejoin="miter" fill="none" stroke="#000000" d="M 57.6899 28.3468 C 57.6899 28.89703 57.24385 29.34308 56.69362 29.34308 C 56.14337 29.34308 55.69734 28.89703 55.69734 28.3468 C 55.69734 27.79657 56.14337 27.35052 56.69362 27.35052 C 57.24385 27.35052 57.6899 27.79657 57.6899 28.3468 Z M 56.69362 28.3468 "/>
<text xml:space="preserve" transform="matrix(1 0 -0 1 124.569 50.47499)" font-size="4.9813" font-family="CMMI5" font-style="italic"><tspan y="96.35" x="-57.011">P</tspan></text>
<text xml:space="preserve" transform="matrix(1 0 -0 1 124.569 50.47499)" font-size="4.9813" font-family="CMR5"><tspan y="97.844" x="-52.65">6</tspan></text>
<path transform="matrix(1,0,0,-1,14.988998,168.34799)" d="M 57.6899 56.69362 C 57.6899 57.24385 57.24385 57.6899 56.69362 57.6899 C 56.14337 57.6899 55.69734 57.24385 55.69734 56.69362 C 55.69734 56.14337 56.14337 55.69734 56.69362 55.69734 C 57.24385 55.69734 57.6899 56.14337 57.6899 56.69362 Z M 56.69362 56.69362 "/>
<path transform="matrix(1,0,0,-1,14.988998,168.34799)" stroke-width=".19925" stroke-linecap="butt" stroke-miterlimit="10" stroke-linejoin="miter" fill="none" stroke="#000000" d="M 57.6899 56.69362 C 57.6899 57.24385 57.24385 57.6899 56.69362 57.6899 C 56.14337 57.6899 55.69734 57.24385 55.69734 56.69362 C 55.69734 56.14337 56.14337 55.69734 56.69362 55.69734 C 57.24385 55.69734 57.6899 56.14337 57.6899 56.69362 Z M 56.69362 56.69362 "/>
<text xml:space="preserve" transform="matrix(1 0 -0 1 117.025 16.258996)" font-size="4.9813" font-family="CMMI5" font-style="italic"><tspan y="96.35" x="-57.011">P</tspan></text>
<text xml:space="preserve" transform="matrix(1 0 -0 1 117.025 16.258996)" font-size="4.9813" font-family="CMR5"><tspan y="97.844" x="-52.65">7</tspan></text>
<path transform="matrix(1,0,0,-1,14.988998,168.34799)" d="M 57.6899 85.04042 C 57.6899 85.59065 57.24385 86.0367 56.69362 86.0367 C 56.14337 86.0367 55.69734 85.59065 55.69734 85.04042 C 55.69734 84.49019 56.14337 84.04414 56.69362 84.04414 C 57.24385 84.04414 57.6899 84.49019 57.6899 85.04042 Z M 56.69362 85.04042 "/>
<path transform="matrix(1,0,0,-1,14.988998,168.34799)" stroke-width=".19925" stroke-linecap="butt" stroke-miterlimit="10" stroke-linejoin="miter" fill="none" stroke="#000000" d="M 57.6899 85.04042 C 57.6899 85.59065 57.24385 86.0367 56.69362 86.0367 C 56.14337 86.0367 55.69734 85.59065 55.69734 85.04042 C 55.69734 84.49019 56.14337 84.04414 56.69362 84.04414 C 57.24385 84.04414 57.6899 84.49019 57.6899 85.04042 Z M 56.69362 85.04042 "/>
<text xml:space="preserve" transform="matrix(1 0 -0 1 117.025 -12.088005)" font-size="4.9813" font-family="CMMI5" font-style="italic"><tspan y="96.35" x="-57.011">P</tspan></text>
<text xml:space="preserve" transform="matrix(1 0 -0 1 117.025 -12.088005)" font-size="4.9813" font-family="CMR5"><tspan y="97.844" x="-52.65">8</tspan></text>
<path transform="matrix(1,0,0,-1,14.988998,168.34799)" d="M 57.6899 113.38724 C 57.6899 113.93747 57.24385 114.38351 56.69362 114.38351 C 56.14337 114.38351 55.69734 113.93747 55.69734 113.38724 C 55.69734 112.83699 56.14337 112.39096 56.69362 112.39096 C 57.24385 112.39096 57.6899 112.83699 57.6899 113.38724 Z M 56.69362 113.38724 "/>
<path transform="matrix(1,0,0,-1,14.988998,168.34799)" stroke-width=".19925" stroke-linecap="butt" stroke-miterlimit="10" stroke-linejoin="miter" fill="none" stroke="#000000" d="M 57.6899 113.38724 C 57.6899 113.93747 57.24385 114.38351 56.69362 114.38351 C 56.14337 114.38351 55.69734 113.93747 55.69734 113.38724 C 55.69734 112.83699 56.14337 112.39096 56.69362 112.39096 C 57.24385 112.39096 57.6899 112.83699 57.6899 113.38724 Z M 56.69362 113.38724 "/>
<text xml:space="preserve" transform="matrix(1 0 -0 1 124.569 -46.30401)" font-size="4.9813" font-family="CMMI5" font-style="italic"><tspan y="96.35" x="-57.011">P</tspan></text>
<text xml:space="preserve" transform="matrix(1 0 -0 1 124.569 -46.30401)" font-size="4.9813" font-family="CMR5"><tspan y="97.844" x="-52.65">9</tspan></text>
<path transform="matrix(1,0,0,-1,14.988998,168.34799)" d="M 86.0367 28.3468 C 86.0367 28.89703 85.59065 29.34308 85.04042 29.34308 C 84.49019 29.34308 84.04414 28.89703 84.04414 28.3468 C 84.04414 27.79657 84.49019 27.35052 85.04042 27.35052 C 85.59065 27.35052 86.0367 27.79657 86.0367 28.3468 Z M 85.04042 28.3468 "/>
<path transform="matrix(1,0,0,-1,14.988998,168.34799)" stroke-width=".19925" stroke-linecap="butt" stroke-miterlimit="10" stroke-linejoin="miter" fill="none" stroke="#000000" d="M 86.0367 28.3468 C 86.0367 28.89703 85.59065 29.34308 85.04042 29.34308 C 84.49019 29.34308 84.04414 28.89703 84.04414 28.3468 C 84.04414 27.79657 84.49019 27.35052 85.04042 27.35052 C 85.59065 27.35052 86.0367 27.79657 86.0367 28.3468 Z M 85.04042 28.3468 "/>
<text xml:space="preserve" transform="matrix(1 0 -0 1 151.22101 50.47499)" font-size="4.9813" font-family="CMMI5" font-style="italic"><tspan y="96.35" x="-57.011">P</tspan></text>
<text xml:space="preserve" transform="matrix(1 0 -0 1 151.22101 50.47499)" font-size="4.9813" font-family="CMR5"><tspan y="97.844" x="-52.65 -49.26272">10</tspan></text>
<path transform="matrix(1,0,0,-1,14.988998,168.34799)" d="M 86.0367 56.69362 C 86.0367 57.24385 85.59065 57.6899 85.04042 57.6899 C 84.49019 57.6899 84.04414 57.24385 84.04414 56.69362 C 84.04414 56.14337 84.49019 55.69734 85.04042 55.69734 C 85.59065 55.69734 86.0367 56.14337 86.0367 56.69362 Z M 85.04042 56.69362 "/>
<path transform="matrix(1,0,0,-1,14.988998,168.34799)" stroke-width=".19925" stroke-linecap="butt" stroke-miterlimit="10" stroke-linejoin="miter" fill="none" stroke="#000000" d="M 86.0367 56.69362 C 86.0367 57.24385 85.59065 57.6899 85.04042 57.6899 C 84.49019 57.6899 84.04414 57.24385 84.04414 56.69362 C 84.04414 56.14337 84.49019 55.69734 85.04042 55.69734 C 85.59065 55.69734 86.0367 56.14337 86.0367 56.69362 Z M 85.04042 56.69362 "/>
<text xml:space="preserve" transform="matrix(1 0 -0 1 141.981 10.389992)" font-size="4.9813" font-family="CMMI5" font-style="italic"><tspan y="96.35" x="-57.011">P</tspan></text>
<text xml:space="preserve" transform="matrix(1 0 -0 1 141.981 10.389992)" font-size="4.9813" font-family="CMR5"><tspan y="97.844" x="-52.65 -49.26272">11</tspan></text>
<path transform="matrix(1,0,0,-1,14.988998,168.34799)" d="M 86.0367 85.04042 C 86.0367 85.59065 85.59065 86.0367 85.04042 86.0367 C 84.49019 86.0367 84.04414 85.59065 84.04414 85.04042 C 84.04414 84.49019 84.49019 84.04414 85.04042 84.04414 C 85.59065 84.04414 86.0367 84.49019 86.0367 85.04042 Z M 85.04042 85.04042 "/>
<path transform="matrix(1,0,0,-1,14.988998,168.34799)" stroke-width=".19925" stroke-linecap="butt" stroke-miterlimit="10" stroke-linejoin="miter" fill="none" stroke="#000000" d="M 86.0367 85.04042 C 86.0367 85.59065 85.59065 86.0367 85.04042 86.0367 C 84.49019 86.0367 84.04414 85.59065 84.04414 85.04042 C 84.04414 84.49019 84.49019 84.04414 85.04042 84.04414 C 85.59065 84.04414 86.0367 84.49019 86.0367 85.04042 Z M 85.04042 85.04042 "/>
<text xml:space="preserve" transform="matrix(1 0 -0 1 151.22101 -17.957009)" font-size="4.9813" font-family="CMMI5" font-style="italic"><tspan y="96.35" x="-57.011">P</tspan></text>
<text xml:space="preserve" transform="matrix(1 0 -0 1 151.22101 -17.957009)" font-size="4.9813" font-family="CMR5"><tspan y="97.844" x="-52.65 -49.26272">12</tspan></text>
<path transform="matrix(1,0,0,-1,14.988998,168.34799)" d="M 86.0367 113.38724 C 86.0367 113.93747 85.59065 114.38351 85.04042 114.38351 C 84.49019 114.38351 84.04414 113.93747 84.04414 113.38724 C 84.04414 112.83699 84.49019 112.39096 85.04042 112.39096 C 85.59065 112.39096 86.0367 112.83699 86.0367 113.38724 Z M 85.04042 113.38724 "/>
<path transform="matrix(1,0,0,-1,14.988998,168.34799)" stroke-width=".19925" stroke-linecap="butt" stroke-miterlimit="10" stroke-linejoin="miter" fill="none" stroke="#000000" d="M 86.0367 113.38724 C 86.0367 113.93747 85.59065 114.38351 85.04042 114.38351 C 84.49019 114.38351 84.04414 113.93747 84.04414 113.38724 C 84.04414 112.83699 84.49019 112.39096 85.04042 112.39096 C 85.59065 112.39096 86.0367 112.83699 86.0367 113.38724 Z M 85.04042 113.38724 "/>
<text xml:space="preserve" transform="matrix(1 0 -0 1 141.981 -34.56501)" font-size="4.9813" font-family="CMMI5" font-style="italic"><tspan y="96.35" x="-57.011">P</tspan></text>
<text xml:space="preserve" transform="matrix(1 0 -0 1 141.981 -34.56501)" font-size="4.9813" font-family="CMR5"><tspan y="97.844" x="-52.65 -49.26272">13</tspan></text>
<path transform="matrix(1,0,0,-1,14.988998,168.34799)" d="M 114.38351 28.3468 C 114.38351 28.89703 113.93747 29.34308 113.38724 29.34308 C 112.83699 29.34308 112.39096 28.89703 112.39096 28.3468 C 112.39096 27.79657 112.83699 27.35052 113.38724 27.35052 C 113.93747 27.35052 114.38351 27.79657 114.38351 28.3468 Z M 113.38724 28.3468 "/>
<path transform="matrix(1,0,0,-1,14.988998,168.34799)" stroke-width=".19925" stroke-linecap="butt" stroke-miterlimit="10" stroke-linejoin="miter" fill="none" stroke="#000000" d="M 114.38351 28.3468 C 114.38351 28.89703 113.93747 29.34308 113.38724 29.34308 C 112.83699 29.34308 112.39096 28.89703 112.39096 28.3468 C 112.39096 27.79657 112.83699 27.35052 113.38724 27.35052 C 113.93747 27.35052 114.38351 27.79657 114.38351 28.3468 Z M 113.38724 28.3468 "/>
<text xml:space="preserve" transform="matrix(1 0 -0 1 188.807 44.605997)" font-size="4.9813" font-family="CMMI5" font-style="italic"><tspan y="96.35" x="-57.011">P</tspan></text>
<text xml:space="preserve" transform="matrix(1 0 -0 1 188.807 44.605997)" font-size="4.9813" font-family="CMR5"><tspan y="97.844" x="-52.65 -49.26272">14</tspan></text>
<path transform="matrix(1,0,0,-1,14.988998,168.34799)" d="M 114.38351 56.69362 C 114.38351 57.24385 113.93747 57.6899 113.38724 57.6899 C 112.83699 57.6899 112.39096 57.24385 112.39096 56.69362 C 112.39096 56.14337 112.83699 55.69734 113.38724 55.69734 C 113.93747 55.69734 114.38351 56.14337 114.38351 56.69362 Z M 113.38724 56.69362 "/>
<path transform="matrix(1,0,0,-1,14.988998,168.34799)" stroke-width=".19925" stroke-linecap="butt" stroke-miterlimit="10" stroke-linejoin="miter" fill="none" stroke="#000000" d="M 114.38351 56.69362 C 114.38351 57.24385 113.93747 57.6899 113.38724 57.6899 C 112.83699 57.6899 112.39096 57.24385 112.39096 56.69362 C 112.39096 56.14337 112.83699 55.69734 113.38724 55.69734 C 113.93747 55.69734 114.38351 56.14337 114.38351 56.69362 Z M 113.38724 56.69362 "/>
<text xml:space="preserve" transform="matrix(1 0 -0 1 170.328 10.389992)" font-size="4.9813" font-family="CMMI5" font-style="italic"><tspan y="96.35" x="-57.011">P</tspan></text>
<text xml:space="preserve" transform="matrix(1 0 -0 1 170.328 10.389992)" font-size="4.9813" font-family="CMR5"><tspan y="97.844" x="-52.65 -49.26272">15</tspan></text>
<path transform="matrix(1,0,0,-1,14.988998,168.34799)" d="M 114.38351 85.04042 C 114.38351 85.59065 113.93747 86.0367 113.38724 86.0367 C 112.83699 86.0367 112.39096 85.59065 112.39096 85.04042 C 112.39096 84.49019 112.83699 84.04414 113.38724 84.04414 C 113.93747 84.04414 114.38351 84.49019 114.38351 85.04042 Z M 113.38724 85.04042 "/>
<path transform="matrix(1,0,0,-1,14.988998,168.34799)" stroke-width=".19925" stroke-linecap="butt" stroke-miterlimit="10" stroke-linejoin="miter" fill="none" stroke="#000000" d="M 114.38351 85.04042 C 114.38351 85.59065 113.93747 86.0367 113.38724 86.0367 C 112.83699 86.0367 112.39096 85.59065 112.39096 85.04042 C 112.39096 84.49019 112.83699 84.04414 113.38724 84.04414 C 113.93747 84.04414 114.38351 84.49019 114.38351 85.04042 Z M 113.38724 85.04042 "/>
<text xml:space="preserve" transform="matrix(1 0 -0 1 170.328 -6.21801)" font-size="4.9813" font-family="CMMI5" font-style="italic"><tspan y="96.35" x="-57.011">P</tspan></text>
<text xml:space="preserve" transform="matrix(1 0 -0 1 170.328 -6.21801)" font-size="4.9813" font-family="CMR5"><tspan y="97.844" x="-52.65 -49.26272">16</tspan></text>
<path transform="matrix(1,0,0,-1,14.988998,168.34799)" d="M 142.73032 85.04042 C 142.73032 85.59065 142.28427 86.0367 141.73404 86.0367 C 141.1838 86.0367 140.73777 85.59065 140.73777 85.04042 C 140.73777 84.49019 141.1838 84.04414 141.73404 84.04414 C 142.28427 84.04414 142.73032 84.49019 142.73032 85.04042 Z M 141.73404 85.04042 "/>
<path transform="matrix(1,0,0,-1,14.988998,168.34799)" stroke-width=".19925" stroke-linecap="butt" stroke-miterlimit="10" stroke-linejoin="miter" fill="none" stroke="#000000" d="M 142.73032 85.04042 C 142.73032 85.59065 142.28427 86.0367 141.73404 86.0367 C 141.1838 86.0367 140.73777 85.59065 140.73777 85.04042 C 140.73777 84.49019 141.1838 84.04414 141.73404 84.04414 C 142.28427 84.04414 142.73032 84.49019 142.73032 85.04042 Z M 141.73404 85.04042 "/>
<text xml:space="preserve" transform="matrix(1 0 -0 1 217.154 -6.21801)" font-size="4.9813" font-family="CMMI5" font-style="italic"><tspan y="96.35" x="-57.011">P</tspan></text>
<text xml:space="preserve" transform="matrix(1 0 -0 1 217.154 -6.21801)" font-size="4.9813" font-family="CMR5"><tspan y="97.844" x="-52.65 -49.26272">17</tspan></text>
<path transform="matrix(1,0,0,-1,14.988998,168.34799)" d="M 171.07714 85.04042 C 171.07714 85.59065 170.63109 86.0367 170.08086 86.0367 C 169.53061 86.0367 169.08458 85.59065 169.08458 85.04042 C 169.08458 84.49019 169.53061 84.04414 170.08086 84.04414 C 170.63109 84.04414 171.07714 84.49019 171.07714 85.04042 Z M 170.08086 85.04042 "/>
<path transform="matrix(1,0,0,-1,14.988998,168.34799)" stroke-width=".19925" stroke-linecap="butt" stroke-miterlimit="10" stroke-linejoin="miter" fill="none" stroke="#000000" d="M 171.07714 85.04042 C 171.07714 85.59065 170.63109 86.0367 170.08086 86.0367 C 169.53061 86.0367 169.08458 85.59065 169.08458 85.04042 C 169.08458 84.49019 169.53061 84.04414 170.08086 84.04414 C 170.63109 84.04414 171.07714 84.49019 171.07714 85.04042 Z M 170.08086 85.04042 "/>
<text xml:space="preserve" transform="matrix(1 0 -0 1 245.501 -6.21801)" font-size="4.9813" font-family="CMMI5" font-style="italic"><tspan y="96.35" x="-57.011">P</tspan></text>
<text xml:space="preserve" transform="matrix(1 0 -0 1 245.501 -6.21801)" font-size="4.9813" font-family="CMR5"><tspan y="97.844" x="-52.65 -49.26272">18</tspan></text>
<path transform="matrix(1,0,0,-1,14.988998,168.34799)" d="M 171.07714 141.73404 C 171.07714 142.28427 170.63109 142.73032 170.08086 142.73032 C 169.53061 142.73032 169.08458 142.28427 169.08458 141.73404 C 169.08458 141.1838 169.53061 140.73777 170.08086 140.73777 C 170.63109 140.73777 171.07714 141.1838 171.07714 141.73404 Z M 170.08086 141.73404 "/>
<path transform="matrix(1,0,0,-1,14.988998,168.34799)" stroke-width=".19925" stroke-linecap="butt" stroke-miterlimit="10" stroke-linejoin="miter" fill="none" stroke="#000000" d="M 171.07714 141.73404 C 171.07714 142.28427 170.63109 142.73032 170.08086 142.73032 C 169.53061 142.73032 169.08458 142.28427 169.08458 141.73404 C 169.08458 141.1838 169.53061 140.73777 170.08086 140.73777 C 170.63109 140.73777 171.07714 141.1838 171.07714 141.73404 Z M 170.08086 141.73404 "/>
<text xml:space="preserve" transform="matrix(1 0 -0 1 245.501 -74.65101)" font-size="4.9813" font-family="CMMI5" font-style="italic"><tspan y="96.35" x="-57.011">P</tspan></text>
<text xml:space="preserve" transform="matrix(1 0 -0 1 245.501 -74.65101)" font-size="4.9813" font-family="CMR5"><tspan y="97.844" x="-52.65 -49.26272">19</tspan></text>
<path transform="matrix(1,0,0,-1,14.988998,168.34799)" d="M 199.42394 0 C 199.42394 .55023 198.97789 .99628 198.42766 .99628 C 197.87743 .99628 197.43138 .55023 197.43138 0 C 197.43138 -.55023 197.87743 -.99628 198.42766 -.99628 C 198.97789 -.99628 199.42394 -.55023 199.42394 0 Z M 198.42766 0 "/>
<path transform="matrix(1,0,0,-1,14.988998,168.34799)" stroke-width=".19925" stroke-linecap="butt" stroke-miterlimit="10" stroke-linejoin="miter" fill="none" stroke="#000000" d="M 199.42394 0 C 199.42394 .55023 198.97789 .99628 198.42766 .99628 C 197.87743 .99628 197.43138 .55023 197.43138 0 C 197.43138 -.55023 197.87743 -.99628 198.42766 -.99628 C 198.97789 -.99628 199.42394 -.55023 199.42394 0 Z M 198.42766 0 "/>
<text xml:space="preserve" transform="matrix(1 0 -0 1 273.84803 78.82199)" font-size="4.9813" font-family="CMMI5" font-style="italic"><tspan y="96.35" x="-57.011">P</tspan></text>
<text xml:space="preserve" transform="matrix(1 0 -0 1 273.84803 78.82199)" font-size="4.9813" font-family="CMR5"><tspan y="97.844" x="-52.65 -49.26272">20</tspan></text>
<path transform="matrix(1,0,0,-1,14.988998,168.34799)" stroke-width=".3985" stroke-linecap="butt" stroke-miterlimit="10" stroke-linejoin="miter" fill="none" stroke="#000000" d="M 0 0 L 0 141.73404 "/>
<path transform="matrix(1,0,0,-1,14.988998,168.34799)" stroke-width=".3985" stroke-linecap="butt" stroke-miterlimit="10" stroke-linejoin="miter" fill="none" stroke="#000000" d="M 0 0 L 28.3468 28.3468 "/>
<path transform="matrix(1,0,0,-1,14.988998,168.34799)" stroke-width=".3985" stroke-linecap="butt" stroke-miterlimit="10" stroke-linejoin="miter" fill="none" stroke="#000000" d="M 0 0 L 28.3468 56.69362 "/>
<path transform="matrix(1,0,0,-1,14.988998,168.34799)" stroke-width=".3985" stroke-linecap="butt" stroke-miterlimit="10" stroke-linejoin="miter" fill="none" stroke="#000000" d="M 0 0 L 56.69362 28.3468 "/>
<path transform="matrix(1,0,0,-1,14.988998,168.34799)" stroke-width=".3985" stroke-linecap="butt" stroke-miterlimit="10" stroke-linejoin="miter" fill="none" stroke="#000000" d="M 0 0 L 198.42766 0 "/>
<path transform="matrix(1,0,0,-1,14.988998,168.34799)" stroke-width=".3985" stroke-linecap="butt" stroke-miterlimit="10" stroke-linejoin="miter" fill="none" stroke="#000000" d="M 0 141.73404 L 28.3468 56.69362 "/>
<path transform="matrix(1,0,0,-1,14.988998,168.34799)" stroke-width=".3985" stroke-linecap="butt" stroke-miterlimit="10" stroke-linejoin="miter" fill="none" stroke="#000000" d="M 0 141.73404 L 28.3468 113.38724 "/>
<path transform="matrix(1,0,0,-1,14.988998,168.34799)" stroke-width=".3985" stroke-linecap="butt" stroke-miterlimit="10" stroke-linejoin="miter" fill="none" stroke="#000000" d="M 0 141.73404 L 56.69362 113.38724 "/>
<path transform="matrix(1,0,0,-1,14.988998,168.34799)" stroke-width=".3985" stroke-linecap="butt" stroke-miterlimit="10" stroke-linejoin="miter" fill="none" stroke="#000000" d="M 0 141.73404 L 170.08086 141.73404 "/>
<path transform="matrix(1,0,0,-1,14.988998,168.34799)" stroke-width=".3985" stroke-linecap="butt" stroke-miterlimit="10" stroke-linejoin="miter" fill="none" stroke="#000000" d="M 28.3468 28.3468 L 28.3468 56.69362 "/>
<path transform="matrix(1,0,0,-1,14.988998,168.34799)" stroke-width=".3985" stroke-linecap="butt" stroke-miterlimit="10" stroke-linejoin="miter" fill="none" stroke="#000000" d="M 28.3468 28.3468 L 56.69362 28.3468 "/>
<path transform="matrix(1,0,0,-1,14.988998,168.34799)" stroke-width=".3985" stroke-linecap="butt" stroke-miterlimit="10" stroke-linejoin="miter" fill="none" stroke="#000000" d="M 28.3468 28.3468 L 56.69362 56.69362 "/>
<path transform="matrix(1,0,0,-1,14.988998,168.34799)" stroke-width=".3985" stroke-linecap="butt" stroke-miterlimit="10" stroke-linejoin="miter" fill="none" stroke="#000000" d="M 28.3468 28.3468 L 56.69362 85.04042 "/>
<path transform="matrix(1,0,0,-1,14.988998,168.34799)" stroke-width=".3985" stroke-linecap="butt" stroke-miterlimit="10" stroke-linejoin="miter" fill="none" stroke="#000000" d="M 28.3468 56.69362 L 28.3468 113.38724 "/>
<path transform="matrix(1,0,0,-1,14.988998,168.34799)" stroke-width=".3985" stroke-linecap="butt" stroke-miterlimit="10" stroke-linejoin="miter" fill="none" stroke="#000000" d="M 28.3468 56.69362 L 56.69362 85.04042 "/>
<path transform="matrix(1,0,0,-1,14.988998,168.34799)" stroke-width=".3985" stroke-linecap="butt" stroke-miterlimit="10" stroke-linejoin="miter" fill="none" stroke="#000000" d="M 28.3468 113.38724 L 56.69362 85.04042 "/>
<path transform="matrix(1,0,0,-1,14.988998,168.34799)" stroke-width=".3985" stroke-linecap="butt" stroke-miterlimit="10" stroke-linejoin="miter" fill="none" stroke="#000000" d="M 28.3468 113.38724 L 56.69362 113.38724 "/>
<path transform="matrix(1,0,0,-1,14.988998,168.34799)" stroke-width=".3985" stroke-linecap="butt" stroke-miterlimit="10" stroke-linejoin="miter" fill="none" stroke="#000000" d="M 28.3468 113.38724 L 85.04042 85.04042 "/>
<path transform="matrix(1,0,0,-1,14.988998,168.34799)" stroke-width=".3985" stroke-linecap="butt" stroke-miterlimit="10" stroke-linejoin="miter" fill="none" stroke="#000000" d="M 56.69362 28.3468 L 56.69362 56.69362 "/>
<path transform="matrix(1,0,0,-1,14.988998,168.34799)" stroke-width=".3985" stroke-linecap="butt" stroke-miterlimit="10" stroke-linejoin="miter" fill="none" stroke="#000000" d="M 56.69362 28.3468 L 85.04042 28.3468 "/>
<path transform="matrix(1,0,0,-1,14.988998,168.34799)" stroke-width=".3985" stroke-linecap="butt" stroke-miterlimit="10" stroke-linejoin="miter" fill="none" stroke="#000000" d="M 56.69362 28.3468 L 85.04042 56.69362 "/>
<path transform="matrix(1,0,0,-1,14.988998,168.34799)" stroke-width=".3985" stroke-linecap="butt" stroke-miterlimit="10" stroke-linejoin="miter" fill="none" stroke="#000000" d="M 56.69362 56.69362 L 56.69362 85.04042 "/>
<path transform="matrix(1,0,0,-1,14.988998,168.34799)" stroke-width=".3985" stroke-linecap="butt" stroke-miterlimit="10" stroke-linejoin="miter" fill="none" stroke="#000000" d="M 56.69362 56.69362 L 85.04042 56.69362 "/>
<path transform="matrix(1,0,0,-1,14.988998,168.34799)" stroke-width=".3985" stroke-linecap="butt" stroke-miterlimit="10" stroke-linejoin="miter" fill="none" stroke="#000000" d="M 56.69362 56.69362 L 85.04042 85.04042 "/>
<path transform="matrix(1,0,0,-1,14.988998,168.34799)" stroke-width=".3985" stroke-linecap="butt" stroke-miterlimit="10" stroke-linejoin="miter" fill="none" stroke="#000000" d="M 56.69362 85.04042 L 85.04042 85.04042 "/>
<path transform="matrix(1,0,0,-1,14.988998,168.34799)" stroke-width=".3985" stroke-linecap="butt" stroke-miterlimit="10" stroke-linejoin="miter" fill="none" stroke="#000000" d="M 56.69362 113.38724 L 85.04042 113.38724 "/>
<path transform="matrix(1,0,0,-1,14.988998,168.34799)" stroke-width=".3985" stroke-linecap="butt" stroke-miterlimit="10" stroke-linejoin="miter" fill="none" stroke="#000000" d="M 56.69362 113.38724 L 113.38724 85.04042 "/>
<path transform="matrix(1,0,0,-1,14.988998,168.34799)" stroke-width=".3985" stroke-linecap="butt" stroke-miterlimit="10" stroke-linejoin="miter" fill="none" stroke="#000000" d="M 56.69362 113.38724 L 170.08086 141.73404 "/>
<path transform="matrix(1,0,0,-1,14.988998,168.34799)" stroke-width=".3985" stroke-linecap="butt" stroke-miterlimit="10" stroke-linejoin="miter" fill="none" stroke="#000000" d="M 85.04042 28.3468 L 85.04042 56.69362 "/>
<path transform="matrix(1,0,0,-1,14.988998,168.34799)" stroke-width=".3985" stroke-linecap="butt" stroke-miterlimit="10" stroke-linejoin="miter" fill="none" stroke="#000000" d="M 85.04042 28.3468 L 113.38724 28.3468 "/>
<path transform="matrix(1,0,0,-1,14.988998,168.34799)" stroke-width=".3985" stroke-linecap="butt" stroke-miterlimit="10" stroke-linejoin="miter" fill="none" stroke="#000000" d="M 85.04042 28.3468 L 113.38724 56.69362 "/>
<path transform="matrix(1,0,0,-1,14.988998,168.34799)" stroke-width=".3985" stroke-linecap="butt" stroke-miterlimit="10" stroke-linejoin="miter" fill="none" stroke="#000000" d="M 85.04042 28.3468 L 198.42766 0 "/>
<path transform="matrix(1,0,0,-1,14.988998,168.34799)" stroke-width=".3985" stroke-linecap="butt" stroke-miterlimit="10" stroke-linejoin="miter" fill="none" stroke="#000000" d="M 85.04042 56.69362 L 85.04042 85.04042 "/>
<path transform="matrix(1,0,0,-1,14.988998,168.34799)" stroke-width=".3985" stroke-linecap="butt" stroke-miterlimit="10" stroke-linejoin="miter" fill="none" stroke="#000000" d="M 85.04042 56.69362 L 113.38724 56.69362 "/>
<path transform="matrix(1,0,0,-1,14.988998,168.34799)" stroke-width=".3985" stroke-linecap="butt" stroke-miterlimit="10" stroke-linejoin="miter" fill="none" stroke="#000000" d="M 85.04042 85.04042 L 113.38724 85.04042 "/>
<path transform="matrix(1,0,0,-1,14.988998,168.34799)" stroke-width=".3985" stroke-linecap="butt" stroke-miterlimit="10" stroke-linejoin="miter" fill="none" stroke="#000000" d="M 85.04042 113.38724 L 113.38724 85.04042 "/>
<path transform="matrix(1,0,0,-1,14.988998,168.34799)" stroke-width=".3985" stroke-linecap="butt" stroke-miterlimit="10" stroke-linejoin="miter" fill="none" stroke="#000000" d="M 85.04042 113.38724 L 141.73404 85.04042 "/>
<path transform="matrix(1,0,0,-1,14.988998,168.34799)" stroke-width=".3985" stroke-linecap="butt" stroke-miterlimit="10" stroke-linejoin="miter" fill="none" stroke="#000000" d="M 85.04042 113.38724 L 170.08086 85.04042 "/>
<path transform="matrix(1,0,0,-1,14.988998,168.34799)" stroke-width=".3985" stroke-linecap="butt" stroke-miterlimit="10" stroke-linejoin="miter" fill="none" stroke="#000000" d="M 85.04042 113.38724 L 170.08086 141.73404 "/>
<path transform="matrix(1,0,0,-1,14.988998,168.34799)" stroke-width=".3985" stroke-linecap="butt" stroke-miterlimit="10" stroke-linejoin="miter" fill="none" stroke="#000000" d="M 113.38724 28.3468 L 113.38724 56.69362 "/>
<path transform="matrix(1,0,0,-1,14.988998,168.34799)" stroke-width=".3985" stroke-linecap="butt" stroke-miterlimit="10" stroke-linejoin="miter" fill="none" stroke="#000000" d="M 113.38724 28.3468 L 141.73404 85.04042 "/>
<path transform="matrix(1,0,0,-1,14.988998,168.34799)" stroke-width=".3985" stroke-linecap="butt" stroke-miterlimit="10" stroke-linejoin="miter" fill="none" stroke="#000000" d="M 113.38724 28.3468 L 170.08086 85.04042 "/>
<path transform="matrix(1,0,0,-1,14.988998,168.34799)" stroke-width=".3985" stroke-linecap="butt" stroke-miterlimit="10" stroke-linejoin="miter" fill="none" stroke="#000000" d="M 113.38724 28.3468 L 198.42766 0 "/>
<path transform="matrix(1,0,0,-1,14.988998,168.34799)" stroke-width=".3985" stroke-linecap="butt" stroke-miterlimit="10" stroke-linejoin="miter" fill="none" stroke="#000000" d="M 113.38724 56.69362 L 113.38724 85.04042 "/>
<path transform="matrix(1,0,0,-1,14.988998,168.34799)" stroke-width=".3985" stroke-linecap="butt" stroke-miterlimit="10" stroke-linejoin="miter" fill="none" stroke="#000000" d="M 113.38724 56.69362 L 141.73404 85.04042 "/>
<path transform="matrix(1,0,0,-1,14.988998,168.34799)" stroke-width=".3985" stroke-linecap="butt" stroke-miterlimit="10" stroke-linejoin="miter" fill="none" stroke="#000000" d="M 113.38724 85.04042 L 141.73404 85.04042 "/>
<path transform="matrix(1,0,0,-1,14.988998,168.34799)" stroke-width=".3985" stroke-linecap="butt" stroke-miterlimit="10" stroke-linejoin="miter" fill="none" stroke="#000000" d="M 141.73404 85.04042 L 170.08086 85.04042 "/>
<path transform="matrix(1,0,0,-1,14.988998,168.34799)" stroke-width=".3985" stroke-linecap="butt" stroke-miterlimit="10" stroke-linejoin="miter" fill="none" stroke="#000000" d="M 170.08086 85.04042 L 170.08086 141.73404 "/>
<path transform="matrix(1,0,0,-1,14.988998,168.34799)" stroke-width=".3985" stroke-linecap="butt" stroke-miterlimit="10" stroke-linejoin="miter" fill="none" stroke="#000000" d="M 170.08086 85.04042 L 198.42766 0 "/>
<path transform="matrix(1,0,0,-1,14.988998,168.34799)" stroke-width=".3985" stroke-linecap="butt" stroke-miterlimit="10" stroke-linejoin="miter" fill="none" stroke="#000000" d="M 170.08086 141.73404 L 198.42766 0 "/>
</g>
</svg>
