<?xml version="1.0" encoding="UTF-8" standalone="no"?>
<!DOCTYPE svg PUBLIC "-//W3C//DTD SVG 1.1//EN" "http://www.w3.org/Graphics/SVG/1.1/DTD/svg11.dtd">
<svg xmlns="http://www.w3.org/2000/svg" xmlns:xlink="http://www.w3.org/1999/xlink" version="1.1" width="211.3pt" height="182.72pt" viewBox="0 0 211.3 182.72">
<g enable-background="new">
<path transform="matrix(1,0,0,-1,14.988998,168.34799)" stroke-width=".19925" stroke-linecap="butt" stroke-miterlimit="10" stroke-linejoin="miter" fill="none" stroke="#929292" d="M 28.3468 -14.17339 L 28.3468 155.90744 "/>
<path transform="matrix(1,0,0,-1,14.988998,168.34799)" stroke-width=".19925" stroke-linecap="butt" stroke-miterlimit="10" stroke-linejoin="miter" fill="none" stroke="#929292" d="M 56.69362 -14.17339 L 56.69362 155.90744 "/>
<path transform="matrix(1,0,0,-1,14.988998,168.34799)" stroke-width=".19925" stroke-linecap="butt" stroke-miterlimit="10" stroke-linejoin="miter" fill="none" stroke="#929292" d="M 85.04042 -14.17339 L 85.04042 155.90744 "/>
<path transform="matrix(1,0,0,-1,14.988998,168.34799)" stroke-width=".19925" stroke-linecap="butt" stroke-miterlimit="10" stroke-linejoin="miter" fill="none" stroke="#929292" d="M 113.38724 -14.17339 L 113.38724 155.90744 "/>
<path transform="matrix(1,0,0,-1,14.988998,168.34799)" stroke-width=".19925" stroke-linecap="butt" stroke-miterlimit="10" stroke-linejoin="miter" fill="none" stroke="#929292" d="M 141.73404 -14.17339 L 141.73404 155.90744 "/>
<path transform="matrix(1,0,0,-1,14.988998,168.34799)" stroke-width=".19925" stroke-linecap="butt" stroke-miterlimit="10" stroke-linejoin="miter" fill="none" stroke="#929292" d="M 170.08086 -14.17339 L 170.08086 155.90744 "/>
<path transform="matrix(1,0,0,-1,14.988998,168.34799)" stroke-width=".19925" stroke-linecap="butt" stroke-miterlimit="10" stroke-linejoin="miter" fill="none" stroke="#929292" d="M -14.17339 28.3468 L 184.25424 28.3468 "/>
<path transform="matrix(1,0,0,-1,14.988998,168.34799)" stroke-width=".19925" stroke-linecap="butt" stroke-miterlimit="10" stroke-linejoin="miter" fill="none" stroke="#929292" d="M -14.17339 56.69362 L 184.25424 56.69362 "/>
<path transform="matrix(1,0,0,-1,14.988998,168.34799)" stroke-width=".19925" stroke-linecap="butt" stroke-miterlimit="10" stroke-linejoin="miter" fill="none" stroke="#929292" d="M -14.17339 85.04042 L 184.25424 85.04042 "/>
<path transform="matrix(1,0,0,-1,14.988998,168.34799)" stroke-width=".19925" stroke-linecap="butt" stroke-miterlimit="10" stroke-linejoin="miter" fill="none" stroke="#929292" d="M -14.17339 113.38724 L 184.25424 113.38724 "/>
<path transform="matrix(1,0,0,-1,14.988998,168.34799)" stroke-width=".19925" stroke-linecap="butt" stroke-miterlimit="10" stroke-linejoin="miter" fill="none" stroke="#929292" d="M -14.17339 141.73404 L 184.25424 141.73404 "/>
<path transform="matrix(1,0,0,-1,14.988998,168.34799)" stroke-width=".3985" stroke-linecap="butt" stroke-miterlimit="10" stroke-linejoin="miter" fill="none" stroke="#000000" d="M -14.17339 0 L 182.26172 0 "/>
<path transform="matrix(1,0,0,-1,197.25072,168.34799)" d="M 1.99252 0 L -1.19551 1.59401 L 0 0 L -1.19551 -1.59401 "/>
<text xml:space="preserve" transform="matrix(1 0 -0 1 259.774 73.92799)" font-size="8.9664" font-family="CMMI9" font-style="italic"><tspan y="96.35" x="-57.011">x</tspan></text>
<path transform="matrix(1,0,0,-1,14.988998,168.34799)" stroke-width=".3985" stroke-linecap="butt" stroke-miterlimit="10" stroke-linejoin="miter" fill="none" stroke="#000000" d="M 0 -14.17339 L 0 153.91492 "/>
<path transform="matrix(0,-1,-1,-0,14.988998,14.433075)" d="M 1.99252 0 L -1.19551 1.59401 L 0 0 L -1.19551 -1.59401 "/>
<text xml:space="preserve" transform="matrix(1 0 -0 1 69.57 -89.17301)" font-size="8.9664" font-family="CMMI9" font-style="italic"><tspan y="96.35" x="-57.011">y</tspan></text>
<path transform="matrix(1,0,0,-1,14.988998,168.34799)" d="M .99628 0 C .99628 .55023 .55023 .99628 0 .99628 C -.55023 .99628 -.99628 .55023 -.99628 0 C -.99628 -.55023 -.55023 -.99628 0 -.99628 C .55023 -.99628 .99628 -.55023 .99628 0 Z M 0 0 "/>
<path transform="matrix(1,0,0,-1,14.988998,168.34799)" stroke-width=".19925" stroke-linecap="butt" stroke-miterlimit="10" stroke-linejoin="miter" fill="none" stroke="#000000" d="M .99628 0 C .99628 .55023 .55023 .99628 0 .99628 C -.55023 .99628 -.99628 .55023 -.99628 0 C -.99628 -.55023 -.55023 -.99628 0 -.99628 C .55023 -.99628 .99628 -.55023 .99628 0 Z M 0 0 "/>
<text xml:space="preserve" transform="matrix(1 0 -0 1 60.331 78.82199)" font-size="4.9813" font-family="CMMI5" font-style="italic"><tspan y="96.35" x="-57.011">P</tspan></text>
<text xml:space="preserve" transform="matrix(1 0 -0 1 60.331 78.82199)" font-size="4.9813" font-family="CMR5"><tspan y="97.844" x="-52.65">1</tspan></text>
<path transform="matrix(1,0,0,-1,14.988998,168.34799)" d="M 57.6899 56.69362 C 57.6899 57.24385 57.24385 57.6899 56.69362 57.6899 C 56.14337 57.6899 55.69734 57.24385 55.69734 56.69362 C 55.69734 56.14337 56.14337 55.69734 56.69362 55.69734 C 57.24385 55.69734 57.6899 56.14337 57.6899 56.69362 Z M 56.69362 56.69362 "/>
<path transform="matrix(1,0,0,-1,14.988998,168.34799)" stroke-width=".19925" stroke-linecap="butt" stroke-miterlimit="10" stroke-linejoin="miter" fill="none" stroke="#000000" d="M 57.6899 56.69362 C 57.6899 57.24385 57.24385 57.6899 56.69362 57.6899 C 56.14337 57.6899 55.69734 57.24385 55.69734 56.69362 C 55.69734 56.14337 56.14337 55.69734 56.69362 55.69734 C 57.24385 55.69734 57.6899 56.14337 57.6899 56.69362 Z M 56.69362 56.69362 "/>
<text xml:space="preserve" transform="matrix(1 0 -0 1 124.569 22.128994)" font-size="4.9813" font-family="CMMI5" font-style="italic"><tspan y="96.35" x="-57.011">P</tspan></text>
<text xml:space="preserve" transform="matrix(1 0 -0 1 124.569 22.128994)" font-size="4.9813" font-family="CMR5"><tspan y="97.844" x="-52.65">2</tspan></text>
<path transform="matrix(1,0,0,-1,14.988998,168.34799)" d="M 86.0367 28.3468 C 86.0367 28.89703 85.59065 29.34308 85.04042 29.34308 C 84.49019 29.34308 84.04414 28.89703 84.04414 28.3468 C 84.04414 27.79657 84.49019 27.35052 85.04042 27.35052 C 85.59065 27.35052 86.0367 27.79657 86.0367 28.3468 Z M 85.04042 28.3468 "/>
<path transform="matrix(1,0,0,-1,14.988998,168.34799)" stroke-width=".19925" stroke-linecap="butt" stroke-miterlimit="10" stroke-linejoin="miter" fill="none" stroke="#000000" d="M 86.0367 28.3468 C 86.0367 28.89703 85.59065 29.34308 85.04042 29.34308 C 84.49019 29.34308 84.04414 28.89703 84.04414 28.3468 C 84.04414 27.79657 84.49019 27.35052 85.04042 27.35052 C 85.59065 27.35052 86.0367 27.79657 86.0367 28.3468 Z M 85.04042 28.3468 "/>
<text xml:space="preserve" transform="matrix(1 0 -0 1 145.371 50.47499)" font-size="4.9813" font-family="CMMI5" font-style="italic"><tspan y="96.35" x="-57.011">P</tspan></text>
<text xml:space="preserve" transform="matrix(1 0 -0 1 145.371 50.47499)" font-size="4.9813" font-family="CMR5"><tspan y="97.844" x="-52.65">3</tspan></text>
<path transform="matrix(1,0,0,-1,14.988998,168.34799)" d="M 86.0367 56.69362 C 86.0367 57.24385 85.59065 57.6899 85.04042 57.6899 C 84.49019 57.6899 84.04414 57.24385 84.04414 56.69362 C 84.04414 56.14337 84.49019 55.69734 85.04042 55.69734 C 85.59065 55.69734 86.0367 56.14337 86.0367 56.69362 Z M 85.04042 56.69362 "/>
<path transform="matrix(1,0,0,-1,14.988998,168.34799)" stroke-width=".19925" stroke-linecap="butt" stroke-miterlimit="10" stroke-linejoin="miter" fill="none" stroke="#000000" d="M 86.0367 56.69362 C 86.0367 57.24385 85.59065 57.6899 85.04042 57.6899 C 84.49019 57.6899 84.04414 57.24385 84.04414 56.69362 C 84.04414 56.14337 84.49019 55.69734 85.04042 55.69734 C 85.59065 55.69734 86.0367 56.14337 86.0367 56.69362 Z M 85.04042 56.69362 "/>
<text xml:space="preserve" transform="matrix(1 0 -0 1 145.371 22.128994)" font-size="4.9813" font-family="CMMI5" font-style="italic"><tspan y="96.35" x="-57.011">P</tspan></text>
<text xml:space="preserve" transform="matrix(1 0 -0 1 145.371 22.128994)" font-size="4.9813" font-family="CMR5"><tspan y="97.844" x="-52.65">4</tspan></text>
<path transform="matrix(1,0,0,-1,14.988998,168.34799)" d="M 86.0367 85.04042 C 86.0367 85.59065 85.59065 86.0367 85.04042 86.0367 C 84.49019 86.0367 84.04414 85.59065 84.04414 85.04042 C 84.04414 84.49019 84.49019 84.04414 85.04042 84.04414 C 85.59065 84.04414 86.0367 84.49019 86.0367 85.04042 Z M 85.04042 85.04042 "/>
<path transform="matrix(1,0,0,-1,14.988998,168.34799)" stroke-width=".19925" stroke-linecap="butt" stroke-miterlimit="10" stroke-linejoin="miter" fill="none" stroke="#000000" d="M 86.0367 85.04042 C 86.0367 85.59065 85.59065 86.0367 85.04042 86.0367 C 84.49019 86.0367 84.04414 85.59065 84.04414 85.04042 C 84.04414 84.49019 84.49019 84.04414 85.04042 84.04414 C 85.59065 84.04414 86.0367 84.49019 86.0367 85.04042 Z M 85.04042 85.04042 "/>
<text xml:space="preserve" transform="matrix(1 0 -0 1 160.461 -6.21801)" font-size="4.9813" font-family="CMMI5" font-style="italic"><tspan y="96.35" x="-57.011">P</tspan></text>
<text xml:space="preserve" transform="matrix(1 0 -0 1 160.461 -6.21801)" font-size="4.9813" font-family="CMR5"><tspan y="97.844" x="-52.65">5</tspan></text>
<path transform="matrix(1,0,0,-1,14.988998,168.34799)" d="M 114.38351 28.3468 C 114.38351 28.89703 113.93747 29.34308 113.38724 29.34308 C 112.83699 29.34308 112.39096 28.89703 112.39096 28.3468 C 112.39096 27.79657 112.83699 27.35052 113.38724 27.35052 C 113.93747 27.35052 114.38351 27.79657 114.38351 28.3468 Z M 113.38724 28.3468 "/>
<path transform="matrix(1,0,0,-1,14.988998,168.34799)" stroke-width=".19925" stroke-linecap="butt" stroke-miterlimit="10" stroke-linejoin="miter" fill="none" stroke="#000000" d="M 114.38351 28.3468 C 114.38351 28.89703 113.93747 29.34308 113.38724 29.34308 C 112.83699 29.34308 112.39096 28.89703 112.39096 28.3468 C 112.39096 27.79657 112.83699 27.35052 113.38724 27.35052 C 113.93747 27.35052 114.38351 27.79657 114.38351 28.3468 Z M 113.38724 28.3468 "/>
<text xml:space="preserve" transform="matrix(1 0 -0 1 181.263 50.47499)" font-size="4.9813" font-family="CMMI5" font-style="italic"><tspan y="96.35" x="-57.011">P</tspan></text>
<text xml:space="preserve" transform="matrix(1 0 -0 1 181.263 50.47499)" font-size="4.9813" font-family="CMR5"><tspan y="97.844" x="-52.65">6</tspan></text>
<path transform="matrix(1,0,0,-1,14.988998,168.34799)" d="M 114.38351 56.69362 C 114.38351 57.24385 113.93747 57.6899 113.38724 57.6899 C 112.83699 57.6899 112.39096 57.24385 112.39096 56.69362 C 112.39096 56.14337 112.83699 55.69734 113.38724 55.69734 C 113.93747 55.69734 114.38351 56.14337 114.38351 56.69362 Z M 113.38724 56.69362 "/>
<path transform="matrix(1,0,0,-1,14.988998,168.34799)" stroke-width=".19925" stroke-linecap="butt" stroke-miterlimit="10" stroke-linejoin="miter" fill="none" stroke="#000000" d="M 114.38351 56.69362 C 114.38351 57.24385 113.93747 57.6899 113.38724 57.6899 C 112.83699 57.6899 112.39096 57.24385 112.39096 56.69362 C 112.39096 56.14337 112.83699 55.69734 113.38724 55.69734 C 113.93747 55.69734 114.38351 56.14337 114.38351 56.69362 Z M 113.38724 56.69362 "/>
<text xml:space="preserve" transform="matrix(1 0 -0 1 173.718 10.389992)" font-size="4.9813" font-family="CMMI5" font-style="italic"><tspan y="96.35" x="-57.011">P</tspan></text>
<text xml:space="preserve" transform="matrix(1 0 -0 1 173.718 10.389992)" font-size="4.9813" font-family="CMR5"><tspan y="97.844" x="-52.65">7</tspan></text>
<path transform="matrix(1,0,0,-1,14.988998,168.34799)" d="M 114.38351 85.04042 C 114.38351 85.59065 113.93747 86.0367 113.38724 86.0367 C 112.83699 86.0367 112.39096 85.59065 112.39096 85.04042 C 112.39096 84.49019 112.83699 84.04414 113.38724 84.04414 C 113.93747 84.04414 114.38351 84.49019 114.38351 85.04042 Z M 113.38724 85.04042 "/>
<path transform="matrix(1,0,0,-1,14.988998,168.34799)" stroke-width=".19925" stroke-linecap="butt" stroke-miterlimit="10" stroke-linejoin="miter" fill="none" stroke="#000000" d="M 114.38351 85.04042 C 114.38351 85.59065 113.93747 86.0367 113.38724 86.0367 C 112.83699 86.0367 112.39096 85.59065 112.39096 85.04042 C 112.39096 84.49019 112.83699 84.04414 113.38724 84.04414 C 113.93747 84.04414 114.38351 84.49019 114.38351 85.04042 Z M 113.38724 85.04042 "/>
<text xml:space="preserve" transform="matrix(1 0 -0 1 173.718 -17.957009)" font-size="4.9813" font-family="CMMI5" font-style="italic"><tspan y="96.35" x="-57.011">P</tspan></text>
<text xml:space="preserve" transform="matrix(1 0 -0 1 173.718 -17.957009)" font-size="4.9813" font-family="CMR5"><tspan y="97.844" x="-52.65">8</tspan></text>
<path transform="matrix(1,0,0,-1,14.988998,168.34799)" d="M 114.38351 113.38724 C 114.38351 113.93747 113.93747 114.38351 113.38724 114.38351 C 112.83699 114.38351 112.39096 113.93747 112.39096 113.38724 C 112.39096 112.83699 112.83699 112.39096 113.38724 112.39096 C 113.93747 112.39096 114.38351 112.83699 114.38351 113.38724 Z M 113.38724 113.38724 "/>
<path transform="matrix(1,0,0,-1,14.988998,168.34799)" stroke-width=".19925" stroke-linecap="butt" stroke-miterlimit="10" stroke-linejoin="miter" fill="none" stroke="#000000" d="M 114.38351 113.38724 C 114.38351 113.93747 113.93747 114.38351 113.38724 114.38351 C 112.83699 114.38351 112.39096 113.93747 112.39096 113.38724 C 112.39096 112.83699 112.83699 112.39096 113.38724 112.39096 C 113.93747 112.39096 114.38351 112.83699 114.38351 113.38724 Z M 113.38724 113.38724 "/>
<text xml:space="preserve" transform="matrix(1 0 -0 1 173.718 -46.30401)" font-size="4.9813" font-family="CMMI5" font-style="italic"><tspan y="96.35" x="-57.011">P</tspan></text>
<text xml:space="preserve" transform="matrix(1 0 -0 1 173.718 -46.30401)" font-size="4.9813" font-family="CMR5"><tspan y="97.844" x="-52.65">9</tspan></text>
<path transform="matrix(1,0,0,-1,14.988998,168.34799)" d="M 114.38351 141.73404 C 114.38351 142.28427 113.93747 142.73032 113.38724 142.73032 C 112.83699 142.73032 112.39096 142.28427 112.39096 141.73404 C 112.39096 141.1838 112.83699 140.73777 113.38724 140.73777 C 113.93747 140.73777 114.38351 141.1838 114.38351 141.73404 Z M 113.38724 141.73404 "/>
<path transform="matrix(1,0,0,-1,14.988998,168.34799)" stroke-width=".19925" stroke-linecap="butt" stroke-miterlimit="10" stroke-linejoin="miter" fill="none" stroke="#000000" d="M 114.38351 141.73404 C 114.38351 142.28427 113.93747 142.73032 113.38724 142.73032 C 112.83699 142.73032 112.39096 142.28427 112.39096 141.73404 C 112.39096 141.1838 112.83699 140.73777 113.38724 140.73777 C 113.93747 140.73777 114.38351 141.1838 114.38351 141.73404 Z M 113.38724 141.73404 "/>
<text xml:space="preserve" transform="matrix(1 0 -0 1 179.568 -74.65101)" font-size="4.9813" font-family="CMMI5" font-style="italic"><tspan y="96.35" x="-57.011">P</tspan></text>
<text xml:space="preserve" transform="matrix(1 0 -0 1 179.568 -74.65101)" font-size="4.9813" font-family="CMR5"><tspan y="97.844" x="-52.65 -49.26272">10</tspan></text>
<path transform="matrix(1,0,0,-1,14.988998,168.34799)" d="M 142.73032 28.3468 C 142.73032 28.89703 142.28427 29.34308 141.73404 29.34308 C 141.1838 29.34308 140.73777 28.89703 140.73777 28.3468 C 140.73777 27.79657 141.1838 27.35052 141.73404 27.35052 C 142.28427 27.35052 142.73032 27.79657 142.73032 28.3468 Z M 141.73404 28.3468 "/>
<path transform="matrix(1,0,0,-1,14.988998,168.34799)" stroke-width=".19925" stroke-linecap="butt" stroke-miterlimit="10" stroke-linejoin="miter" fill="none" stroke="#000000" d="M 142.73032 28.3468 C 142.73032 28.89703 142.28427 29.34308 141.73404 29.34308 C 141.1838 29.34308 140.73777 28.89703 140.73777 28.3468 C 140.73777 27.79657 141.1838 27.35052 141.73404 27.35052 C 142.28427 27.35052 142.73032 27.79657 142.73032 28.3468 Z M 141.73404 28.3468 "/>
<text xml:space="preserve" transform="matrix(1 0 -0 1 217.154 38.73699)" font-size="4.9813" font-family="CMMI5" font-style="italic"><tspan y="96.35" x="-57.011">P</tspan></text>
<text xml:space="preserve" transform="matrix(1 0 -0 1 217.154 38.73699)" font-size="4.9813" font-family="CMR5"><tspan y="97.844" x="-52.65 -49.26272">11</tspan></text>
<path transform="matrix(1,0,0,-1,14.988998,168.34799)" d="M 171.07714 0 C 171.07714 .55023 170.63109 .99628 170.08086 .99628 C 169.53061 .99628 169.08458 .55023 169.08458 0 C 169.08458 -.55023 169.53061 -.99628 170.08086 -.99628 C 170.63109 -.99628 171.07714 -.55023 171.07714 0 Z M 170.08086 0 "/>
<path transform="matrix(1,0,0,-1,14.988998,168.34799)" stroke-width=".19925" stroke-linecap="butt" stroke-miterlimit="10" stroke-linejoin="miter" fill="none" stroke="#000000" d="M 171.07714 0 C 171.07714 .55023 170.63109 .99628 170.08086 .99628 C 169.53061 .99628 169.08458 .55023 169.08458 0 C 169.08458 -.55023 169.53061 -.99628 170.08086 -.99628 C 170.63109 -.99628 171.07714 -.55023 171.07714 0 Z M 170.08086 0 "/>
<text xml:space="preserve" transform="matrix(1 0 -0 1 245.501 78.82199)" font-size="4.9813" font-family="CMMI5" font-style="italic"><tspan y="96.35" x="-57.011">P</tspan></text>
<text xml:space="preserve" transform="matrix(1 0 -0 1 245.501 78.82199)" font-size="4.9813" font-family="CMR5"><tspan y="97.844" x="-52.65 -49.26272">12</tspan></text>
<path transform="matrix(1,0,0,-1,14.988998,168.34799)" stroke-width=".3985" stroke-linecap="butt" stroke-miterlimit="10" stroke-linejoin="miter" fill="none" stroke="#000000" d="M 0 0 L 56.69362 56.69362 "/>
<path transform="matrix(1,0,0,-1,14.988998,168.34799)" stroke-width=".3985" stroke-linecap="butt" stroke-miterlimit="10" stroke-linejoin="miter" fill="none" stroke="#000000" d="M 0 0 L 85.04042 28.3468 "/>
<path transform="matrix(1,0,0,-1,14.988998,168.34799)" stroke-width=".3985" stroke-linecap="butt" stroke-miterlimit="10" stroke-linejoin="miter" fill="none" stroke="#000000" d="M 0 0 L 113.38724 28.3468 "/>
<path transform="matrix(1,0,0,-1,14.988998,168.34799)" stroke-width=".3985" stroke-linecap="butt" stroke-miterlimit="10" stroke-linejoin="miter" fill="none" stroke="#000000" d="M 0 0 L 113.38724 141.73404 "/>
<path transform="matrix(1,0,0,-1,14.988998,168.34799)" stroke-width=".3985" stroke-linecap="butt" stroke-miterlimit="10" stroke-linejoin="miter" fill="none" stroke="#000000" d="M 0 0 L 170.08086 0 "/>
<path transform="matrix(1,0,0,-1,14.988998,168.34799)" stroke-width=".3985" stroke-linecap="butt" stroke-miterlimit="10" stroke-linejoin="miter" fill="none" stroke="#000000" d="M 56.69362 56.69362 L 85.04042 28.3468 "/>
<path transform="matrix(1,0,0,-1,14.988998,168.34799)" stroke-width=".3985" stroke-linecap="butt" stroke-miterlimit="10" stroke-linejoin="miter" fill="none" stroke="#000000" d="M 56.69362 56.69362 L 85.04042 56.69362 "/>
<path transform="matrix(1,0,0,-1,14.988998,168.34799)" stroke-width=".3985" stroke-linecap="butt" stroke-miterlimit="10" stroke-linejoin="miter" fill="none" stroke="#000000" d="M 56.69362 56.69362 L 85.04042 85.04042 "/>
<path transform="matrix(1,0,0,-1,14.988998,168.34799)" stroke-width=".3985" stroke-linecap="butt" stroke-miterlimit="10" stroke-linejoin="miter" fill="none" stroke="#000000" d="M 56.69362 56.69362 L 113.38724 141.73404 "/>
<path transform="matrix(1,0,0,-1,14.988998,168.34799)" stroke-width=".3985" stroke-linecap="butt" stroke-miterlimit="10" stroke-linejoin="miter" fill="none" stroke="#000000" d="M 85.04042 28.3468 L 85.04042 56.69362 "/>
<path transform="matrix(1,0,0,-1,14.988998,168.34799)" stroke-width=".3985" stroke-linecap="butt" stroke-miterlimit="10" stroke-linejoin="miter" fill="none" stroke="#000000" d="M 85.04042 28.3468 L 113.38724 28.3468 "/>
<path transform="matrix(1,0,0,-1,14.988998,168.34799)" stroke-width=".3985" stroke-linecap="butt" stroke-miterlimit="10" stroke-linejoin="miter" fill="none" stroke="#000000" d="M 85.04042 28.3468 L 113.38724 56.69362 "/>
<path transform="matrix(1,0,0,-1,14.988998,168.34799)" stroke-width=".3985" stroke-linecap="butt" stroke-miterlimit="10" stroke-linejoin="miter" fill="none" stroke="#000000" d="M 85.04042 56.69362 L 85.04042 85.04042 "/>
<path transform="matrix(1,0,0,-1,14.988998,168.34799)" stroke-width=".3985" stroke-linecap="butt" stroke-miterlimit="10" stroke-linejoin="miter" fill="none" stroke="#000000" d="M 85.04042 56.69362 L 113.38724 56.69362 "/>
<path transform="matrix(1,0,0,-1,14.988998,168.34799)" stroke-width=".3985" stroke-linecap="butt" stroke-miterlimit="10" stroke-linejoin="miter" fill="none" stroke="#000000" d="M 85.04042 56.69362 L 113.38724 85.04042 "/>
<path transform="matrix(1,0,0,-1,14.988998,168.34799)" stroke-width=".3985" stroke-linecap="butt" stroke-miterlimit="10" stroke-linejoin="miter" fill="none" stroke="#000000" d="M 85.04042 85.04042 L 113.38724 85.04042 "/>
<path transform="matrix(1,0,0,-1,14.988998,168.34799)" stroke-width=".3985" stroke-linecap="butt" stroke-miterlimit="10" stroke-linejoin="miter" fill="none" stroke="#000000" d="M 85.04042 85.04042 L 113.38724 113.38724 "/>
<path transform="matrix(1,0,0,-1,14.988998,168.34799)" stroke-width=".3985" stroke-linecap="butt" stroke-miterlimit="10" stroke-linejoin="miter" fill="none" stroke="#000000" d="M 85.04042 85.04042 L 113.38724 141.73404 "/>
<path transform="matrix(1,0,0,-1,14.988998,168.34799)" stroke-width=".3985" stroke-linecap="butt" stroke-miterlimit="10" stroke-linejoin="miter" fill="none" stroke="#000000" d="M 113.38724 28.3468 L 113.38724 56.69362 "/>
<path transform="matrix(1,0,0,-1,14.988998,168.34799)" stroke-width=".3985" stroke-linecap="butt" stroke-miterlimit="10" stroke-linejoin="miter" fill="none" stroke="#000000" d="M 113.38724 28.3468 L 141.73404 28.3468 "/>
<path transform="matrix(1,0,0,-1,14.988998,168.34799)" stroke-width=".3985" stroke-linecap="butt" stroke-miterlimit="10" stroke-linejoin="miter" fill="none" stroke="#000000" d="M 113.38724 28.3468 L 170.08086 0 "/>
<path transform="matrix(1,0,0,-1,14.988998,168.34799)" stroke-width=".3985" stroke-linecap="butt" stroke-miterlimit="10" stroke-linejoin="miter" fill="none" stroke="#000000" d="M 113.38724 56.69362 L 113.38724 85.04042 "/>
<path transform="matrix(1,0,0,-1,14.988998,168.34799)" stroke-width=".3985" stroke-linecap="butt" stroke-miterlimit="10" stroke-linejoin="miter" fill="none" stroke="#000000" d="M 113.38724 56.69362 L 141.73404 28.3468 "/>
<path transform="matrix(1,0,0,-1,14.988998,168.34799)" stroke-width=".3985" stroke-linecap="butt" stroke-miterlimit="10" stroke-linejoin="miter" fill="none" stroke="#000000" d="M 113.38724 85.04042 L 113.38724 113.38724 "/>
<path transform="matrix(1,0,0,-1,14.988998,168.34799)" stroke-width=".3985" stroke-linecap="butt" stroke-miterlimit="10" stroke-linejoin="miter" fill="none" stroke="#000000" d="M 113.38724 85.04042 L 141.73404 28.3468 "/>
<path transform="matrix(1,0,0,-1,14.988998,168.34799)" stroke-width=".3985" stroke-linecap="butt" stroke-miterlimit="10" stroke-linejoin="miter" fill="none" stroke="#000000" d="M 113.38724 113.38724 L 113.38724 141.73404 "/>
<path transform="matrix(1,0,0,-1,14.988998,168.34799)" stroke-width=".3985" stroke-linecap="butt" stroke-miterlimit="10" stroke-linejoin="miter" fill="none" stroke="#000000" d="M 113.38724 113.38724 L 141.73404 28.3468 "/>
<path transform="matrix(1,0,0,-1,14.988998,168.34799)" stroke-width=".3985" stroke-linecap="butt" stroke-miterlimit="10" stroke-linejoin="miter" fill="none" stroke="#000000" d="M 113.38724 113.38724 L 170.08086 0 "/>
<path transform="matrix(1,0,0,-1,14.988998,168.34799)" stroke-width=".3985" stroke-linecap="butt" stroke-miterlimit="10" stroke-linejoin="miter" fill="none" stroke="#000000" d="M 113.38724 141.73404 L 170.08086 0 "/>
<path transform="matrix(1,0,0,-1,14.988998,168.34799)" stroke-width=".3985" stroke-linecap="butt" stroke-miterlimit="10" stroke-linejoin="miter" fill="none" stroke="#000000" d="M 141.73404 28.3468 L 170.08086 0 "/>
</g>
</svg>
