<?xml version="1.0" encoding="UTF-8" standalone="no"?>
<!DOCTYPE svg PUBLIC "-//W3C//DTD SVG 1.1//EN" "http://www.w3.org/Graphics/SVG/1.1/DTD/svg11.dtd">
<svg xmlns="http://www.w3.org/2000/svg" xmlns:xlink="http://www.w3.org/1999/xlink" version="1.1" width="353.04pt" height="352.8pt" viewBox="0 0 353.04 352.8">
<g enable-background="new">
<path transform="matrix(1,0,0,-1,14.988998,338.427)" stroke-width=".19925" stroke-linecap="butt" stroke-miterlimit="10" stroke-linejoin="miter" fill="none" stroke="#929292" d="M 28.3468 -14.17339 L 28.3468 325.9883 "/>
<path transform="matrix(1,0,0,-1,14.988998,338.427)" stroke-width=".19925" stroke-linecap="butt" stroke-miterlimit="10" stroke-linejoin="miter" fill="none" stroke="#929292" d="M 56.69362 -14.17339 L 56.69362 325.9883 "/>
<path transform="matrix(1,0,0,-1,14.988998,338.427)" stroke-width=".19925" stroke-linecap="butt" stroke-miterlimit="10" stroke-linejoin="miter" fill="none" stroke="#929292" d="M 85.04042 -14.17339 L 85.04042 325.9883 "/>
<path transform="matrix(1,0,0,-1,14.988998,338.427)" stroke-width=".19925" stroke-linecap="butt" stroke-miterlimit="10" stroke-linejoin="miter" fill="none" stroke="#929292" d="M 113.38724 -14.17339 L 113.38724 325.9883 "/>
<path transform="matrix(1,0,0,-1,14.988998,338.427)" stroke-width=".19925" stroke-linecap="butt" stroke-miterlimit="10" stroke-linejoin="miter" fill="none" stroke="#929292" d="M 141.73404 -14.17339 L 141.73404 325.9883 "/>
<path transform="matrix(1,0,0,-1,14.988998,338.427)" stroke-width=".19925" stroke-linecap="butt" stroke-miterlimit="10" stroke-linejoin="miter" fill="none" stroke="#929292" d="M 170.08086 -14.17339 L 170.08086 325.9883 "/>
<path transform="matrix(1,0,0,-1,14.988998,338.427)" stroke-width=".19925" stroke-linecap="butt" stroke-miterlimit="10" stroke-linejoin="miter" fill="none" stroke="#929292" d="M 198.42766 -14.17339 L 198.42766 325.9883 "/>
<path transform="matrix(1,0,0,-1,14.988998,338.427)" stroke-width=".19925" stroke-linecap="butt" stroke-miterlimit="10" stroke-linejoin="miter" fill="none" stroke="#929292" d="M 226.77448 -14.17339 L 226.77448 325.9883 "/>
<path transform="matrix(1,0,0,-1,14.988998,338.427)" stroke-width=".19925" stroke-linecap="butt" stroke-miterlimit="10" stroke-linejoin="miter" fill="none" stroke="#929292" d="M 255.12128 -14.17339 L 255.12128 325.9883 "/>
<path transform="matrix(1,0,0,-1,14.988998,338.427)" stroke-width=".19925" stroke-linecap="butt" stroke-miterlimit="10" stroke-linejoin="miter" fill="none" stroke="#929292" d="M 283.4681 -14.17339 L 283.4681 325.9883 "/>
<path transform="matrix(1,0,0,-1,14.988998,338.427)" stroke-width=".19925" stroke-linecap="butt" stroke-miterlimit="10" stroke-linejoin="miter" fill="none" stroke="#929292" d="M 311.8149 -14.17339 L 311.8149 325.9883 "/>
<path transform="matrix(1,0,0,-1,14.988998,338.427)" stroke-width=".19925" stroke-linecap="butt" stroke-miterlimit="10" stroke-linejoin="miter" fill="none" stroke="#929292" d="M -14.17339 28.3468 L 325.9883 28.3468 "/>
<path transform="matrix(1,0,0,-1,14.988998,338.427)" stroke-width=".19925" stroke-linecap="butt" stroke-miterlimit="10" stroke-linejoin="miter" fill="none" stroke="#929292" d="M -14.17339 56.69362 L 325.9883 56.69362 "/>
<path transform="matrix(1,0,0,-1,14.988998,338.427)" stroke-width=".19925" stroke-linecap="butt" stroke-miterlimit="10" stroke-linejoin="miter" fill="none" stroke="#929292" d="M -14.17339 85.04042 L 325.9883 85.04042 "/>
<path transform="matrix(1,0,0,-1,14.988998,338.427)" stroke-width=".19925" stroke-linecap="butt" stroke-miterlimit="10" stroke-linejoin="miter" fill="none" stroke="#929292" d="M -14.17339 113.38724 L 325.9883 113.38724 "/>
<path transform="matrix(1,0,0,-1,14.988998,338.427)" stroke-width=".19925" stroke-linecap="butt" stroke-miterlimit="10" stroke-linejoin="miter" fill="none" stroke="#929292" d="M -14.17339 141.73404 L 325.9883 141.73404 "/>
<path transform="matrix(1,0,0,-1,14.988998,338.427)" stroke-width=".19925" stroke-linecap="butt" stroke-miterlimit="10" stroke-linejoin="miter" fill="none" stroke="#929292" d="M -14.17339 170.08086 L 325.9883 170.08086 "/>
<path transform="matrix(1,0,0,-1,14.988998,338.427)" stroke-width=".19925" stroke-linecap="butt" stroke-miterlimit="10" stroke-linejoin="miter" fill="none" stroke="#929292" d="M -14.17339 198.42766 L 325.9883 198.42766 "/>
<path transform="matrix(1,0,0,-1,14.988998,338.427)" stroke-width=".19925" stroke-linecap="butt" stroke-miterlimit="10" stroke-linejoin="miter" fill="none" stroke="#929292" d="M -14.17339 226.77448 L 325.9883 226.77448 "/>
<path transform="matrix(1,0,0,-1,14.988998,338.427)" stroke-width=".19925" stroke-linecap="butt" stroke-miterlimit="10" stroke-linejoin="miter" fill="none" stroke="#929292" d="M -14.17339 255.12128 L 325.9883 255.12128 "/>
<path transform="matrix(1,0,0,-1,14.988998,338.427)" stroke-width=".19925" stroke-linecap="butt" stroke-miterlimit="10" stroke-linejoin="miter" fill="none" stroke="#929292" d="M -14.17339 283.4681 L 325.9883 283.4681 "/>
<path transform="matrix(1,0,0,-1,14.988998,338.427)" stroke-width=".19925" stroke-linecap="butt" stroke-miterlimit="10" stroke-linejoin="miter" fill="none" stroke="#929292" d="M -14.17339 311.8149 L 325.9883 311.8149 "/>
<path transform="matrix(1,0,0,-1,14.988998,338.427)" stroke-width=".3985" stroke-linecap="butt" stroke-miterlimit="10" stroke-linejoin="miter" fill="none" stroke="#000000" d="M -14.17339 0 L 323.99577 0 "/>
<path transform="matrix(1,0,0,-1,338.98475,338.427)" d="M 1.99252 0 L -1.19551 1.59401 L 0 0 L -1.19551 -1.59401 "/>
<text xml:space="preserve" transform="matrix(1 0 -0 1 401.508 73.92899)" font-size="8.9664" font-family="CMMI9" font-style="italic"><tspan y="266.428" x="-57.011">x</tspan></text>
<path transform="matrix(1,0,0,-1,14.988998,338.427)" stroke-width=".3985" stroke-linecap="butt" stroke-miterlimit="10" stroke-linejoin="miter" fill="none" stroke="#000000" d="M 0 -14.17339 L 0 323.99577 "/>
<path transform="matrix(0,-1,-1,-0,14.988998,14.431244)" d="M 1.99252 0 L -1.19551 1.59401 L 0 0 L -1.19551 -1.59401 "/>
<text xml:space="preserve" transform="matrix(1 0 -0 1 69.57 -259.25303)" font-size="8.9664" font-family="CMMI9" font-style="italic"><tspan y="266.428" x="-57.011">y</tspan></text>
<path transform="matrix(1,0,0,-1,14.988998,338.427)" d="M .99628 0 C .99628 .55023 .55023 .99628 0 .99628 C -.55023 .99628 -.99628 .55023 -.99628 0 C -.99628 -.55023 -.55023 -.99628 0 -.99628 C .55023 -.99628 .99628 -.55023 .99628 0 Z M 0 0 "/>
<path transform="matrix(1,0,0,-1,14.988998,338.427)" stroke-width=".19925" stroke-linecap="butt" stroke-miterlimit="10" stroke-linejoin="miter" fill="none" stroke="#000000" d="M .99628 0 C .99628 .55023 .55023 .99628 0 .99628 C -.55023 .99628 -.99628 .55023 -.99628 0 C -.99628 -.55023 -.55023 -.99628 0 -.99628 C .55023 -.99628 .99628 -.55023 .99628 0 Z M 0 0 "/>
<text xml:space="preserve" transform="matrix(1 0 -0 1 60.331 78.82299)" font-size="4.9813" font-family="CMMI5" font-style="italic"><tspan y="266.428" x="-57.011">P</tspan></text>
<text xml:space="preserve" transform="matrix(1 0 -0 1 60.331 78.82299)" font-size="4.9813" font-family="CMR5"><tspan y="267.923" x="-52.65">1</tspan></text>
<path transform="matrix(1,0,0,-1,14.988998,338.427)" d="M 29.34308 28.3468 C 29.34308 28.89703 28.89703 29.34308 28.3468 29.34308 C 27.79657 29.34308 27.35052 28.89703 27.35052 28.3468 C 27.35052 27.79657 27.79657 27.35052 28.3468 27.35052 C 28.89703 27.35052 29.34308 27.79657 29.34308 28.3468 Z M 28.3468 28.3468 "/>
<path transform="matrix(1,0,0,-1,14.988998,338.427)" stroke-width=".19925" stroke-linecap="butt" stroke-miterlimit="10" stroke-linejoin="miter" fill="none" stroke="#000000" d="M 29.34308 28.3468 C 29.34308 28.89703 28.89703 29.34308 28.3468 29.34308 C 27.79657 29.34308 27.35052 28.89703 27.35052 28.3468 C 27.35052 27.79657 27.79657 27.35052 28.3468 27.35052 C 28.89703 27.35052 29.34308 27.79657 29.34308 28.3468 Z M 28.3468 28.3468 "/>
<text xml:space="preserve" transform="matrix(1 0 -0 1 96.222 50.47599)" font-size="4.9813" font-family="CMMI5" font-style="italic"><tspan y="266.428" x="-57.011">P</tspan></text>
<text xml:space="preserve" transform="matrix(1 0 -0 1 96.222 50.47599)" font-size="4.9813" font-family="CMR5"><tspan y="267.923" x="-52.65">2</tspan></text>
<path transform="matrix(1,0,0,-1,14.988998,338.427)" d="M 29.34308 56.69362 C 29.34308 57.24385 28.89703 57.6899 28.3468 57.6899 C 27.79657 57.6899 27.35052 57.24385 27.35052 56.69362 C 27.35052 56.14337 27.79657 55.69734 28.3468 55.69734 C 28.89703 55.69734 29.34308 56.14337 29.34308 56.69362 Z M 28.3468 56.69362 "/>
<path transform="matrix(1,0,0,-1,14.988998,338.427)" stroke-width=".19925" stroke-linecap="butt" stroke-miterlimit="10" stroke-linejoin="miter" fill="none" stroke="#000000" d="M 29.34308 56.69362 C 29.34308 57.24385 28.89703 57.6899 28.3468 57.6899 C 27.79657 57.6899 27.35052 57.24385 27.35052 56.69362 C 27.35052 56.14337 27.79657 55.69734 28.3468 55.69734 C 28.89703 55.69734 29.34308 56.14337 29.34308 56.69362 Z M 28.3468 56.69362 "/>
<text xml:space="preserve" transform="matrix(1 0 -0 1 103.767 16.259995)" font-size="4.9813" font-family="CMMI5" font-style="italic"><tspan y="266.428" x="-57.011">P</tspan></text>
<text xml:space="preserve" transform="matrix(1 0 -0 1 103.767 16.259995)" font-size="4.9813" font-family="CMR5"><tspan y="267.923" x="-52.65">3</tspan></text>
<path transform="matrix(1,0,0,-1,14.988998,338.427)" d="M 57.6899 28.3468 C 57.6899 28.89703 57.24385 29.34308 56.69362 29.34308 C 56.14337 29.34308 55.69734 28.89703 55.69734 28.3468 C 55.69734 27.79657 56.14337 27.35052 56.69362 27.35052 C 57.24385 27.35052 57.6899 27.79657 57.6899 28.3468 Z M 56.69362 28.3468 "/>
<path transform="matrix(1,0,0,-1,14.988998,338.427)" stroke-width=".19925" stroke-linecap="butt" stroke-miterlimit="10" stroke-linejoin="miter" fill="none" stroke="#000000" d="M 57.6899 28.3468 C 57.6899 28.89703 57.24385 29.34308 56.69362 29.34308 C 56.14337 29.34308 55.69734 28.89703 55.69734 28.3468 C 55.69734 27.79657 56.14337 27.35052 56.69362 27.35052 C 57.24385 27.35052 57.6899 27.79657 57.6899 28.3468 Z M 56.69362 28.3468 "/>
<text xml:space="preserve" transform="matrix(1 0 -0 1 124.569 50.47599)" font-size="4.9813" font-family="CMMI5" font-style="italic"><tspan y="266.428" x="-57.011">P</tspan></text>
<text xml:space="preserve" transform="matrix(1 0 -0 1 124.569 50.47599)" font-size="4.9813" font-family="CMR5"><tspan y="267.923" x="-52.65">4</tspan></text>
<path transform="matrix(1,0,0,-1,14.988998,338.427)" d="M 86.0367 28.3468 C 86.0367 28.89703 85.59065 29.34308 85.04042 29.34308 C 84.49019 29.34308 84.04414 28.89703 84.04414 28.3468 C 84.04414 27.79657 84.49019 27.35052 85.04042 27.35052 C 85.59065 27.35052 86.0367 27.79657 86.0367 28.3468 Z M 85.04042 28.3468 "/>
<path transform="matrix(1,0,0,-1,14.988998,338.427)" stroke-width=".19925" stroke-linecap="butt" stroke-miterlimit="10" stroke-linejoin="miter" fill="none" stroke="#000000" d="M 86.0367 28.3468 C 86.0367 28.89703 85.59065 29.34308 85.04042 29.34308 C 84.49019 29.34308 84.04414 28.89703 84.04414 28.3468 C 84.04414 27.79657 84.49019 27.35052 85.04042 27.35052 C 85.59065 27.35052 86.0367 27.79657 86.0367 28.3468 Z M 85.04042 28.3468 "/>
<text xml:space="preserve" transform="matrix(1 0 -0 1 145.371 38.73799)" font-size="4.9813" font-family="CMMI5" font-style="italic"><tspan y="266.428" x="-57.011">P</tspan></text>
<text xml:space="preserve" transform="matrix(1 0 -0 1 145.371 38.73799)" font-size="4.9813" font-family="CMR5"><tspan y="267.923" x="-52.65">5</tspan></text>
<path transform="matrix(1,0,0,-1,14.988998,338.427)" d="M 86.0367 56.69362 C 86.0367 57.24385 85.59065 57.6899 85.04042 57.6899 C 84.49019 57.6899 84.04414 57.24385 84.04414 56.69362 C 84.04414 56.14337 84.49019 55.69734 85.04042 55.69734 C 85.59065 55.69734 86.0367 56.14337 86.0367 56.69362 Z M 85.04042 56.69362 "/>
<path transform="matrix(1,0,0,-1,14.988998,338.427)" stroke-width=".19925" stroke-linecap="butt" stroke-miterlimit="10" stroke-linejoin="miter" fill="none" stroke="#000000" d="M 86.0367 56.69362 C 86.0367 57.24385 85.59065 57.6899 85.04042 57.6899 C 84.49019 57.6899 84.04414 57.24385 84.04414 56.69362 C 84.04414 56.14337 84.49019 55.69734 85.04042 55.69734 C 85.59065 55.69734 86.0367 56.14337 86.0367 56.69362 Z M 85.04042 56.69362 "/>
<text xml:space="preserve" transform="matrix(1 0 -0 1 145.371 10.390991)" font-size="4.9813" font-family="CMMI5" font-style="italic"><tspan y="266.428" x="-57.011">P</tspan></text>
<text xml:space="preserve" transform="matrix(1 0 -0 1 145.371 10.390991)" font-size="4.9813" font-family="CMR5"><tspan y="267.923" x="-52.65">6</tspan></text>
<path transform="matrix(1,0,0,-1,14.988998,338.427)" d="M 86.0367 85.04042 C 86.0367 85.59065 85.59065 86.0367 85.04042 86.0367 C 84.49019 86.0367 84.04414 85.59065 84.04414 85.04042 C 84.04414 84.49019 84.49019 84.04414 85.04042 84.04414 C 85.59065 84.04414 86.0367 84.49019 86.0367 85.04042 Z M 85.04042 85.04042 "/>
<path transform="matrix(1,0,0,-1,14.988998,338.427)" stroke-width=".19925" stroke-linecap="butt" stroke-miterlimit="10" stroke-linejoin="miter" fill="none" stroke="#000000" d="M 86.0367 85.04042 C 86.0367 85.59065 85.59065 86.0367 85.04042 86.0367 C 84.49019 86.0367 84.04414 85.59065 84.04414 85.04042 C 84.04414 84.49019 84.49019 84.04414 85.04042 84.04414 C 85.59065 84.04414 86.0367 84.49019 86.0367 85.04042 Z M 85.04042 85.04042 "/>
<text xml:space="preserve" transform="matrix(1 0 -0 1 145.371 -17.956009)" font-size="4.9813" font-family="CMMI5" font-style="italic"><tspan y="266.428" x="-57.011">P</tspan></text>
<text xml:space="preserve" transform="matrix(1 0 -0 1 145.371 -17.956009)" font-size="4.9813" font-family="CMR5"><tspan y="267.923" x="-52.65">7</tspan></text>
<path transform="matrix(1,0,0,-1,14.988998,338.427)" d="M 86.0367 113.38724 C 86.0367 113.93747 85.59065 114.38351 85.04042 114.38351 C 84.49019 114.38351 84.04414 113.93747 84.04414 113.38724 C 84.04414 112.83699 84.49019 112.39096 85.04042 112.39096 C 85.59065 112.39096 86.0367 112.83699 86.0367 113.38724 Z M 85.04042 113.38724 "/>
<path transform="matrix(1,0,0,-1,14.988998,338.427)" stroke-width=".19925" stroke-linecap="butt" stroke-miterlimit="10" stroke-linejoin="miter" fill="none" stroke="#000000" d="M 86.0367 113.38724 C 86.0367 113.93747 85.59065 114.38351 85.04042 114.38351 C 84.49019 114.38351 84.04414 113.93747 84.04414 113.38724 C 84.04414 112.83699 84.49019 112.39096 85.04042 112.39096 C 85.59065 112.39096 86.0367 112.83699 86.0367 113.38724 Z M 85.04042 113.38724 "/>
<text xml:space="preserve" transform="matrix(1 0 -0 1 160.461 -40.433008)" font-size="4.9813" font-family="CMMI5" font-style="italic"><tspan y="266.428" x="-57.011">P</tspan></text>
<text xml:space="preserve" transform="matrix(1 0 -0 1 160.461 -40.433008)" font-size="4.9813" font-family="CMR5"><tspan y="267.923" x="-52.65">8</tspan></text>
<path transform="matrix(1,0,0,-1,14.988998,338.427)" d="M 114.38351 56.69362 C 114.38351 57.24385 113.93747 57.6899 113.38724 57.6899 C 112.83699 57.6899 112.39096 57.24385 112.39096 56.69362 C 112.39096 56.14337 112.83699 55.69734 113.38724 55.69734 C 113.93747 55.69734 114.38351 56.14337 114.38351 56.69362 Z M 113.38724 56.69362 "/>
<path transform="matrix(1,0,0,-1,14.988998,338.427)" stroke-width=".19925" stroke-linecap="butt" stroke-miterlimit="10" stroke-linejoin="miter" fill="none" stroke="#000000" d="M 114.38351 56.69362 C 114.38351 57.24385 113.93747 57.6899 113.38724 57.6899 C 112.83699 57.6899 112.39096 57.24385 112.39096 56.69362 C 112.39096 56.14337 112.83699 55.69734 113.38724 55.69734 C 113.93747 55.69734 114.38351 56.14337 114.38351 56.69362 Z M 113.38724 56.69362 "/>
<text xml:space="preserve" transform="matrix(1 0 -0 1 181.263 22.129994)" font-size="4.9813" font-family="CMMI5" font-style="italic"><tspan y="266.428" x="-57.011">P</tspan></text>
<text xml:space="preserve" transform="matrix(1 0 -0 1 181.263 22.129994)" font-size="4.9813" font-family="CMR5"><tspan y="267.923" x="-52.65">9</tspan></text>
<path transform="matrix(1,0,0,-1,14.988998,338.427)" d="M 114.38351 85.04042 C 114.38351 85.59065 113.93747 86.0367 113.38724 86.0367 C 112.83699 86.0367 112.39096 85.59065 112.39096 85.04042 C 112.39096 84.49019 112.83699 84.04414 113.38724 84.04414 C 113.93747 84.04414 114.38351 84.49019 114.38351 85.04042 Z M 113.38724 85.04042 "/>
<path transform="matrix(1,0,0,-1,14.988998,338.427)" stroke-width=".19925" stroke-linecap="butt" stroke-miterlimit="10" stroke-linejoin="miter" fill="none" stroke="#000000" d="M 114.38351 85.04042 C 114.38351 85.59065 113.93747 86.0367 113.38724 86.0367 C 112.83699 86.0367 112.39096 85.59065 112.39096 85.04042 C 112.39096 84.49019 112.83699 84.04414 113.38724 84.04414 C 113.93747 84.04414 114.38351 84.49019 114.38351 85.04042 Z M 113.38724 85.04042 "/>
<text xml:space="preserve" transform="matrix(1 0 -0 1 170.328 -6.2170107)" font-size="4.9813" font-family="CMMI5" font-style="italic"><tspan y="266.428" x="-57.011">P</tspan></text>
<text xml:space="preserve" transform="matrix(1 0 -0 1 170.328 -6.2170107)" font-size="4.9813" font-family="CMR5"><tspan y="267.923" x="-52.65 -49.26272">10</tspan></text>
<path transform="matrix(1,0,0,-1,14.988998,338.427)" d="M 114.38351 113.38724 C 114.38351 113.93747 113.93747 114.38351 113.38724 114.38351 C 112.83699 114.38351 112.39096 113.93747 112.39096 113.38724 C 112.39096 112.83699 112.83699 112.39096 113.38724 112.39096 C 113.93747 112.39096 114.38351 112.83699 114.38351 113.38724 Z M 113.38724 113.38724 "/>
<path transform="matrix(1,0,0,-1,14.988998,338.427)" stroke-width=".19925" stroke-linecap="butt" stroke-miterlimit="10" stroke-linejoin="miter" fill="none" stroke="#000000" d="M 114.38351 113.38724 C 114.38351 113.93747 113.93747 114.38351 113.38724 114.38351 C 112.83699 114.38351 112.39096 113.93747 112.39096 113.38724 C 112.39096 112.83699 112.83699 112.39096 113.38724 112.39096 C 113.93747 112.39096 114.38351 112.83699 114.38351 113.38724 Z M 113.38724 113.38724 "/>
<text xml:space="preserve" transform="matrix(1 0 -0 1 170.328 -46.30301)" font-size="4.9813" font-family="CMMI5" font-style="italic"><tspan y="266.428" x="-57.011">P</tspan></text>
<text xml:space="preserve" transform="matrix(1 0 -0 1 170.328 -46.30301)" font-size="4.9813" font-family="CMR5"><tspan y="267.923" x="-52.65 -49.26272">11</tspan></text>
<path transform="matrix(1,0,0,-1,14.988998,338.427)" d="M 142.73032 28.3468 C 142.73032 28.89703 142.28427 29.34308 141.73404 29.34308 C 141.1838 29.34308 140.73777 28.89703 140.73777 28.3468 C 140.73777 27.79657 141.1838 27.35052 141.73404 27.35052 C 142.28427 27.35052 142.73032 27.79657 142.73032 28.3468 Z M 141.73404 28.3468 "/>
<path transform="matrix(1,0,0,-1,14.988998,338.427)" stroke-width=".19925" stroke-linecap="butt" stroke-miterlimit="10" stroke-linejoin="miter" fill="none" stroke="#000000" d="M 142.73032 28.3468 C 142.73032 28.89703 142.28427 29.34308 141.73404 29.34308 C 141.1838 29.34308 140.73777 28.89703 140.73777 28.3468 C 140.73777 27.79657 141.1838 27.35052 141.73404 27.35052 C 142.28427 27.35052 142.73032 27.79657 142.73032 28.3468 Z M 141.73404 28.3468 "/>
<text xml:space="preserve" transform="matrix(1 0 -0 1 217.154 38.73799)" font-size="4.9813" font-family="CMMI5" font-style="italic"><tspan y="266.428" x="-57.011">P</tspan></text>
<text xml:space="preserve" transform="matrix(1 0 -0 1 217.154 38.73799)" font-size="4.9813" font-family="CMR5"><tspan y="267.923" x="-52.65 -49.26272">12</tspan></text>
<path transform="matrix(1,0,0,-1,14.988998,338.427)" d="M 142.73032 56.69362 C 142.73032 57.24385 142.28427 57.6899 141.73404 57.6899 C 141.1838 57.6899 140.73777 57.24385 140.73777 56.69362 C 140.73777 56.14337 141.1838 55.69734 141.73404 55.69734 C 142.28427 55.69734 142.73032 56.14337 142.73032 56.69362 Z M 141.73404 56.69362 "/>
<path transform="matrix(1,0,0,-1,14.988998,338.427)" stroke-width=".19925" stroke-linecap="butt" stroke-miterlimit="10" stroke-linejoin="miter" fill="none" stroke="#000000" d="M 142.73032 56.69362 C 142.73032 57.24385 142.28427 57.6899 141.73404 57.6899 C 141.1838 57.6899 140.73777 57.24385 140.73777 56.69362 C 140.73777 56.14337 141.1838 55.69734 141.73404 55.69734 C 142.28427 55.69734 142.73032 56.14337 142.73032 56.69362 Z M 141.73404 56.69362 "/>
<text xml:space="preserve" transform="matrix(1 0 -0 1 217.154 22.129994)" font-size="4.9813" font-family="CMMI5" font-style="italic"><tspan y="266.428" x="-57.011">P</tspan></text>
<text xml:space="preserve" transform="matrix(1 0 -0 1 217.154 22.129994)" font-size="4.9813" font-family="CMR5"><tspan y="267.923" x="-52.65 -49.26272">13</tspan></text>
<path transform="matrix(1,0,0,-1,14.988998,338.427)" d="M 142.73032 85.04042 C 142.73032 85.59065 142.28427 86.0367 141.73404 86.0367 C 141.1838 86.0367 140.73777 85.59065 140.73777 85.04042 C 140.73777 84.49019 141.1838 84.04414 141.73404 84.04414 C 142.28427 84.04414 142.73032 84.49019 142.73032 85.04042 Z M 141.73404 85.04042 "/>
<path transform="matrix(1,0,0,-1,14.988998,338.427)" stroke-width=".19925" stroke-linecap="butt" stroke-miterlimit="10" stroke-linejoin="miter" fill="none" stroke="#000000" d="M 142.73032 85.04042 C 142.73032 85.59065 142.28427 86.0367 141.73404 86.0367 C 141.1838 86.0367 140.73777 85.59065 140.73777 85.04042 C 140.73777 84.49019 141.1838 84.04414 141.73404 84.04414 C 142.28427 84.04414 142.73032 84.49019 142.73032 85.04042 Z M 141.73404 85.04042 "/>
<text xml:space="preserve" transform="matrix(1 0 -0 1 217.154 -6.2170107)" font-size="4.9813" font-family="CMMI5" font-style="italic"><tspan y="266.428" x="-57.011">P</tspan></text>
<text xml:space="preserve" transform="matrix(1 0 -0 1 217.154 -6.2170107)" font-size="4.9813" font-family="CMR5"><tspan y="267.923" x="-52.65 -49.26272">14</tspan></text>
<path transform="matrix(1,0,0,-1,14.988998,338.427)" d="M 142.73032 141.73404 C 142.73032 142.28427 142.28427 142.73032 141.73404 142.73032 C 141.1838 142.73032 140.73777 142.28427 140.73777 141.73404 C 140.73777 141.1838 141.1838 140.73777 141.73404 140.73777 C 142.28427 140.73777 142.73032 141.1838 142.73032 141.73404 Z M 141.73404 141.73404 "/>
<path transform="matrix(1,0,0,-1,14.988998,338.427)" stroke-width=".19925" stroke-linecap="butt" stroke-miterlimit="10" stroke-linejoin="miter" fill="none" stroke="#000000" d="M 142.73032 141.73404 C 142.73032 142.28427 142.28427 142.73032 141.73404 142.73032 C 141.1838 142.73032 140.73777 142.28427 140.73777 141.73404 C 140.73777 141.1838 141.1838 140.73777 141.73404 140.73777 C 142.28427 140.73777 142.73032 141.1838 142.73032 141.73404 Z M 141.73404 141.73404 "/>
<text xml:space="preserve" transform="matrix(1 0 -0 1 217.154 -68.780017)" font-size="4.9813" font-family="CMMI5" font-style="italic"><tspan y="266.428" x="-57.011">P</tspan></text>
<text xml:space="preserve" transform="matrix(1 0 -0 1 217.154 -68.780017)" font-size="4.9813" font-family="CMR5"><tspan y="267.923" x="-52.65 -49.26272">15</tspan></text>
<path transform="matrix(1,0,0,-1,14.988998,338.427)" d="M 142.73032 311.8149 C 142.73032 312.36515 142.28427 312.81117 141.73404 312.81117 C 141.1838 312.81117 140.73777 312.36515 140.73777 311.8149 C 140.73777 311.26466 141.1838 310.81864 141.73404 310.81864 C 142.28427 310.81864 142.73032 311.26466 142.73032 311.8149 Z M 141.73404 311.8149 "/>
<path transform="matrix(1,0,0,-1,14.988998,338.427)" stroke-width=".19925" stroke-linecap="butt" stroke-miterlimit="10" stroke-linejoin="miter" fill="none" stroke="#000000" d="M 142.73032 311.8149 C 142.73032 312.36515 142.28427 312.81117 141.73404 312.81117 C 141.1838 312.81117 140.73777 312.36515 140.73777 311.8149 C 140.73777 311.26466 141.1838 310.81864 141.73404 310.81864 C 142.28427 310.81864 142.73032 311.26466 142.73032 311.8149 Z M 141.73404 311.8149 "/>
<text xml:space="preserve" transform="matrix(1 0 -0 1 207.915 -244.73001)" font-size="4.9813" font-family="CMMI5" font-style="italic"><tspan y="266.428" x="-57.011">P</tspan></text>
<text xml:space="preserve" transform="matrix(1 0 -0 1 207.915 -244.73001)" font-size="4.9813" font-family="CMR5"><tspan y="267.923" x="-52.65 -49.26272">16</tspan></text>
<path transform="matrix(1,0,0,-1,14.988998,338.427)" d="M 171.07714 85.04042 C 171.07714 85.59065 170.63109 86.0367 170.08086 86.0367 C 169.53061 86.0367 169.08458 85.59065 169.08458 85.04042 C 169.08458 84.49019 169.53061 84.04414 170.08086 84.04414 C 170.63109 84.04414 171.07714 84.49019 171.07714 85.04042 Z M 170.08086 85.04042 "/>
<path transform="matrix(1,0,0,-1,14.988998,338.427)" stroke-width=".19925" stroke-linecap="butt" stroke-miterlimit="10" stroke-linejoin="miter" fill="none" stroke="#000000" d="M 171.07714 85.04042 C 171.07714 85.59065 170.63109 86.0367 170.08086 86.0367 C 169.53061 86.0367 169.08458 85.59065 169.08458 85.04042 C 169.08458 84.49019 169.53061 84.04414 170.08086 84.04414 C 170.63109 84.04414 171.07714 84.49019 171.07714 85.04042 Z M 170.08086 85.04042 "/>
<text xml:space="preserve" transform="matrix(1 0 -0 1 236.261 -6.2170107)" font-size="4.9813" font-family="CMMI5" font-style="italic"><tspan y="266.428" x="-57.011">P</tspan></text>
<text xml:space="preserve" transform="matrix(1 0 -0 1 236.261 -6.2170107)" font-size="4.9813" font-family="CMR5"><tspan y="267.923" x="-52.65 -49.26272">17</tspan></text>
<path transform="matrix(1,0,0,-1,14.988998,338.427)" d="M 171.07714 113.38724 C 171.07714 113.93747 170.63109 114.38351 170.08086 114.38351 C 169.53061 114.38351 169.08458 113.93747 169.08458 113.38724 C 169.08458 112.83699 169.53061 112.39096 170.08086 112.39096 C 170.63109 112.39096 171.07714 112.83699 171.07714 113.38724 Z M 170.08086 113.38724 "/>
<path transform="matrix(1,0,0,-1,14.988998,338.427)" stroke-width=".19925" stroke-linecap="butt" stroke-miterlimit="10" stroke-linejoin="miter" fill="none" stroke="#000000" d="M 171.07714 113.38724 C 171.07714 113.93747 170.63109 114.38351 170.08086 114.38351 C 169.53061 114.38351 169.08458 113.93747 169.08458 113.38724 C 169.08458 112.83699 169.53061 112.39096 170.08086 112.39096 C 170.63109 112.39096 171.07714 112.83699 171.07714 113.38724 Z M 170.08086 113.38724 "/>
<text xml:space="preserve" transform="matrix(1 0 -0 1 227.022 -40.433008)" font-size="4.9813" font-family="CMMI5" font-style="italic"><tspan y="266.428" x="-57.011">P</tspan></text>
<text xml:space="preserve" transform="matrix(1 0 -0 1 227.022 -40.433008)" font-size="4.9813" font-family="CMR5"><tspan y="267.923" x="-52.65 -49.26272">18</tspan></text>
<path transform="matrix(1,0,0,-1,14.988998,338.427)" d="M 171.07714 198.42766 C 171.07714 198.97789 170.63109 199.42394 170.08086 199.42394 C 169.53061 199.42394 169.08458 198.97789 169.08458 198.42766 C 169.08458 197.87743 169.53061 197.43138 170.08086 197.43138 C 170.63109 197.43138 171.07714 197.87743 171.07714 198.42766 Z M 170.08086 198.42766 "/>
<path transform="matrix(1,0,0,-1,14.988998,338.427)" stroke-width=".19925" stroke-linecap="butt" stroke-miterlimit="10" stroke-linejoin="miter" fill="none" stroke="#000000" d="M 171.07714 198.42766 C 171.07714 198.97789 170.63109 199.42394 170.08086 199.42394 C 169.53061 199.42394 169.08458 198.97789 169.08458 198.42766 C 169.08458 197.87743 169.53061 197.43138 170.08086 197.43138 C 170.63109 197.43138 171.07714 197.87743 171.07714 198.42766 Z M 170.08086 198.42766 "/>
<text xml:space="preserve" transform="matrix(1 0 -0 1 236.261 -131.343)" font-size="4.9813" font-family="CMMI5" font-style="italic"><tspan y="266.428" x="-57.011">P</tspan></text>
<text xml:space="preserve" transform="matrix(1 0 -0 1 236.261 -131.343)" font-size="4.9813" font-family="CMR5"><tspan y="267.923" x="-52.65 -49.26272">19</tspan></text>
<path transform="matrix(1,0,0,-1,14.988998,338.427)" d="M 171.07714 226.77448 C 171.07714 227.3247 170.63109 227.77075 170.08086 227.77075 C 169.53061 227.77075 169.08458 227.3247 169.08458 226.77448 C 169.08458 226.22425 169.53061 225.7782 170.08086 225.7782 C 170.63109 225.7782 171.07714 226.22425 171.07714 226.77448 Z M 170.08086 226.77448 "/>
<path transform="matrix(1,0,0,-1,14.988998,338.427)" stroke-width=".19925" stroke-linecap="butt" stroke-miterlimit="10" stroke-linejoin="miter" fill="none" stroke="#000000" d="M 171.07714 226.77448 C 171.07714 227.3247 170.63109 227.77075 170.08086 227.77075 C 169.53061 227.77075 169.08458 227.3247 169.08458 226.77448 C 169.08458 226.22425 169.53061 225.7782 170.08086 225.7782 C 170.63109 225.7782 171.07714 226.22425 171.07714 226.77448 Z M 170.08086 226.77448 "/>
<text xml:space="preserve" transform="matrix(1 0 -0 1 227.022 -153.82102)" font-size="4.9813" font-family="CMMI5" font-style="italic"><tspan y="266.428" x="-57.011">P</tspan></text>
<text xml:space="preserve" transform="matrix(1 0 -0 1 227.022 -153.82102)" font-size="4.9813" font-family="CMR5"><tspan y="267.923" x="-52.65 -49.26272">20</tspan></text>
<path transform="matrix(1,0,0,-1,14.988998,338.427)" d="M 199.42394 85.04042 C 199.42394 85.59065 198.97789 86.0367 198.42766 86.0367 C 197.87743 86.0367 197.43138 85.59065 197.43138 85.04042 C 197.43138 84.49019 197.87743 84.04414 198.42766 84.04414 C 198.97789 84.04414 199.42394 84.49019 199.42394 85.04042 Z M 198.42766 85.04042 "/>
<path transform="matrix(1,0,0,-1,14.988998,338.427)" stroke-width=".19925" stroke-linecap="butt" stroke-miterlimit="10" stroke-linejoin="miter" fill="none" stroke="#000000" d="M 199.42394 85.04042 C 199.42394 85.59065 198.97789 86.0367 198.42766 86.0367 C 197.87743 86.0367 197.43138 85.59065 197.43138 85.04042 C 197.43138 84.49019 197.87743 84.04414 198.42766 84.04414 C 198.97789 84.04414 199.42394 84.49019 199.42394 85.04042 Z M 198.42766 85.04042 "/>
<text xml:space="preserve" transform="matrix(1 0 -0 1 264.608 -6.2170107)" font-size="4.9813" font-family="CMMI5" font-style="italic"><tspan y="266.428" x="-57.011">P</tspan></text>
<text xml:space="preserve" transform="matrix(1 0 -0 1 264.608 -6.2170107)" font-size="4.9813" font-family="CMR5"><tspan y="267.923" x="-52.65 -49.26272">21</tspan></text>
<path transform="matrix(1,0,0,-1,14.988998,338.427)" d="M 199.42394 113.38724 C 199.42394 113.93747 198.97789 114.38351 198.42766 114.38351 C 197.87743 114.38351 197.43138 113.93747 197.43138 113.38724 C 197.43138 112.83699 197.87743 112.39096 198.42766 112.39096 C 198.97789 112.39096 199.42394 112.83699 199.42394 113.38724 Z M 198.42766 113.38724 "/>
<path transform="matrix(1,0,0,-1,14.988998,338.427)" stroke-width=".19925" stroke-linecap="butt" stroke-miterlimit="10" stroke-linejoin="miter" fill="none" stroke="#000000" d="M 199.42394 113.38724 C 199.42394 113.93747 198.97789 114.38351 198.42766 114.38351 C 197.87743 114.38351 197.43138 113.93747 197.43138 113.38724 C 197.43138 112.83699 197.87743 112.39096 198.42766 112.39096 C 198.97789 112.39096 199.42394 112.83699 199.42394 113.38724 Z M 198.42766 113.38724 "/>
<text xml:space="preserve" transform="matrix(1 0 -0 1 255.369 -34.56401)" font-size="4.9813" font-family="CMMI5" font-style="italic"><tspan y="266.428" x="-57.011">P</tspan></text>
<text xml:space="preserve" transform="matrix(1 0 -0 1 255.369 -34.56401)" font-size="4.9813" font-family="CMR5"><tspan y="267.923" x="-52.65 -49.26272">22</tspan></text>
<path transform="matrix(1,0,0,-1,14.988998,338.427)" d="M 227.77075 85.04042 C 227.77075 85.59065 227.3247 86.0367 226.77448 86.0367 C 226.22425 86.0367 225.7782 85.59065 225.7782 85.04042 C 225.7782 84.49019 226.22425 84.04414 226.77448 84.04414 C 227.3247 84.04414 227.77075 84.49019 227.77075 85.04042 Z M 226.77448 85.04042 "/>
<path transform="matrix(1,0,0,-1,14.988998,338.427)" stroke-width=".19925" stroke-linecap="butt" stroke-miterlimit="10" stroke-linejoin="miter" fill="none" stroke="#000000" d="M 227.77075 85.04042 C 227.77075 85.59065 227.3247 86.0367 226.77448 86.0367 C 226.22425 86.0367 225.7782 85.59065 225.7782 85.04042 C 225.7782 84.49019 226.22425 84.04414 226.77448 84.04414 C 227.3247 84.04414 227.77075 84.49019 227.77075 85.04042 Z M 226.77448 85.04042 "/>
<text xml:space="preserve" transform="matrix(1 0 -0 1 302.195 -17.956009)" font-size="4.9813" font-family="CMMI5" font-style="italic"><tspan y="266.428" x="-57.011">P</tspan></text>
<text xml:space="preserve" transform="matrix(1 0 -0 1 302.195 -17.956009)" font-size="4.9813" font-family="CMR5"><tspan y="267.923" x="-52.65 -49.26272">23</tspan></text>
<path transform="matrix(1,0,0,-1,14.988998,338.427)" d="M 256.11756 56.69362 C 256.11756 57.24385 255.67153 57.6899 255.12128 57.6899 C 254.57105 57.6899 254.125 57.24385 254.125 56.69362 C 254.125 56.14337 254.57105 55.69734 255.12128 55.69734 C 255.67153 55.69734 256.11756 56.14337 256.11756 56.69362 Z M 255.12128 56.69362 "/>
<path transform="matrix(1,0,0,-1,14.988998,338.427)" stroke-width=".19925" stroke-linecap="butt" stroke-miterlimit="10" stroke-linejoin="miter" fill="none" stroke="#000000" d="M 256.11756 56.69362 C 256.11756 57.24385 255.67153 57.6899 255.12128 57.6899 C 254.57105 57.6899 254.125 57.24385 254.125 56.69362 C 254.125 56.14337 254.57105 55.69734 255.12128 55.69734 C 255.67153 55.69734 256.11756 56.14337 256.11756 56.69362 Z M 255.12128 56.69362 "/>
<text xml:space="preserve" transform="matrix(1 0 -0 1 312.062 22.129994)" font-size="4.9813" font-family="CMMI5" font-style="italic"><tspan y="266.428" x="-57.011">P</tspan></text>
<text xml:space="preserve" transform="matrix(1 0 -0 1 312.062 22.129994)" font-size="4.9813" font-family="CMR5"><tspan y="267.923" x="-52.65 -49.26272">24</tspan></text>
<path transform="matrix(1,0,0,-1,14.988998,338.427)" d="M 284.46437 28.3468 C 284.46437 28.89703 284.01835 29.34308 283.4681 29.34308 C 282.91786 29.34308 282.47184 28.89703 282.47184 28.3468 C 282.47184 27.79657 282.91786 27.35052 283.4681 27.35052 C 284.01835 27.35052 284.46437 27.79657 284.46437 28.3468 Z M 283.4681 28.3468 "/>
<path transform="matrix(1,0,0,-1,14.988998,338.427)" stroke-width=".19925" stroke-linecap="butt" stroke-miterlimit="10" stroke-linejoin="miter" fill="none" stroke="#000000" d="M 284.46437 28.3468 C 284.46437 28.89703 284.01835 29.34308 283.4681 29.34308 C 282.91786 29.34308 282.47184 28.89703 282.47184 28.3468 C 282.47184 27.79657 282.91786 27.35052 283.4681 27.35052 C 284.01835 27.35052 284.46437 27.79657 284.46437 28.3468 Z M 283.4681 28.3468 "/>
<text xml:space="preserve" transform="matrix(1 0 -0 1 340.409 50.47599)" font-size="4.9813" font-family="CMMI5" font-style="italic"><tspan y="266.428" x="-57.011">P</tspan></text>
<text xml:space="preserve" transform="matrix(1 0 -0 1 340.409 50.47599)" font-size="4.9813" font-family="CMR5"><tspan y="267.923" x="-52.65 -49.26272">25</tspan></text>
<path transform="matrix(1,0,0,-1,14.988998,338.427)" d="M 312.81117 0 C 312.81117 .55023 312.36515 .99628 311.8149 .99628 C 311.26466 .99628 310.81864 .55023 310.81864 0 C 310.81864 -.55023 311.26466 -.99628 311.8149 -.99628 C 312.36515 -.99628 312.81117 -.55023 312.81117 0 Z M 311.8149 0 "/>
<path transform="matrix(1,0,0,-1,14.988998,338.427)" stroke-width=".19925" stroke-linecap="butt" stroke-miterlimit="10" stroke-linejoin="miter" fill="none" stroke="#000000" d="M 312.81117 0 C 312.81117 .55023 312.36515 .99628 311.8149 .99628 C 311.26466 .99628 310.81864 .55023 310.81864 0 C 310.81864 -.55023 311.26466 -.99628 311.8149 -.99628 C 312.36515 -.99628 312.81117 -.55023 312.81117 0 Z M 311.8149 0 "/>
<text xml:space="preserve" transform="matrix(1 0 -0 1 387.235 78.82299)" font-size="4.9813" font-family="CMMI5" font-style="italic"><tspan y="266.428" x="-57.011">P</tspan></text>
<text xml:space="preserve" transform="matrix(1 0 -0 1 387.235 78.82299)" font-size="4.9813" font-family="CMR5"><tspan y="267.923" x="-52.65 -49.26272">26</tspan></text>
<path transform="matrix(1,0,0,-1,14.988998,338.427)" stroke-width=".3985" stroke-linecap="butt" stroke-miterlimit="10" stroke-linejoin="miter" fill="none" stroke="#000000" d="M 0 0 L 28.3468 28.3468 "/>
<path transform="matrix(1,0,0,-1,14.988998,338.427)" stroke-width=".3985" stroke-linecap="butt" stroke-miterlimit="10" stroke-linejoin="miter" fill="none" stroke="#000000" d="M 0 0 L 28.3468 56.69362 "/>
<path transform="matrix(1,0,0,-1,14.988998,338.427)" stroke-width=".3985" stroke-linecap="butt" stroke-miterlimit="10" stroke-linejoin="miter" fill="none" stroke="#000000" d="M 0 0 L 56.69362 28.3468 "/>
<path transform="matrix(1,0,0,-1,14.988998,338.427)" stroke-width=".3985" stroke-linecap="butt" stroke-miterlimit="10" stroke-linejoin="miter" fill="none" stroke="#000000" d="M 0 0 L 141.73404 311.8149 "/>
<path transform="matrix(1,0,0,-1,14.988998,338.427)" stroke-width=".3985" stroke-linecap="butt" stroke-miterlimit="10" stroke-linejoin="miter" fill="none" stroke="#000000" d="M 0 0 L 311.8149 0 "/>
<path transform="matrix(1,0,0,-1,14.988998,338.427)" stroke-width=".3985" stroke-linecap="butt" stroke-miterlimit="10" stroke-linejoin="miter" fill="none" stroke="#000000" d="M 28.3468 28.3468 L 28.3468 56.69362 "/>
<path transform="matrix(1,0,0,-1,14.988998,338.427)" stroke-width=".3985" stroke-linecap="butt" stroke-miterlimit="10" stroke-linejoin="miter" fill="none" stroke="#000000" d="M 28.3468 28.3468 L 56.69362 28.3468 "/>
<path transform="matrix(1,0,0,-1,14.988998,338.427)" stroke-width=".3985" stroke-linecap="butt" stroke-miterlimit="10" stroke-linejoin="miter" fill="none" stroke="#000000" d="M 28.3468 28.3468 L 85.04042 56.69362 "/>
<path transform="matrix(1,0,0,-1,14.988998,338.427)" stroke-width=".3985" stroke-linecap="butt" stroke-miterlimit="10" stroke-linejoin="miter" fill="none" stroke="#000000" d="M 28.3468 28.3468 L 85.04042 85.04042 "/>
<path transform="matrix(1,0,0,-1,14.988998,338.427)" stroke-width=".3985" stroke-linecap="butt" stroke-miterlimit="10" stroke-linejoin="miter" fill="none" stroke="#000000" d="M 28.3468 56.69362 L 85.04042 113.38724 "/>
<path transform="matrix(1,0,0,-1,14.988998,338.427)" stroke-width=".3985" stroke-linecap="butt" stroke-miterlimit="10" stroke-linejoin="miter" fill="none" stroke="#000000" d="M 28.3468 56.69362 L 141.73404 311.8149 "/>
<path transform="matrix(1,0,0,-1,14.988998,338.427)" stroke-width=".3985" stroke-linecap="butt" stroke-miterlimit="10" stroke-linejoin="miter" fill="none" stroke="#000000" d="M 28.3468 56.69362 L 170.08086 226.77448 "/>
<path transform="matrix(1,0,0,-1,14.988998,338.427)" stroke-width=".3985" stroke-linecap="butt" stroke-miterlimit="10" stroke-linejoin="miter" fill="none" stroke="#000000" d="M 56.69362 28.3468 L 85.04042 28.3468 "/>
<path transform="matrix(1,0,0,-1,14.988998,338.427)" stroke-width=".3985" stroke-linecap="butt" stroke-miterlimit="10" stroke-linejoin="miter" fill="none" stroke="#000000" d="M 56.69362 28.3468 L 85.04042 56.69362 "/>
<path transform="matrix(1,0,0,-1,14.988998,338.427)" stroke-width=".3985" stroke-linecap="butt" stroke-miterlimit="10" stroke-linejoin="miter" fill="none" stroke="#000000" d="M 56.69362 28.3468 L 311.8149 0 "/>
<path transform="matrix(1,0,0,-1,14.988998,338.427)" stroke-width=".3985" stroke-linecap="butt" stroke-miterlimit="10" stroke-linejoin="miter" fill="none" stroke="#000000" d="M 85.04042 28.3468 L 85.04042 56.69362 "/>
<path transform="matrix(1,0,0,-1,14.988998,338.427)" stroke-width=".3985" stroke-linecap="butt" stroke-miterlimit="10" stroke-linejoin="miter" fill="none" stroke="#000000" d="M 85.04042 28.3468 L 113.38724 56.69362 "/>
<path transform="matrix(1,0,0,-1,14.988998,338.427)" stroke-width=".3985" stroke-linecap="butt" stroke-miterlimit="10" stroke-linejoin="miter" fill="none" stroke="#000000" d="M 85.04042 28.3468 L 141.73404 28.3468 "/>
<path transform="matrix(1,0,0,-1,14.988998,338.427)" stroke-width=".3985" stroke-linecap="butt" stroke-miterlimit="10" stroke-linejoin="miter" fill="none" stroke="#000000" d="M 85.04042 28.3468 L 311.8149 0 "/>
<path transform="matrix(1,0,0,-1,14.988998,338.427)" stroke-width=".3985" stroke-linecap="butt" stroke-miterlimit="10" stroke-linejoin="miter" fill="none" stroke="#000000" d="M 85.04042 56.69362 L 85.04042 85.04042 "/>
<path transform="matrix(1,0,0,-1,14.988998,338.427)" stroke-width=".3985" stroke-linecap="butt" stroke-miterlimit="10" stroke-linejoin="miter" fill="none" stroke="#000000" d="M 85.04042 56.69362 L 113.38724 56.69362 "/>
<path transform="matrix(1,0,0,-1,14.988998,338.427)" stroke-width=".3985" stroke-linecap="butt" stroke-miterlimit="10" stroke-linejoin="miter" fill="none" stroke="#000000" d="M 85.04042 85.04042 L 85.04042 113.38724 "/>
<path transform="matrix(1,0,0,-1,14.988998,338.427)" stroke-width=".3985" stroke-linecap="butt" stroke-miterlimit="10" stroke-linejoin="miter" fill="none" stroke="#000000" d="M 85.04042 85.04042 L 113.38724 56.69362 "/>
<path transform="matrix(1,0,0,-1,14.988998,338.427)" stroke-width=".3985" stroke-linecap="butt" stroke-miterlimit="10" stroke-linejoin="miter" fill="none" stroke="#000000" d="M 85.04042 85.04042 L 113.38724 85.04042 "/>
<path transform="matrix(1,0,0,-1,14.988998,338.427)" stroke-width=".3985" stroke-linecap="butt" stroke-miterlimit="10" stroke-linejoin="miter" fill="none" stroke="#000000" d="M 85.04042 113.38724 L 113.38724 85.04042 "/>
<path transform="matrix(1,0,0,-1,14.988998,338.427)" stroke-width=".3985" stroke-linecap="butt" stroke-miterlimit="10" stroke-linejoin="miter" fill="none" stroke="#000000" d="M 85.04042 113.38724 L 170.08086 198.42766 "/>
<path transform="matrix(1,0,0,-1,14.988998,338.427)" stroke-width=".3985" stroke-linecap="butt" stroke-miterlimit="10" stroke-linejoin="miter" fill="none" stroke="#000000" d="M 85.04042 113.38724 L 170.08086 226.77448 "/>
<path transform="matrix(1,0,0,-1,14.988998,338.427)" stroke-width=".3985" stroke-linecap="butt" stroke-miterlimit="10" stroke-linejoin="miter" fill="none" stroke="#000000" d="M 113.38724 56.69362 L 113.38724 85.04042 "/>
<path transform="matrix(1,0,0,-1,14.988998,338.427)" stroke-width=".3985" stroke-linecap="butt" stroke-miterlimit="10" stroke-linejoin="miter" fill="none" stroke="#000000" d="M 113.38724 56.69362 L 141.73404 28.3468 "/>
<path transform="matrix(1,0,0,-1,14.988998,338.427)" stroke-width=".3985" stroke-linecap="butt" stroke-miterlimit="10" stroke-linejoin="miter" fill="none" stroke="#000000" d="M 113.38724 85.04042 L 113.38724 113.38724 "/>
<path transform="matrix(1,0,0,-1,14.988998,338.427)" stroke-width=".3985" stroke-linecap="butt" stroke-miterlimit="10" stroke-linejoin="miter" fill="none" stroke="#000000" d="M 113.38724 85.04042 L 141.73404 28.3468 "/>
<path transform="matrix(1,0,0,-1,14.988998,338.427)" stroke-width=".3985" stroke-linecap="butt" stroke-miterlimit="10" stroke-linejoin="miter" fill="none" stroke="#000000" d="M 113.38724 113.38724 L 141.73404 56.69362 "/>
<path transform="matrix(1,0,0,-1,14.988998,338.427)" stroke-width=".3985" stroke-linecap="butt" stroke-miterlimit="10" stroke-linejoin="miter" fill="none" stroke="#000000" d="M 113.38724 113.38724 L 141.73404 85.04042 "/>
<path transform="matrix(1,0,0,-1,14.988998,338.427)" stroke-width=".3985" stroke-linecap="butt" stroke-miterlimit="10" stroke-linejoin="miter" fill="none" stroke="#000000" d="M 113.38724 113.38724 L 141.73404 141.73404 "/>
<path transform="matrix(1,0,0,-1,14.988998,338.427)" stroke-width=".3985" stroke-linecap="butt" stroke-miterlimit="10" stroke-linejoin="miter" fill="none" stroke="#000000" d="M 113.38724 113.38724 L 170.08086 198.42766 "/>
<path transform="matrix(1,0,0,-1,14.988998,338.427)" stroke-width=".3985" stroke-linecap="butt" stroke-miterlimit="10" stroke-linejoin="miter" fill="none" stroke="#000000" d="M 141.73404 28.3468 L 141.73404 56.69362 "/>
<path transform="matrix(1,0,0,-1,14.988998,338.427)" stroke-width=".3985" stroke-linecap="butt" stroke-miterlimit="10" stroke-linejoin="miter" fill="none" stroke="#000000" d="M 141.73404 28.3468 L 283.4681 28.3468 "/>
<path transform="matrix(1,0,0,-1,14.988998,338.427)" stroke-width=".3985" stroke-linecap="butt" stroke-miterlimit="10" stroke-linejoin="miter" fill="none" stroke="#000000" d="M 141.73404 56.69362 L 141.73404 85.04042 "/>
<path transform="matrix(1,0,0,-1,14.988998,338.427)" stroke-width=".3985" stroke-linecap="butt" stroke-miterlimit="10" stroke-linejoin="miter" fill="none" stroke="#000000" d="M 141.73404 56.69362 L 170.08086 85.04042 "/>
<path transform="matrix(1,0,0,-1,14.988998,338.427)" stroke-width=".3985" stroke-linecap="butt" stroke-miterlimit="10" stroke-linejoin="miter" fill="none" stroke="#000000" d="M 141.73404 56.69362 L 255.12128 56.69362 "/>
<path transform="matrix(1,0,0,-1,14.988998,338.427)" stroke-width=".3985" stroke-linecap="butt" stroke-miterlimit="10" stroke-linejoin="miter" fill="none" stroke="#000000" d="M 141.73404 85.04042 L 141.73404 141.73404 "/>
<path transform="matrix(1,0,0,-1,14.988998,338.427)" stroke-width=".3985" stroke-linecap="butt" stroke-miterlimit="10" stroke-linejoin="miter" fill="none" stroke="#000000" d="M 141.73404 85.04042 L 170.08086 85.04042 "/>
<path transform="matrix(1,0,0,-1,14.988998,338.427)" stroke-width=".3985" stroke-linecap="butt" stroke-miterlimit="10" stroke-linejoin="miter" fill="none" stroke="#000000" d="M 141.73404 85.04042 L 170.08086 113.38724 "/>
<path transform="matrix(1,0,0,-1,14.988998,338.427)" stroke-width=".3985" stroke-linecap="butt" stroke-miterlimit="10" stroke-linejoin="miter" fill="none" stroke="#000000" d="M 141.73404 141.73404 L 170.08086 113.38724 "/>
<path transform="matrix(1,0,0,-1,14.988998,338.427)" stroke-width=".3985" stroke-linecap="butt" stroke-miterlimit="10" stroke-linejoin="miter" fill="none" stroke="#000000" d="M 141.73404 141.73404 L 170.08086 198.42766 "/>
<path transform="matrix(1,0,0,-1,14.988998,338.427)" stroke-width=".3985" stroke-linecap="butt" stroke-miterlimit="10" stroke-linejoin="miter" fill="none" stroke="#000000" d="M 141.73404 141.73404 L 198.42766 113.38724 "/>
<path transform="matrix(1,0,0,-1,14.988998,338.427)" stroke-width=".3985" stroke-linecap="butt" stroke-miterlimit="10" stroke-linejoin="miter" fill="none" stroke="#000000" d="M 141.73404 311.8149 L 170.08086 226.77448 "/>
<path transform="matrix(1,0,0,-1,14.988998,338.427)" stroke-width=".3985" stroke-linecap="butt" stroke-miterlimit="10" stroke-linejoin="miter" fill="none" stroke="#000000" d="M 141.73404 311.8149 L 283.4681 28.3468 "/>
<path transform="matrix(1,0,0,-1,14.988998,338.427)" stroke-width=".3985" stroke-linecap="butt" stroke-miterlimit="10" stroke-linejoin="miter" fill="none" stroke="#000000" d="M 141.73404 311.8149 L 311.8149 0 "/>
<path transform="matrix(1,0,0,-1,14.988998,338.427)" stroke-width=".3985" stroke-linecap="butt" stroke-miterlimit="10" stroke-linejoin="miter" fill="none" stroke="#000000" d="M 170.08086 85.04042 L 170.08086 113.38724 "/>
<path transform="matrix(1,0,0,-1,14.988998,338.427)" stroke-width=".3985" stroke-linecap="butt" stroke-miterlimit="10" stroke-linejoin="miter" fill="none" stroke="#000000" d="M 170.08086 85.04042 L 198.42766 85.04042 "/>
<path transform="matrix(1,0,0,-1,14.988998,338.427)" stroke-width=".3985" stroke-linecap="butt" stroke-miterlimit="10" stroke-linejoin="miter" fill="none" stroke="#000000" d="M 170.08086 85.04042 L 255.12128 56.69362 "/>
<path transform="matrix(1,0,0,-1,14.988998,338.427)" stroke-width=".3985" stroke-linecap="butt" stroke-miterlimit="10" stroke-linejoin="miter" fill="none" stroke="#000000" d="M 170.08086 113.38724 L 198.42766 85.04042 "/>
<path transform="matrix(1,0,0,-1,14.988998,338.427)" stroke-width=".3985" stroke-linecap="butt" stroke-miterlimit="10" stroke-linejoin="miter" fill="none" stroke="#000000" d="M 170.08086 113.38724 L 198.42766 113.38724 "/>
<path transform="matrix(1,0,0,-1,14.988998,338.427)" stroke-width=".3985" stroke-linecap="butt" stroke-miterlimit="10" stroke-linejoin="miter" fill="none" stroke="#000000" d="M 170.08086 198.42766 L 198.42766 113.38724 "/>
<path transform="matrix(1,0,0,-1,14.988998,338.427)" stroke-width=".3985" stroke-linecap="butt" stroke-miterlimit="10" stroke-linejoin="miter" fill="none" stroke="#000000" d="M 170.08086 198.42766 L 226.77448 85.04042 "/>
<path transform="matrix(1,0,0,-1,14.988998,338.427)" stroke-width=".3985" stroke-linecap="butt" stroke-miterlimit="10" stroke-linejoin="miter" fill="none" stroke="#000000" d="M 170.08086 226.77448 L 226.77448 85.04042 "/>
<path transform="matrix(1,0,0,-1,14.988998,338.427)" stroke-width=".3985" stroke-linecap="butt" stroke-miterlimit="10" stroke-linejoin="miter" fill="none" stroke="#000000" d="M 170.08086 226.77448 L 283.4681 28.3468 "/>
<path transform="matrix(1,0,0,-1,14.988998,338.427)" stroke-width=".3985" stroke-linecap="butt" stroke-miterlimit="10" stroke-linejoin="miter" fill="none" stroke="#000000" d="M 198.42766 85.04042 L 198.42766 113.38724 "/>
<path transform="matrix(1,0,0,-1,14.988998,338.427)" stroke-width=".3985" stroke-linecap="butt" stroke-miterlimit="10" stroke-linejoin="miter" fill="none" stroke="#000000" d="M 198.42766 85.04042 L 226.77448 85.04042 "/>
<path transform="matrix(1,0,0,-1,14.988998,338.427)" stroke-width=".3985" stroke-linecap="butt" stroke-miterlimit="10" stroke-linejoin="miter" fill="none" stroke="#000000" d="M 198.42766 85.04042 L 255.12128 56.69362 "/>
<path transform="matrix(1,0,0,-1,14.988998,338.427)" stroke-width=".3985" stroke-linecap="butt" stroke-miterlimit="10" stroke-linejoin="miter" fill="none" stroke="#000000" d="M 198.42766 113.38724 L 226.77448 85.04042 "/>
<path transform="matrix(1,0,0,-1,14.988998,338.427)" stroke-width=".3985" stroke-linecap="butt" stroke-miterlimit="10" stroke-linejoin="miter" fill="none" stroke="#000000" d="M 226.77448 85.04042 L 255.12128 56.69362 "/>
<path transform="matrix(1,0,0,-1,14.988998,338.427)" stroke-width=".3985" stroke-linecap="butt" stroke-miterlimit="10" stroke-linejoin="miter" fill="none" stroke="#000000" d="M 255.12128 56.69362 L 283.4681 28.3468 "/>
<path transform="matrix(1,0,0,-1,14.988998,338.427)" stroke-width=".3985" stroke-linecap="butt" stroke-miterlimit="10" stroke-linejoin="miter" fill="none" stroke="#000000" d="M 283.4681 28.3468 L 311.8149 0 "/>
</g>
</svg>
