<?xml version="1.0" encoding="UTF-8" standalone="no"?>
<!DOCTYPE svg PUBLIC "-//W3C//DTD SVG 1.1//EN" "http://www.w3.org/Graphics/SVG/1.1/DTD/svg11.dtd">
<svg xmlns="http://www.w3.org/2000/svg" xmlns:xlink="http://www.w3.org/1999/xlink" version="1.1" width="409.73pt" height="239.42pt" viewBox="0 0 409.73 239.42">
<g enable-background="new">
<path transform="matrix(1,0,0,-1,14.988998,225.048)" stroke-width=".19925" stroke-linecap="butt" stroke-miterlimit="10" stroke-linejoin="miter" fill="none" stroke="#929292" d="M 28.3468 -14.17339 L 28.3468 212.60106 "/>
<path transform="matrix(1,0,0,-1,14.988998,225.048)" stroke-width=".19925" stroke-linecap="butt" stroke-miterlimit="10" stroke-linejoin="miter" fill="none" stroke="#929292" d="M 56.69362 -14.17339 L 56.69362 212.60106 "/>
<path transform="matrix(1,0,0,-1,14.988998,225.048)" stroke-width=".19925" stroke-linecap="butt" stroke-miterlimit="10" stroke-linejoin="miter" fill="none" stroke="#929292" d="M 85.04042 -14.17339 L 85.04042 212.60106 "/>
<path transform="matrix(1,0,0,-1,14.988998,225.048)" stroke-width=".19925" stroke-linecap="butt" stroke-miterlimit="10" stroke-linejoin="miter" fill="none" stroke="#929292" d="M 113.38724 -14.17339 L 113.38724 212.60106 "/>
<path transform="matrix(1,0,0,-1,14.988998,225.048)" stroke-width=".19925" stroke-linecap="butt" stroke-miterlimit="10" stroke-linejoin="miter" fill="none" stroke="#929292" d="M 141.73404 -14.17339 L 141.73404 212.60106 "/>
<path transform="matrix(1,0,0,-1,14.988998,225.048)" stroke-width=".19925" stroke-linecap="butt" stroke-miterlimit="10" stroke-linejoin="miter" fill="none" stroke="#929292" d="M 170.08086 -14.17339 L 170.08086 212.60106 "/>
<path transform="matrix(1,0,0,-1,14.988998,225.048)" stroke-width=".19925" stroke-linecap="butt" stroke-miterlimit="10" stroke-linejoin="miter" fill="none" stroke="#929292" d="M 198.42766 -14.17339 L 198.42766 212.60106 "/>
<path transform="matrix(1,0,0,-1,14.988998,225.048)" stroke-width=".19925" stroke-linecap="butt" stroke-miterlimit="10" stroke-linejoin="miter" fill="none" stroke="#929292" d="M 226.77448 -14.17339 L 226.77448 212.60106 "/>
<path transform="matrix(1,0,0,-1,14.988998,225.048)" stroke-width=".19925" stroke-linecap="butt" stroke-miterlimit="10" stroke-linejoin="miter" fill="none" stroke="#929292" d="M 255.12128 -14.17339 L 255.12128 212.60106 "/>
<path transform="matrix(1,0,0,-1,14.988998,225.048)" stroke-width=".19925" stroke-linecap="butt" stroke-miterlimit="10" stroke-linejoin="miter" fill="none" stroke="#929292" d="M 283.4681 -14.17339 L 283.4681 212.60106 "/>
<path transform="matrix(1,0,0,-1,14.988998,225.048)" stroke-width=".19925" stroke-linecap="butt" stroke-miterlimit="10" stroke-linejoin="miter" fill="none" stroke="#929292" d="M 311.8149 -14.17339 L 311.8149 212.60106 "/>
<path transform="matrix(1,0,0,-1,14.988998,225.048)" stroke-width=".19925" stroke-linecap="butt" stroke-miterlimit="10" stroke-linejoin="miter" fill="none" stroke="#929292" d="M 340.1617 -14.17339 L 340.1617 212.60106 "/>
<path transform="matrix(1,0,0,-1,14.988998,225.048)" stroke-width=".19925" stroke-linecap="butt" stroke-miterlimit="10" stroke-linejoin="miter" fill="none" stroke="#929292" d="M 368.5085 -14.17339 L 368.5085 212.60106 "/>
<path transform="matrix(1,0,0,-1,14.988998,225.048)" stroke-width=".19925" stroke-linecap="butt" stroke-miterlimit="10" stroke-linejoin="miter" fill="none" stroke="#929292" d="M -14.17339 28.3468 L 382.68193 28.3468 "/>
<path transform="matrix(1,0,0,-1,14.988998,225.048)" stroke-width=".19925" stroke-linecap="butt" stroke-miterlimit="10" stroke-linejoin="miter" fill="none" stroke="#929292" d="M -14.17339 56.69362 L 382.68193 56.69362 "/>
<path transform="matrix(1,0,0,-1,14.988998,225.048)" stroke-width=".19925" stroke-linecap="butt" stroke-miterlimit="10" stroke-linejoin="miter" fill="none" stroke="#929292" d="M -14.17339 85.04042 L 382.68193 85.04042 "/>
<path transform="matrix(1,0,0,-1,14.988998,225.048)" stroke-width=".19925" stroke-linecap="butt" stroke-miterlimit="10" stroke-linejoin="miter" fill="none" stroke="#929292" d="M -14.17339 113.38724 L 382.68193 113.38724 "/>
<path transform="matrix(1,0,0,-1,14.988998,225.048)" stroke-width=".19925" stroke-linecap="butt" stroke-miterlimit="10" stroke-linejoin="miter" fill="none" stroke="#929292" d="M -14.17339 141.73404 L 382.68193 141.73404 "/>
<path transform="matrix(1,0,0,-1,14.988998,225.048)" stroke-width=".19925" stroke-linecap="butt" stroke-miterlimit="10" stroke-linejoin="miter" fill="none" stroke="#929292" d="M -14.17339 170.08086 L 382.68193 170.08086 "/>
<path transform="matrix(1,0,0,-1,14.988998,225.048)" stroke-width=".19925" stroke-linecap="butt" stroke-miterlimit="10" stroke-linejoin="miter" fill="none" stroke="#929292" d="M -14.17339 198.42766 L 382.68193 198.42766 "/>
<path transform="matrix(1,0,0,-1,14.988998,225.048)" stroke-width=".3985" stroke-linecap="butt" stroke-miterlimit="10" stroke-linejoin="miter" fill="none" stroke="#000000" d="M -14.17339 0 L 380.6894 0 "/>
<path transform="matrix(1,0,0,-1,395.6784,225.048)" d="M 1.99252 0 L -1.19551 1.59401 L 0 0 L -1.19551 -1.59401 "/>
<text xml:space="preserve" transform="matrix(1 0 -0 1 458.202 73.935009)" font-size="8.9664" font-family="CMMI9" font-style="italic"><tspan y="153.043" x="-57.011">x</tspan></text>
<path transform="matrix(1,0,0,-1,14.988998,225.048)" stroke-width=".3985" stroke-linecap="butt" stroke-miterlimit="10" stroke-linejoin="miter" fill="none" stroke="#000000" d="M 0 -14.17339 L 0 210.60854 "/>
<path transform="matrix(0,-1,-1,-0,14.988998,14.439468)" d="M 1.99252 0 L -1.19551 1.59401 L 0 0 L -1.19551 -1.59401 "/>
<text xml:space="preserve" transform="matrix(1 0 -0 1 69.57 -145.859)" font-size="8.9664" font-family="CMMI9" font-style="italic"><tspan y="153.043" x="-57.011">y</tspan></text>
<path transform="matrix(1,0,0,-1,14.988998,225.048)" stroke-width=".3985" stroke-linecap="butt" stroke-miterlimit="10" stroke-linejoin="miter" fill="none" stroke="#000000" d="M 0 0 L 28.3468 28.3468 "/>
<path transform="matrix(1,0,0,-1,14.988998,225.048)" stroke-width=".3985" stroke-linecap="butt" stroke-miterlimit="10" stroke-linejoin="miter" fill="none" stroke="#000000" d="M 0 0 L 56.69362 28.3468 "/>
<path transform="matrix(1,0,0,-1,14.988998,225.048)" stroke-width=".3985" stroke-linecap="butt" stroke-miterlimit="10" stroke-linejoin="miter" fill="none" stroke="#000000" d="M 0 0 L 56.69362 113.38724 "/>
<path transform="matrix(1,0,0,-1,14.988998,225.048)" stroke-width=".3985" stroke-linecap="butt" stroke-miterlimit="10" stroke-linejoin="miter" fill="none" stroke="#000000" d="M 0 0 L 85.04042 198.42766 "/>
<path transform="matrix(1,0,0,-1,14.988998,225.048)" stroke-width=".3985" stroke-linecap="butt" stroke-miterlimit="10" stroke-linejoin="miter" fill="none" stroke="#000000" d="M 0 0 L 170.08086 0 "/>
<path transform="matrix(1,0,0,-1,14.988998,225.048)" stroke-width=".3985" stroke-linecap="butt" stroke-miterlimit="10" stroke-linejoin="miter" fill="none" stroke="#000000" d="M 28.3468 28.3468 L 56.69362 28.3468 "/>
<path transform="matrix(1,0,0,-1,14.988998,225.048)" stroke-width=".3985" stroke-linecap="butt" stroke-miterlimit="10" stroke-linejoin="miter" fill="none" stroke="#000000" d="M 28.3468 28.3468 L 56.69362 56.69362 "/>
<path transform="matrix(1,0,0,-1,14.988998,225.048)" stroke-width=".3985" stroke-linecap="butt" stroke-miterlimit="10" stroke-linejoin="miter" fill="none" stroke="#000000" d="M 28.3468 28.3468 L 56.69362 85.04042 "/>
<path transform="matrix(1,0,0,-1,14.988998,225.048)" stroke-width=".3985" stroke-linecap="butt" stroke-miterlimit="10" stroke-linejoin="miter" fill="none" stroke="#000000" d="M 28.3468 28.3468 L 56.69362 113.38724 "/>
<path transform="matrix(1,0,0,-1,14.988998,225.048)" stroke-width=".3985" stroke-linecap="butt" stroke-miterlimit="10" stroke-linejoin="miter" fill="none" stroke="#000000" d="M 56.69362 28.3468 L 56.69362 56.69362 "/>
<path transform="matrix(1,0,0,-1,14.988998,225.048)" stroke-width=".3985" stroke-linecap="butt" stroke-miterlimit="10" stroke-linejoin="miter" fill="none" stroke="#000000" d="M 56.69362 28.3468 L 85.04042 28.3468 "/>
<path transform="matrix(1,0,0,-1,14.988998,225.048)" stroke-width=".3985" stroke-linecap="butt" stroke-miterlimit="10" stroke-linejoin="miter" fill="none" stroke="#000000" d="M 56.69362 28.3468 L 170.08086 0 "/>
<path transform="matrix(1,0,0,-1,14.988998,225.048)" stroke-width=".3985" stroke-linecap="butt" stroke-miterlimit="10" stroke-linejoin="miter" fill="none" stroke="#000000" d="M 56.69362 56.69362 L 56.69362 85.04042 "/>
<path transform="matrix(1,0,0,-1,14.988998,225.048)" stroke-width=".3985" stroke-linecap="butt" stroke-miterlimit="10" stroke-linejoin="miter" fill="none" stroke="#000000" d="M 56.69362 56.69362 L 85.04042 28.3468 "/>
<path transform="matrix(1,0,0,-1,14.988998,225.048)" stroke-width=".3985" stroke-linecap="butt" stroke-miterlimit="10" stroke-linejoin="miter" fill="none" stroke="#000000" d="M 56.69362 56.69362 L 85.04042 56.69362 "/>
<path transform="matrix(1,0,0,-1,14.988998,225.048)" stroke-width=".3985" stroke-linecap="butt" stroke-miterlimit="10" stroke-linejoin="miter" fill="none" stroke="#000000" d="M 56.69362 85.04042 L 85.04042 56.69362 "/>
<path transform="matrix(1,0,0,-1,14.988998,225.048)" stroke-width=".3985" stroke-linecap="butt" stroke-miterlimit="10" stroke-linejoin="miter" fill="none" stroke="#000000" d="M 56.69362 85.04042 L 85.04042 85.04042 "/>
<path transform="matrix(1,0,0,-1,14.988998,225.048)" stroke-width=".3985" stroke-linecap="butt" stroke-miterlimit="10" stroke-linejoin="miter" fill="none" stroke="#000000" d="M 56.69362 85.04042 L 85.04042 113.38724 "/>
<path transform="matrix(1,0,0,-1,14.988998,225.048)" stroke-width=".3985" stroke-linecap="butt" stroke-miterlimit="10" stroke-linejoin="miter" fill="none" stroke="#000000" d="M 56.69362 113.38724 L 85.04042 113.38724 "/>
<path transform="matrix(1,0,0,-1,14.988998,225.048)" stroke-width=".3985" stroke-linecap="butt" stroke-miterlimit="10" stroke-linejoin="miter" fill="none" stroke="#000000" d="M 56.69362 113.38724 L 85.04042 141.73404 "/>
<path transform="matrix(1,0,0,-1,14.988998,225.048)" stroke-width=".3985" stroke-linecap="butt" stroke-miterlimit="10" stroke-linejoin="miter" fill="none" stroke="#000000" d="M 56.69362 113.38724 L 85.04042 198.42766 "/>
<path transform="matrix(1,0,0,-1,14.988998,225.048)" stroke-width=".3985" stroke-linecap="butt" stroke-miterlimit="10" stroke-linejoin="miter" fill="none" stroke="#000000" d="M 85.04042 28.3468 L 85.04042 56.69362 "/>
<path transform="matrix(1,0,0,-1,14.988998,225.048)" stroke-width=".3985" stroke-linecap="butt" stroke-miterlimit="10" stroke-linejoin="miter" fill="none" stroke="#000000" d="M 85.04042 28.3468 L 113.38724 28.3468 "/>
<path transform="matrix(1,0,0,-1,14.988998,225.048)" stroke-width=".3985" stroke-linecap="butt" stroke-miterlimit="10" stroke-linejoin="miter" fill="none" stroke="#000000" d="M 85.04042 28.3468 L 170.08086 0 "/>
<path transform="matrix(1,0,0,-1,14.988998,225.048)" stroke-width=".3985" stroke-linecap="butt" stroke-miterlimit="10" stroke-linejoin="miter" fill="none" stroke="#000000" d="M 85.04042 56.69362 L 85.04042 85.04042 "/>
<path transform="matrix(1,0,0,-1,14.988998,225.048)" stroke-width=".3985" stroke-linecap="butt" stroke-miterlimit="10" stroke-linejoin="miter" fill="none" stroke="#000000" d="M 85.04042 56.69362 L 113.38724 28.3468 "/>
<path transform="matrix(1,0,0,-1,14.988998,225.048)" stroke-width=".3985" stroke-linecap="butt" stroke-miterlimit="10" stroke-linejoin="miter" fill="none" stroke="#000000" d="M 85.04042 85.04042 L 85.04042 113.38724 "/>
<path transform="matrix(1,0,0,-1,14.988998,225.048)" stroke-width=".3985" stroke-linecap="butt" stroke-miterlimit="10" stroke-linejoin="miter" fill="none" stroke="#000000" d="M 85.04042 85.04042 L 113.38724 28.3468 "/>
<path transform="matrix(1,0,0,-1,14.988998,225.048)" stroke-width=".3985" stroke-linecap="butt" stroke-miterlimit="10" stroke-linejoin="miter" fill="none" stroke="#000000" d="M 85.04042 85.04042 L 113.38724 56.69362 "/>
<path transform="matrix(1,0,0,-1,14.988998,225.048)" stroke-width=".3985" stroke-linecap="butt" stroke-miterlimit="10" stroke-linejoin="miter" fill="none" stroke="#000000" d="M 85.04042 113.38724 L 85.04042 141.73404 "/>
<path transform="matrix(1,0,0,-1,14.988998,225.048)" stroke-width=".3985" stroke-linecap="butt" stroke-miterlimit="10" stroke-linejoin="miter" fill="none" stroke="#000000" d="M 85.04042 113.38724 L 113.38724 56.69362 "/>
<path transform="matrix(1,0,0,-1,14.988998,225.048)" stroke-width=".3985" stroke-linecap="butt" stroke-miterlimit="10" stroke-linejoin="miter" fill="none" stroke="#000000" d="M 85.04042 141.73404 L 85.04042 198.42766 "/>
<path transform="matrix(1,0,0,-1,14.988998,225.048)" stroke-width=".3985" stroke-linecap="butt" stroke-miterlimit="10" stroke-linejoin="miter" fill="none" stroke="#000000" d="M 85.04042 141.73404 L 113.38724 56.69362 "/>
<path transform="matrix(1,0,0,-1,14.988998,225.048)" stroke-width=".3985" stroke-linecap="butt" stroke-miterlimit="10" stroke-linejoin="miter" fill="none" stroke="#000000" d="M 85.04042 141.73404 L 141.73404 28.3468 "/>
<path transform="matrix(1,0,0,-1,14.988998,225.048)" stroke-width=".3985" stroke-linecap="butt" stroke-miterlimit="10" stroke-linejoin="miter" fill="none" stroke="#000000" d="M 85.04042 198.42766 L 141.73404 28.3468 "/>
<path transform="matrix(1,0,0,-1,14.988998,225.048)" stroke-width=".3985" stroke-linecap="butt" stroke-miterlimit="10" stroke-linejoin="miter" fill="none" stroke="#000000" d="M 85.04042 198.42766 L 311.8149 141.73404 "/>
<path transform="matrix(1,0,0,-1,14.988998,225.048)" stroke-width=".3985" stroke-linecap="butt" stroke-miterlimit="10" stroke-linejoin="miter" fill="none" stroke="#000000" d="M 113.38724 28.3468 L 113.38724 56.69362 "/>
<path transform="matrix(1,0,0,-1,14.988998,225.048)" stroke-width=".3985" stroke-linecap="butt" stroke-miterlimit="10" stroke-linejoin="miter" fill="none" stroke="#000000" d="M 113.38724 28.3468 L 141.73404 28.3468 "/>
<path transform="matrix(1,0,0,-1,14.988998,225.048)" stroke-width=".3985" stroke-linecap="butt" stroke-miterlimit="10" stroke-linejoin="miter" fill="none" stroke="#000000" d="M 113.38724 56.69362 L 141.73404 28.3468 "/>
<path transform="matrix(1,0,0,-1,14.988998,225.048)" stroke-width=".3985" stroke-linecap="butt" stroke-miterlimit="10" stroke-linejoin="miter" fill="none" stroke="#000000" d="M 141.73404 28.3468 L 170.08086 0 "/>
<path transform="matrix(1,0,0,-1,14.988998,225.048)" stroke-width=".3985" stroke-linecap="butt" stroke-miterlimit="10" stroke-linejoin="miter" fill="none" stroke="#000000" d="M 170.08086 0 L 198.42766 0 "/>
<path transform="matrix(1,0,0,-1,14.988998,225.048)" stroke-width=".3985" stroke-linecap="butt" stroke-miterlimit="10" stroke-linejoin="miter" fill="none" stroke="#000000" d="M 198.42766 0 L 255.12128 56.69362 "/>
<path transform="matrix(1,0,0,-1,14.988998,225.048)" stroke-width=".3985" stroke-linecap="butt" stroke-miterlimit="10" stroke-linejoin="miter" fill="none" stroke="#000000" d="M 198.42766 0 L 283.4681 28.3468 "/>
<path transform="matrix(1,0,0,-1,14.988998,225.048)" stroke-width=".3985" stroke-linecap="butt" stroke-miterlimit="10" stroke-linejoin="miter" fill="none" stroke="#000000" d="M 198.42766 0 L 311.8149 28.3468 "/>
<path transform="matrix(1,0,0,-1,14.988998,225.048)" stroke-width=".3985" stroke-linecap="butt" stroke-miterlimit="10" stroke-linejoin="miter" fill="none" stroke="#000000" d="M 198.42766 0 L 368.5085 0 "/>
<path transform="matrix(1,0,0,-1,14.988998,225.048)" stroke-width=".3985" stroke-linecap="butt" stroke-miterlimit="10" stroke-linejoin="miter" fill="none" stroke="#000000" d="M 255.12128 56.69362 L 283.4681 28.3468 "/>
<path transform="matrix(1,0,0,-1,14.988998,225.048)" stroke-width=".3985" stroke-linecap="butt" stroke-miterlimit="10" stroke-linejoin="miter" fill="none" stroke="#000000" d="M 255.12128 56.69362 L 283.4681 56.69362 "/>
<path transform="matrix(1,0,0,-1,14.988998,225.048)" stroke-width=".3985" stroke-linecap="butt" stroke-miterlimit="10" stroke-linejoin="miter" fill="none" stroke="#000000" d="M 255.12128 56.69362 L 283.4681 85.04042 "/>
<path transform="matrix(1,0,0,-1,14.988998,225.048)" stroke-width=".3985" stroke-linecap="butt" stroke-miterlimit="10" stroke-linejoin="miter" fill="none" stroke="#000000" d="M 255.12128 56.69362 L 311.8149 141.73404 "/>
<path transform="matrix(1,0,0,-1,14.988998,225.048)" stroke-width=".3985" stroke-linecap="butt" stroke-miterlimit="10" stroke-linejoin="miter" fill="none" stroke="#000000" d="M 283.4681 28.3468 L 283.4681 56.69362 "/>
<path transform="matrix(1,0,0,-1,14.988998,225.048)" stroke-width=".3985" stroke-linecap="butt" stroke-miterlimit="10" stroke-linejoin="miter" fill="none" stroke="#000000" d="M 283.4681 28.3468 L 311.8149 28.3468 "/>
<path transform="matrix(1,0,0,-1,14.988998,225.048)" stroke-width=".3985" stroke-linecap="butt" stroke-miterlimit="10" stroke-linejoin="miter" fill="none" stroke="#000000" d="M 283.4681 28.3468 L 311.8149 56.69362 "/>
<path transform="matrix(1,0,0,-1,14.988998,225.048)" stroke-width=".3985" stroke-linecap="butt" stroke-miterlimit="10" stroke-linejoin="miter" fill="none" stroke="#000000" d="M 283.4681 56.69362 L 283.4681 85.04042 "/>
<path transform="matrix(1,0,0,-1,14.988998,225.048)" stroke-width=".3985" stroke-linecap="butt" stroke-miterlimit="10" stroke-linejoin="miter" fill="none" stroke="#000000" d="M 283.4681 56.69362 L 311.8149 56.69362 "/>
<path transform="matrix(1,0,0,-1,14.988998,225.048)" stroke-width=".3985" stroke-linecap="butt" stroke-miterlimit="10" stroke-linejoin="miter" fill="none" stroke="#000000" d="M 283.4681 56.69362 L 311.8149 85.04042 "/>
<path transform="matrix(1,0,0,-1,14.988998,225.048)" stroke-width=".3985" stroke-linecap="butt" stroke-miterlimit="10" stroke-linejoin="miter" fill="none" stroke="#000000" d="M 283.4681 85.04042 L 311.8149 85.04042 "/>
<path transform="matrix(1,0,0,-1,14.988998,225.048)" stroke-width=".3985" stroke-linecap="butt" stroke-miterlimit="10" stroke-linejoin="miter" fill="none" stroke="#000000" d="M 283.4681 85.04042 L 311.8149 113.38724 "/>
<path transform="matrix(1,0,0,-1,14.988998,225.048)" stroke-width=".3985" stroke-linecap="butt" stroke-miterlimit="10" stroke-linejoin="miter" fill="none" stroke="#000000" d="M 283.4681 85.04042 L 311.8149 141.73404 "/>
<path transform="matrix(1,0,0,-1,14.988998,225.048)" stroke-width=".3985" stroke-linecap="butt" stroke-miterlimit="10" stroke-linejoin="miter" fill="none" stroke="#000000" d="M 311.8149 28.3468 L 311.8149 56.69362 "/>
<path transform="matrix(1,0,0,-1,14.988998,225.048)" stroke-width=".3985" stroke-linecap="butt" stroke-miterlimit="10" stroke-linejoin="miter" fill="none" stroke="#000000" d="M 311.8149 28.3468 L 340.1617 28.3468 "/>
<path transform="matrix(1,0,0,-1,14.988998,225.048)" stroke-width=".3985" stroke-linecap="butt" stroke-miterlimit="10" stroke-linejoin="miter" fill="none" stroke="#000000" d="M 311.8149 28.3468 L 368.5085 0 "/>
<path transform="matrix(1,0,0,-1,14.988998,225.048)" stroke-width=".3985" stroke-linecap="butt" stroke-miterlimit="10" stroke-linejoin="miter" fill="none" stroke="#000000" d="M 311.8149 56.69362 L 311.8149 85.04042 "/>
<path transform="matrix(1,0,0,-1,14.988998,225.048)" stroke-width=".3985" stroke-linecap="butt" stroke-miterlimit="10" stroke-linejoin="miter" fill="none" stroke="#000000" d="M 311.8149 56.69362 L 340.1617 28.3468 "/>
<path transform="matrix(1,0,0,-1,14.988998,225.048)" stroke-width=".3985" stroke-linecap="butt" stroke-miterlimit="10" stroke-linejoin="miter" fill="none" stroke="#000000" d="M 311.8149 85.04042 L 311.8149 113.38724 "/>
<path transform="matrix(1,0,0,-1,14.988998,225.048)" stroke-width=".3985" stroke-linecap="butt" stroke-miterlimit="10" stroke-linejoin="miter" fill="none" stroke="#000000" d="M 311.8149 85.04042 L 340.1617 28.3468 "/>
<path transform="matrix(1,0,0,-1,14.988998,225.048)" stroke-width=".3985" stroke-linecap="butt" stroke-miterlimit="10" stroke-linejoin="miter" fill="none" stroke="#000000" d="M 311.8149 113.38724 L 311.8149 141.73404 "/>
<path transform="matrix(1,0,0,-1,14.988998,225.048)" stroke-width=".3985" stroke-linecap="butt" stroke-miterlimit="10" stroke-linejoin="miter" fill="none" stroke="#000000" d="M 311.8149 113.38724 L 340.1617 28.3468 "/>
<path transform="matrix(1,0,0,-1,14.988998,225.048)" stroke-width=".3985" stroke-linecap="butt" stroke-miterlimit="10" stroke-linejoin="miter" fill="none" stroke="#000000" d="M 311.8149 113.38724 L 368.5085 0 "/>
<path transform="matrix(1,0,0,-1,14.988998,225.048)" stroke-width=".3985" stroke-linecap="butt" stroke-miterlimit="10" stroke-linejoin="miter" fill="none" stroke="#000000" d="M 311.8149 141.73404 L 368.5085 0 "/>
<path transform="matrix(1,0,0,-1,14.988998,225.048)" stroke-width=".3985" stroke-linecap="butt" stroke-miterlimit="10" stroke-linejoin="miter" fill="none" stroke="#000000" d="M 340.1617 28.3468 L 368.5085 0 "/>
<path transform="matrix(1,0,0,-1,14.988998,225.048)" stroke-width=".19925" stroke-linecap="butt" stroke-miterlimit="10" stroke-linejoin="miter" fill="none" stroke="#929292" d="M 85.04042 198.42766 L 170.08086 0 "/>
<path transform="matrix(1,0,0,-1,14.988998,225.048)" stroke-width=".19925" stroke-linecap="butt" stroke-miterlimit="10" stroke-linejoin="miter" fill="none" stroke="#929292" d="M 198.42766 0 L 311.8149 141.73404 "/>
<path transform="matrix(1,0,0,-1,14.988998,225.048)" stroke-width=".3985" stroke-linecap="butt" stroke-miterlimit="10" stroke-linejoin="miter" fill="none" stroke="#ff0000" d="M 85.04042 198.42766 L 311.8149 141.73404 "/>
<path transform="matrix(1,0,0,-1,14.988998,225.048)" stroke-width=".3985" stroke-linecap="butt" stroke-miterlimit="10" stroke-linejoin="miter" fill="none" stroke="#ff0000" d="M 170.08086 0 L 198.42766 0 "/>
<path transform="matrix(1,0,0,-1,14.988998,225.048)" d="M .99628 0 C .99628 .55023 .55023 .99628 0 .99628 C -.55023 .99628 -.99628 .55023 -.99628 0 C -.99628 -.55023 -.55023 -.99628 0 -.99628 C .55023 -.99628 .99628 -.55023 .99628 0 Z M 0 0 "/>
<path transform="matrix(1,0,0,-1,14.988998,225.048)" stroke-width=".19925" stroke-linecap="butt" stroke-miterlimit="10" stroke-linejoin="miter" fill="none" stroke="#000000" d="M .99628 0 C .99628 .55023 .55023 .99628 0 .99628 C -.55023 .99628 -.99628 .55023 -.99628 0 C -.99628 -.55023 -.55023 -.99628 0 -.99628 C .55023 -.99628 .99628 -.55023 .99628 0 Z M 0 0 "/>
<text xml:space="preserve" transform="matrix(1 0 -0 1 60.331 78.829)" font-size="4.9813" font-family="CMMI5" font-style="italic"><tspan y="153.043" x="-57.011">P</tspan></text>
<text xml:space="preserve" transform="matrix(1 0 -0 1 60.331 78.829)" font-size="4.9813" font-family="CMR5"><tspan y="154.537" x="-52.65">1</tspan></text>
<path transform="matrix(1,0,0,-1,14.988998,225.048)" d="M 29.34308 28.3468 C 29.34308 28.89703 28.89703 29.34308 28.3468 29.34308 C 27.79657 29.34308 27.35052 28.89703 27.35052 28.3468 C 27.35052 27.79657 27.79657 27.35052 28.3468 27.35052 C 28.89703 27.35052 29.34308 27.79657 29.34308 28.3468 Z M 28.3468 28.3468 "/>
<path transform="matrix(1,0,0,-1,14.988998,225.048)" stroke-width=".19925" stroke-linecap="butt" stroke-miterlimit="10" stroke-linejoin="miter" fill="none" stroke="#000000" d="M 29.34308 28.3468 C 29.34308 28.89703 28.89703 29.34308 28.3468 29.34308 C 27.79657 29.34308 27.35052 28.89703 27.35052 28.3468 C 27.35052 27.79657 27.79657 27.35052 28.3468 27.35052 C 28.89703 27.35052 29.34308 27.79657 29.34308 28.3468 Z M 28.3468 28.3468 "/>
<text xml:space="preserve" transform="matrix(1 0 -0 1 88.678 38.744005)" font-size="4.9813" font-family="CMMI5" font-style="italic"><tspan y="153.043" x="-57.011">P</tspan></text>
<text xml:space="preserve" transform="matrix(1 0 -0 1 88.678 38.744005)" font-size="4.9813" font-family="CMR5"><tspan y="154.537" x="-52.65">2</tspan></text>
<path transform="matrix(1,0,0,-1,14.988998,225.048)" d="M 57.6899 28.3468 C 57.6899 28.89703 57.24385 29.34308 56.69362 29.34308 C 56.14337 29.34308 55.69734 28.89703 55.69734 28.3468 C 55.69734 27.79657 56.14337 27.35052 56.69362 27.35052 C 57.24385 27.35052 57.6899 27.79657 57.6899 28.3468 Z M 56.69362 28.3468 "/>
<path transform="matrix(1,0,0,-1,14.988998,225.048)" stroke-width=".19925" stroke-linecap="butt" stroke-miterlimit="10" stroke-linejoin="miter" fill="none" stroke="#000000" d="M 57.6899 28.3468 C 57.6899 28.89703 57.24385 29.34308 56.69362 29.34308 C 56.14337 29.34308 55.69734 28.89703 55.69734 28.3468 C 55.69734 27.79657 56.14337 27.35052 56.69362 27.35052 C 57.24385 27.35052 57.6899 27.79657 57.6899 28.3468 Z M 56.69362 28.3468 "/>
<text xml:space="preserve" transform="matrix(1 0 -0 1 124.569 50.482004)" font-size="4.9813" font-family="CMMI5" font-style="italic"><tspan y="153.043" x="-57.011">P</tspan></text>
<text xml:space="preserve" transform="matrix(1 0 -0 1 124.569 50.482004)" font-size="4.9813" font-family="CMR5"><tspan y="154.537" x="-52.65">3</tspan></text>
<path transform="matrix(1,0,0,-1,14.988998,225.048)" d="M 57.6899 56.69362 C 57.6899 57.24385 57.24385 57.6899 56.69362 57.6899 C 56.14337 57.6899 55.69734 57.24385 55.69734 56.69362 C 55.69734 56.14337 56.14337 55.69734 56.69362 55.69734 C 57.24385 55.69734 57.6899 56.14337 57.6899 56.69362 Z M 56.69362 56.69362 "/>
<path transform="matrix(1,0,0,-1,14.988998,225.048)" stroke-width=".19925" stroke-linecap="butt" stroke-miterlimit="10" stroke-linejoin="miter" fill="none" stroke="#000000" d="M 57.6899 56.69362 C 57.6899 57.24385 57.24385 57.6899 56.69362 57.6899 C 56.14337 57.6899 55.69734 57.24385 55.69734 56.69362 C 55.69734 56.14337 56.14337 55.69734 56.69362 55.69734 C 57.24385 55.69734 57.6899 56.14337 57.6899 56.69362 Z M 56.69362 56.69362 "/>
<text xml:space="preserve" transform="matrix(1 0 -0 1 132.114 10.397003)" font-size="4.9813" font-family="CMMI5" font-style="italic"><tspan y="153.043" x="-57.011">P</tspan></text>
<text xml:space="preserve" transform="matrix(1 0 -0 1 132.114 10.397003)" font-size="4.9813" font-family="CMR5"><tspan y="154.537" x="-52.65">4</tspan></text>
<path transform="matrix(1,0,0,-1,14.988998,225.048)" d="M 57.6899 85.04042 C 57.6899 85.59065 57.24385 86.0367 56.69362 86.0367 C 56.14337 86.0367 55.69734 85.59065 55.69734 85.04042 C 55.69734 84.49019 56.14337 84.04414 56.69362 84.04414 C 57.24385 84.04414 57.6899 84.49019 57.6899 85.04042 Z M 56.69362 85.04042 "/>
<path transform="matrix(1,0,0,-1,14.988998,225.048)" stroke-width=".19925" stroke-linecap="butt" stroke-miterlimit="10" stroke-linejoin="miter" fill="none" stroke="#000000" d="M 57.6899 85.04042 C 57.6899 85.59065 57.24385 86.0367 56.69362 86.0367 C 56.14337 86.0367 55.69734 85.59065 55.69734 85.04042 C 55.69734 84.49019 56.14337 84.04414 56.69362 84.04414 C 57.24385 84.04414 57.6899 84.49019 57.6899 85.04042 Z M 56.69362 85.04042 "/>
<text xml:space="preserve" transform="matrix(1 0 -0 1 124.569 -17.949997)" font-size="4.9813" font-family="CMMI5" font-style="italic"><tspan y="153.043" x="-57.011">P</tspan></text>
<text xml:space="preserve" transform="matrix(1 0 -0 1 124.569 -17.949997)" font-size="4.9813" font-family="CMR5"><tspan y="154.537" x="-52.65">5</tspan></text>
<path transform="matrix(1,0,0,-1,14.988998,225.048)" d="M 57.6899 113.38724 C 57.6899 113.93747 57.24385 114.38351 56.69362 114.38351 C 56.14337 114.38351 55.69734 113.93747 55.69734 113.38724 C 55.69734 112.83699 56.14337 112.39096 56.69362 112.39096 C 57.24385 112.39096 57.6899 112.83699 57.6899 113.38724 Z M 56.69362 113.38724 "/>
<path transform="matrix(1,0,0,-1,14.988998,225.048)" stroke-width=".19925" stroke-linecap="butt" stroke-miterlimit="10" stroke-linejoin="miter" fill="none" stroke="#000000" d="M 57.6899 113.38724 C 57.6899 113.93747 57.24385 114.38351 56.69362 114.38351 C 56.14337 114.38351 55.69734 113.93747 55.69734 113.38724 C 55.69734 112.83699 56.14337 112.39096 56.69362 112.39096 C 57.24385 112.39096 57.6899 112.83699 57.6899 113.38724 Z M 56.69362 113.38724 "/>
<text xml:space="preserve" transform="matrix(1 0 -0 1 132.114 -34.558)" font-size="4.9813" font-family="CMMI5" font-style="italic"><tspan y="153.043" x="-57.011">P</tspan></text>
<text xml:space="preserve" transform="matrix(1 0 -0 1 132.114 -34.558)" font-size="4.9813" font-family="CMR5"><tspan y="154.537" x="-52.65">6</tspan></text>
<path transform="matrix(1,0,0,-1,14.988998,225.048)" d="M 86.0367 28.3468 C 86.0367 28.89703 85.59065 29.34308 85.04042 29.34308 C 84.49019 29.34308 84.04414 28.89703 84.04414 28.3468 C 84.04414 27.79657 84.49019 27.35052 85.04042 27.35052 C 85.59065 27.35052 86.0367 27.79657 86.0367 28.3468 Z M 85.04042 28.3468 "/>
<path transform="matrix(1,0,0,-1,14.988998,225.048)" stroke-width=".19925" stroke-linecap="butt" stroke-miterlimit="10" stroke-linejoin="miter" fill="none" stroke="#000000" d="M 86.0367 28.3468 C 86.0367 28.89703 85.59065 29.34308 85.04042 29.34308 C 84.49019 29.34308 84.04414 28.89703 84.04414 28.3468 C 84.04414 27.79657 84.49019 27.35052 85.04042 27.35052 C 85.59065 27.35052 86.0367 27.79657 86.0367 28.3468 Z M 85.04042 28.3468 "/>
<text xml:space="preserve" transform="matrix(1 0 -0 1 160.461 38.744005)" font-size="4.9813" font-family="CMMI5" font-style="italic"><tspan y="153.043" x="-57.011">P</tspan></text>
<text xml:space="preserve" transform="matrix(1 0 -0 1 160.461 38.744005)" font-size="4.9813" font-family="CMR5"><tspan y="154.537" x="-52.65">7</tspan></text>
<path transform="matrix(1,0,0,-1,14.988998,225.048)" d="M 86.0367 56.69362 C 86.0367 57.24385 85.59065 57.6899 85.04042 57.6899 C 84.49019 57.6899 84.04414 57.24385 84.04414 56.69362 C 84.04414 56.14337 84.49019 55.69734 85.04042 55.69734 C 85.59065 55.69734 86.0367 56.14337 86.0367 56.69362 Z M 85.04042 56.69362 "/>
<path transform="matrix(1,0,0,-1,14.988998,225.048)" stroke-width=".19925" stroke-linecap="butt" stroke-miterlimit="10" stroke-linejoin="miter" fill="none" stroke="#000000" d="M 86.0367 56.69362 C 86.0367 57.24385 85.59065 57.6899 85.04042 57.6899 C 84.49019 57.6899 84.04414 57.24385 84.04414 56.69362 C 84.04414 56.14337 84.49019 55.69734 85.04042 55.69734 C 85.59065 55.69734 86.0367 56.14337 86.0367 56.69362 Z M 85.04042 56.69362 "/>
<text xml:space="preserve" transform="matrix(1 0 -0 1 145.371 22.136006)" font-size="4.9813" font-family="CMMI5" font-style="italic"><tspan y="153.043" x="-57.011">P</tspan></text>
<text xml:space="preserve" transform="matrix(1 0 -0 1 145.371 22.136006)" font-size="4.9813" font-family="CMR5"><tspan y="154.537" x="-52.65">8</tspan></text>
<path transform="matrix(1,0,0,-1,14.988998,225.048)" d="M 86.0367 85.04042 C 86.0367 85.59065 85.59065 86.0367 85.04042 86.0367 C 84.49019 86.0367 84.04414 85.59065 84.04414 85.04042 C 84.04414 84.49019 84.49019 84.04414 85.04042 84.04414 C 85.59065 84.04414 86.0367 84.49019 86.0367 85.04042 Z M 85.04042 85.04042 "/>
<path transform="matrix(1,0,0,-1,14.988998,225.048)" stroke-width=".19925" stroke-linecap="butt" stroke-miterlimit="10" stroke-linejoin="miter" fill="none" stroke="#000000" d="M 86.0367 85.04042 C 86.0367 85.59065 85.59065 86.0367 85.04042 86.0367 C 84.49019 86.0367 84.04414 85.59065 84.04414 85.04042 C 84.04414 84.49019 84.49019 84.04414 85.04042 84.04414 C 85.59065 84.04414 86.0367 84.49019 86.0367 85.04042 Z M 85.04042 85.04042 "/>
<text xml:space="preserve" transform="matrix(1 0 -0 1 145.371 -6.2109987)" font-size="4.9813" font-family="CMMI5" font-style="italic"><tspan y="153.043" x="-57.011">P</tspan></text>
<text xml:space="preserve" transform="matrix(1 0 -0 1 145.371 -6.2109987)" font-size="4.9813" font-family="CMR5"><tspan y="154.537" x="-52.65">9</tspan></text>
<path transform="matrix(1,0,0,-1,14.988998,225.048)" d="M 86.0367 113.38724 C 86.0367 113.93747 85.59065 114.38351 85.04042 114.38351 C 84.49019 114.38351 84.04414 113.93747 84.04414 113.38724 C 84.04414 112.83699 84.49019 112.39096 85.04042 112.39096 C 85.59065 112.39096 86.0367 112.83699 86.0367 113.38724 Z M 85.04042 113.38724 "/>
<path transform="matrix(1,0,0,-1,14.988998,225.048)" stroke-width=".19925" stroke-linecap="butt" stroke-miterlimit="10" stroke-linejoin="miter" fill="none" stroke="#000000" d="M 86.0367 113.38724 C 86.0367 113.93747 85.59065 114.38351 85.04042 114.38351 C 84.49019 114.38351 84.04414 113.93747 84.04414 113.38724 C 84.04414 112.83699 84.49019 112.39096 85.04042 112.39096 C 85.59065 112.39096 86.0367 112.83699 86.0367 113.38724 Z M 85.04042 113.38724 "/>
<text xml:space="preserve" transform="matrix(1 0 -0 1 141.981 -46.296998)" font-size="4.9813" font-family="CMMI5" font-style="italic"><tspan y="153.043" x="-57.011">P</tspan></text>
<text xml:space="preserve" transform="matrix(1 0 -0 1 141.981 -46.296998)" font-size="4.9813" font-family="CMR5"><tspan y="154.537" x="-52.65 -49.26272">10</tspan></text>
<path transform="matrix(1,0,0,-1,14.988998,225.048)" d="M 86.0367 141.73404 C 86.0367 142.28427 85.59065 142.73032 85.04042 142.73032 C 84.49019 142.73032 84.04414 142.28427 84.04414 141.73404 C 84.04414 141.1838 84.49019 140.73777 85.04042 140.73777 C 85.59065 140.73777 86.0367 141.1838 86.0367 141.73404 Z M 85.04042 141.73404 "/>
<path transform="matrix(1,0,0,-1,14.988998,225.048)" stroke-width=".19925" stroke-linecap="butt" stroke-miterlimit="10" stroke-linejoin="miter" fill="none" stroke="#000000" d="M 86.0367 141.73404 C 86.0367 142.28427 85.59065 142.73032 85.04042 142.73032 C 84.49019 142.73032 84.04414 142.28427 84.04414 141.73404 C 84.04414 141.1838 84.49019 140.73777 85.04042 140.73777 C 85.59065 140.73777 86.0367 141.1838 86.0367 141.73404 Z M 85.04042 141.73404 "/>
<text xml:space="preserve" transform="matrix(1 0 -0 1 141.981 -74.644)" font-size="4.9813" font-family="CMMI5" font-style="italic"><tspan y="153.043" x="-57.011">P</tspan></text>
<text xml:space="preserve" transform="matrix(1 0 -0 1 141.981 -74.644)" font-size="4.9813" font-family="CMR5"><tspan y="154.537" x="-52.65 -49.26272">11</tspan></text>
<path transform="matrix(1,0,0,-1,14.988998,225.048)" d="M 86.0367 198.42766 C 86.0367 198.97789 85.59065 199.42394 85.04042 199.42394 C 84.49019 199.42394 84.04414 198.97789 84.04414 198.42766 C 84.04414 197.87743 84.49019 197.43138 85.04042 197.43138 C 85.59065 197.43138 86.0367 197.87743 86.0367 198.42766 Z M 85.04042 198.42766 "/>
<path transform="matrix(1,0,0,-1,14.988998,225.048)" stroke-width=".19925" stroke-linecap="butt" stroke-miterlimit="10" stroke-linejoin="miter" fill="none" stroke="#000000" d="M 86.0367 198.42766 C 86.0367 198.97789 85.59065 199.42394 85.04042 199.42394 C 84.49019 199.42394 84.04414 198.97789 84.04414 198.42766 C 84.04414 197.87743 84.49019 197.43138 85.04042 197.43138 C 85.59065 197.43138 86.0367 197.87743 86.0367 198.42766 Z M 85.04042 198.42766 "/>
<text xml:space="preserve" transform="matrix(1 0 -0 1 151.22101 -131.33699)" font-size="4.9813" font-family="CMMI5" font-style="italic"><tspan y="153.043" x="-57.011">P</tspan></text>
<text xml:space="preserve" transform="matrix(1 0 -0 1 151.22101 -131.33699)" font-size="4.9813" font-family="CMR5"><tspan y="154.537" x="-52.65 -49.26272">12</tspan></text>
<path transform="matrix(1,0,0,-1,14.988998,225.048)" d="M 114.38351 28.3468 C 114.38351 28.89703 113.93747 29.34308 113.38724 29.34308 C 112.83699 29.34308 112.39096 28.89703 112.39096 28.3468 C 112.39096 27.79657 112.83699 27.35052 113.38724 27.35052 C 113.93747 27.35052 114.38351 27.79657 114.38351 28.3468 Z M 113.38724 28.3468 "/>
<path transform="matrix(1,0,0,-1,14.988998,225.048)" stroke-width=".19925" stroke-linecap="butt" stroke-miterlimit="10" stroke-linejoin="miter" fill="none" stroke="#000000" d="M 114.38351 28.3468 C 114.38351 28.89703 113.93747 29.34308 113.38724 29.34308 C 112.83699 29.34308 112.39096 28.89703 112.39096 28.3468 C 112.39096 27.79657 112.83699 27.35052 113.38724 27.35052 C 113.93747 27.35052 114.38351 27.79657 114.38351 28.3468 Z M 113.38724 28.3468 "/>
<text xml:space="preserve" transform="matrix(1 0 -0 1 188.807 50.482004)" font-size="4.9813" font-family="CMMI5" font-style="italic"><tspan y="153.043" x="-57.011">P</tspan></text>
<text xml:space="preserve" transform="matrix(1 0 -0 1 188.807 50.482004)" font-size="4.9813" font-family="CMR5"><tspan y="154.537" x="-52.65 -49.26272">13</tspan></text>
<path transform="matrix(1,0,0,-1,14.988998,225.048)" d="M 114.38351 56.69362 C 114.38351 57.24385 113.93747 57.6899 113.38724 57.6899 C 112.83699 57.6899 112.39096 57.24385 112.39096 56.69362 C 112.39096 56.14337 112.83699 55.69734 113.38724 55.69734 C 113.93747 55.69734 114.38351 56.14337 114.38351 56.69362 Z M 113.38724 56.69362 "/>
<path transform="matrix(1,0,0,-1,14.988998,225.048)" stroke-width=".19925" stroke-linecap="butt" stroke-miterlimit="10" stroke-linejoin="miter" fill="none" stroke="#000000" d="M 114.38351 56.69362 C 114.38351 57.24385 113.93747 57.6899 113.38724 57.6899 C 112.83699 57.6899 112.39096 57.24385 112.39096 56.69362 C 112.39096 56.14337 112.83699 55.69734 113.38724 55.69734 C 113.93747 55.69734 114.38351 56.14337 114.38351 56.69362 Z M 113.38724 56.69362 "/>
<text xml:space="preserve" transform="matrix(1 0 -0 1 188.807 10.397003)" font-size="4.9813" font-family="CMMI5" font-style="italic"><tspan y="153.043" x="-57.011">P</tspan></text>
<text xml:space="preserve" transform="matrix(1 0 -0 1 188.807 10.397003)" font-size="4.9813" font-family="CMR5"><tspan y="154.537" x="-52.65 -49.26272">14</tspan></text>
<path transform="matrix(1,0,0,-1,14.988998,225.048)" d="M 142.73032 28.3468 C 142.73032 28.89703 142.28427 29.34308 141.73404 29.34308 C 141.1838 29.34308 140.73777 28.89703 140.73777 28.3468 C 140.73777 27.79657 141.1838 27.35052 141.73404 27.35052 C 142.28427 27.35052 142.73032 27.79657 142.73032 28.3468 Z M 141.73404 28.3468 "/>
<path transform="matrix(1,0,0,-1,14.988998,225.048)" stroke-width=".19925" stroke-linecap="butt" stroke-miterlimit="10" stroke-linejoin="miter" fill="none" stroke="#000000" d="M 142.73032 28.3468 C 142.73032 28.89703 142.28427 29.34308 141.73404 29.34308 C 141.1838 29.34308 140.73777 28.89703 140.73777 28.3468 C 140.73777 27.79657 141.1838 27.35052 141.73404 27.35052 C 142.28427 27.35052 142.73032 27.79657 142.73032 28.3468 Z M 141.73404 28.3468 "/>
<text xml:space="preserve" transform="matrix(1 0 -0 1 217.154 38.744005)" font-size="4.9813" font-family="CMMI5" font-style="italic"><tspan y="153.043" x="-57.011">P</tspan></text>
<text xml:space="preserve" transform="matrix(1 0 -0 1 217.154 38.744005)" font-size="4.9813" font-family="CMR5"><tspan y="154.537" x="-52.65 -49.26272">15</tspan></text>
<path transform="matrix(1,0,0,-1,14.988998,225.048)" d="M 171.07714 0 C 171.07714 .55023 170.63109 .99628 170.08086 .99628 C 169.53061 .99628 169.08458 .55023 169.08458 0 C 169.08458 -.55023 169.53061 -.99628 170.08086 -.99628 C 170.63109 -.99628 171.07714 -.55023 171.07714 0 Z M 170.08086 0 "/>
<path transform="matrix(1,0,0,-1,14.988998,225.048)" stroke-width=".19925" stroke-linecap="butt" stroke-miterlimit="10" stroke-linejoin="miter" fill="none" stroke="#000000" d="M 171.07714 0 C 171.07714 .55023 170.63109 .99628 170.08086 .99628 C 169.53061 .99628 169.08458 .55023 169.08458 0 C 169.08458 -.55023 169.53061 -.99628 170.08086 -.99628 C 170.63109 -.99628 171.07714 -.55023 171.07714 0 Z M 170.08086 0 "/>
<text xml:space="preserve" transform="matrix(1 0 -0 1 236.261 78.829)" font-size="4.9813" font-family="CMMI5" font-style="italic"><tspan y="153.043" x="-57.011">P</tspan></text>
<text xml:space="preserve" transform="matrix(1 0 -0 1 236.261 78.829)" font-size="4.9813" font-family="CMR5"><tspan y="154.537" x="-52.65 -49.26272">16</tspan></text>
<path transform="matrix(1,0,0,-1,14.988998,225.048)" d="M 199.42394 0 C 199.42394 .55023 198.97789 .99628 198.42766 .99628 C 197.87743 .99628 197.43138 .55023 197.43138 0 C 197.43138 -.55023 197.87743 -.99628 198.42766 -.99628 C 198.97789 -.99628 199.42394 -.55023 199.42394 0 Z M 198.42766 0 "/>
<path transform="matrix(1,0,0,-1,14.988998,225.048)" stroke-width=".19925" stroke-linecap="butt" stroke-miterlimit="10" stroke-linejoin="miter" fill="none" stroke="#000000" d="M 199.42394 0 C 199.42394 .55023 198.97789 .99628 198.42766 .99628 C 197.87743 .99628 197.43138 .55023 197.43138 0 C 197.43138 -.55023 197.87743 -.99628 198.42766 -.99628 C 198.97789 -.99628 199.42394 -.55023 199.42394 0 Z M 198.42766 0 "/>
<text xml:space="preserve" transform="matrix(1 0 -0 1 265.788 78.829)" font-size="4.9813" font-family="CMMI5" font-style="italic"><tspan y="153.043" x="-57.011">Q</tspan></text>
<text xml:space="preserve" transform="matrix(1 0 -0 1 265.788 78.829)" font-size="4.9813" font-family="CMR5"><tspan y="154.537" x="-51.620004">1</tspan></text>
<path transform="matrix(1,0,0,-1,14.988998,225.048)" d="M 256.11756 56.69362 C 256.11756 57.24385 255.67153 57.6899 255.12128 57.6899 C 254.57105 57.6899 254.125 57.24385 254.125 56.69362 C 254.125 56.14337 254.57105 55.69734 255.12128 55.69734 C 255.67153 55.69734 256.11756 56.14337 256.11756 56.69362 Z M 255.12128 56.69362 "/>
<path transform="matrix(1,0,0,-1,14.988998,225.048)" stroke-width=".19925" stroke-linecap="butt" stroke-miterlimit="10" stroke-linejoin="miter" fill="none" stroke="#000000" d="M 256.11756 56.69362 C 256.11756 57.24385 255.67153 57.6899 255.12128 57.6899 C 254.57105 57.6899 254.125 57.24385 254.125 56.69362 C 254.125 56.14337 254.57105 55.69734 255.12128 55.69734 C 255.67153 55.69734 256.11756 56.14337 256.11756 56.69362 Z M 255.12128 56.69362 "/>
<text xml:space="preserve" transform="matrix(1 0 -0 1 322.482 22.136006)" font-size="4.9813" font-family="CMMI5" font-style="italic"><tspan y="153.043" x="-57.011">Q</tspan></text>
<text xml:space="preserve" transform="matrix(1 0 -0 1 322.482 22.136006)" font-size="4.9813" font-family="CMR5"><tspan y="154.537" x="-51.620004">2</tspan></text>
<path transform="matrix(1,0,0,-1,14.988998,225.048)" d="M 284.46437 28.3468 C 284.46437 28.89703 284.01835 29.34308 283.4681 29.34308 C 282.91786 29.34308 282.47184 28.89703 282.47184 28.3468 C 282.47184 27.79657 282.91786 27.35052 283.4681 27.35052 C 284.01835 27.35052 284.46437 27.79657 284.46437 28.3468 Z M 283.4681 28.3468 "/>
<path transform="matrix(1,0,0,-1,14.988998,225.048)" stroke-width=".19925" stroke-linecap="butt" stroke-miterlimit="10" stroke-linejoin="miter" fill="none" stroke="#000000" d="M 284.46437 28.3468 C 284.46437 28.89703 284.01835 29.34308 283.4681 29.34308 C 282.91786 29.34308 282.47184 28.89703 282.47184 28.3468 C 282.47184 27.79657 282.91786 27.35052 283.4681 27.35052 C 284.01835 27.35052 284.46437 27.79657 284.46437 28.3468 Z M 283.4681 28.3468 "/>
<text xml:space="preserve" transform="matrix(1 0 -0 1 342.769 50.482004)" font-size="4.9813" font-family="CMMI5" font-style="italic"><tspan y="153.043" x="-57.011">Q</tspan></text>
<text xml:space="preserve" transform="matrix(1 0 -0 1 342.769 50.482004)" font-size="4.9813" font-family="CMR5"><tspan y="154.537" x="-51.620004">3</tspan></text>
<path transform="matrix(1,0,0,-1,14.988998,225.048)" d="M 284.46437 56.69362 C 284.46437 57.24385 284.01835 57.6899 283.4681 57.6899 C 282.91786 57.6899 282.47184 57.24385 282.47184 56.69362 C 282.47184 56.14337 282.91786 55.69734 283.4681 55.69734 C 284.01835 55.69734 284.46437 56.14337 284.46437 56.69362 Z M 283.4681 56.69362 "/>
<path transform="matrix(1,0,0,-1,14.988998,225.048)" stroke-width=".19925" stroke-linecap="butt" stroke-miterlimit="10" stroke-linejoin="miter" fill="none" stroke="#000000" d="M 284.46437 56.69362 C 284.46437 57.24385 284.01835 57.6899 283.4681 57.6899 C 282.91786 57.6899 282.47184 57.24385 282.47184 56.69362 C 282.47184 56.14337 282.91786 55.69734 283.4681 55.69734 C 284.01835 55.69734 284.46437 56.14337 284.46437 56.69362 Z M 283.4681 56.69362 "/>
<text xml:space="preserve" transform="matrix(1 0 -0 1 342.769 22.136006)" font-size="4.9813" font-family="CMMI5" font-style="italic"><tspan y="153.043" x="-57.011">Q</tspan></text>
<text xml:space="preserve" transform="matrix(1 0 -0 1 342.769 22.136006)" font-size="4.9813" font-family="CMR5"><tspan y="154.537" x="-51.620004">4</tspan></text>
<path transform="matrix(1,0,0,-1,14.988998,225.048)" d="M 284.46437 85.04042 C 284.46437 85.59065 284.01835 86.0367 283.4681 86.0367 C 282.91786 86.0367 282.47184 85.59065 282.47184 85.04042 C 282.47184 84.49019 282.91786 84.04414 283.4681 84.04414 C 284.01835 84.04414 284.46437 84.49019 284.46437 85.04042 Z M 283.4681 85.04042 "/>
<path transform="matrix(1,0,0,-1,14.988998,225.048)" stroke-width=".19925" stroke-linecap="butt" stroke-miterlimit="10" stroke-linejoin="miter" fill="none" stroke="#000000" d="M 284.46437 85.04042 C 284.46437 85.59065 284.01835 86.0367 283.4681 86.0367 C 282.91786 86.0367 282.47184 85.59065 282.47184 85.04042 C 282.47184 84.49019 282.91786 84.04414 283.4681 84.04414 C 284.01835 84.04414 284.46437 84.49019 284.46437 85.04042 Z M 283.4681 85.04042 "/>
<text xml:space="preserve" transform="matrix(1 0 -0 1 358.888 -6.2109987)" font-size="4.9813" font-family="CMMI5" font-style="italic"><tspan y="153.043" x="-57.011">Q</tspan></text>
<text xml:space="preserve" transform="matrix(1 0 -0 1 358.888 -6.2109987)" font-size="4.9813" font-family="CMR5"><tspan y="154.537" x="-51.620004">5</tspan></text>
<path transform="matrix(1,0,0,-1,14.988998,225.048)" d="M 312.81117 28.3468 C 312.81117 28.89703 312.36515 29.34308 311.8149 29.34308 C 311.26466 29.34308 310.81864 28.89703 310.81864 28.3468 C 310.81864 27.79657 311.26466 27.35052 311.8149 27.35052 C 312.36515 27.35052 312.81117 27.79657 312.81117 28.3468 Z M 311.8149 28.3468 "/>
<path transform="matrix(1,0,0,-1,14.988998,225.048)" stroke-width=".19925" stroke-linecap="butt" stroke-miterlimit="10" stroke-linejoin="miter" fill="none" stroke="#000000" d="M 312.81117 28.3468 C 312.81117 28.89703 312.36515 29.34308 311.8149 29.34308 C 311.26466 29.34308 310.81864 28.89703 310.81864 28.3468 C 310.81864 27.79657 311.26466 27.35052 311.8149 27.35052 C 312.36515 27.35052 312.81117 27.79657 312.81117 28.3468 Z M 311.8149 28.3468 "/>
<text xml:space="preserve" transform="matrix(1 0 -0 1 379.175 50.482004)" font-size="4.9813" font-family="CMMI5" font-style="italic"><tspan y="153.043" x="-57.011">Q</tspan></text>
<text xml:space="preserve" transform="matrix(1 0 -0 1 379.175 50.482004)" font-size="4.9813" font-family="CMR5"><tspan y="154.537" x="-51.620004">6</tspan></text>
<path transform="matrix(1,0,0,-1,14.988998,225.048)" d="M 312.81117 56.69362 C 312.81117 57.24385 312.36515 57.6899 311.8149 57.6899 C 311.26466 57.6899 310.81864 57.24385 310.81864 56.69362 C 310.81864 56.14337 311.26466 55.69734 311.8149 55.69734 C 312.36515 55.69734 312.81117 56.14337 312.81117 56.69362 Z M 311.8149 56.69362 "/>
<path transform="matrix(1,0,0,-1,14.988998,225.048)" stroke-width=".19925" stroke-linecap="butt" stroke-miterlimit="10" stroke-linejoin="miter" fill="none" stroke="#000000" d="M 312.81117 56.69362 C 312.81117 57.24385 312.36515 57.6899 311.8149 57.6899 C 311.26466 57.6899 310.81864 57.24385 310.81864 56.69362 C 310.81864 56.14337 311.26466 55.69734 311.8149 55.69734 C 312.36515 55.69734 312.81117 56.14337 312.81117 56.69362 Z M 311.8149 56.69362 "/>
<text xml:space="preserve" transform="matrix(1 0 -0 1 371.115 10.397003)" font-size="4.9813" font-family="CMMI5" font-style="italic"><tspan y="153.043" x="-57.011">Q</tspan></text>
<text xml:space="preserve" transform="matrix(1 0 -0 1 371.115 10.397003)" font-size="4.9813" font-family="CMR5"><tspan y="154.537" x="-51.620004">7</tspan></text>
<path transform="matrix(1,0,0,-1,14.988998,225.048)" d="M 312.81117 85.04042 C 312.81117 85.59065 312.36515 86.0367 311.8149 86.0367 C 311.26466 86.0367 310.81864 85.59065 310.81864 85.04042 C 310.81864 84.49019 311.26466 84.04414 311.8149 84.04414 C 312.36515 84.04414 312.81117 84.49019 312.81117 85.04042 Z M 311.8149 85.04042 "/>
<path transform="matrix(1,0,0,-1,14.988998,225.048)" stroke-width=".19925" stroke-linecap="butt" stroke-miterlimit="10" stroke-linejoin="miter" fill="none" stroke="#000000" d="M 312.81117 85.04042 C 312.81117 85.59065 312.36515 86.0367 311.8149 86.0367 C 311.26466 86.0367 310.81864 85.59065 310.81864 85.04042 C 310.81864 84.49019 311.26466 84.04414 311.8149 84.04414 C 312.36515 84.04414 312.81117 84.49019 312.81117 85.04042 Z M 311.8149 85.04042 "/>
<text xml:space="preserve" transform="matrix(1 0 -0 1 371.115 -17.949997)" font-size="4.9813" font-family="CMMI5" font-style="italic"><tspan y="153.043" x="-57.011">Q</tspan></text>
<text xml:space="preserve" transform="matrix(1 0 -0 1 371.115 -17.949997)" font-size="4.9813" font-family="CMR5"><tspan y="154.537" x="-51.620004">8</tspan></text>
<path transform="matrix(1,0,0,-1,14.988998,225.048)" d="M 312.81117 113.38724 C 312.81117 113.93747 312.36515 114.38351 311.8149 114.38351 C 311.26466 114.38351 310.81864 113.93747 310.81864 113.38724 C 310.81864 112.83699 311.26466 112.39096 311.8149 112.39096 C 312.36515 112.39096 312.81117 112.83699 312.81117 113.38724 Z M 311.8149 113.38724 "/>
<path transform="matrix(1,0,0,-1,14.988998,225.048)" stroke-width=".19925" stroke-linecap="butt" stroke-miterlimit="10" stroke-linejoin="miter" fill="none" stroke="#000000" d="M 312.81117 113.38724 C 312.81117 113.93747 312.36515 114.38351 311.8149 114.38351 C 311.26466 114.38351 310.81864 113.93747 310.81864 113.38724 C 310.81864 112.83699 311.26466 112.39096 311.8149 112.39096 C 312.36515 112.39096 312.81117 112.83699 312.81117 113.38724 Z M 311.8149 113.38724 "/>
<text xml:space="preserve" transform="matrix(1 0 -0 1 371.115 -46.296998)" font-size="4.9813" font-family="CMMI5" font-style="italic"><tspan y="153.043" x="-57.011">Q</tspan></text>
<text xml:space="preserve" transform="matrix(1 0 -0 1 371.115 -46.296998)" font-size="4.9813" font-family="CMR5"><tspan y="154.537" x="-51.620004">9</tspan></text>
<path transform="matrix(1,0,0,-1,14.988998,225.048)" d="M 312.81117 141.73404 C 312.81117 142.28427 312.36515 142.73032 311.8149 142.73032 C 311.26466 142.73032 310.81864 142.28427 310.81864 141.73404 C 310.81864 141.1838 311.26466 140.73777 311.8149 140.73777 C 312.36515 140.73777 312.81117 141.1838 312.81117 141.73404 Z M 311.8149 141.73404 "/>
<path transform="matrix(1,0,0,-1,14.988998,225.048)" stroke-width=".19925" stroke-linecap="butt" stroke-miterlimit="10" stroke-linejoin="miter" fill="none" stroke="#000000" d="M 312.81117 141.73404 C 312.81117 142.28427 312.36515 142.73032 311.8149 142.73032 C 311.26466 142.73032 310.81864 142.28427 310.81864 141.73404 C 310.81864 141.1838 311.26466 140.73777 311.8149 140.73777 C 312.36515 140.73777 312.81117 141.1838 312.81117 141.73404 Z M 311.8149 141.73404 "/>
<text xml:space="preserve" transform="matrix(1 0 -0 1 377.48 -74.644)" font-size="4.9813" font-family="CMMI5" font-style="italic"><tspan y="153.043" x="-57.011">Q</tspan></text>
<text xml:space="preserve" transform="matrix(1 0 -0 1 377.48 -74.644)" font-size="4.9813" font-family="CMR5"><tspan y="154.537" x="-51.620004 -48.23272">10</tspan></text>
<path transform="matrix(1,0,0,-1,14.988998,225.048)" d="M 341.158 28.3468 C 341.158 28.89703 340.71195 29.34308 340.1617 29.34308 C 339.61149 29.34308 339.16545 28.89703 339.16545 28.3468 C 339.16545 27.79657 339.61149 27.35052 340.1617 27.35052 C 340.71195 27.35052 341.158 27.79657 341.158 28.3468 Z M 340.1617 28.3468 "/>
<path transform="matrix(1,0,0,-1,14.988998,225.048)" stroke-width=".19925" stroke-linecap="butt" stroke-miterlimit="10" stroke-linejoin="miter" fill="none" stroke="#000000" d="M 341.158 28.3468 C 341.158 28.89703 340.71195 29.34308 340.1617 29.34308 C 339.61149 29.34308 339.16545 28.89703 339.16545 28.3468 C 339.16545 27.79657 339.61149 27.35052 340.1617 27.35052 C 340.71195 27.35052 341.158 27.79657 341.158 28.3468 Z M 340.1617 28.3468 "/>
<text xml:space="preserve" transform="matrix(1 0 -0 1 415.582 38.744005)" font-size="4.9813" font-family="CMMI5" font-style="italic"><tspan y="153.043" x="-57.011">Q</tspan></text>
<text xml:space="preserve" transform="matrix(1 0 -0 1 415.582 38.744005)" font-size="4.9813" font-family="CMR5"><tspan y="154.537" x="-51.620004 -48.23272">11</tspan></text>
<path transform="matrix(1,0,0,-1,14.988998,225.048)" d="M 369.5048 0 C 369.5048 .55023 369.05876 .99628 368.5085 .99628 C 367.95829 .99628 367.51225 .55023 367.51225 0 C 367.51225 -.55023 367.95829 -.99628 368.5085 -.99628 C 369.05876 -.99628 369.5048 -.55023 369.5048 0 Z M 368.5085 0 "/>
<path transform="matrix(1,0,0,-1,14.988998,225.048)" stroke-width=".19925" stroke-linecap="butt" stroke-miterlimit="10" stroke-linejoin="miter" fill="none" stroke="#000000" d="M 369.5048 0 C 369.5048 .55023 369.05876 .99628 368.5085 .99628 C 367.95829 .99628 367.51225 .55023 367.51225 0 C 367.51225 -.55023 367.95829 -.99628 368.5085 -.99628 C 369.05876 -.99628 369.5048 -.55023 369.5048 0 Z M 368.5085 0 "/>
<text xml:space="preserve" transform="matrix(1 0 -0 1 443.929 78.829)" font-size="4.9813" font-family="CMMI5" font-style="italic"><tspan y="153.043" x="-57.011">Q</tspan></text>
<text xml:space="preserve" transform="matrix(1 0 -0 1 443.929 78.829)" font-size="4.9813" font-family="CMR5"><tspan y="154.537" x="-51.620004 -48.23272">12</tspan></text>
</g>
</svg>
