<?xml version="1.0" encoding="UTF-8" standalone="no"?>
<!DOCTYPE svg PUBLIC "-//W3C//DTD SVG 1.1//EN" "http://www.w3.org/Graphics/SVG/1.1/DTD/svg11.dtd">
<svg xmlns="http://www.w3.org/2000/svg" xmlns:xlink="http://www.w3.org/1999/xlink" version="1.1" width="324.69pt" height="352.8pt" viewBox="0 0 324.69 352.8">
<g enable-background="new">
<path transform="matrix(1,0,0,-1,14.988998,338.427)" stroke-width=".19925" stroke-linecap="butt" stroke-miterlimit="10" stroke-linejoin="miter" fill="none" stroke="#929292" d="M 28.3468 -14.17339 L 28.3468 325.9883 "/>
<path transform="matrix(1,0,0,-1,14.988998,338.427)" stroke-width=".19925" stroke-linecap="butt" stroke-miterlimit="10" stroke-linejoin="miter" fill="none" stroke="#929292" d="M 56.69362 -14.17339 L 56.69362 325.9883 "/>
<path transform="matrix(1,0,0,-1,14.988998,338.427)" stroke-width=".19925" stroke-linecap="butt" stroke-miterlimit="10" stroke-linejoin="miter" fill="none" stroke="#929292" d="M 85.04042 -14.17339 L 85.04042 325.9883 "/>
<path transform="matrix(1,0,0,-1,14.988998,338.427)" stroke-width=".19925" stroke-linecap="butt" stroke-miterlimit="10" stroke-linejoin="miter" fill="none" stroke="#929292" d="M 113.38724 -14.17339 L 113.38724 325.9883 "/>
<path transform="matrix(1,0,0,-1,14.988998,338.427)" stroke-width=".19925" stroke-linecap="butt" stroke-miterlimit="10" stroke-linejoin="miter" fill="none" stroke="#929292" d="M 141.73404 -14.17339 L 141.73404 325.9883 "/>
<path transform="matrix(1,0,0,-1,14.988998,338.427)" stroke-width=".19925" stroke-linecap="butt" stroke-miterlimit="10" stroke-linejoin="miter" fill="none" stroke="#929292" d="M 170.08086 -14.17339 L 170.08086 325.9883 "/>
<path transform="matrix(1,0,0,-1,14.988998,338.427)" stroke-width=".19925" stroke-linecap="butt" stroke-miterlimit="10" stroke-linejoin="miter" fill="none" stroke="#929292" d="M 198.42766 -14.17339 L 198.42766 325.9883 "/>
<path transform="matrix(1,0,0,-1,14.988998,338.427)" stroke-width=".19925" stroke-linecap="butt" stroke-miterlimit="10" stroke-linejoin="miter" fill="none" stroke="#929292" d="M 226.77448 -14.17339 L 226.77448 325.9883 "/>
<path transform="matrix(1,0,0,-1,14.988998,338.427)" stroke-width=".19925" stroke-linecap="butt" stroke-miterlimit="10" stroke-linejoin="miter" fill="none" stroke="#929292" d="M 255.12128 -14.17339 L 255.12128 325.9883 "/>
<path transform="matrix(1,0,0,-1,14.988998,338.427)" stroke-width=".19925" stroke-linecap="butt" stroke-miterlimit="10" stroke-linejoin="miter" fill="none" stroke="#929292" d="M 283.4681 -14.17339 L 283.4681 325.9883 "/>
<path transform="matrix(1,0,0,-1,14.988998,338.427)" stroke-width=".19925" stroke-linecap="butt" stroke-miterlimit="10" stroke-linejoin="miter" fill="none" stroke="#929292" d="M -14.17339 28.3468 L 297.6415 28.3468 "/>
<path transform="matrix(1,0,0,-1,14.988998,338.427)" stroke-width=".19925" stroke-linecap="butt" stroke-miterlimit="10" stroke-linejoin="miter" fill="none" stroke="#929292" d="M -14.17339 56.69362 L 297.6415 56.69362 "/>
<path transform="matrix(1,0,0,-1,14.988998,338.427)" stroke-width=".19925" stroke-linecap="butt" stroke-miterlimit="10" stroke-linejoin="miter" fill="none" stroke="#929292" d="M -14.17339 85.04042 L 297.6415 85.04042 "/>
<path transform="matrix(1,0,0,-1,14.988998,338.427)" stroke-width=".19925" stroke-linecap="butt" stroke-miterlimit="10" stroke-linejoin="miter" fill="none" stroke="#929292" d="M -14.17339 113.38724 L 297.6415 113.38724 "/>
<path transform="matrix(1,0,0,-1,14.988998,338.427)" stroke-width=".19925" stroke-linecap="butt" stroke-miterlimit="10" stroke-linejoin="miter" fill="none" stroke="#929292" d="M -14.17339 141.73404 L 297.6415 141.73404 "/>
<path transform="matrix(1,0,0,-1,14.988998,338.427)" stroke-width=".19925" stroke-linecap="butt" stroke-miterlimit="10" stroke-linejoin="miter" fill="none" stroke="#929292" d="M -14.17339 170.08086 L 297.6415 170.08086 "/>
<path transform="matrix(1,0,0,-1,14.988998,338.427)" stroke-width=".19925" stroke-linecap="butt" stroke-miterlimit="10" stroke-linejoin="miter" fill="none" stroke="#929292" d="M -14.17339 198.42766 L 297.6415 198.42766 "/>
<path transform="matrix(1,0,0,-1,14.988998,338.427)" stroke-width=".19925" stroke-linecap="butt" stroke-miterlimit="10" stroke-linejoin="miter" fill="none" stroke="#929292" d="M -14.17339 226.77448 L 297.6415 226.77448 "/>
<path transform="matrix(1,0,0,-1,14.988998,338.427)" stroke-width=".19925" stroke-linecap="butt" stroke-miterlimit="10" stroke-linejoin="miter" fill="none" stroke="#929292" d="M -14.17339 255.12128 L 297.6415 255.12128 "/>
<path transform="matrix(1,0,0,-1,14.988998,338.427)" stroke-width=".19925" stroke-linecap="butt" stroke-miterlimit="10" stroke-linejoin="miter" fill="none" stroke="#929292" d="M -14.17339 283.4681 L 297.6415 283.4681 "/>
<path transform="matrix(1,0,0,-1,14.988998,338.427)" stroke-width=".19925" stroke-linecap="butt" stroke-miterlimit="10" stroke-linejoin="miter" fill="none" stroke="#929292" d="M -14.17339 311.8149 L 297.6415 311.8149 "/>
<path transform="matrix(1,0,0,-1,14.988998,338.427)" stroke-width=".3985" stroke-linecap="butt" stroke-miterlimit="10" stroke-linejoin="miter" fill="none" stroke="#000000" d="M -14.17339 0 L 295.64897 0 "/>
<path transform="matrix(1,0,0,-1,310.63795,338.427)" d="M 1.99252 0 L -1.19551 1.59401 L 0 0 L -1.19551 -1.59401 "/>
<text xml:space="preserve" transform="matrix(1 0 -0 1 373.161 73.92899)" font-size="8.9664" font-family="CMMI9" font-style="italic"><tspan y="266.428" x="-57.011">x</tspan></text>
<path transform="matrix(1,0,0,-1,14.988998,338.427)" stroke-width=".3985" stroke-linecap="butt" stroke-miterlimit="10" stroke-linejoin="miter" fill="none" stroke="#000000" d="M 0 -14.17339 L 0 323.99577 "/>
<path transform="matrix(0,-1,-1,-0,14.988998,14.431244)" d="M 1.99252 0 L -1.19551 1.59401 L 0 0 L -1.19551 -1.59401 "/>
<text xml:space="preserve" transform="matrix(1 0 -0 1 69.57 -259.25303)" font-size="8.9664" font-family="CMMI9" font-style="italic"><tspan y="266.428" x="-57.011">y</tspan></text>
<path transform="matrix(1,0,0,-1,14.988998,338.427)" d="M .99628 0 C .99628 .55023 .55023 .99628 0 .99628 C -.55023 .99628 -.99628 .55023 -.99628 0 C -.99628 -.55023 -.55023 -.99628 0 -.99628 C .55023 -.99628 .99628 -.55023 .99628 0 Z M 0 0 "/>
<path transform="matrix(1,0,0,-1,14.988998,338.427)" stroke-width=".19925" stroke-linecap="butt" stroke-miterlimit="10" stroke-linejoin="miter" fill="none" stroke="#000000" d="M .99628 0 C .99628 .55023 .55023 .99628 0 .99628 C -.55023 .99628 -.99628 .55023 -.99628 0 C -.99628 -.55023 -.55023 -.99628 0 -.99628 C .55023 -.99628 .99628 -.55023 .99628 0 Z M 0 0 "/>
<text xml:space="preserve" transform="matrix(1 0 -0 1 60.331 78.82299)" font-size="4.9813" font-family="CMMI5" font-style="italic"><tspan y="266.428" x="-57.011">P</tspan></text>
<text xml:space="preserve" transform="matrix(1 0 -0 1 60.331 78.82299)" font-size="4.9813" font-family="CMR5"><tspan y="267.923" x="-52.65">1</tspan></text>
<path transform="matrix(1,0,0,-1,14.988998,338.427)" d="M 29.34308 28.3468 C 29.34308 28.89703 28.89703 29.34308 28.3468 29.34308 C 27.79657 29.34308 27.35052 28.89703 27.35052 28.3468 C 27.35052 27.79657 27.79657 27.35052 28.3468 27.35052 C 28.89703 27.35052 29.34308 27.79657 29.34308 28.3468 Z M 28.3468 28.3468 "/>
<path transform="matrix(1,0,0,-1,14.988998,338.427)" stroke-width=".19925" stroke-linecap="butt" stroke-miterlimit="10" stroke-linejoin="miter" fill="none" stroke="#000000" d="M 29.34308 28.3468 C 29.34308 28.89703 28.89703 29.34308 28.3468 29.34308 C 27.79657 29.34308 27.35052 28.89703 27.35052 28.3468 C 27.35052 27.79657 27.79657 27.35052 28.3468 27.35052 C 28.89703 27.35052 29.34308 27.79657 29.34308 28.3468 Z M 28.3468 28.3468 "/>
<text xml:space="preserve" transform="matrix(1 0 -0 1 96.222 50.47599)" font-size="4.9813" font-family="CMMI5" font-style="italic"><tspan y="266.428" x="-57.011">P</tspan></text>
<text xml:space="preserve" transform="matrix(1 0 -0 1 96.222 50.47599)" font-size="4.9813" font-family="CMR5"><tspan y="267.923" x="-52.65">2</tspan></text>
<path transform="matrix(1,0,0,-1,14.988998,338.427)" d="M 57.6899 28.3468 C 57.6899 28.89703 57.24385 29.34308 56.69362 29.34308 C 56.14337 29.34308 55.69734 28.89703 55.69734 28.3468 C 55.69734 27.79657 56.14337 27.35052 56.69362 27.35052 C 57.24385 27.35052 57.6899 27.79657 57.6899 28.3468 Z M 56.69362 28.3468 "/>
<path transform="matrix(1,0,0,-1,14.988998,338.427)" stroke-width=".19925" stroke-linecap="butt" stroke-miterlimit="10" stroke-linejoin="miter" fill="none" stroke="#000000" d="M 57.6899 28.3468 C 57.6899 28.89703 57.24385 29.34308 56.69362 29.34308 C 56.14337 29.34308 55.69734 28.89703 55.69734 28.3468 C 55.69734 27.79657 56.14337 27.35052 56.69362 27.35052 C 57.24385 27.35052 57.6899 27.79657 57.6899 28.3468 Z M 56.69362 28.3468 "/>
<text xml:space="preserve" transform="matrix(1 0 -0 1 124.569 50.47599)" font-size="4.9813" font-family="CMMI5" font-style="italic"><tspan y="266.428" x="-57.011">P</tspan></text>
<text xml:space="preserve" transform="matrix(1 0 -0 1 124.569 50.47599)" font-size="4.9813" font-family="CMR5"><tspan y="267.923" x="-52.65">3</tspan></text>
<path transform="matrix(1,0,0,-1,14.988998,338.427)" d="M 57.6899 56.69362 C 57.6899 57.24385 57.24385 57.6899 56.69362 57.6899 C 56.14337 57.6899 55.69734 57.24385 55.69734 56.69362 C 55.69734 56.14337 56.14337 55.69734 56.69362 55.69734 C 57.24385 55.69734 57.6899 56.14337 57.6899 56.69362 Z M 56.69362 56.69362 "/>
<path transform="matrix(1,0,0,-1,14.988998,338.427)" stroke-width=".19925" stroke-linecap="butt" stroke-miterlimit="10" stroke-linejoin="miter" fill="none" stroke="#000000" d="M 57.6899 56.69362 C 57.6899 57.24385 57.24385 57.6899 56.69362 57.6899 C 56.14337 57.6899 55.69734 57.24385 55.69734 56.69362 C 55.69734 56.14337 56.14337 55.69734 56.69362 55.69734 C 57.24385 55.69734 57.6899 56.14337 57.6899 56.69362 Z M 56.69362 56.69362 "/>
<text xml:space="preserve" transform="matrix(1 0 -0 1 124.569 22.129994)" font-size="4.9813" font-family="CMMI5" font-style="italic"><tspan y="266.428" x="-57.011">P</tspan></text>
<text xml:space="preserve" transform="matrix(1 0 -0 1 124.569 22.129994)" font-size="4.9813" font-family="CMR5"><tspan y="267.923" x="-52.65">4</tspan></text>
<path transform="matrix(1,0,0,-1,14.988998,338.427)" d="M 57.6899 85.04042 C 57.6899 85.59065 57.24385 86.0367 56.69362 86.0367 C 56.14337 86.0367 55.69734 85.59065 55.69734 85.04042 C 55.69734 84.49019 56.14337 84.04414 56.69362 84.04414 C 57.24385 84.04414 57.6899 84.49019 57.6899 85.04042 Z M 56.69362 85.04042 "/>
<path transform="matrix(1,0,0,-1,14.988998,338.427)" stroke-width=".19925" stroke-linecap="butt" stroke-miterlimit="10" stroke-linejoin="miter" fill="none" stroke="#000000" d="M 57.6899 85.04042 C 57.6899 85.59065 57.24385 86.0367 56.69362 86.0367 C 56.14337 86.0367 55.69734 85.59065 55.69734 85.04042 C 55.69734 84.49019 56.14337 84.04414 56.69362 84.04414 C 57.24385 84.04414 57.6899 84.49019 57.6899 85.04042 Z M 56.69362 85.04042 "/>
<text xml:space="preserve" transform="matrix(1 0 -0 1 124.569 -6.2170107)" font-size="4.9813" font-family="CMMI5" font-style="italic"><tspan y="266.428" x="-57.011">P</tspan></text>
<text xml:space="preserve" transform="matrix(1 0 -0 1 124.569 -6.2170107)" font-size="4.9813" font-family="CMR5"><tspan y="267.923" x="-52.65">5</tspan></text>
<path transform="matrix(1,0,0,-1,14.988998,338.427)" d="M 57.6899 113.38724 C 57.6899 113.93747 57.24385 114.38351 56.69362 114.38351 C 56.14337 114.38351 55.69734 113.93747 55.69734 113.38724 C 55.69734 112.83699 56.14337 112.39096 56.69362 112.39096 C 57.24385 112.39096 57.6899 112.83699 57.6899 113.38724 Z M 56.69362 113.38724 "/>
<path transform="matrix(1,0,0,-1,14.988998,338.427)" stroke-width=".19925" stroke-linecap="butt" stroke-miterlimit="10" stroke-linejoin="miter" fill="none" stroke="#000000" d="M 57.6899 113.38724 C 57.6899 113.93747 57.24385 114.38351 56.69362 114.38351 C 56.14337 114.38351 55.69734 113.93747 55.69734 113.38724 C 55.69734 112.83699 56.14337 112.39096 56.69362 112.39096 C 57.24385 112.39096 57.6899 112.83699 57.6899 113.38724 Z M 56.69362 113.38724 "/>
<text xml:space="preserve" transform="matrix(1 0 -0 1 117.025 -46.30301)" font-size="4.9813" font-family="CMMI5" font-style="italic"><tspan y="266.428" x="-57.011">P</tspan></text>
<text xml:space="preserve" transform="matrix(1 0 -0 1 117.025 -46.30301)" font-size="4.9813" font-family="CMR5"><tspan y="267.923" x="-52.65">6</tspan></text>
<path transform="matrix(1,0,0,-1,14.988998,338.427)" d="M 86.0367 85.04042 C 86.0367 85.59065 85.59065 86.0367 85.04042 86.0367 C 84.49019 86.0367 84.04414 85.59065 84.04414 85.04042 C 84.04414 84.49019 84.49019 84.04414 85.04042 84.04414 C 85.59065 84.04414 86.0367 84.49019 86.0367 85.04042 Z M 85.04042 85.04042 "/>
<path transform="matrix(1,0,0,-1,14.988998,338.427)" stroke-width=".19925" stroke-linecap="butt" stroke-miterlimit="10" stroke-linejoin="miter" fill="none" stroke="#000000" d="M 86.0367 85.04042 C 86.0367 85.59065 85.59065 86.0367 85.04042 86.0367 C 84.49019 86.0367 84.04414 85.59065 84.04414 85.04042 C 84.04414 84.49019 84.49019 84.04414 85.04042 84.04414 C 85.59065 84.04414 86.0367 84.49019 86.0367 85.04042 Z M 85.04042 85.04042 "/>
<text xml:space="preserve" transform="matrix(1 0 -0 1 152.916 -6.2170107)" font-size="4.9813" font-family="CMMI5" font-style="italic"><tspan y="266.428" x="-57.011">P</tspan></text>
<text xml:space="preserve" transform="matrix(1 0 -0 1 152.916 -6.2170107)" font-size="4.9813" font-family="CMR5"><tspan y="267.923" x="-52.65">7</tspan></text>
<path transform="matrix(1,0,0,-1,14.988998,338.427)" d="M 86.0367 113.38724 C 86.0367 113.93747 85.59065 114.38351 85.04042 114.38351 C 84.49019 114.38351 84.04414 113.93747 84.04414 113.38724 C 84.04414 112.83699 84.49019 112.39096 85.04042 112.39096 C 85.59065 112.39096 86.0367 112.83699 86.0367 113.38724 Z M 85.04042 113.38724 "/>
<path transform="matrix(1,0,0,-1,14.988998,338.427)" stroke-width=".19925" stroke-linecap="butt" stroke-miterlimit="10" stroke-linejoin="miter" fill="none" stroke="#000000" d="M 86.0367 113.38724 C 86.0367 113.93747 85.59065 114.38351 85.04042 114.38351 C 84.49019 114.38351 84.04414 113.93747 84.04414 113.38724 C 84.04414 112.83699 84.49019 112.39096 85.04042 112.39096 C 85.59065 112.39096 86.0367 112.83699 86.0367 113.38724 Z M 85.04042 113.38724 "/>
<text xml:space="preserve" transform="matrix(1 0 -0 1 160.461 -34.56401)" font-size="4.9813" font-family="CMMI5" font-style="italic"><tspan y="266.428" x="-57.011">P</tspan></text>
<text xml:space="preserve" transform="matrix(1 0 -0 1 160.461 -34.56401)" font-size="4.9813" font-family="CMR5"><tspan y="267.923" x="-52.65">8</tspan></text>
<path transform="matrix(1,0,0,-1,14.988998,338.427)" d="M 86.0367 170.08086 C 86.0367 170.63109 85.59065 171.07714 85.04042 171.07714 C 84.49019 171.07714 84.04414 170.63109 84.04414 170.08086 C 84.04414 169.53061 84.49019 169.08458 85.04042 169.08458 C 85.59065 169.08458 86.0367 169.53061 86.0367 170.08086 Z M 85.04042 170.08086 "/>
<path transform="matrix(1,0,0,-1,14.988998,338.427)" stroke-width=".19925" stroke-linecap="butt" stroke-miterlimit="10" stroke-linejoin="miter" fill="none" stroke="#000000" d="M 86.0367 170.08086 C 86.0367 170.63109 85.59065 171.07714 85.04042 171.07714 C 84.49019 171.07714 84.04414 170.63109 84.04414 170.08086 C 84.04414 169.53061 84.49019 169.08458 85.04042 169.08458 C 85.59065 169.08458 86.0367 169.53061 86.0367 170.08086 Z M 85.04042 170.08086 "/>
<text xml:space="preserve" transform="matrix(1 0 -0 1 145.371 -97.127017)" font-size="4.9813" font-family="CMMI5" font-style="italic"><tspan y="266.428" x="-57.011">P</tspan></text>
<text xml:space="preserve" transform="matrix(1 0 -0 1 145.371 -97.127017)" font-size="4.9813" font-family="CMR5"><tspan y="267.923" x="-52.65">9</tspan></text>
<path transform="matrix(1,0,0,-1,14.988998,338.427)" d="M 114.38351 113.38724 C 114.38351 113.93747 113.93747 114.38351 113.38724 114.38351 C 112.83699 114.38351 112.39096 113.93747 112.39096 113.38724 C 112.39096 112.83699 112.83699 112.39096 113.38724 112.39096 C 113.93747 112.39096 114.38351 112.83699 114.38351 113.38724 Z M 113.38724 113.38724 "/>
<path transform="matrix(1,0,0,-1,14.988998,338.427)" stroke-width=".19925" stroke-linecap="butt" stroke-miterlimit="10" stroke-linejoin="miter" fill="none" stroke="#000000" d="M 114.38351 113.38724 C 114.38351 113.93747 113.93747 114.38351 113.38724 114.38351 C 112.83699 114.38351 112.39096 113.93747 112.39096 113.38724 C 112.39096 112.83699 112.83699 112.39096 113.38724 112.39096 C 113.93747 112.39096 114.38351 112.83699 114.38351 113.38724 Z M 113.38724 113.38724 "/>
<text xml:space="preserve" transform="matrix(1 0 -0 1 179.568 -34.56401)" font-size="4.9813" font-family="CMMI5" font-style="italic"><tspan y="266.428" x="-57.011">P</tspan></text>
<text xml:space="preserve" transform="matrix(1 0 -0 1 179.568 -34.56401)" font-size="4.9813" font-family="CMR5"><tspan y="267.923" x="-52.65 -49.26272">10</tspan></text>
<path transform="matrix(1,0,0,-1,14.988998,338.427)" d="M 114.38351 141.73404 C 114.38351 142.28427 113.93747 142.73032 113.38724 142.73032 C 112.83699 142.73032 112.39096 142.28427 112.39096 141.73404 C 112.39096 141.1838 112.83699 140.73777 113.38724 140.73777 C 113.93747 140.73777 114.38351 141.1838 114.38351 141.73404 Z M 113.38724 141.73404 "/>
<path transform="matrix(1,0,0,-1,14.988998,338.427)" stroke-width=".19925" stroke-linecap="butt" stroke-miterlimit="10" stroke-linejoin="miter" fill="none" stroke="#000000" d="M 114.38351 141.73404 C 114.38351 142.28427 113.93747 142.73032 113.38724 142.73032 C 112.83699 142.73032 112.39096 142.28427 112.39096 141.73404 C 112.39096 141.1838 112.83699 140.73777 113.38724 140.73777 C 113.93747 140.73777 114.38351 141.1838 114.38351 141.73404 Z M 113.38724 141.73404 "/>
<text xml:space="preserve" transform="matrix(1 0 -0 1 188.807 -62.91101)" font-size="4.9813" font-family="CMMI5" font-style="italic"><tspan y="266.428" x="-57.011">P</tspan></text>
<text xml:space="preserve" transform="matrix(1 0 -0 1 188.807 -62.91101)" font-size="4.9813" font-family="CMR5"><tspan y="267.923" x="-52.65 -49.26272">11</tspan></text>
<path transform="matrix(1,0,0,-1,14.988998,338.427)" d="M 114.38351 311.8149 C 114.38351 312.36515 113.93747 312.81117 113.38724 312.81117 C 112.83699 312.81117 112.39096 312.36515 112.39096 311.8149 C 112.39096 311.26466 112.83699 310.81864 113.38724 310.81864 C 113.93747 310.81864 114.38351 311.26466 114.38351 311.8149 Z M 113.38724 311.8149 "/>
<path transform="matrix(1,0,0,-1,14.988998,338.427)" stroke-width=".19925" stroke-linecap="butt" stroke-miterlimit="10" stroke-linejoin="miter" fill="none" stroke="#000000" d="M 114.38351 311.8149 C 114.38351 312.36515 113.93747 312.81117 113.38724 312.81117 C 112.83699 312.81117 112.39096 312.36515 112.39096 311.8149 C 112.39096 311.26466 112.83699 310.81864 113.38724 310.81864 C 113.93747 310.81864 114.38351 311.26466 114.38351 311.8149 Z M 113.38724 311.8149 "/>
<text xml:space="preserve" transform="matrix(1 0 -0 1 179.568 -244.73001)" font-size="4.9813" font-family="CMMI5" font-style="italic"><tspan y="266.428" x="-57.011">P</tspan></text>
<text xml:space="preserve" transform="matrix(1 0 -0 1 179.568 -244.73001)" font-size="4.9813" font-family="CMR5"><tspan y="267.923" x="-52.65 -49.26272">12</tspan></text>
<path transform="matrix(1,0,0,-1,14.988998,338.427)" d="M 142.73032 85.04042 C 142.73032 85.59065 142.28427 86.0367 141.73404 86.0367 C 141.1838 86.0367 140.73777 85.59065 140.73777 85.04042 C 140.73777 84.49019 141.1838 84.04414 141.73404 84.04414 C 142.28427 84.04414 142.73032 84.49019 142.73032 85.04042 Z M 141.73404 85.04042 "/>
<path transform="matrix(1,0,0,-1,14.988998,338.427)" stroke-width=".19925" stroke-linecap="butt" stroke-miterlimit="10" stroke-linejoin="miter" fill="none" stroke="#000000" d="M 142.73032 85.04042 C 142.73032 85.59065 142.28427 86.0367 141.73404 86.0367 C 141.1838 86.0367 140.73777 85.59065 140.73777 85.04042 C 140.73777 84.49019 141.1838 84.04414 141.73404 84.04414 C 142.28427 84.04414 142.73032 84.49019 142.73032 85.04042 Z M 141.73404 85.04042 "/>
<text xml:space="preserve" transform="matrix(1 0 -0 1 207.915 -6.2170107)" font-size="4.9813" font-family="CMMI5" font-style="italic"><tspan y="266.428" x="-57.011">P</tspan></text>
<text xml:space="preserve" transform="matrix(1 0 -0 1 207.915 -6.2170107)" font-size="4.9813" font-family="CMR5"><tspan y="267.923" x="-52.65 -49.26272">13</tspan></text>
<path transform="matrix(1,0,0,-1,14.988998,338.427)" d="M 142.73032 113.38724 C 142.73032 113.93747 142.28427 114.38351 141.73404 114.38351 C 141.1838 114.38351 140.73777 113.93747 140.73777 113.38724 C 140.73777 112.83699 141.1838 112.39096 141.73404 112.39096 C 142.28427 112.39096 142.73032 112.83699 142.73032 113.38724 Z M 141.73404 113.38724 "/>
<path transform="matrix(1,0,0,-1,14.988998,338.427)" stroke-width=".19925" stroke-linecap="butt" stroke-miterlimit="10" stroke-linejoin="miter" fill="none" stroke="#000000" d="M 142.73032 113.38724 C 142.73032 113.93747 142.28427 114.38351 141.73404 114.38351 C 141.1838 114.38351 140.73777 113.93747 140.73777 113.38724 C 140.73777 112.83699 141.1838 112.39096 141.73404 112.39096 C 142.28427 112.39096 142.73032 112.83699 142.73032 113.38724 Z M 141.73404 113.38724 "/>
<text xml:space="preserve" transform="matrix(1 0 -0 1 198.675 -34.56401)" font-size="4.9813" font-family="CMMI5" font-style="italic"><tspan y="266.428" x="-57.011">P</tspan></text>
<text xml:space="preserve" transform="matrix(1 0 -0 1 198.675 -34.56401)" font-size="4.9813" font-family="CMR5"><tspan y="267.923" x="-52.65 -49.26272">14</tspan></text>
<path transform="matrix(1,0,0,-1,14.988998,338.427)" d="M 142.73032 141.73404 C 142.73032 142.28427 142.28427 142.73032 141.73404 142.73032 C 141.1838 142.73032 140.73777 142.28427 140.73777 141.73404 C 140.73777 141.1838 141.1838 140.73777 141.73404 140.73777 C 142.28427 140.73777 142.73032 141.1838 142.73032 141.73404 Z M 141.73404 141.73404 "/>
<path transform="matrix(1,0,0,-1,14.988998,338.427)" stroke-width=".19925" stroke-linecap="butt" stroke-miterlimit="10" stroke-linejoin="miter" fill="none" stroke="#000000" d="M 142.73032 141.73404 C 142.73032 142.28427 142.28427 142.73032 141.73404 142.73032 C 141.1838 142.73032 140.73777 142.28427 140.73777 141.73404 C 140.73777 141.1838 141.1838 140.73777 141.73404 140.73777 C 142.28427 140.73777 142.73032 141.1838 142.73032 141.73404 Z M 141.73404 141.73404 "/>
<text xml:space="preserve" transform="matrix(1 0 -0 1 198.675 -74.65001)" font-size="4.9813" font-family="CMMI5" font-style="italic"><tspan y="266.428" x="-57.011">P</tspan></text>
<text xml:space="preserve" transform="matrix(1 0 -0 1 198.675 -74.65001)" font-size="4.9813" font-family="CMR5"><tspan y="267.923" x="-52.65 -49.26272">15</tspan></text>
<path transform="matrix(1,0,0,-1,14.988998,338.427)" d="M 142.73032 198.42766 C 142.73032 198.97789 142.28427 199.42394 141.73404 199.42394 C 141.1838 199.42394 140.73777 198.97789 140.73777 198.42766 C 140.73777 197.87743 141.1838 197.43138 141.73404 197.43138 C 142.28427 197.43138 142.73032 197.87743 142.73032 198.42766 Z M 141.73404 198.42766 "/>
<path transform="matrix(1,0,0,-1,14.988998,338.427)" stroke-width=".19925" stroke-linecap="butt" stroke-miterlimit="10" stroke-linejoin="miter" fill="none" stroke="#000000" d="M 142.73032 198.42766 C 142.73032 198.97789 142.28427 199.42394 141.73404 199.42394 C 141.1838 199.42394 140.73777 198.97789 140.73777 198.42766 C 140.73777 197.87743 141.1838 197.43138 141.73404 197.43138 C 142.28427 197.43138 142.73032 197.87743 142.73032 198.42766 Z M 141.73404 198.42766 "/>
<text xml:space="preserve" transform="matrix(1 0 -0 1 198.675 -125.474018)" font-size="4.9813" font-family="CMMI5" font-style="italic"><tspan y="266.428" x="-57.011">P</tspan></text>
<text xml:space="preserve" transform="matrix(1 0 -0 1 198.675 -125.474018)" font-size="4.9813" font-family="CMR5"><tspan y="267.923" x="-52.65 -49.26272">16</tspan></text>
<path transform="matrix(1,0,0,-1,14.988998,338.427)" d="M 142.73032 226.77448 C 142.73032 227.3247 142.28427 227.77075 141.73404 227.77075 C 141.1838 227.77075 140.73777 227.3247 140.73777 226.77448 C 140.73777 226.22425 141.1838 225.7782 141.73404 225.7782 C 142.28427 225.7782 142.73032 226.22425 142.73032 226.77448 Z M 141.73404 226.77448 "/>
<path transform="matrix(1,0,0,-1,14.988998,338.427)" stroke-width=".19925" stroke-linecap="butt" stroke-miterlimit="10" stroke-linejoin="miter" fill="none" stroke="#000000" d="M 142.73032 226.77448 C 142.73032 227.3247 142.28427 227.77075 141.73404 227.77075 C 141.1838 227.77075 140.73777 227.3247 140.73777 226.77448 C 140.73777 226.22425 141.1838 225.7782 141.73404 225.7782 C 142.28427 225.7782 142.73032 226.22425 142.73032 226.77448 Z M 141.73404 226.77448 "/>
<text xml:space="preserve" transform="matrix(1 0 -0 1 198.675 -153.82102)" font-size="4.9813" font-family="CMMI5" font-style="italic"><tspan y="266.428" x="-57.011">P</tspan></text>
<text xml:space="preserve" transform="matrix(1 0 -0 1 198.675 -153.82102)" font-size="4.9813" font-family="CMR5"><tspan y="267.923" x="-52.65 -49.26272">17</tspan></text>
<path transform="matrix(1,0,0,-1,14.988998,338.427)" d="M 142.73032 255.12128 C 142.73032 255.67153 142.28427 256.11756 141.73404 256.11756 C 141.1838 256.11756 140.73777 255.67153 140.73777 255.12128 C 140.73777 254.57105 141.1838 254.125 141.73404 254.125 C 142.28427 254.125 142.73032 254.57105 142.73032 255.12128 Z M 141.73404 255.12128 "/>
<path transform="matrix(1,0,0,-1,14.988998,338.427)" stroke-width=".19925" stroke-linecap="butt" stroke-miterlimit="10" stroke-linejoin="miter" fill="none" stroke="#000000" d="M 142.73032 255.12128 C 142.73032 255.67153 142.28427 256.11756 141.73404 256.11756 C 141.1838 256.11756 140.73777 255.67153 140.73777 255.12128 C 140.73777 254.57105 141.1838 254.125 141.73404 254.125 C 142.28427 254.125 142.73032 254.57105 142.73032 255.12128 Z M 141.73404 255.12128 "/>
<text xml:space="preserve" transform="matrix(1 0 -0 1 198.675 -182.16802)" font-size="4.9813" font-family="CMMI5" font-style="italic"><tspan y="266.428" x="-57.011">P</tspan></text>
<text xml:space="preserve" transform="matrix(1 0 -0 1 198.675 -182.16802)" font-size="4.9813" font-family="CMR5"><tspan y="267.923" x="-52.65 -49.26272">18</tspan></text>
<path transform="matrix(1,0,0,-1,14.988998,338.427)" d="M 171.07714 56.69362 C 171.07714 57.24385 170.63109 57.6899 170.08086 57.6899 C 169.53061 57.6899 169.08458 57.24385 169.08458 56.69362 C 169.08458 56.14337 169.53061 55.69734 170.08086 55.69734 C 170.63109 55.69734 171.07714 56.14337 171.07714 56.69362 Z M 170.08086 56.69362 "/>
<path transform="matrix(1,0,0,-1,14.988998,338.427)" stroke-width=".19925" stroke-linecap="butt" stroke-miterlimit="10" stroke-linejoin="miter" fill="none" stroke="#000000" d="M 171.07714 56.69362 C 171.07714 57.24385 170.63109 57.6899 170.08086 57.6899 C 169.53061 57.6899 169.08458 57.24385 169.08458 56.69362 C 169.08458 56.14337 169.53061 55.69734 170.08086 55.69734 C 170.63109 55.69734 171.07714 56.14337 171.07714 56.69362 Z M 170.08086 56.69362 "/>
<text xml:space="preserve" transform="matrix(1 0 -0 1 236.261 22.129994)" font-size="4.9813" font-family="CMMI5" font-style="italic"><tspan y="266.428" x="-57.011">P</tspan></text>
<text xml:space="preserve" transform="matrix(1 0 -0 1 236.261 22.129994)" font-size="4.9813" font-family="CMR5"><tspan y="267.923" x="-52.65 -49.26272">19</tspan></text>
<path transform="matrix(1,0,0,-1,14.988998,338.427)" d="M 171.07714 85.04042 C 171.07714 85.59065 170.63109 86.0367 170.08086 86.0367 C 169.53061 86.0367 169.08458 85.59065 169.08458 85.04042 C 169.08458 84.49019 169.53061 84.04414 170.08086 84.04414 C 170.63109 84.04414 171.07714 84.49019 171.07714 85.04042 Z M 170.08086 85.04042 "/>
<path transform="matrix(1,0,0,-1,14.988998,338.427)" stroke-width=".19925" stroke-linecap="butt" stroke-miterlimit="10" stroke-linejoin="miter" fill="none" stroke="#000000" d="M 171.07714 85.04042 C 171.07714 85.59065 170.63109 86.0367 170.08086 86.0367 C 169.53061 86.0367 169.08458 85.59065 169.08458 85.04042 C 169.08458 84.49019 169.53061 84.04414 170.08086 84.04414 C 170.63109 84.04414 171.07714 84.49019 171.07714 85.04042 Z M 170.08086 85.04042 "/>
<text xml:space="preserve" transform="matrix(1 0 -0 1 227.022 -12.087006)" font-size="4.9813" font-family="CMMI5" font-style="italic"><tspan y="266.428" x="-57.011">P</tspan></text>
<text xml:space="preserve" transform="matrix(1 0 -0 1 227.022 -12.087006)" font-size="4.9813" font-family="CMR5"><tspan y="267.923" x="-52.65 -49.26272">20</tspan></text>
<path transform="matrix(1,0,0,-1,14.988998,338.427)" d="M 199.42394 28.3468 C 199.42394 28.89703 198.97789 29.34308 198.42766 29.34308 C 197.87743 29.34308 197.43138 28.89703 197.43138 28.3468 C 197.43138 27.79657 197.87743 27.35052 198.42766 27.35052 C 198.97789 27.35052 199.42394 27.79657 199.42394 28.3468 Z M 198.42766 28.3468 "/>
<path transform="matrix(1,0,0,-1,14.988998,338.427)" stroke-width=".19925" stroke-linecap="butt" stroke-miterlimit="10" stroke-linejoin="miter" fill="none" stroke="#000000" d="M 199.42394 28.3468 C 199.42394 28.89703 198.97789 29.34308 198.42766 29.34308 C 197.87743 29.34308 197.43138 28.89703 197.43138 28.3468 C 197.43138 27.79657 197.87743 27.35052 198.42766 27.35052 C 198.97789 27.35052 199.42394 27.79657 199.42394 28.3468 Z M 198.42766 28.3468 "/>
<text xml:space="preserve" transform="matrix(1 0 -0 1 273.84803 38.73799)" font-size="4.9813" font-family="CMMI5" font-style="italic"><tspan y="266.428" x="-57.011">P</tspan></text>
<text xml:space="preserve" transform="matrix(1 0 -0 1 273.84803 38.73799)" font-size="4.9813" font-family="CMR5"><tspan y="267.923" x="-52.65 -49.26272">21</tspan></text>
<path transform="matrix(1,0,0,-1,14.988998,338.427)" d="M 284.46437 0 C 284.46437 .55023 284.01835 .99628 283.4681 .99628 C 282.91786 .99628 282.47184 .55023 282.47184 0 C 282.47184 -.55023 282.91786 -.99628 283.4681 -.99628 C 284.01835 -.99628 284.46437 -.55023 284.46437 0 Z M 283.4681 0 "/>
<path transform="matrix(1,0,0,-1,14.988998,338.427)" stroke-width=".19925" stroke-linecap="butt" stroke-miterlimit="10" stroke-linejoin="miter" fill="none" stroke="#000000" d="M 284.46437 0 C 284.46437 .55023 284.01835 .99628 283.4681 .99628 C 282.91786 .99628 282.47184 .55023 282.47184 0 C 282.47184 -.55023 282.91786 -.99628 283.4681 -.99628 C 284.01835 -.99628 284.46437 -.55023 284.46437 0 Z M 283.4681 0 "/>
<text xml:space="preserve" transform="matrix(1 0 -0 1 358.888 78.82299)" font-size="4.9813" font-family="CMMI5" font-style="italic"><tspan y="266.428" x="-57.011">P</tspan></text>
<text xml:space="preserve" transform="matrix(1 0 -0 1 358.888 78.82299)" font-size="4.9813" font-family="CMR5"><tspan y="267.923" x="-52.65 -49.26272">22</tspan></text>
<path transform="matrix(1,0,0,-1,14.988998,338.427)" stroke-width=".3985" stroke-linecap="butt" stroke-miterlimit="10" stroke-linejoin="miter" fill="none" stroke="#000000" d="M 0 0 L 28.3468 28.3468 "/>
<path transform="matrix(1,0,0,-1,14.988998,338.427)" stroke-width=".3985" stroke-linecap="butt" stroke-miterlimit="10" stroke-linejoin="miter" fill="none" stroke="#000000" d="M 0 0 L 56.69362 28.3468 "/>
<path transform="matrix(1,0,0,-1,14.988998,338.427)" stroke-width=".3985" stroke-linecap="butt" stroke-miterlimit="10" stroke-linejoin="miter" fill="none" stroke="#000000" d="M 0 0 L 56.69362 113.38724 "/>
<path transform="matrix(1,0,0,-1,14.988998,338.427)" stroke-width=".3985" stroke-linecap="butt" stroke-miterlimit="10" stroke-linejoin="miter" fill="none" stroke="#000000" d="M 0 0 L 113.38724 311.8149 "/>
<path transform="matrix(1,0,0,-1,14.988998,338.427)" stroke-width=".3985" stroke-linecap="butt" stroke-miterlimit="10" stroke-linejoin="miter" fill="none" stroke="#000000" d="M 0 0 L 283.4681 0 "/>
<path transform="matrix(1,0,0,-1,14.988998,338.427)" stroke-width=".3985" stroke-linecap="butt" stroke-miterlimit="10" stroke-linejoin="miter" fill="none" stroke="#000000" d="M 28.3468 28.3468 L 56.69362 28.3468 "/>
<path transform="matrix(1,0,0,-1,14.988998,338.427)" stroke-width=".3985" stroke-linecap="butt" stroke-miterlimit="10" stroke-linejoin="miter" fill="none" stroke="#000000" d="M 28.3468 28.3468 L 56.69362 56.69362 "/>
<path transform="matrix(1,0,0,-1,14.988998,338.427)" stroke-width=".3985" stroke-linecap="butt" stroke-miterlimit="10" stroke-linejoin="miter" fill="none" stroke="#000000" d="M 28.3468 28.3468 L 56.69362 85.04042 "/>
<path transform="matrix(1,0,0,-1,14.988998,338.427)" stroke-width=".3985" stroke-linecap="butt" stroke-miterlimit="10" stroke-linejoin="miter" fill="none" stroke="#000000" d="M 28.3468 28.3468 L 56.69362 113.38724 "/>
<path transform="matrix(1,0,0,-1,14.988998,338.427)" stroke-width=".3985" stroke-linecap="butt" stroke-miterlimit="10" stroke-linejoin="miter" fill="none" stroke="#000000" d="M 56.69362 28.3468 L 170.08086 56.69362 "/>
<path transform="matrix(1,0,0,-1,14.988998,338.427)" stroke-width=".3985" stroke-linecap="butt" stroke-miterlimit="10" stroke-linejoin="miter" fill="none" stroke="#000000" d="M 56.69362 28.3468 L 198.42766 28.3468 "/>
<path transform="matrix(1,0,0,-1,14.988998,338.427)" stroke-width=".3985" stroke-linecap="butt" stroke-miterlimit="10" stroke-linejoin="miter" fill="none" stroke="#000000" d="M 56.69362 28.3468 L 283.4681 0 "/>
<path transform="matrix(1,0,0,-1,14.988998,338.427)" stroke-width=".3985" stroke-linecap="butt" stroke-miterlimit="10" stroke-linejoin="miter" fill="none" stroke="#000000" d="M 56.69362 56.69362 L 85.04042 85.04042 "/>
<path transform="matrix(1,0,0,-1,14.988998,338.427)" stroke-width=".3985" stroke-linecap="butt" stroke-miterlimit="10" stroke-linejoin="miter" fill="none" stroke="#000000" d="M 56.69362 56.69362 L 85.04042 113.38724 "/>
<path transform="matrix(1,0,0,-1,14.988998,338.427)" stroke-width=".3985" stroke-linecap="butt" stroke-miterlimit="10" stroke-linejoin="miter" fill="none" stroke="#000000" d="M 56.69362 56.69362 L 141.73404 85.04042 "/>
<path transform="matrix(1,0,0,-1,14.988998,338.427)" stroke-width=".3985" stroke-linecap="butt" stroke-miterlimit="10" stroke-linejoin="miter" fill="none" stroke="#000000" d="M 56.69362 56.69362 L 170.08086 56.69362 "/>
<path transform="matrix(1,0,0,-1,14.988998,338.427)" stroke-width=".3985" stroke-linecap="butt" stroke-miterlimit="10" stroke-linejoin="miter" fill="none" stroke="#000000" d="M 56.69362 85.04042 L 56.69362 113.38724 "/>
<path transform="matrix(1,0,0,-1,14.988998,338.427)" stroke-width=".3985" stroke-linecap="butt" stroke-miterlimit="10" stroke-linejoin="miter" fill="none" stroke="#000000" d="M 56.69362 85.04042 L 85.04042 113.38724 "/>
<path transform="matrix(1,0,0,-1,14.988998,338.427)" stroke-width=".3985" stroke-linecap="butt" stroke-miterlimit="10" stroke-linejoin="miter" fill="none" stroke="#000000" d="M 56.69362 85.04042 L 85.04042 170.08086 "/>
<path transform="matrix(1,0,0,-1,14.988998,338.427)" stroke-width=".3985" stroke-linecap="butt" stroke-miterlimit="10" stroke-linejoin="miter" fill="none" stroke="#000000" d="M 56.69362 85.04042 L 141.73404 226.77448 "/>
<path transform="matrix(1,0,0,-1,14.988998,338.427)" stroke-width=".3985" stroke-linecap="butt" stroke-miterlimit="10" stroke-linejoin="miter" fill="none" stroke="#000000" d="M 56.69362 113.38724 L 85.04042 170.08086 "/>
<path transform="matrix(1,0,0,-1,14.988998,338.427)" stroke-width=".3985" stroke-linecap="butt" stroke-miterlimit="10" stroke-linejoin="miter" fill="none" stroke="#000000" d="M 56.69362 113.38724 L 113.38724 311.8149 "/>
<path transform="matrix(1,0,0,-1,14.988998,338.427)" stroke-width=".3985" stroke-linecap="butt" stroke-miterlimit="10" stroke-linejoin="miter" fill="none" stroke="#000000" d="M 85.04042 85.04042 L 85.04042 113.38724 "/>
<path transform="matrix(1,0,0,-1,14.988998,338.427)" stroke-width=".3985" stroke-linecap="butt" stroke-miterlimit="10" stroke-linejoin="miter" fill="none" stroke="#000000" d="M 85.04042 85.04042 L 113.38724 113.38724 "/>
<path transform="matrix(1,0,0,-1,14.988998,338.427)" stroke-width=".3985" stroke-linecap="butt" stroke-miterlimit="10" stroke-linejoin="miter" fill="none" stroke="#000000" d="M 85.04042 85.04042 L 113.38724 141.73404 "/>
<path transform="matrix(1,0,0,-1,14.988998,338.427)" stroke-width=".3985" stroke-linecap="butt" stroke-miterlimit="10" stroke-linejoin="miter" fill="none" stroke="#000000" d="M 85.04042 85.04042 L 141.73404 85.04042 "/>
<path transform="matrix(1,0,0,-1,14.988998,338.427)" stroke-width=".3985" stroke-linecap="butt" stroke-miterlimit="10" stroke-linejoin="miter" fill="none" stroke="#000000" d="M 85.04042 113.38724 L 113.38724 141.73404 "/>
<path transform="matrix(1,0,0,-1,14.988998,338.427)" stroke-width=".3985" stroke-linecap="butt" stroke-miterlimit="10" stroke-linejoin="miter" fill="none" stroke="#000000" d="M 85.04042 113.38724 L 141.73404 198.42766 "/>
<path transform="matrix(1,0,0,-1,14.988998,338.427)" stroke-width=".3985" stroke-linecap="butt" stroke-miterlimit="10" stroke-linejoin="miter" fill="none" stroke="#000000" d="M 85.04042 170.08086 L 113.38724 311.8149 "/>
<path transform="matrix(1,0,0,-1,14.988998,338.427)" stroke-width=".3985" stroke-linecap="butt" stroke-miterlimit="10" stroke-linejoin="miter" fill="none" stroke="#000000" d="M 85.04042 170.08086 L 141.73404 226.77448 "/>
<path transform="matrix(1,0,0,-1,14.988998,338.427)" stroke-width=".3985" stroke-linecap="butt" stroke-miterlimit="10" stroke-linejoin="miter" fill="none" stroke="#000000" d="M 85.04042 170.08086 L 141.73404 255.12128 "/>
<path transform="matrix(1,0,0,-1,14.988998,338.427)" stroke-width=".3985" stroke-linecap="butt" stroke-miterlimit="10" stroke-linejoin="miter" fill="none" stroke="#000000" d="M 113.38724 113.38724 L 113.38724 141.73404 "/>
<path transform="matrix(1,0,0,-1,14.988998,338.427)" stroke-width=".3985" stroke-linecap="butt" stroke-miterlimit="10" stroke-linejoin="miter" fill="none" stroke="#000000" d="M 113.38724 113.38724 L 141.73404 85.04042 "/>
<path transform="matrix(1,0,0,-1,14.988998,338.427)" stroke-width=".3985" stroke-linecap="butt" stroke-miterlimit="10" stroke-linejoin="miter" fill="none" stroke="#000000" d="M 113.38724 113.38724 L 141.73404 113.38724 "/>
<path transform="matrix(1,0,0,-1,14.988998,338.427)" stroke-width=".3985" stroke-linecap="butt" stroke-miterlimit="10" stroke-linejoin="miter" fill="none" stroke="#000000" d="M 113.38724 113.38724 L 141.73404 141.73404 "/>
<path transform="matrix(1,0,0,-1,14.988998,338.427)" stroke-width=".3985" stroke-linecap="butt" stroke-miterlimit="10" stroke-linejoin="miter" fill="none" stroke="#000000" d="M 113.38724 141.73404 L 141.73404 141.73404 "/>
<path transform="matrix(1,0,0,-1,14.988998,338.427)" stroke-width=".3985" stroke-linecap="butt" stroke-miterlimit="10" stroke-linejoin="miter" fill="none" stroke="#000000" d="M 113.38724 141.73404 L 141.73404 198.42766 "/>
<path transform="matrix(1,0,0,-1,14.988998,338.427)" stroke-width=".3985" stroke-linecap="butt" stroke-miterlimit="10" stroke-linejoin="miter" fill="none" stroke="#000000" d="M 113.38724 311.8149 L 141.73404 255.12128 "/>
<path transform="matrix(1,0,0,-1,14.988998,338.427)" stroke-width=".3985" stroke-linecap="butt" stroke-miterlimit="10" stroke-linejoin="miter" fill="none" stroke="#000000" d="M 113.38724 311.8149 L 283.4681 0 "/>
<path transform="matrix(1,0,0,-1,14.988998,338.427)" stroke-width=".3985" stroke-linecap="butt" stroke-miterlimit="10" stroke-linejoin="miter" fill="none" stroke="#000000" d="M 141.73404 85.04042 L 141.73404 113.38724 "/>
<path transform="matrix(1,0,0,-1,14.988998,338.427)" stroke-width=".3985" stroke-linecap="butt" stroke-miterlimit="10" stroke-linejoin="miter" fill="none" stroke="#000000" d="M 141.73404 85.04042 L 170.08086 56.69362 "/>
<path transform="matrix(1,0,0,-1,14.988998,338.427)" stroke-width=".3985" stroke-linecap="butt" stroke-miterlimit="10" stroke-linejoin="miter" fill="none" stroke="#000000" d="M 141.73404 113.38724 L 141.73404 141.73404 "/>
<path transform="matrix(1,0,0,-1,14.988998,338.427)" stroke-width=".3985" stroke-linecap="butt" stroke-miterlimit="10" stroke-linejoin="miter" fill="none" stroke="#000000" d="M 141.73404 113.38724 L 170.08086 56.69362 "/>
<path transform="matrix(1,0,0,-1,14.988998,338.427)" stroke-width=".3985" stroke-linecap="butt" stroke-miterlimit="10" stroke-linejoin="miter" fill="none" stroke="#000000" d="M 141.73404 113.38724 L 170.08086 85.04042 "/>
<path transform="matrix(1,0,0,-1,14.988998,338.427)" stroke-width=".3985" stroke-linecap="butt" stroke-miterlimit="10" stroke-linejoin="miter" fill="none" stroke="#000000" d="M 141.73404 141.73404 L 141.73404 198.42766 "/>
<path transform="matrix(1,0,0,-1,14.988998,338.427)" stroke-width=".3985" stroke-linecap="butt" stroke-miterlimit="10" stroke-linejoin="miter" fill="none" stroke="#000000" d="M 141.73404 141.73404 L 170.08086 85.04042 "/>
<path transform="matrix(1,0,0,-1,14.988998,338.427)" stroke-width=".3985" stroke-linecap="butt" stroke-miterlimit="10" stroke-linejoin="miter" fill="none" stroke="#000000" d="M 141.73404 198.42766 L 141.73404 226.77448 "/>
<path transform="matrix(1,0,0,-1,14.988998,338.427)" stroke-width=".3985" stroke-linecap="butt" stroke-miterlimit="10" stroke-linejoin="miter" fill="none" stroke="#000000" d="M 141.73404 198.42766 L 170.08086 85.04042 "/>
<path transform="matrix(1,0,0,-1,14.988998,338.427)" stroke-width=".3985" stroke-linecap="butt" stroke-miterlimit="10" stroke-linejoin="miter" fill="none" stroke="#000000" d="M 141.73404 226.77448 L 141.73404 255.12128 "/>
<path transform="matrix(1,0,0,-1,14.988998,338.427)" stroke-width=".3985" stroke-linecap="butt" stroke-miterlimit="10" stroke-linejoin="miter" fill="none" stroke="#000000" d="M 141.73404 226.77448 L 198.42766 28.3468 "/>
<path transform="matrix(1,0,0,-1,14.988998,338.427)" stroke-width=".3985" stroke-linecap="butt" stroke-miterlimit="10" stroke-linejoin="miter" fill="none" stroke="#000000" d="M 141.73404 255.12128 L 198.42766 28.3468 "/>
<path transform="matrix(1,0,0,-1,14.988998,338.427)" stroke-width=".3985" stroke-linecap="butt" stroke-miterlimit="10" stroke-linejoin="miter" fill="none" stroke="#000000" d="M 141.73404 255.12128 L 283.4681 0 "/>
<path transform="matrix(1,0,0,-1,14.988998,338.427)" stroke-width=".3985" stroke-linecap="butt" stroke-miterlimit="10" stroke-linejoin="miter" fill="none" stroke="#000000" d="M 170.08086 56.69362 L 170.08086 85.04042 "/>
<path transform="matrix(1,0,0,-1,14.988998,338.427)" stroke-width=".3985" stroke-linecap="butt" stroke-miterlimit="10" stroke-linejoin="miter" fill="none" stroke="#000000" d="M 170.08086 85.04042 L 198.42766 28.3468 "/>
<path transform="matrix(1,0,0,-1,14.988998,338.427)" stroke-width=".3985" stroke-linecap="butt" stroke-miterlimit="10" stroke-linejoin="miter" fill="none" stroke="#000000" d="M 198.42766 28.3468 L 283.4681 0 "/>
</g>
</svg>
