<?xml version="1.0" encoding="UTF-8" standalone="no"?>
<!DOCTYPE svg PUBLIC "-//W3C//DTD SVG 1.1//EN" "http://www.w3.org/Graphics/SVG/1.1/DTD/svg11.dtd">
<svg xmlns="http://www.w3.org/2000/svg" xmlns:xlink="http://www.w3.org/1999/xlink" version="1.1" width="182.96pt" height="211.07pt" viewBox="0 0 182.96 211.07">
<g enable-background="new">
<path transform="matrix(1,0,0,-1,14.988998,196.697)" stroke-width=".19925" stroke-linecap="butt" stroke-miterlimit="10" stroke-linejoin="miter" fill="none" stroke="#929292" d="M 28.3468 -14.17339 L 28.3468 184.25424 "/>
<path transform="matrix(1,0,0,-1,14.988998,196.697)" stroke-width=".19925" stroke-linecap="butt" stroke-miterlimit="10" stroke-linejoin="miter" fill="none" stroke="#929292" d="M 56.69362 -14.17339 L 56.69362 184.25424 "/>
<path transform="matrix(1,0,0,-1,14.988998,196.697)" stroke-width=".19925" stroke-linecap="butt" stroke-miterlimit="10" stroke-linejoin="miter" fill="none" stroke="#929292" d="M 85.04042 -14.17339 L 85.04042 184.25424 "/>
<path transform="matrix(1,0,0,-1,14.988998,196.697)" stroke-width=".19925" stroke-linecap="butt" stroke-miterlimit="10" stroke-linejoin="miter" fill="none" stroke="#929292" d="M 113.38724 -14.17339 L 113.38724 184.25424 "/>
<path transform="matrix(1,0,0,-1,14.988998,196.697)" stroke-width=".19925" stroke-linecap="butt" stroke-miterlimit="10" stroke-linejoin="miter" fill="none" stroke="#929292" d="M 141.73404 -14.17339 L 141.73404 184.25424 "/>
<path transform="matrix(1,0,0,-1,14.988998,196.697)" stroke-width=".19925" stroke-linecap="butt" stroke-miterlimit="10" stroke-linejoin="miter" fill="none" stroke="#929292" d="M -14.17339 28.3468 L 155.90744 28.3468 "/>
<path transform="matrix(1,0,0,-1,14.988998,196.697)" stroke-width=".19925" stroke-linecap="butt" stroke-miterlimit="10" stroke-linejoin="miter" fill="none" stroke="#929292" d="M -14.17339 56.69362 L 155.90744 56.69362 "/>
<path transform="matrix(1,0,0,-1,14.988998,196.697)" stroke-width=".19925" stroke-linecap="butt" stroke-miterlimit="10" stroke-linejoin="miter" fill="none" stroke="#929292" d="M -14.17339 85.04042 L 155.90744 85.04042 "/>
<path transform="matrix(1,0,0,-1,14.988998,196.697)" stroke-width=".19925" stroke-linecap="butt" stroke-miterlimit="10" stroke-linejoin="miter" fill="none" stroke="#929292" d="M -14.17339 113.38724 L 155.90744 113.38724 "/>
<path transform="matrix(1,0,0,-1,14.988998,196.697)" stroke-width=".19925" stroke-linecap="butt" stroke-miterlimit="10" stroke-linejoin="miter" fill="none" stroke="#929292" d="M -14.17339 141.73404 L 155.90744 141.73404 "/>
<path transform="matrix(1,0,0,-1,14.988998,196.697)" stroke-width=".19925" stroke-linecap="butt" stroke-miterlimit="10" stroke-linejoin="miter" fill="none" stroke="#929292" d="M -14.17339 170.08086 L 155.90744 170.08086 "/>
<path transform="matrix(1,0,0,-1,14.988998,196.697)" stroke-width=".3985" stroke-linecap="butt" stroke-miterlimit="10" stroke-linejoin="miter" fill="none" stroke="#000000" d="M -14.17339 0 L 153.91492 0 "/>
<path transform="matrix(1,0,0,-1,168.90392,196.697)" d="M 1.99252 0 L -1.19551 1.59401 L 0 0 L -1.19551 -1.59401 "/>
<text xml:space="preserve" transform="matrix(1 0 -0 1 231.427 73.93101)" font-size="8.9664" font-family="CMMI9" font-style="italic"><tspan y="124.696" x="-57.011">x</tspan></text>
<path transform="matrix(1,0,0,-1,14.988998,196.697)" stroke-width=".3985" stroke-linecap="butt" stroke-miterlimit="10" stroke-linejoin="miter" fill="none" stroke="#000000" d="M 0 -14.17339 L 0 182.26172 "/>
<path transform="matrix(0,-1,-1,-0,14.988998,14.435287)" d="M 1.99252 0 L -1.19551 1.59401 L 0 0 L -1.19551 -1.59401 "/>
<text xml:space="preserve" transform="matrix(1 0 -0 1 69.57 -117.517)" font-size="8.9664" font-family="CMMI9" font-style="italic"><tspan y="124.696" x="-57.011">y</tspan></text>
<path transform="matrix(1,0,0,-1,14.988998,196.697)" d="M .99628 0 C .99628 .55023 .55023 .99628 0 .99628 C -.55023 .99628 -.99628 .55023 -.99628 0 C -.99628 -.55023 -.55023 -.99628 0 -.99628 C .55023 -.99628 .99628 -.55023 .99628 0 Z M 0 0 "/>
<path transform="matrix(1,0,0,-1,14.988998,196.697)" stroke-width=".19925" stroke-linecap="butt" stroke-miterlimit="10" stroke-linejoin="miter" fill="none" stroke="#000000" d="M .99628 0 C .99628 .55023 .55023 .99628 0 .99628 C -.55023 .99628 -.99628 .55023 -.99628 0 C -.99628 -.55023 -.55023 -.99628 0 -.99628 C .55023 -.99628 .99628 -.55023 .99628 0 Z M 0 0 "/>
<text xml:space="preserve" transform="matrix(1 0 -0 1 60.331 78.825008)" font-size="4.9813" font-family="CMMI5" font-style="italic"><tspan y="124.696" x="-57.011">P</tspan></text>
<text xml:space="preserve" transform="matrix(1 0 -0 1 60.331 78.825008)" font-size="4.9813" font-family="CMR5"><tspan y="126.191" x="-52.65">1</tspan></text>
<path transform="matrix(1,0,0,-1,14.988998,196.697)" d="M .99628 170.08086 C .99628 170.63109 .55023 171.07714 0 171.07714 C -.55023 171.07714 -.99628 170.63109 -.99628 170.08086 C -.99628 169.53061 -.55023 169.08458 0 169.08458 C .55023 169.08458 .99628 169.53061 .99628 170.08086 Z M 0 170.08086 "/>
<path transform="matrix(1,0,0,-1,14.988998,196.697)" stroke-width=".19925" stroke-linecap="butt" stroke-miterlimit="10" stroke-linejoin="miter" fill="none" stroke="#000000" d="M .99628 170.08086 C .99628 170.63109 .55023 171.07714 0 171.07714 C -.55023 171.07714 -.99628 170.63109 -.99628 170.08086 C -.99628 169.53061 -.55023 169.08458 0 169.08458 C .55023 169.08458 .99628 169.53061 .99628 170.08086 Z M 0 170.08086 "/>
<text xml:space="preserve" transform="matrix(1 0 -0 1 60.331 -102.99399)" font-size="4.9813" font-family="CMMI5" font-style="italic"><tspan y="124.696" x="-57.011">P</tspan></text>
<text xml:space="preserve" transform="matrix(1 0 -0 1 60.331 -102.99399)" font-size="4.9813" font-family="CMR5"><tspan y="126.191" x="-52.65">2</tspan></text>
<path transform="matrix(1,0,0,-1,14.988998,196.697)" d="M 29.34308 28.3468 C 29.34308 28.89703 28.89703 29.34308 28.3468 29.34308 C 27.79657 29.34308 27.35052 28.89703 27.35052 28.3468 C 27.35052 27.79657 27.79657 27.35052 28.3468 27.35052 C 28.89703 27.35052 29.34308 27.79657 29.34308 28.3468 Z M 28.3468 28.3468 "/>
<path transform="matrix(1,0,0,-1,14.988998,196.697)" stroke-width=".19925" stroke-linecap="butt" stroke-miterlimit="10" stroke-linejoin="miter" fill="none" stroke="#000000" d="M 29.34308 28.3468 C 29.34308 28.89703 28.89703 29.34308 28.3468 29.34308 C 27.79657 29.34308 27.35052 28.89703 27.35052 28.3468 C 27.35052 27.79657 27.79657 27.35052 28.3468 27.35052 C 28.89703 27.35052 29.34308 27.79657 29.34308 28.3468 Z M 28.3468 28.3468 "/>
<text xml:space="preserve" transform="matrix(1 0 -0 1 96.222 50.478006)" font-size="4.9813" font-family="CMMI5" font-style="italic"><tspan y="124.696" x="-57.011">P</tspan></text>
<text xml:space="preserve" transform="matrix(1 0 -0 1 96.222 50.478006)" font-size="4.9813" font-family="CMR5"><tspan y="126.191" x="-52.65">3</tspan></text>
<path transform="matrix(1,0,0,-1,14.988998,196.697)" d="M 29.34308 56.69362 C 29.34308 57.24385 28.89703 57.6899 28.3468 57.6899 C 27.79657 57.6899 27.35052 57.24385 27.35052 56.69362 C 27.35052 56.14337 27.79657 55.69734 28.3468 55.69734 C 28.89703 55.69734 29.34308 56.14337 29.34308 56.69362 Z M 28.3468 56.69362 "/>
<path transform="matrix(1,0,0,-1,14.988998,196.697)" stroke-width=".19925" stroke-linecap="butt" stroke-miterlimit="10" stroke-linejoin="miter" fill="none" stroke="#000000" d="M 29.34308 56.69362 C 29.34308 57.24385 28.89703 57.6899 28.3468 57.6899 C 27.79657 57.6899 27.35052 57.24385 27.35052 56.69362 C 27.35052 56.14337 27.79657 55.69734 28.3468 55.69734 C 28.89703 55.69734 29.34308 56.14337 29.34308 56.69362 Z M 28.3468 56.69362 "/>
<text xml:space="preserve" transform="matrix(1 0 -0 1 88.678 16.262009)" font-size="4.9813" font-family="CMMI5" font-style="italic"><tspan y="124.696" x="-57.011">P</tspan></text>
<text xml:space="preserve" transform="matrix(1 0 -0 1 88.678 16.262009)" font-size="4.9813" font-family="CMR5"><tspan y="126.191" x="-52.65">4</tspan></text>
<path transform="matrix(1,0,0,-1,14.988998,196.697)" d="M 29.34308 141.73404 C 29.34308 142.28427 28.89703 142.73032 28.3468 142.73032 C 27.79657 142.73032 27.35052 142.28427 27.35052 141.73404 C 27.35052 141.1838 27.79657 140.73777 28.3468 140.73777 C 28.89703 140.73777 29.34308 141.1838 29.34308 141.73404 Z M 28.3468 141.73404 "/>
<path transform="matrix(1,0,0,-1,14.988998,196.697)" stroke-width=".19925" stroke-linecap="butt" stroke-miterlimit="10" stroke-linejoin="miter" fill="none" stroke="#000000" d="M 29.34308 141.73404 C 29.34308 142.28427 28.89703 142.73032 28.3468 142.73032 C 27.79657 142.73032 27.35052 142.28427 27.35052 141.73404 C 27.35052 141.1838 27.79657 140.73777 28.3468 140.73777 C 28.89703 140.73777 29.34308 141.1838 29.34308 141.73404 Z M 28.3468 141.73404 "/>
<text xml:space="preserve" transform="matrix(1 0 -0 1 88.678 -62.908998)" font-size="4.9813" font-family="CMMI5" font-style="italic"><tspan y="124.696" x="-57.011">P</tspan></text>
<text xml:space="preserve" transform="matrix(1 0 -0 1 88.678 -62.908998)" font-size="4.9813" font-family="CMR5"><tspan y="126.191" x="-52.65">5</tspan></text>
<path transform="matrix(1,0,0,-1,14.988998,196.697)" d="M 57.6899 28.3468 C 57.6899 28.89703 57.24385 29.34308 56.69362 29.34308 C 56.14337 29.34308 55.69734 28.89703 55.69734 28.3468 C 55.69734 27.79657 56.14337 27.35052 56.69362 27.35052 C 57.24385 27.35052 57.6899 27.79657 57.6899 28.3468 Z M 56.69362 28.3468 "/>
<path transform="matrix(1,0,0,-1,14.988998,196.697)" stroke-width=".19925" stroke-linecap="butt" stroke-miterlimit="10" stroke-linejoin="miter" fill="none" stroke="#000000" d="M 57.6899 28.3468 C 57.6899 28.89703 57.24385 29.34308 56.69362 29.34308 C 56.14337 29.34308 55.69734 28.89703 55.69734 28.3468 C 55.69734 27.79657 56.14337 27.35052 56.69362 27.35052 C 57.24385 27.35052 57.6899 27.79657 57.6899 28.3468 Z M 56.69362 28.3468 "/>
<text xml:space="preserve" transform="matrix(1 0 -0 1 124.569 50.478006)" font-size="4.9813" font-family="CMMI5" font-style="italic"><tspan y="124.696" x="-57.011">P</tspan></text>
<text xml:space="preserve" transform="matrix(1 0 -0 1 124.569 50.478006)" font-size="4.9813" font-family="CMR5"><tspan y="126.191" x="-52.65">6</tspan></text>
<path transform="matrix(1,0,0,-1,14.988998,196.697)" d="M 57.6899 56.69362 C 57.6899 57.24385 57.24385 57.6899 56.69362 57.6899 C 56.14337 57.6899 55.69734 57.24385 55.69734 56.69362 C 55.69734 56.14337 56.14337 55.69734 56.69362 55.69734 C 57.24385 55.69734 57.6899 56.14337 57.6899 56.69362 Z M 56.69362 56.69362 "/>
<path transform="matrix(1,0,0,-1,14.988998,196.697)" stroke-width=".19925" stroke-linecap="butt" stroke-miterlimit="10" stroke-linejoin="miter" fill="none" stroke="#000000" d="M 57.6899 56.69362 C 57.6899 57.24385 57.24385 57.6899 56.69362 57.6899 C 56.14337 57.6899 55.69734 57.24385 55.69734 56.69362 C 55.69734 56.14337 56.14337 55.69734 56.69362 55.69734 C 57.24385 55.69734 57.6899 56.14337 57.6899 56.69362 Z M 56.69362 56.69362 "/>
<text xml:space="preserve" transform="matrix(1 0 -0 1 132.114 10.393005)" font-size="4.9813" font-family="CMMI5" font-style="italic"><tspan y="124.696" x="-57.011">P</tspan></text>
<text xml:space="preserve" transform="matrix(1 0 -0 1 132.114 10.393005)" font-size="4.9813" font-family="CMR5"><tspan y="126.191" x="-52.65">7</tspan></text>
<path transform="matrix(1,0,0,-1,14.988998,196.697)" d="M 57.6899 85.04042 C 57.6899 85.59065 57.24385 86.0367 56.69362 86.0367 C 56.14337 86.0367 55.69734 85.59065 55.69734 85.04042 C 55.69734 84.49019 56.14337 84.04414 56.69362 84.04414 C 57.24385 84.04414 57.6899 84.49019 57.6899 85.04042 Z M 56.69362 85.04042 "/>
<path transform="matrix(1,0,0,-1,14.988998,196.697)" stroke-width=".19925" stroke-linecap="butt" stroke-miterlimit="10" stroke-linejoin="miter" fill="none" stroke="#000000" d="M 57.6899 85.04042 C 57.6899 85.59065 57.24385 86.0367 56.69362 86.0367 C 56.14337 86.0367 55.69734 85.59065 55.69734 85.04042 C 55.69734 84.49019 56.14337 84.04414 56.69362 84.04414 C 57.24385 84.04414 57.6899 84.49019 57.6899 85.04042 Z M 56.69362 85.04042 "/>
<text xml:space="preserve" transform="matrix(1 0 -0 1 132.114 -17.953995)" font-size="4.9813" font-family="CMMI5" font-style="italic"><tspan y="124.696" x="-57.011">P</tspan></text>
<text xml:space="preserve" transform="matrix(1 0 -0 1 132.114 -17.953995)" font-size="4.9813" font-family="CMR5"><tspan y="126.191" x="-52.65">8</tspan></text>
<path transform="matrix(1,0,0,-1,14.988998,196.697)" d="M 57.6899 113.38724 C 57.6899 113.93747 57.24385 114.38351 56.69362 114.38351 C 56.14337 114.38351 55.69734 113.93747 55.69734 113.38724 C 55.69734 112.83699 56.14337 112.39096 56.69362 112.39096 C 57.24385 112.39096 57.6899 112.83699 57.6899 113.38724 Z M 56.69362 113.38724 "/>
<path transform="matrix(1,0,0,-1,14.988998,196.697)" stroke-width=".19925" stroke-linecap="butt" stroke-miterlimit="10" stroke-linejoin="miter" fill="none" stroke="#000000" d="M 57.6899 113.38724 C 57.6899 113.93747 57.24385 114.38351 56.69362 114.38351 C 56.14337 114.38351 55.69734 113.93747 55.69734 113.38724 C 55.69734 112.83699 56.14337 112.39096 56.69362 112.39096 C 57.24385 112.39096 57.6899 112.83699 57.6899 113.38724 Z M 56.69362 113.38724 "/>
<text xml:space="preserve" transform="matrix(1 0 -0 1 132.114 -46.300996)" font-size="4.9813" font-family="CMMI5" font-style="italic"><tspan y="124.696" x="-57.011">P</tspan></text>
<text xml:space="preserve" transform="matrix(1 0 -0 1 132.114 -46.300996)" font-size="4.9813" font-family="CMR5"><tspan y="126.191" x="-52.65">9</tspan></text>
<path transform="matrix(1,0,0,-1,14.988998,196.697)" d="M 86.0367 28.3468 C 86.0367 28.89703 85.59065 29.34308 85.04042 29.34308 C 84.49019 29.34308 84.04414 28.89703 84.04414 28.3468 C 84.04414 27.79657 84.49019 27.35052 85.04042 27.35052 C 85.59065 27.35052 86.0367 27.79657 86.0367 28.3468 Z M 85.04042 28.3468 "/>
<path transform="matrix(1,0,0,-1,14.988998,196.697)" stroke-width=".19925" stroke-linecap="butt" stroke-miterlimit="10" stroke-linejoin="miter" fill="none" stroke="#000000" d="M 86.0367 28.3468 C 86.0367 28.89703 85.59065 29.34308 85.04042 29.34308 C 84.49019 29.34308 84.04414 28.89703 84.04414 28.3468 C 84.04414 27.79657 84.49019 27.35052 85.04042 27.35052 C 85.59065 27.35052 86.0367 27.79657 86.0367 28.3468 Z M 85.04042 28.3468 "/>
<text xml:space="preserve" transform="matrix(1 0 -0 1 160.461 38.740007)" font-size="4.9813" font-family="CMMI5" font-style="italic"><tspan y="124.696" x="-57.011">P</tspan></text>
<text xml:space="preserve" transform="matrix(1 0 -0 1 160.461 38.740007)" font-size="4.9813" font-family="CMR5"><tspan y="126.191" x="-52.65 -49.26272">10</tspan></text>
<path transform="matrix(1,0,0,-1,14.988998,196.697)" d="M 86.0367 56.69362 C 86.0367 57.24385 85.59065 57.6899 85.04042 57.6899 C 84.49019 57.6899 84.04414 57.24385 84.04414 56.69362 C 84.04414 56.14337 84.49019 55.69734 85.04042 55.69734 C 85.59065 55.69734 86.0367 56.14337 86.0367 56.69362 Z M 85.04042 56.69362 "/>
<path transform="matrix(1,0,0,-1,14.988998,196.697)" stroke-width=".19925" stroke-linecap="butt" stroke-miterlimit="10" stroke-linejoin="miter" fill="none" stroke="#000000" d="M 86.0367 56.69362 C 86.0367 57.24385 85.59065 57.6899 85.04042 57.6899 C 84.49019 57.6899 84.04414 57.24385 84.04414 56.69362 C 84.04414 56.14337 84.49019 55.69734 85.04042 55.69734 C 85.59065 55.69734 86.0367 56.14337 86.0367 56.69362 Z M 85.04042 56.69362 "/>
<text xml:space="preserve" transform="matrix(1 0 -0 1 141.981 22.132008)" font-size="4.9813" font-family="CMMI5" font-style="italic"><tspan y="124.696" x="-57.011">P</tspan></text>
<text xml:space="preserve" transform="matrix(1 0 -0 1 141.981 22.132008)" font-size="4.9813" font-family="CMR5"><tspan y="126.191" x="-52.65 -49.26272">11</tspan></text>
<path transform="matrix(1,0,0,-1,14.988998,196.697)" d="M 86.0367 85.04042 C 86.0367 85.59065 85.59065 86.0367 85.04042 86.0367 C 84.49019 86.0367 84.04414 85.59065 84.04414 85.04042 C 84.04414 84.49019 84.49019 84.04414 85.04042 84.04414 C 85.59065 84.04414 86.0367 84.49019 86.0367 85.04042 Z M 85.04042 85.04042 "/>
<path transform="matrix(1,0,0,-1,14.988998,196.697)" stroke-width=".19925" stroke-linecap="butt" stroke-miterlimit="10" stroke-linejoin="miter" fill="none" stroke="#000000" d="M 86.0367 85.04042 C 86.0367 85.59065 85.59065 86.0367 85.04042 86.0367 C 84.49019 86.0367 84.04414 85.59065 84.04414 85.04042 C 84.04414 84.49019 84.49019 84.04414 85.04042 84.04414 C 85.59065 84.04414 86.0367 84.49019 86.0367 85.04042 Z M 85.04042 85.04042 "/>
<text xml:space="preserve" transform="matrix(1 0 -0 1 141.981 -6.2149965)" font-size="4.9813" font-family="CMMI5" font-style="italic"><tspan y="124.696" x="-57.011">P</tspan></text>
<text xml:space="preserve" transform="matrix(1 0 -0 1 141.981 -6.2149965)" font-size="4.9813" font-family="CMR5"><tspan y="126.191" x="-52.65 -49.26272">12</tspan></text>
<path transform="matrix(1,0,0,-1,14.988998,196.697)" d="M 86.0367 113.38724 C 86.0367 113.93747 85.59065 114.38351 85.04042 114.38351 C 84.49019 114.38351 84.04414 113.93747 84.04414 113.38724 C 84.04414 112.83699 84.49019 112.39096 85.04042 112.39096 C 85.59065 112.39096 86.0367 112.83699 86.0367 113.38724 Z M 85.04042 113.38724 "/>
<path transform="matrix(1,0,0,-1,14.988998,196.697)" stroke-width=".19925" stroke-linecap="butt" stroke-miterlimit="10" stroke-linejoin="miter" fill="none" stroke="#000000" d="M 86.0367 113.38724 C 86.0367 113.93747 85.59065 114.38351 85.04042 114.38351 C 84.49019 114.38351 84.04414 113.93747 84.04414 113.38724 C 84.04414 112.83699 84.49019 112.39096 85.04042 112.39096 C 85.59065 112.39096 86.0367 112.83699 86.0367 113.38724 Z M 85.04042 113.38724 "/>
<text xml:space="preserve" transform="matrix(1 0 -0 1 141.981 -34.561998)" font-size="4.9813" font-family="CMMI5" font-style="italic"><tspan y="124.696" x="-57.011">P</tspan></text>
<text xml:space="preserve" transform="matrix(1 0 -0 1 141.981 -34.561998)" font-size="4.9813" font-family="CMR5"><tspan y="126.191" x="-52.65 -49.26272">13</tspan></text>
<path transform="matrix(1,0,0,-1,14.988998,196.697)" d="M 86.0367 141.73404 C 86.0367 142.28427 85.59065 142.73032 85.04042 142.73032 C 84.49019 142.73032 84.04414 142.28427 84.04414 141.73404 C 84.04414 141.1838 84.49019 140.73777 85.04042 140.73777 C 85.59065 140.73777 86.0367 141.1838 86.0367 141.73404 Z M 85.04042 141.73404 "/>
<path transform="matrix(1,0,0,-1,14.988998,196.697)" stroke-width=".19925" stroke-linecap="butt" stroke-miterlimit="10" stroke-linejoin="miter" fill="none" stroke="#000000" d="M 86.0367 141.73404 C 86.0367 142.28427 85.59065 142.73032 85.04042 142.73032 C 84.49019 142.73032 84.04414 142.28427 84.04414 141.73404 C 84.04414 141.1838 84.49019 140.73777 85.04042 140.73777 C 85.59065 140.73777 86.0367 141.1838 86.0367 141.73404 Z M 85.04042 141.73404 "/>
<text xml:space="preserve" transform="matrix(1 0 -0 1 141.981 -62.908998)" font-size="4.9813" font-family="CMMI5" font-style="italic"><tspan y="124.696" x="-57.011">P</tspan></text>
<text xml:space="preserve" transform="matrix(1 0 -0 1 141.981 -62.908998)" font-size="4.9813" font-family="CMR5"><tspan y="126.191" x="-52.65 -49.26272">14</tspan></text>
<path transform="matrix(1,0,0,-1,14.988998,196.697)" d="M 114.38351 28.3468 C 114.38351 28.89703 113.93747 29.34308 113.38724 29.34308 C 112.83699 29.34308 112.39096 28.89703 112.39096 28.3468 C 112.39096 27.79657 112.83699 27.35052 113.38724 27.35052 C 113.93747 27.35052 114.38351 27.79657 114.38351 28.3468 Z M 113.38724 28.3468 "/>
<path transform="matrix(1,0,0,-1,14.988998,196.697)" stroke-width=".19925" stroke-linecap="butt" stroke-miterlimit="10" stroke-linejoin="miter" fill="none" stroke="#000000" d="M 114.38351 28.3468 C 114.38351 28.89703 113.93747 29.34308 113.38724 29.34308 C 112.83699 29.34308 112.39096 28.89703 112.39096 28.3468 C 112.39096 27.79657 112.83699 27.35052 113.38724 27.35052 C 113.93747 27.35052 114.38351 27.79657 114.38351 28.3468 Z M 113.38724 28.3468 "/>
<text xml:space="preserve" transform="matrix(1 0 -0 1 188.807 44.60901)" font-size="4.9813" font-family="CMMI5" font-style="italic"><tspan y="124.696" x="-57.011">P</tspan></text>
<text xml:space="preserve" transform="matrix(1 0 -0 1 188.807 44.60901)" font-size="4.9813" font-family="CMR5"><tspan y="126.191" x="-52.65 -49.26272">15</tspan></text>
<path transform="matrix(1,0,0,-1,14.988998,196.697)" d="M 114.38351 56.69362 C 114.38351 57.24385 113.93747 57.6899 113.38724 57.6899 C 112.83699 57.6899 112.39096 57.24385 112.39096 56.69362 C 112.39096 56.14337 112.83699 55.69734 113.38724 55.69734 C 113.93747 55.69734 114.38351 56.14337 114.38351 56.69362 Z M 113.38724 56.69362 "/>
<path transform="matrix(1,0,0,-1,14.988998,196.697)" stroke-width=".19925" stroke-linecap="butt" stroke-miterlimit="10" stroke-linejoin="miter" fill="none" stroke="#000000" d="M 114.38351 56.69362 C 114.38351 57.24385 113.93747 57.6899 113.38724 57.6899 C 112.83699 57.6899 112.39096 57.24385 112.39096 56.69362 C 112.39096 56.14337 112.83699 55.69734 113.38724 55.69734 C 113.93747 55.69734 114.38351 56.14337 114.38351 56.69362 Z M 113.38724 56.69362 "/>
<text xml:space="preserve" transform="matrix(1 0 -0 1 170.328 22.132008)" font-size="4.9813" font-family="CMMI5" font-style="italic"><tspan y="124.696" x="-57.011">P</tspan></text>
<text xml:space="preserve" transform="matrix(1 0 -0 1 170.328 22.132008)" font-size="4.9813" font-family="CMR5"><tspan y="126.191" x="-52.65 -49.26272">16</tspan></text>
<path transform="matrix(1,0,0,-1,14.988998,196.697)" d="M 142.73032 0 C 142.73032 .55023 142.28427 .99628 141.73404 .99628 C 141.1838 .99628 140.73777 .55023 140.73777 0 C 140.73777 -.55023 141.1838 -.99628 141.73404 -.99628 C 142.28427 -.99628 142.73032 -.55023 142.73032 0 Z M 141.73404 0 "/>
<path transform="matrix(1,0,0,-1,14.988998,196.697)" stroke-width=".19925" stroke-linecap="butt" stroke-miterlimit="10" stroke-linejoin="miter" fill="none" stroke="#000000" d="M 142.73032 0 C 142.73032 .55023 142.28427 .99628 141.73404 .99628 C 141.1838 .99628 140.73777 .55023 140.73777 0 C 140.73777 -.55023 141.1838 -.99628 141.73404 -.99628 C 142.28427 -.99628 142.73032 -.55023 142.73032 0 Z M 141.73404 0 "/>
<text xml:space="preserve" transform="matrix(1 0 -0 1 217.154 78.825008)" font-size="4.9813" font-family="CMMI5" font-style="italic"><tspan y="124.696" x="-57.011">P</tspan></text>
<text xml:space="preserve" transform="matrix(1 0 -0 1 217.154 78.825008)" font-size="4.9813" font-family="CMR5"><tspan y="126.191" x="-52.65 -49.26272">17</tspan></text>
<path transform="matrix(1,0,0,-1,14.988998,196.697)" d="M 142.73032 141.73404 C 142.73032 142.28427 142.28427 142.73032 141.73404 142.73032 C 141.1838 142.73032 140.73777 142.28427 140.73777 141.73404 C 140.73777 141.1838 141.1838 140.73777 141.73404 140.73777 C 142.28427 140.73777 142.73032 141.1838 142.73032 141.73404 Z M 141.73404 141.73404 "/>
<path transform="matrix(1,0,0,-1,14.988998,196.697)" stroke-width=".19925" stroke-linecap="butt" stroke-miterlimit="10" stroke-linejoin="miter" fill="none" stroke="#000000" d="M 142.73032 141.73404 C 142.73032 142.28427 142.28427 142.73032 141.73404 142.73032 C 141.1838 142.73032 140.73777 142.28427 140.73777 141.73404 C 140.73777 141.1838 141.1838 140.73777 141.73404 140.73777 C 142.28427 140.73777 142.73032 141.1838 142.73032 141.73404 Z M 141.73404 141.73404 "/>
<text xml:space="preserve" transform="matrix(1 0 -0 1 217.154 -74.647998)" font-size="4.9813" font-family="CMMI5" font-style="italic"><tspan y="124.696" x="-57.011">P</tspan></text>
<text xml:space="preserve" transform="matrix(1 0 -0 1 217.154 -74.647998)" font-size="4.9813" font-family="CMR5"><tspan y="126.191" x="-52.65 -49.26272">18</tspan></text>
<path transform="matrix(1,0,0,-1,14.988998,196.697)" stroke-width=".3985" stroke-linecap="butt" stroke-miterlimit="10" stroke-linejoin="miter" fill="none" stroke="#000000" d="M 0 0 L 0 170.08086 "/>
<path transform="matrix(1,0,0,-1,14.988998,196.697)" stroke-width=".3985" stroke-linecap="butt" stroke-miterlimit="10" stroke-linejoin="miter" fill="none" stroke="#000000" d="M 0 0 L 28.3468 28.3468 "/>
<path transform="matrix(1,0,0,-1,14.988998,196.697)" stroke-width=".3985" stroke-linecap="butt" stroke-miterlimit="10" stroke-linejoin="miter" fill="none" stroke="#000000" d="M 0 0 L 28.3468 56.69362 "/>
<path transform="matrix(1,0,0,-1,14.988998,196.697)" stroke-width=".3985" stroke-linecap="butt" stroke-miterlimit="10" stroke-linejoin="miter" fill="none" stroke="#000000" d="M 0 0 L 56.69362 28.3468 "/>
<path transform="matrix(1,0,0,-1,14.988998,196.697)" stroke-width=".3985" stroke-linecap="butt" stroke-miterlimit="10" stroke-linejoin="miter" fill="none" stroke="#000000" d="M 0 0 L 141.73404 0 "/>
<path transform="matrix(1,0,0,-1,14.988998,196.697)" stroke-width=".3985" stroke-linecap="butt" stroke-miterlimit="10" stroke-linejoin="miter" fill="none" stroke="#000000" d="M 0 170.08086 L 28.3468 56.69362 "/>
<path transform="matrix(1,0,0,-1,14.988998,196.697)" stroke-width=".3985" stroke-linecap="butt" stroke-miterlimit="10" stroke-linejoin="miter" fill="none" stroke="#000000" d="M 0 170.08086 L 28.3468 141.73404 "/>
<path transform="matrix(1,0,0,-1,14.988998,196.697)" stroke-width=".3985" stroke-linecap="butt" stroke-miterlimit="10" stroke-linejoin="miter" fill="none" stroke="#000000" d="M 0 170.08086 L 85.04042 141.73404 "/>
<path transform="matrix(1,0,0,-1,14.988998,196.697)" stroke-width=".3985" stroke-linecap="butt" stroke-miterlimit="10" stroke-linejoin="miter" fill="none" stroke="#000000" d="M 0 170.08086 L 141.73404 141.73404 "/>
<path transform="matrix(1,0,0,-1,14.988998,196.697)" stroke-width=".3985" stroke-linecap="butt" stroke-miterlimit="10" stroke-linejoin="miter" fill="none" stroke="#000000" d="M 28.3468 28.3468 L 28.3468 56.69362 "/>
<path transform="matrix(1,0,0,-1,14.988998,196.697)" stroke-width=".3985" stroke-linecap="butt" stroke-miterlimit="10" stroke-linejoin="miter" fill="none" stroke="#000000" d="M 28.3468 28.3468 L 56.69362 28.3468 "/>
<path transform="matrix(1,0,0,-1,14.988998,196.697)" stroke-width=".3985" stroke-linecap="butt" stroke-miterlimit="10" stroke-linejoin="miter" fill="none" stroke="#000000" d="M 28.3468 28.3468 L 56.69362 56.69362 "/>
<path transform="matrix(1,0,0,-1,14.988998,196.697)" stroke-width=".3985" stroke-linecap="butt" stroke-miterlimit="10" stroke-linejoin="miter" fill="none" stroke="#000000" d="M 28.3468 28.3468 L 56.69362 85.04042 "/>
<path transform="matrix(1,0,0,-1,14.988998,196.697)" stroke-width=".3985" stroke-linecap="butt" stroke-miterlimit="10" stroke-linejoin="miter" fill="none" stroke="#000000" d="M 28.3468 56.69362 L 28.3468 141.73404 "/>
<path transform="matrix(1,0,0,-1,14.988998,196.697)" stroke-width=".3985" stroke-linecap="butt" stroke-miterlimit="10" stroke-linejoin="miter" fill="none" stroke="#000000" d="M 28.3468 56.69362 L 56.69362 113.38724 "/>
<path transform="matrix(1,0,0,-1,14.988998,196.697)" stroke-width=".3985" stroke-linecap="butt" stroke-miterlimit="10" stroke-linejoin="miter" fill="none" stroke="#000000" d="M 28.3468 141.73404 L 56.69362 113.38724 "/>
<path transform="matrix(1,0,0,-1,14.988998,196.697)" stroke-width=".3985" stroke-linecap="butt" stroke-miterlimit="10" stroke-linejoin="miter" fill="none" stroke="#000000" d="M 28.3468 141.73404 L 85.04042 113.38724 "/>
<path transform="matrix(1,0,0,-1,14.988998,196.697)" stroke-width=".3985" stroke-linecap="butt" stroke-miterlimit="10" stroke-linejoin="miter" fill="none" stroke="#000000" d="M 28.3468 141.73404 L 85.04042 141.73404 "/>
<path transform="matrix(1,0,0,-1,14.988998,196.697)" stroke-width=".3985" stroke-linecap="butt" stroke-miterlimit="10" stroke-linejoin="miter" fill="none" stroke="#000000" d="M 56.69362 28.3468 L 56.69362 56.69362 "/>
<path transform="matrix(1,0,0,-1,14.988998,196.697)" stroke-width=".3985" stroke-linecap="butt" stroke-miterlimit="10" stroke-linejoin="miter" fill="none" stroke="#000000" d="M 56.69362 28.3468 L 85.04042 28.3468 "/>
<path transform="matrix(1,0,0,-1,14.988998,196.697)" stroke-width=".3985" stroke-linecap="butt" stroke-miterlimit="10" stroke-linejoin="miter" fill="none" stroke="#000000" d="M 56.69362 28.3468 L 141.73404 0 "/>
<path transform="matrix(1,0,0,-1,14.988998,196.697)" stroke-width=".3985" stroke-linecap="butt" stroke-miterlimit="10" stroke-linejoin="miter" fill="none" stroke="#000000" d="M 56.69362 56.69362 L 56.69362 85.04042 "/>
<path transform="matrix(1,0,0,-1,14.988998,196.697)" stroke-width=".3985" stroke-linecap="butt" stroke-miterlimit="10" stroke-linejoin="miter" fill="none" stroke="#000000" d="M 56.69362 56.69362 L 85.04042 28.3468 "/>
<path transform="matrix(1,0,0,-1,14.988998,196.697)" stroke-width=".3985" stroke-linecap="butt" stroke-miterlimit="10" stroke-linejoin="miter" fill="none" stroke="#000000" d="M 56.69362 56.69362 L 85.04042 56.69362 "/>
<path transform="matrix(1,0,0,-1,14.988998,196.697)" stroke-width=".3985" stroke-linecap="butt" stroke-miterlimit="10" stroke-linejoin="miter" fill="none" stroke="#000000" d="M 56.69362 85.04042 L 56.69362 113.38724 "/>
<path transform="matrix(1,0,0,-1,14.988998,196.697)" stroke-width=".3985" stroke-linecap="butt" stroke-miterlimit="10" stroke-linejoin="miter" fill="none" stroke="#000000" d="M 56.69362 85.04042 L 85.04042 56.69362 "/>
<path transform="matrix(1,0,0,-1,14.988998,196.697)" stroke-width=".3985" stroke-linecap="butt" stroke-miterlimit="10" stroke-linejoin="miter" fill="none" stroke="#000000" d="M 56.69362 85.04042 L 85.04042 85.04042 "/>
<path transform="matrix(1,0,0,-1,14.988998,196.697)" stroke-width=".3985" stroke-linecap="butt" stroke-miterlimit="10" stroke-linejoin="miter" fill="none" stroke="#000000" d="M 56.69362 113.38724 L 85.04042 85.04042 "/>
<path transform="matrix(1,0,0,-1,14.988998,196.697)" stroke-width=".3985" stroke-linecap="butt" stroke-miterlimit="10" stroke-linejoin="miter" fill="none" stroke="#000000" d="M 56.69362 113.38724 L 85.04042 113.38724 "/>
<path transform="matrix(1,0,0,-1,14.988998,196.697)" stroke-width=".3985" stroke-linecap="butt" stroke-miterlimit="10" stroke-linejoin="miter" fill="none" stroke="#000000" d="M 85.04042 28.3468 L 85.04042 56.69362 "/>
<path transform="matrix(1,0,0,-1,14.988998,196.697)" stroke-width=".3985" stroke-linecap="butt" stroke-miterlimit="10" stroke-linejoin="miter" fill="none" stroke="#000000" d="M 85.04042 28.3468 L 113.38724 28.3468 "/>
<path transform="matrix(1,0,0,-1,14.988998,196.697)" stroke-width=".3985" stroke-linecap="butt" stroke-miterlimit="10" stroke-linejoin="miter" fill="none" stroke="#000000" d="M 85.04042 28.3468 L 141.73404 0 "/>
<path transform="matrix(1,0,0,-1,14.988998,196.697)" stroke-width=".3985" stroke-linecap="butt" stroke-miterlimit="10" stroke-linejoin="miter" fill="none" stroke="#000000" d="M 85.04042 56.69362 L 85.04042 85.04042 "/>
<path transform="matrix(1,0,0,-1,14.988998,196.697)" stroke-width=".3985" stroke-linecap="butt" stroke-miterlimit="10" stroke-linejoin="miter" fill="none" stroke="#000000" d="M 85.04042 56.69362 L 113.38724 28.3468 "/>
<path transform="matrix(1,0,0,-1,14.988998,196.697)" stroke-width=".3985" stroke-linecap="butt" stroke-miterlimit="10" stroke-linejoin="miter" fill="none" stroke="#000000" d="M 85.04042 85.04042 L 85.04042 113.38724 "/>
<path transform="matrix(1,0,0,-1,14.988998,196.697)" stroke-width=".3985" stroke-linecap="butt" stroke-miterlimit="10" stroke-linejoin="miter" fill="none" stroke="#000000" d="M 85.04042 85.04042 L 113.38724 56.69362 "/>
<path transform="matrix(1,0,0,-1,14.988998,196.697)" stroke-width=".3985" stroke-linecap="butt" stroke-miterlimit="10" stroke-linejoin="miter" fill="none" stroke="#000000" d="M 85.04042 113.38724 L 85.04042 141.73404 "/>
<path transform="matrix(1,0,0,-1,14.988998,196.697)" stroke-width=".3985" stroke-linecap="butt" stroke-miterlimit="10" stroke-linejoin="miter" fill="none" stroke="#000000" d="M 85.04042 113.38724 L 113.38724 56.69362 "/>
<path transform="matrix(1,0,0,-1,14.988998,196.697)" stroke-width=".3985" stroke-linecap="butt" stroke-miterlimit="10" stroke-linejoin="miter" fill="none" stroke="#000000" d="M 85.04042 141.73404 L 113.38724 56.69362 "/>
<path transform="matrix(1,0,0,-1,14.988998,196.697)" stroke-width=".3985" stroke-linecap="butt" stroke-miterlimit="10" stroke-linejoin="miter" fill="none" stroke="#000000" d="M 85.04042 141.73404 L 141.73404 141.73404 "/>
<path transform="matrix(1,0,0,-1,14.988998,196.697)" stroke-width=".3985" stroke-linecap="butt" stroke-miterlimit="10" stroke-linejoin="miter" fill="none" stroke="#000000" d="M 113.38724 28.3468 L 113.38724 56.69362 "/>
<path transform="matrix(1,0,0,-1,14.988998,196.697)" stroke-width=".3985" stroke-linecap="butt" stroke-miterlimit="10" stroke-linejoin="miter" fill="none" stroke="#000000" d="M 113.38724 28.3468 L 141.73404 0 "/>
<path transform="matrix(1,0,0,-1,14.988998,196.697)" stroke-width=".3985" stroke-linecap="butt" stroke-miterlimit="10" stroke-linejoin="miter" fill="none" stroke="#000000" d="M 113.38724 28.3468 L 141.73404 141.73404 "/>
<path transform="matrix(1,0,0,-1,14.988998,196.697)" stroke-width=".3985" stroke-linecap="butt" stroke-miterlimit="10" stroke-linejoin="miter" fill="none" stroke="#000000" d="M 113.38724 56.69362 L 141.73404 141.73404 "/>
<path transform="matrix(1,0,0,-1,14.988998,196.697)" stroke-width=".3985" stroke-linecap="butt" stroke-miterlimit="10" stroke-linejoin="miter" fill="none" stroke="#000000" d="M 141.73404 0 L 141.73404 141.73404 "/>
</g>
</svg>
