<?xml version="1.0" encoding="UTF-8" standalone="no"?>
<!DOCTYPE svg PUBLIC "-//W3C//DTD SVG 1.1//EN" "http://www.w3.org/Graphics/SVG/1.1/DTD/svg11.dtd">
<svg xmlns="http://www.w3.org/2000/svg" xmlns:xlink="http://www.w3.org/1999/xlink" version="1.1" width="361.76pt" height="134.99pt" viewBox="0 0 361.76 134.99">
<g enable-background="new">
<path transform="matrix(1,0,0,-1,10.640999,124.02901)" stroke-width=".3985" stroke-linecap="butt" stroke-miterlimit="10" stroke-linejoin="miter" fill="none" stroke="#000000" d="M 10.44144 0 C 10.44144 5.76671 5.76671 10.44144 0 10.44144 C -5.76671 10.44144 -10.44144 5.76671 -10.44144 0 C -10.44144 -5.76671 -5.76671 -10.44144 0 -10.44144 C 5.76671 -10.44144 10.44144 -5.76671 10.44144 0 Z M 0 0 "/>
<text xml:space="preserve" transform="matrix(1 0 -0 1 66.918 73.40101)" font-size="9.9626" font-family="CMMI10" font-style="italic"><tspan y="52.026" x="-61.359">x</tspan></text>
<text xml:space="preserve" transform="matrix(1 0 -0 1 66.918 73.40101)" font-size="6.9738" font-family="CMR7"><tspan y="53.521" x="-55.666">2</tspan></text>
<path transform="matrix(1,0,0,-1,10.640999,124.02901)" stroke-width=".3985" stroke-linecap="butt" stroke-miterlimit="10" stroke-linejoin="miter" fill="none" stroke="#000000" d="M 10.44144 113.38724 C 10.44144 119.15395 5.76671 123.82867 0 123.82867 C -5.76671 123.82867 -10.44144 119.15395 -10.44144 113.38724 C -10.44144 107.62051 -5.76671 102.94579 0 102.94579 C 5.76671 102.94579 10.44144 107.62051 10.44144 113.38724 Z M 0 113.38724 "/>
<text xml:space="preserve" transform="matrix(1 0 -0 1 66.918 -39.98699)" font-size="9.9626" font-family="CMMI10" font-style="italic"><tspan y="52.026" x="-61.359">x</tspan></text>
<text xml:space="preserve" transform="matrix(1 0 -0 1 66.918 -39.98699)" font-size="6.9738" font-family="CMR7"><tspan y="53.521" x="-55.666">1</tspan></text>
<path transform="matrix(1,0,0,-1,10.640999,124.02901)" stroke-width=".3985" stroke-linecap="butt" stroke-miterlimit="10" stroke-linejoin="miter" fill="none" stroke="#000000" d="M 38.44699 56.69362 C 38.44699 62.27185 33.92505 66.79381 28.3468 66.79381 C 22.76855 66.79381 18.24661 62.27185 18.24661 56.69362 C 18.24661 51.11537 22.76855 46.59341 28.3468 46.59341 C 33.92505 46.59341 38.44699 51.11537 38.44699 56.69362 Z M 28.3468 56.69362 "/>
<text xml:space="preserve" transform="matrix(1 0 -0 1 95.698 16.707005)" font-size="9.9626" font-family="CMMI10" font-style="italic"><tspan y="52.026" x="-61.359">v</tspan></text>
<text xml:space="preserve" transform="matrix(1 0 -0 1 95.698 16.707005)" font-size="6.9738" font-family="CMR7"><tspan y="53.521" x="-56.530004">1</tspan></text>
<path transform="matrix(1,0,0,-1,10.640999,124.02901)" stroke-width=".3985" stroke-linecap="butt" stroke-miterlimit="10" stroke-linejoin="miter" fill="none" stroke="#000000" d="M 66.79381 28.3468 C 66.79381 33.92505 62.27185 38.44699 56.69362 38.44699 C 51.11537 38.44699 46.59341 33.92505 46.59341 28.3468 C 46.59341 22.76855 51.11537 18.24661 56.69362 18.24661 C 62.27185 18.24661 66.79381 22.76855 66.79381 28.3468 Z M 56.69362 28.3468 "/>
<text xml:space="preserve" transform="matrix(1 0 -0 1 124.044 45.05401)" font-size="9.9626" font-family="CMMI10" font-style="italic"><tspan y="52.026" x="-61.359">v</tspan></text>
<text xml:space="preserve" transform="matrix(1 0 -0 1 124.044 45.05401)" font-size="6.9738" font-family="CMR7"><tspan y="53.521" x="-56.530004">2</tspan></text>
<path transform="matrix(1,0,0,-1,10.640999,124.02901)" stroke-width=".3985" stroke-linecap="butt" stroke-miterlimit="10" stroke-linejoin="miter" fill="none" stroke="#000000" d="M 66.79381 56.69362 C 66.79381 62.27185 62.27185 66.79381 56.69362 66.79381 C 51.11537 66.79381 46.59341 62.27185 46.59341 56.69362 C 46.59341 51.11537 51.11537 46.59341 56.69362 46.59341 C 62.27185 46.59341 66.79381 51.11537 66.79381 56.69362 Z M 56.69362 56.69362 "/>
<text xml:space="preserve" transform="matrix(1 0 -0 1 124.044 16.707005)" font-size="9.9626" font-family="CMMI10" font-style="italic"><tspan y="52.026" x="-61.359">v</tspan></text>
<text xml:space="preserve" transform="matrix(1 0 -0 1 124.044 16.707005)" font-size="6.9738" font-family="CMR7"><tspan y="53.521" x="-56.530004">5</tspan></text>
<path transform="matrix(1,0,0,-1,10.640999,124.02901)" stroke-width=".3985" stroke-linecap="butt" stroke-miterlimit="10" stroke-linejoin="miter" fill="none" stroke="#000000" d="M 66.79381 85.04042 C 66.79381 90.61867 62.27185 95.14061 56.69362 95.14061 C 51.11537 95.14061 46.59341 90.61867 46.59341 85.04042 C 46.59341 79.46217 51.11537 74.94023 56.69362 74.94023 C 62.27185 74.94023 66.79381 79.46217 66.79381 85.04042 Z M 56.69362 85.04042 "/>
<text xml:space="preserve" transform="matrix(1 0 -0 1 124.044 -11.639992)" font-size="9.9626" font-family="CMMI10" font-style="italic"><tspan y="52.026" x="-61.359">v</tspan></text>
<text xml:space="preserve" transform="matrix(1 0 -0 1 124.044 -11.639992)" font-size="6.9738" font-family="CMR7"><tspan y="53.521" x="-56.530004">4</tspan></text>
<path transform="matrix(1,0,0,-1,10.640999,124.02901)" stroke-width=".3985" stroke-linecap="butt" stroke-miterlimit="10" stroke-linejoin="miter" fill="none" stroke="#000000" d="M 95.14061 56.69362 C 95.14061 62.27185 90.61867 66.79381 85.04042 66.79381 C 79.46217 66.79381 74.94023 62.27185 74.94023 56.69362 C 74.94023 51.11537 79.46217 46.59341 85.04042 46.59341 C 90.61867 46.59341 95.14061 51.11537 95.14061 56.69362 Z M 85.04042 56.69362 "/>
<text xml:space="preserve" transform="matrix(1 0 -0 1 152.39099 16.707005)" font-size="9.9626" font-family="CMMI10" font-style="italic"><tspan y="52.026" x="-61.359">v</tspan></text>
<text xml:space="preserve" transform="matrix(1 0 -0 1 152.39099 16.707005)" font-size="6.9738" font-family="CMR7"><tspan y="53.521" x="-56.530004">3</tspan></text>
<path transform="matrix(1,0,0,-1,10.640999,124.02901)" stroke-width=".3985" stroke-linecap="butt" stroke-miterlimit="10" stroke-linejoin="miter" fill="none" stroke="#000000" d="M 123.82867 0 C 123.82867 5.76671 119.15395 10.44144 113.38724 10.44144 C 107.62051 10.44144 102.94579 5.76671 102.94579 0 C 102.94579 -5.76671 107.62051 -10.44144 113.38724 -10.44144 C 119.15395 -10.44144 123.82867 -5.76671 123.82867 0 Z M 113.38724 0 "/>
<text xml:space="preserve" transform="matrix(1 0 -0 1 180.306 73.40101)" font-size="9.9626" font-family="CMMI10" font-style="italic"><tspan y="52.026" x="-61.359">x</tspan></text>
<text xml:space="preserve" transform="matrix(1 0 -0 1 180.306 73.40101)" font-size="6.9738" font-family="CMR7"><tspan y="53.521" x="-55.666">3</tspan></text>
<path transform="matrix(1,0,0,-1,10.640999,124.02901)" stroke-width=".3985" stroke-linecap="butt" stroke-miterlimit="10" stroke-linejoin="miter" fill="none" stroke="#000000" d="M 123.82867 113.38724 C 123.82867 119.15395 119.15395 123.82867 113.38724 123.82867 C 107.62051 123.82867 102.94579 119.15395 102.94579 113.38724 C 102.94579 107.62051 107.62051 102.94579 113.38724 102.94579 C 119.15395 102.94579 123.82867 107.62051 123.82867 113.38724 Z M 113.38724 113.38724 "/>
<text xml:space="preserve" transform="matrix(1 0 -0 1 180.306 -39.98699)" font-size="9.9626" font-family="CMMI10" font-style="italic"><tspan y="52.026" x="-61.359">x</tspan></text>
<text xml:space="preserve" transform="matrix(1 0 -0 1 180.306 -39.98699)" font-size="6.9738" font-family="CMR7"><tspan y="53.521" x="-55.666">4</tspan></text>
<path transform="matrix(1,0,0,-1,10.640999,124.02901)" stroke-width=".3985" stroke-linecap="butt" stroke-miterlimit="10" stroke-linejoin="miter" fill="none" stroke="#000000" d="M 0 10.64069 L 0 102.74654 "/>
<path transform="matrix(1,0,0,-1,10.640999,124.02901)" stroke-width=".3985" stroke-linecap="butt" stroke-miterlimit="10" stroke-linejoin="miter" fill="none" stroke="#000000" d="M 4.75822 9.51665 L 23.74117 47.48218 "/>
<path transform="matrix(1,0,0,-1,10.640999,124.02901)" stroke-width=".3985" stroke-linecap="butt" stroke-miterlimit="10" stroke-linejoin="miter" fill="none" stroke="#000000" d="M 9.51665 4.75822 L 47.48218 23.74117 "/>
<path transform="matrix(1,0,0,-1,10.640999,124.02901)" stroke-width=".3985" stroke-linecap="butt" stroke-miterlimit="10" stroke-linejoin="miter" fill="none" stroke="#000000" d="M 10.64069 0 L 102.74654 0 "/>
<path transform="matrix(1,0,0,-1,10.640999,124.02901)" stroke-width=".3985" stroke-linecap="butt" stroke-miterlimit="10" stroke-linejoin="miter" fill="none" stroke="#000000" d="M 4.75822 103.87057 L 23.74117 65.90506 "/>
<path transform="matrix(1,0,0,-1,10.640999,124.02901)" stroke-width=".3985" stroke-linecap="butt" stroke-miterlimit="10" stroke-linejoin="miter" fill="none" stroke="#000000" d="M 7.52411 105.86311 L 49.4108 63.97643 "/>
<path transform="matrix(1,0,0,-1,10.640999,124.02901)" stroke-width=".3985" stroke-linecap="butt" stroke-miterlimit="10" stroke-linejoin="miter" fill="none" stroke="#000000" d="M 9.51665 108.629 L 47.48218 89.64606 "/>
<path transform="matrix(1,0,0,-1,10.640999,124.02901)" stroke-width=".3985" stroke-linecap="butt" stroke-miterlimit="10" stroke-linejoin="miter" fill="none" stroke="#000000" d="M 10.64069 113.38724 L 102.74654 113.38724 "/>
<path transform="matrix(1,0,0,-1,10.640999,124.02901)" stroke-width=".3985" stroke-linecap="butt" stroke-miterlimit="10" stroke-linejoin="miter" fill="none" stroke="#000000" d="M 35.62961 49.4108 L 49.4108 35.62961 "/>
<path transform="matrix(1,0,0,-1,10.640999,124.02901)" stroke-width=".3985" stroke-linecap="butt" stroke-miterlimit="10" stroke-linejoin="miter" fill="none" stroke="#000000" d="M 38.64626 56.69362 L 46.39417 56.69362 "/>
<path transform="matrix(1,0,0,-1,10.640999,124.02901)" stroke-width=".3985" stroke-linecap="butt" stroke-miterlimit="10" stroke-linejoin="miter" fill="none" stroke="#000000" d="M 35.62961 63.97643 L 49.4108 77.75761 "/>
<path transform="matrix(1,0,0,-1,10.640999,124.02901)" stroke-width=".3985" stroke-linecap="butt" stroke-miterlimit="10" stroke-linejoin="miter" fill="none" stroke="#000000" d="M 56.69362 38.64626 L 56.69362 46.39417 "/>
<path transform="matrix(1,0,0,-1,10.640999,124.02901)" stroke-width=".3985" stroke-linecap="butt" stroke-miterlimit="10" stroke-linejoin="miter" fill="none" stroke="#000000" d="M 63.97643 35.62961 L 77.75761 49.4108 "/>
<path transform="matrix(1,0,0,-1,10.640999,124.02901)" stroke-width=".3985" stroke-linecap="butt" stroke-miterlimit="10" stroke-linejoin="miter" fill="none" stroke="#000000" d="M 65.90506 23.74117 L 103.87057 4.75822 "/>
<path transform="matrix(1,0,0,-1,10.640999,124.02901)" stroke-width=".3985" stroke-linecap="butt" stroke-miterlimit="10" stroke-linejoin="miter" fill="none" stroke="#000000" d="M 56.69362 66.99306 L 56.69362 74.74098 "/>
<path transform="matrix(1,0,0,-1,10.640999,124.02901)" stroke-width=".3985" stroke-linecap="butt" stroke-miterlimit="10" stroke-linejoin="miter" fill="none" stroke="#000000" d="M 66.99306 56.69362 L 74.74098 56.69362 "/>
<path transform="matrix(1,0,0,-1,10.640999,124.02901)" stroke-width=".3985" stroke-linecap="butt" stroke-miterlimit="10" stroke-linejoin="miter" fill="none" stroke="#000000" d="M 63.97643 77.75761 L 77.75761 63.97643 "/>
<path transform="matrix(1,0,0,-1,10.640999,124.02901)" stroke-width=".3985" stroke-linecap="butt" stroke-miterlimit="10" stroke-linejoin="miter" fill="none" stroke="#000000" d="M 65.90506 89.64606 L 103.87057 108.629 "/>
<path transform="matrix(1,0,0,-1,10.640999,124.02901)" stroke-width=".3985" stroke-linecap="butt" stroke-miterlimit="10" stroke-linejoin="miter" fill="none" stroke="#000000" d="M 89.64606 47.48218 L 108.629 9.51665 "/>
<path transform="matrix(1,0,0,-1,10.640999,124.02901)" stroke-width=".3985" stroke-linecap="butt" stroke-miterlimit="10" stroke-linejoin="miter" fill="none" stroke="#000000" d="M 89.64606 65.90506 L 108.629 103.87057 "/>
<path transform="matrix(1,0,0,-1,10.640999,124.02901)" stroke-width=".3985" stroke-linecap="butt" stroke-miterlimit="10" stroke-linejoin="miter" fill="none" stroke="#000000" d="M 113.38724 10.64069 L 113.38724 102.74654 "/>
<path transform="matrix(1,0,0,-1,10.640999,124.02901)" stroke-width=".3985" stroke-linecap="butt" stroke-miterlimit="10" stroke-linejoin="miter" fill="none" stroke="#000000" d="M 237.05013 113.38724 C 237.05013 119.06233 232.44966 123.6628 226.77457 123.6628 C 221.09947 123.6628 216.499 119.06233 216.499 113.38724 C 216.499 107.71214 221.09947 103.11166 226.77457 103.11166 C 232.44966 103.11166 237.05013 107.71214 237.05013 113.38724 Z M 226.77457 113.38724 "/>
<text xml:space="preserve" transform="matrix(1 0 -0 1 293.90699 -39.98699)" font-size="9.9626" font-family="CMMI10" font-style="italic"><tspan y="52.026" x="-61.359">a</tspan></text>
<text xml:space="preserve" transform="matrix(1 0 -0 1 293.90699 -39.98699)" font-size="6.9738" font-family="CMR7"><tspan y="53.521" x="-56.093004">1</tspan></text>
<path transform="matrix(1,0,0,-1,10.640999,124.02901)" stroke-width=".3985" stroke-linecap="butt" stroke-miterlimit="10" stroke-linejoin="miter" fill="none" stroke="#000000" d="M 265.39695 56.69362 C 265.39695 62.36871 260.79646 66.96918 255.12137 66.96918 C 249.44628 66.96918 244.84581 62.36871 244.84581 56.69362 C 244.84581 51.01851 249.44628 46.41805 255.12137 46.41805 C 260.79646 46.41805 265.39695 51.01851 265.39695 56.69362 Z M 255.12137 56.69362 "/>
<text xml:space="preserve" transform="matrix(1 0 -0 1 322.254 16.707005)" font-size="9.9626" font-family="CMMI10" font-style="italic"><tspan y="52.026" x="-61.359">a</tspan></text>
<text xml:space="preserve" transform="matrix(1 0 -0 1 322.254 16.707005)" font-size="6.9738" font-family="CMR7"><tspan y="53.521" x="-56.093004">2</tspan></text>
<path transform="matrix(1,0,0,-1,10.640999,124.02901)" stroke-width=".3985" stroke-linecap="butt" stroke-miterlimit="10" stroke-linejoin="miter" fill="none" stroke="#000000" d="M 293.74375 56.69362 C 293.74375 62.36871 289.14329 66.96918 283.4682 66.96918 C 277.7931 66.96918 273.1926 62.36871 273.1926 56.69362 C 273.1926 51.01851 277.7931 46.41805 283.4682 46.41805 C 289.14329 46.41805 293.74375 51.01851 293.74375 56.69362 Z M 283.4682 56.69362 "/>
<text xml:space="preserve" transform="matrix(1 0 -0 1 350.6 16.707005)" font-size="9.9626" font-family="CMMI10" font-style="italic"><tspan y="52.026" x="-61.359">a</tspan></text>
<text xml:space="preserve" transform="matrix(1 0 -0 1 350.6 16.707005)" font-size="6.9738" font-family="CMR7"><tspan y="53.521" x="-56.093004">3</tspan></text>
<path transform="matrix(1,0,0,-1,10.640999,124.02901)" d="M 237.53635 0 C 237.53635 5.94363 232.7182 10.76178 226.77457 10.76178 C 220.83092 10.76178 216.01277 5.94363 216.01277 0 C 216.01277 -5.94363 220.83092 -10.76178 226.77457 -10.76178 C 232.7182 -10.76178 237.53635 -5.94363 237.53635 0 Z M 226.77457 0 "/>
<path transform="matrix(1,0,0,-1,10.640999,124.02901)" stroke-width=".3985" stroke-linecap="butt" stroke-miterlimit="10" stroke-linejoin="miter" fill="none" stroke="#000000" d="M 237.53635 0 C 237.53635 5.94363 232.7182 10.76178 226.77457 10.76178 C 220.83092 10.76178 216.01277 5.94363 216.01277 0 C 216.01277 -5.94363 220.83092 -10.76178 226.77457 -10.76178 C 232.7182 -10.76178 237.53635 -5.94363 237.53635 0 Z M 226.77457 0 "/>
<text fill="#ffffff" xml:space="preserve" transform="matrix(1 0 -0 1 294.40199 74.715007)" font-size="9.9626" font-family="CMMI10" font-style="italic"><tspan y="52.026" x="-61.359">b</tspan></text>
<text fill="#ffffff" xml:space="preserve" transform="matrix(1 0 -0 1 294.40199 74.715007)" font-size="6.9738" font-family="CMR7"><tspan y="53.521" x="-57.084">1</tspan></text>
<path transform="matrix(1,0,0,-1,10.640999,124.02901)" d="M 294.22999 85.04042 C 294.22999 90.98405 289.41184 95.8022 283.4682 95.8022 C 277.52455 95.8022 272.7064 90.98405 272.7064 85.04042 C 272.7064 79.09679 277.52455 74.27864 283.4682 74.27864 C 289.41184 74.27864 294.22999 79.09679 294.22999 85.04042 Z M 283.4682 85.04042 "/>
<path transform="matrix(1,0,0,-1,10.640999,124.02901)" stroke-width=".3985" stroke-linecap="butt" stroke-miterlimit="10" stroke-linejoin="miter" fill="none" stroke="#000000" d="M 294.22999 85.04042 C 294.22999 90.98405 289.41184 95.8022 283.4682 95.8022 C 277.52455 95.8022 272.7064 90.98405 272.7064 85.04042 C 272.7064 79.09679 277.52455 74.27864 283.4682 74.27864 C 289.41184 74.27864 294.22999 79.09679 294.22999 85.04042 Z M 283.4682 85.04042 "/>
<text fill="#ffffff" xml:space="preserve" transform="matrix(1 0 -0 1 351.096 -10.324997)" font-size="9.9626" font-family="CMMI10" font-style="italic"><tspan y="52.026" x="-61.359">b</tspan></text>
<text fill="#ffffff" xml:space="preserve" transform="matrix(1 0 -0 1 351.096 -10.324997)" font-size="6.9738" font-family="CMR7"><tspan y="53.521" x="-57.084">2</tspan></text>
<path transform="matrix(1,0,0,-1,10.640999,124.02901)" d="M 350.92359 0 C 350.92359 5.94363 346.10545 10.76178 340.1618 10.76178 C 334.21818 10.76178 329.40003 5.94363 329.40003 0 C 329.40003 -5.94363 334.21818 -10.76178 340.1618 -10.76178 C 346.10545 -10.76178 350.92359 -5.94363 350.92359 0 Z M 340.1618 0 "/>
<path transform="matrix(1,0,0,-1,10.640999,124.02901)" stroke-width=".3985" stroke-linecap="butt" stroke-miterlimit="10" stroke-linejoin="miter" fill="none" stroke="#000000" d="M 350.92359 0 C 350.92359 5.94363 346.10545 10.76178 340.1618 10.76178 C 334.21818 10.76178 329.40003 5.94363 329.40003 0 C 329.40003 -5.94363 334.21818 -10.76178 340.1618 -10.76178 C 346.10545 -10.76178 350.92359 -5.94363 350.92359 0 Z M 340.1618 0 "/>
<text fill="#ffffff" xml:space="preserve" transform="matrix(1 0 -0 1 407.789 74.715007)" font-size="9.9626" font-family="CMMI10" font-style="italic"><tspan y="52.026" x="-61.359">b</tspan></text>
<text fill="#ffffff" xml:space="preserve" transform="matrix(1 0 -0 1 407.789 74.715007)" font-size="6.9738" font-family="CMR7"><tspan y="53.521" x="-57.084">3</tspan></text>
<path transform="matrix(1,0,0,-1,10.640999,124.02901)" d="M 284.46446 28.3468 C 284.46446 28.89703 284.01844 29.34308 283.4682 29.34308 C 282.91795 29.34308 282.47193 28.89703 282.47193 28.3468 C 282.47193 27.79657 282.91795 27.35052 283.4682 27.35052 C 284.01844 27.35052 284.46446 27.79657 284.46446 28.3468 Z M 283.4682 28.3468 "/>
<path transform="matrix(1,0,0,-1,10.640999,124.02901)" stroke-width=".3985" stroke-linecap="butt" stroke-miterlimit="10" stroke-linejoin="miter" fill="none" stroke="#000000" d="M 284.46446 28.3468 C 284.46446 28.89703 284.01844 29.34308 283.4682 29.34308 C 282.91795 29.34308 282.47193 28.89703 282.47193 28.3468 C 282.47193 27.79657 282.91795 27.35052 283.4682 27.35052 C 284.01844 27.35052 284.46446 27.79657 284.46446 28.3468 Z M 283.4682 28.3468 "/>
<path transform="matrix(1,0,0,-1,10.640999,124.02901)" d="M 312.81126 56.69362 C 312.81126 57.24385 312.36524 57.6899 311.815 57.6899 C 311.26478 57.6899 310.8187 57.24385 310.8187 56.69362 C 310.8187 56.14337 311.26478 55.69734 311.815 55.69734 C 312.36524 55.69734 312.81126 56.14337 312.81126 56.69362 Z M 311.815 56.69362 "/>
<path transform="matrix(1,0,0,-1,10.640999,124.02901)" stroke-width=".3985" stroke-linecap="butt" stroke-miterlimit="10" stroke-linejoin="miter" fill="none" stroke="#000000" d="M 312.81126 56.69362 C 312.81126 57.24385 312.36524 57.6899 311.815 57.6899 C 311.26478 57.6899 310.8187 57.24385 310.8187 56.69362 C 310.8187 56.14337 311.26478 55.69734 311.815 55.69734 C 312.36524 55.69734 312.81126 56.14337 312.81126 56.69362 Z M 311.815 56.69362 "/>
<path transform="matrix(1,0,0,-1,10.640999,124.02901)" d="M 341.15809 113.38724 C 341.15809 113.93747 340.71205 114.38351 340.1618 114.38351 C 339.61158 114.38351 339.16554 113.93747 339.16554 113.38724 C 339.16554 112.83699 339.61158 112.39096 340.1618 112.39096 C 340.71205 112.39096 341.15809 112.83699 341.15809 113.38724 Z M 340.1618 113.38724 "/>
<path transform="matrix(1,0,0,-1,10.640999,124.02901)" stroke-width=".3985" stroke-linecap="butt" stroke-miterlimit="10" stroke-linejoin="miter" fill="none" stroke="#000000" d="M 341.15809 113.38724 C 341.15809 113.93747 340.71205 114.38351 340.1618 114.38351 C 339.61158 114.38351 339.16554 113.93747 339.16554 113.38724 C 339.16554 112.83699 339.61158 112.39096 340.1618 112.39096 C 340.71205 112.39096 341.15809 112.83699 341.15809 113.38724 Z M 340.1618 113.38724 "/>
<path transform="matrix(1,0,0,-1,10.640999,124.02901)" stroke-width=".3985" stroke-linecap="butt" stroke-miterlimit="10" stroke-linejoin="miter" fill="none" stroke="#000000" d="M 226.77457 102.91241 L 226.77457 10.96103 "/>
<path transform="matrix(1,0,0,-1,10.640999,124.02901)" stroke-width=".3985" stroke-linecap="butt" stroke-miterlimit="10" stroke-linejoin="miter" fill="none" stroke="#000000" d="M 236.14284 108.70317 L 273.66505 89.94191 "/>
<path transform="matrix(1,0,0,-1,10.640999,124.02901)" stroke-width=".3985" stroke-linecap="butt" stroke-miterlimit="10" stroke-linejoin="miter" fill="none" stroke="#000000" d="M 237.24938 113.38724 L 340.1618 113.38724 "/>
<path transform="matrix(1,0,0,-1,10.640999,124.02901)" stroke-width=".3985" stroke-linecap="butt" stroke-miterlimit="10" stroke-linejoin="miter" fill="none" stroke="#000000" d="M 340.1618 113.38724 L 340.1618 10.96103 "/>
<path transform="matrix(1,0,0,-1,10.640999,124.02901)" stroke-width=".3985" stroke-linecap="butt" stroke-miterlimit="10" stroke-linejoin="miter" fill="none" stroke="#000000" d="M 250.4373 47.32533 L 231.67604 9.80315 "/>
<path transform="matrix(1,0,0,-1,10.640999,124.02901)" stroke-width=".3985" stroke-linecap="butt" stroke-miterlimit="10" stroke-linejoin="miter" fill="none" stroke="#000000" d="M 262.52818 64.10043 L 275.71757 77.2898 "/>
<path transform="matrix(1,0,0,-1,10.640999,124.02901)" stroke-width=".3985" stroke-linecap="butt" stroke-miterlimit="10" stroke-linejoin="miter" fill="none" stroke="#000000" d="M 262.52818 49.2868 L 283.4682 28.3468 "/>
<path transform="matrix(1,0,0,-1,10.640999,124.02901)" stroke-width=".3985" stroke-linecap="butt" stroke-miterlimit="10" stroke-linejoin="miter" fill="none" stroke="#000000" d="M 283.4682 28.3468 L 330.35868 4.90147 "/>
<path transform="matrix(1,0,0,-1,10.640999,124.02901)" stroke-width=".3985" stroke-linecap="butt" stroke-miterlimit="10" stroke-linejoin="miter" fill="none" stroke="#000000" d="M 276.06138 49.2868 L 234.52519 7.75061 "/>
<path transform="matrix(1,0,0,-1,10.640999,124.02901)" stroke-width=".3985" stroke-linecap="butt" stroke-miterlimit="10" stroke-linejoin="miter" fill="none" stroke="#000000" d="M 283.4682 67.16843 L 283.4682 74.07939 "/>
<path transform="matrix(1,0,0,-1,10.640999,124.02901)" stroke-width=".3985" stroke-linecap="butt" stroke-miterlimit="10" stroke-linejoin="miter" fill="none" stroke="#000000" d="M 293.943 56.69362 L 311.815 56.69362 "/>
<path transform="matrix(1,0,0,-1,10.640999,124.02901)" stroke-width=".3985" stroke-linecap="butt" stroke-miterlimit="10" stroke-linejoin="miter" fill="none" stroke="#000000" d="M 311.815 56.69362 L 335.2603 9.80315 "/>
<path transform="matrix(1,0,0,-1,10.640999,124.02901)" stroke-width=".3985" stroke-linecap="butt" stroke-miterlimit="10" stroke-linejoin="miter" fill="none" stroke="#000000" d="M 141.73404 56.69362 L 197.96938 56.69362 "/>
<path transform="matrix(1,0,0,-1,208.61038,67.33539)" stroke-width=".31879" stroke-linecap="round" stroke-linejoin="round" fill="none" stroke="#000000" d="M -1.19551 1.59401 C -1.09587 .99626 0 .09961 .29886 0 C 0 -.09961 -1.09587 -.99626 -1.19551 -1.59401 "/>
</g>
</svg>
