<?xml version="1.0" encoding="UTF-8" standalone="no"?>
<!DOCTYPE svg PUBLIC "-//W3C//DTD SVG 1.1//EN" "http://www.w3.org/Graphics/SVG/1.1/DTD/svg11.dtd">
<svg xmlns="http://www.w3.org/2000/svg" xmlns:xlink="http://www.w3.org/1999/xlink" version="1.1" width="305.07pt" height="78.61pt" viewBox="0 0 305.07 78.61">
<g enable-background="new">
<path transform="matrix(1,0,0,-1,10.640999,67.649)" stroke-width=".3985" stroke-linecap="butt" stroke-miterlimit="10" stroke-linejoin="miter" fill="none" stroke="#000000" d="M 10.44144 0 C 10.44144 5.76671 5.76671 10.44144 0 10.44144 C -5.76671 10.44144 -10.44144 5.76671 -10.44144 0 C -10.44144 -5.76671 -5.76671 -10.44144 0 -10.44144 C 5.76671 -10.44144 10.44144 -5.76671 10.44144 0 Z M 0 0 "/>
<text xml:space="preserve" transform="matrix(1 0 -0 1 66.918 73.393009)" font-size="9.9626" font-family="CMMI10" font-style="italic"><tspan y="-4.346" x="-61.359">x</tspan></text>
<text xml:space="preserve" transform="matrix(1 0 -0 1 66.918 73.393009)" font-size="6.9738" font-family="CMR7"><tspan y="-2.8520003" x="-55.666">2</tspan></text>
<path transform="matrix(1,0,0,-1,10.640999,67.649)" stroke-width=".3985" stroke-linecap="butt" stroke-miterlimit="10" stroke-linejoin="miter" fill="none" stroke="#000000" d="M 10.44144 56.69362 C 10.44144 62.46033 5.76671 67.13506 0 67.13506 C -5.76671 67.13506 -10.44144 62.46033 -10.44144 56.69362 C -10.44144 50.9269 -5.76671 46.25217 0 46.25217 C 5.76671 46.25217 10.44144 50.9269 10.44144 56.69362 Z M 0 56.69362 "/>
<text xml:space="preserve" transform="matrix(1 0 -0 1 66.918 16.699002)" font-size="9.9626" font-family="CMMI10" font-style="italic"><tspan y="-4.346" x="-61.359">x</tspan></text>
<text xml:space="preserve" transform="matrix(1 0 -0 1 66.918 16.699002)" font-size="6.9738" font-family="CMR7"><tspan y="-2.8520003" x="-55.666">1</tspan></text>
<path transform="matrix(1,0,0,-1,10.640999,67.649)" stroke-width=".3985" stroke-linecap="butt" stroke-miterlimit="10" stroke-linejoin="miter" fill="none" stroke="#000000" d="M 38.44699 28.3468 C 38.44699 33.92505 33.92505 38.44699 28.3468 38.44699 C 22.76855 38.44699 18.24661 33.92505 18.24661 28.3468 C 18.24661 22.76855 22.76855 18.24661 28.3468 18.24661 C 33.92505 18.24661 38.44699 22.76855 38.44699 28.3468 Z M 28.3468 28.3468 "/>
<text xml:space="preserve" transform="matrix(1 0 -0 1 95.698 45.046007)" font-size="9.9626" font-family="CMMI10" font-style="italic"><tspan y="-4.346" x="-61.359">v</tspan></text>
<text xml:space="preserve" transform="matrix(1 0 -0 1 95.698 45.046007)" font-size="6.9738" font-family="CMR7"><tspan y="-2.8520003" x="-56.530004">1</tspan></text>
<path transform="matrix(1,0,0,-1,10.640999,67.649)" stroke-width=".3985" stroke-linecap="butt" stroke-miterlimit="10" stroke-linejoin="miter" fill="none" stroke="#000000" d="M 66.79381 28.3468 C 66.79381 33.92505 62.27185 38.44699 56.69362 38.44699 C 51.11537 38.44699 46.59341 33.92505 46.59341 28.3468 C 46.59341 22.76855 51.11537 18.24661 56.69362 18.24661 C 62.27185 18.24661 66.79381 22.76855 66.79381 28.3468 Z M 56.69362 28.3468 "/>
<text xml:space="preserve" transform="matrix(1 0 -0 1 124.044 45.046007)" font-size="9.9626" font-family="CMMI10" font-style="italic"><tspan y="-4.346" x="-61.359">v</tspan></text>
<text xml:space="preserve" transform="matrix(1 0 -0 1 124.044 45.046007)" font-size="6.9738" font-family="CMR7"><tspan y="-2.8520003" x="-56.530004">2</tspan></text>
<path transform="matrix(1,0,0,-1,10.640999,67.649)" stroke-width=".3985" stroke-linecap="butt" stroke-miterlimit="10" stroke-linejoin="miter" fill="none" stroke="#000000" d="M 95.48187 0 C 95.48187 5.76671 90.80714 10.44144 85.04042 10.44144 C 79.2737 10.44144 74.59897 5.76671 74.59897 0 C 74.59897 -5.76671 79.2737 -10.44144 85.04042 -10.44144 C 90.80714 -10.44144 95.48187 -5.76671 95.48187 0 Z M 85.04042 0 "/>
<text xml:space="preserve" transform="matrix(1 0 -0 1 151.959 73.393009)" font-size="9.9626" font-family="CMMI10" font-style="italic"><tspan y="-4.346" x="-61.359">x</tspan></text>
<text xml:space="preserve" transform="matrix(1 0 -0 1 151.959 73.393009)" font-size="6.9738" font-family="CMR7"><tspan y="-2.8520003" x="-55.666">3</tspan></text>
<path transform="matrix(1,0,0,-1,10.640999,67.649)" stroke-width=".3985" stroke-linecap="butt" stroke-miterlimit="10" stroke-linejoin="miter" fill="none" stroke="#000000" d="M 95.48187 56.69362 C 95.48187 62.46033 90.80714 67.13506 85.04042 67.13506 C 79.2737 67.13506 74.59897 62.46033 74.59897 56.69362 C 74.59897 50.9269 79.2737 46.25217 85.04042 46.25217 C 90.80714 46.25217 95.48187 50.9269 95.48187 56.69362 Z M 85.04042 56.69362 "/>
<text xml:space="preserve" transform="matrix(1 0 -0 1 151.959 16.699002)" font-size="9.9626" font-family="CMMI10" font-style="italic"><tspan y="-4.346" x="-61.359">x</tspan></text>
<text xml:space="preserve" transform="matrix(1 0 -0 1 151.959 16.699002)" font-size="6.9738" font-family="CMR7"><tspan y="-2.8520003" x="-55.666">4</tspan></text>
<path transform="matrix(1,0,0,-1,10.640999,67.649)" stroke-width=".3985" stroke-linecap="butt" stroke-miterlimit="10" stroke-linejoin="miter" fill="none" stroke="#000000" d="M 0 10.64069 L 0 46.05292 "/>
<path transform="matrix(1,0,0,-1,10.640999,67.649)" stroke-width=".3985" stroke-linecap="butt" stroke-miterlimit="10" stroke-linejoin="miter" fill="none" stroke="#000000" d="M 7.52411 7.52411 L 21.064 21.064 "/>
<path transform="matrix(1,0,0,-1,10.640999,67.649)" stroke-width=".3985" stroke-linecap="butt" stroke-miterlimit="10" stroke-linejoin="miter" fill="none" stroke="#000000" d="M 9.51665 4.75822 L 47.48218 23.74117 "/>
<path transform="matrix(1,0,0,-1,10.640999,67.649)" stroke-width=".3985" stroke-linecap="butt" stroke-miterlimit="10" stroke-linejoin="miter" fill="none" stroke="#000000" d="M 10.64069 0 L 74.39972 0 "/>
<path transform="matrix(1,0,0,-1,10.640999,67.649)" stroke-width=".3985" stroke-linecap="butt" stroke-miterlimit="10" stroke-linejoin="miter" fill="none" stroke="#000000" d="M 7.52411 49.1695 L 21.064 35.62961 "/>
<path transform="matrix(1,0,0,-1,10.640999,67.649)" stroke-width=".3985" stroke-linecap="butt" stroke-miterlimit="10" stroke-linejoin="miter" fill="none" stroke="#000000" d="M 9.51665 51.93538 L 47.48218 32.95244 "/>
<path transform="matrix(1,0,0,-1,10.640999,67.649)" stroke-width=".3985" stroke-linecap="butt" stroke-miterlimit="10" stroke-linejoin="miter" fill="none" stroke="#000000" d="M 10.64069 56.69362 L 74.39972 56.69362 "/>
<path transform="matrix(1,0,0,-1,10.640999,67.649)" stroke-width=".3985" stroke-linecap="butt" stroke-miterlimit="10" stroke-linejoin="miter" fill="none" stroke="#000000" d="M 38.64626 28.3468 L 46.39417 28.3468 "/>
<path transform="matrix(1,0,0,-1,10.640999,67.649)" stroke-width=".3985" stroke-linecap="butt" stroke-miterlimit="10" stroke-linejoin="miter" fill="none" stroke="#000000" d="M 37.55824 23.74117 L 75.52377 4.75822 "/>
<path transform="matrix(1,0,0,-1,10.640999,67.649)" stroke-width=".3985" stroke-linecap="butt" stroke-miterlimit="10" stroke-linejoin="miter" fill="none" stroke="#000000" d="M 37.55824 32.95244 L 75.52377 51.93538 "/>
<path transform="matrix(1,0,0,-1,10.640999,67.649)" stroke-width=".3985" stroke-linecap="butt" stroke-miterlimit="10" stroke-linejoin="miter" fill="none" stroke="#000000" d="M 63.97643 21.064 L 77.51631 7.52411 "/>
<path transform="matrix(1,0,0,-1,10.640999,67.649)" stroke-width=".3985" stroke-linecap="butt" stroke-miterlimit="10" stroke-linejoin="miter" fill="none" stroke="#000000" d="M 63.97643 35.62961 L 77.51631 49.1695 "/>
<path transform="matrix(1,0,0,-1,10.640999,67.649)" stroke-width=".3985" stroke-linecap="butt" stroke-miterlimit="10" stroke-linejoin="miter" fill="none" stroke="#000000" d="M 85.04042 10.64069 L 85.04042 46.05292 "/>
<path transform="matrix(1,0,0,-1,10.640999,67.649)" stroke-width=".3985" stroke-linecap="butt" stroke-miterlimit="10" stroke-linejoin="miter" fill="none" stroke="#000000" d="M 208.70331 56.69362 C 208.70331 62.36871 204.10283 66.96918 198.42774 66.96918 C 192.75264 66.96918 188.15218 62.36871 188.15218 56.69362 C 188.15218 51.01851 192.75264 46.41805 198.42774 46.41805 C 204.10283 46.41805 208.70331 51.01851 208.70331 56.69362 Z M 198.42774 56.69362 "/>
<text xml:space="preserve" transform="matrix(1 0 -0 1 265.56 16.699002)" font-size="9.9626" font-family="CMMI10" font-style="italic"><tspan y="-4.346" x="-61.359">a</tspan></text>
<text xml:space="preserve" transform="matrix(1 0 -0 1 265.56 16.699002)" font-size="6.9738" font-family="CMR7"><tspan y="-2.8520003" x="-56.093004">1</tspan></text>
<path transform="matrix(1,0,0,-1,10.640999,67.649)" stroke-width=".3985" stroke-linecap="butt" stroke-miterlimit="10" stroke-linejoin="miter" fill="none" stroke="#000000" d="M 237.05011 28.3468 C 237.05011 34.0219 232.44965 38.62236 226.77455 38.62236 C 221.09946 38.62236 216.49898 34.0219 216.49898 28.3468 C 216.49898 22.6717 221.09946 18.07124 226.77455 18.07124 C 232.44965 18.07124 237.05011 22.6717 237.05011 28.3468 Z M 226.77455 28.3468 "/>
<text xml:space="preserve" transform="matrix(1 0 -0 1 293.90699 45.046007)" font-size="9.9626" font-family="CMMI10" font-style="italic"><tspan y="-4.346" x="-61.359">a</tspan></text>
<text xml:space="preserve" transform="matrix(1 0 -0 1 293.90699 45.046007)" font-size="6.9738" font-family="CMR7"><tspan y="-2.8520003" x="-56.093004">2</tspan></text>
<path transform="matrix(1,0,0,-1,10.640999,67.649)" stroke-width=".3985" stroke-linecap="butt" stroke-miterlimit="10" stroke-linejoin="miter" fill="none" stroke="#000000" d="M 293.74375 0 C 293.74375 5.6751 289.14326 10.27556 283.46818 10.27556 C 277.7931 10.27556 273.1926 5.6751 273.1926 0 C 273.1926 -5.6751 277.7931 -10.27556 283.46818 -10.27556 C 289.14326 -10.27556 293.74375 -5.6751 293.74375 0 Z M 283.46818 0 "/>
<text xml:space="preserve" transform="matrix(1 0 -0 1 350.6 73.393009)" font-size="9.9626" font-family="CMMI10" font-style="italic"><tspan y="-4.346" x="-61.359">a</tspan></text>
<text xml:space="preserve" transform="matrix(1 0 -0 1 350.6 73.393009)" font-size="6.9738" font-family="CMR7"><tspan y="-2.8520003" x="-56.093004">3</tspan></text>
<path transform="matrix(1,0,0,-1,10.640999,67.649)" d="M 209.18953 0 C 209.18953 5.94363 204.37139 10.76178 198.42774 10.76178 C 192.4841 10.76178 187.66596 5.94363 187.66596 0 C 187.66596 -5.94363 192.4841 -10.76178 198.42774 -10.76178 C 204.37139 -10.76178 209.18953 -5.94363 209.18953 0 Z M 198.42774 0 "/>
<path transform="matrix(1,0,0,-1,10.640999,67.649)" stroke-width=".3985" stroke-linecap="butt" stroke-miterlimit="10" stroke-linejoin="miter" fill="none" stroke="#000000" d="M 209.18953 0 C 209.18953 5.94363 204.37139 10.76178 198.42774 10.76178 C 192.4841 10.76178 187.66596 5.94363 187.66596 0 C 187.66596 -5.94363 192.4841 -10.76178 198.42774 -10.76178 C 204.37139 -10.76178 209.18953 -5.94363 209.18953 0 Z M 198.42774 0 "/>
<text fill="#ffffff" xml:space="preserve" transform="matrix(1 0 -0 1 266.055 74.707)" font-size="9.9626" font-family="CMMI10" font-style="italic"><tspan y="-4.346" x="-61.359">b</tspan></text>
<text fill="#ffffff" xml:space="preserve" transform="matrix(1 0 -0 1 266.055 74.707)" font-size="6.9738" font-family="CMR7"><tspan y="-2.8520003" x="-57.084">1</tspan></text>
<path transform="matrix(1,0,0,-1,10.640999,67.649)" d="M 265.88316 28.3468 C 265.88316 34.29044 261.065 39.10858 255.12136 39.10858 C 249.17772 39.10858 244.35958 34.29044 244.35958 28.3468 C 244.35958 22.40317 249.17772 17.58502 255.12136 17.58502 C 261.065 17.58502 265.88316 22.40317 265.88316 28.3468 Z M 255.12136 28.3468 "/>
<path transform="matrix(1,0,0,-1,10.640999,67.649)" stroke-width=".3985" stroke-linecap="butt" stroke-miterlimit="10" stroke-linejoin="miter" fill="none" stroke="#000000" d="M 265.88316 28.3468 C 265.88316 34.29044 261.065 39.10858 255.12136 39.10858 C 249.17772 39.10858 244.35958 34.29044 244.35958 28.3468 C 244.35958 22.40317 249.17772 17.58502 255.12136 17.58502 C 261.065 17.58502 265.88316 22.40317 265.88316 28.3468 Z M 255.12136 28.3468 "/>
<text fill="#ffffff" xml:space="preserve" transform="matrix(1 0 -0 1 322.749 46.36)" font-size="9.9626" font-family="CMMI10" font-style="italic"><tspan y="-4.346" x="-61.359">b</tspan></text>
<text fill="#ffffff" xml:space="preserve" transform="matrix(1 0 -0 1 322.749 46.36)" font-size="6.9738" font-family="CMR7"><tspan y="-2.8520003" x="-57.084">2</tspan></text>
<path transform="matrix(1,0,0,-1,10.640999,67.649)" d="M 294.22996 56.69362 C 294.22996 62.63725 289.4118 67.4554 283.46818 67.4554 C 277.5245 67.4554 272.7064 62.63725 272.7064 56.69362 C 272.7064 50.74997 277.5245 45.93182 283.46818 45.93182 C 289.4118 45.93182 294.22996 50.74997 294.22996 56.69362 Z M 283.46818 56.69362 "/>
<path transform="matrix(1,0,0,-1,10.640999,67.649)" stroke-width=".3985" stroke-linecap="butt" stroke-miterlimit="10" stroke-linejoin="miter" fill="none" stroke="#000000" d="M 294.22996 56.69362 C 294.22996 62.63725 289.4118 67.4554 283.46818 67.4554 C 277.5245 67.4554 272.7064 62.63725 272.7064 56.69362 C 272.7064 50.74997 277.5245 45.93182 283.46818 45.93182 C 289.4118 45.93182 294.22996 50.74997 294.22996 56.69362 Z M 283.46818 56.69362 "/>
<text fill="#ffffff" xml:space="preserve" transform="matrix(1 0 -0 1 351.096 18.013005)" font-size="9.9626" font-family="CMMI10" font-style="italic"><tspan y="-4.346" x="-61.359">b</tspan></text>
<text fill="#ffffff" xml:space="preserve" transform="matrix(1 0 -0 1 351.096 18.013005)" font-size="6.9738" font-family="CMR7"><tspan y="-2.8520003" x="-57.084">3</tspan></text>
<path transform="matrix(1,0,0,-1,10.640999,67.649)" stroke-width=".3985" stroke-linecap="butt" stroke-miterlimit="10" stroke-linejoin="miter" fill="none" stroke="#000000" d="M 198.42774 46.2188 L 198.42774 10.96103 "/>
<path transform="matrix(1,0,0,-1,10.640999,67.649)" stroke-width=".3985" stroke-linecap="butt" stroke-miterlimit="10" stroke-linejoin="miter" fill="none" stroke="#000000" d="M 207.79602 52.00955 L 245.3182 33.24829 "/>
<path transform="matrix(1,0,0,-1,10.640999,67.649)" stroke-width=".3985" stroke-linecap="butt" stroke-miterlimit="10" stroke-linejoin="miter" fill="none" stroke="#000000" d="M 208.90256 56.69362 L 272.50715 56.69362 "/>
<path transform="matrix(1,0,0,-1,10.640999,67.649)" stroke-width=".3985" stroke-linecap="butt" stroke-miterlimit="10" stroke-linejoin="miter" fill="none" stroke="#000000" d="M 219.36774 20.93999 L 206.17836 7.75061 "/>
<path transform="matrix(1,0,0,-1,10.640999,67.649)" stroke-width=".3985" stroke-linecap="butt" stroke-miterlimit="10" stroke-linejoin="miter" fill="none" stroke="#000000" d="M 237.24936 28.3468 L 244.16033 28.3468 "/>
<path transform="matrix(1,0,0,-1,10.640999,67.649)" stroke-width=".3985" stroke-linecap="butt" stroke-miterlimit="10" stroke-linejoin="miter" fill="none" stroke="#000000" d="M 236.14282 33.03087 L 273.665 51.79213 "/>
<path transform="matrix(1,0,0,-1,10.640999,67.649)" stroke-width=".3985" stroke-linecap="butt" stroke-miterlimit="10" stroke-linejoin="miter" fill="none" stroke="#000000" d="M 272.99336 0 L 209.38878 0 "/>
<path transform="matrix(1,0,0,-1,10.640999,67.649)" stroke-width=".3985" stroke-linecap="butt" stroke-miterlimit="10" stroke-linejoin="miter" fill="none" stroke="#000000" d="M 276.06138 7.4068 L 262.87199 20.59618 "/>
<path transform="matrix(1,0,0,-1,10.640999,67.649)" stroke-width=".3985" stroke-linecap="butt" stroke-miterlimit="10" stroke-linejoin="miter" fill="none" stroke="#000000" d="M 283.46818 10.47481 L 283.46818 45.73257 "/>
<path transform="matrix(1,0,0,-1,10.640999,67.649)" stroke-width=".3985" stroke-linecap="butt" stroke-miterlimit="10" stroke-linejoin="miter" fill="none" stroke="#000000" d="M 113.38724 28.3468 L 169.62258 28.3468 "/>
<path transform="matrix(1,0,0,-1,180.26358,39.3022)" stroke-width=".31879" stroke-linecap="round" stroke-linejoin="round" fill="none" stroke="#000000" d="M -1.19551 1.59401 C -1.09587 .99626 0 .09961 .29886 0 C 0 -.09961 -1.09587 -.99626 -1.19551 -1.59401 "/>
</g>
</svg>
