<?xml version="1.0" encoding="UTF-8" standalone="no"?>
<!DOCTYPE svg PUBLIC "-//W3C//DTD SVG 1.1//EN" "http://www.w3.org/Graphics/SVG/1.1/DTD/svg11.dtd">
<svg xmlns="http://www.w3.org/2000/svg" xmlns:xlink="http://www.w3.org/1999/xlink" version="1.1" width="938.69pt" height="260.47pt" viewBox="0 0 938.69 260.47">
<g enable-background="new">
<path transform="matrix(1,0,0,-1,185.88,161.689)" stroke-width=".3985" stroke-linecap="butt" stroke-miterlimit="10" stroke-linejoin="miter" fill="none" stroke="#000000" d="M 0 0 "/>
<text xml:space="preserve" transform="matrix(1 0 -0 1 75.520008 73.711)" font-size="7.9701" font-family="CMMI8" font-style="italic"><tspan y="89.694" x="113.88">v</tspan></text>
<path transform="matrix(1,0,0,-1,185.88,161.689)" stroke-width=".3985" stroke-linecap="butt" stroke-miterlimit="10" stroke-linejoin="miter" fill="none" stroke="#000000" d="M 0 85.04045 "/>
<text xml:space="preserve" transform="matrix(1 0 -0 1 67.47301 -17.672005)" font-size="7.9701" font-family="CMMI8" font-style="italic"><tspan y="89.694" x="113.88">u</tspan></text>
<text xml:space="preserve" transform="matrix(1 0 -0 1 67.47301 -17.672005)" font-size="5.9776" font-family="CMR6"><tspan y="90.801" x="118.783">1</tspan></text>
<path transform="matrix(1,0,0,-1,185.88,161.689)" stroke-width=".3985" stroke-linecap="butt" stroke-miterlimit="10" stroke-linejoin="miter" fill="none" stroke="#000000" d="M -73.64738 42.52022 "/>
<text xml:space="preserve" transform="matrix(1 0 -0 1 -6.173996 24.847996)" font-size="7.9701" font-family="CMMI8" font-style="italic"><tspan y="89.694" x="113.88">u</tspan></text>
<text xml:space="preserve" transform="matrix(1 0 -0 1 -6.173996 24.847996)" font-size="5.9776" font-family="CMR6"><tspan y="90.801" x="118.783">2</tspan></text>
<path transform="matrix(1,0,0,-1,185.88,161.689)" stroke-width=".3985" stroke-linecap="butt" stroke-miterlimit="10" stroke-linejoin="miter" fill="none" stroke="#000000" d="M -73.64738 -42.52022 "/>
<text xml:space="preserve" transform="matrix(1 0 -0 1 -14.220993 121.466999)" font-size="7.9701" font-family="CMMI8" font-style="italic"><tspan y="89.694" x="113.88">u</tspan></text>
<text xml:space="preserve" transform="matrix(1 0 -0 1 -14.220993 121.466999)" font-size="5.9776" font-family="CMR6"><tspan y="90.801" x="118.783">3</tspan></text>
<path transform="matrix(1,0,0,-1,185.88,161.689)" stroke-width=".3985" stroke-linecap="butt" stroke-miterlimit="10" stroke-linejoin="miter" fill="none" stroke="#000000" d="M 0 -85.04045 "/>
<text xml:space="preserve" transform="matrix(1 0 -0 1 67.47301 163.987)" font-size="7.9701" font-family="CMMI8" font-style="italic"><tspan y="89.694" x="113.88">u</tspan></text>
<text xml:space="preserve" transform="matrix(1 0 -0 1 67.47301 163.987)" font-size="5.9776" font-family="CMR6"><tspan y="90.801" x="118.783">4</tspan></text>
<path transform="matrix(1,0,0,-1,185.88,161.689)" stroke-width=".3985" stroke-linecap="butt" stroke-miterlimit="10" stroke-linejoin="miter" fill="none" stroke="#000000" d="M 73.64738 -42.52022 "/>
<text xml:space="preserve" transform="matrix(1 0 -0 1 149.167 121.466999)" font-size="7.9701" font-family="CMMI8" font-style="italic"><tspan y="89.694" x="113.88">u</tspan></text>
<text xml:space="preserve" transform="matrix(1 0 -0 1 149.167 121.466999)" font-size="5.9776" font-family="CMR6"><tspan y="90.801" x="118.783">5</tspan></text>
<path transform="matrix(1,0,0,-1,185.88,161.689)" stroke-width=".3985" stroke-linecap="butt" stroke-miterlimit="10" stroke-linejoin="miter" fill="none" stroke="#000000" d="M 73.64738 42.52022 "/>
<text xml:space="preserve" transform="matrix(1 0 -0 1 149.167 24.847996)" font-size="7.9701" font-family="CMMI8" font-style="italic"><tspan y="89.694" x="113.88">u</tspan></text>
<text xml:space="preserve" transform="matrix(1 0 -0 1 149.167 24.847996)" font-size="5.9776" font-family="CMR6"><tspan y="90.801" x="118.783">6</tspan></text>
<path transform="matrix(1,0,0,-1,185.88,161.689)" stroke-width=".3985" stroke-linecap="butt" stroke-miterlimit="10" stroke-linejoin="miter" fill="none" stroke="#000000" d="M 0 0 L 73.64738 42.52022 "/>
<path transform="matrix(1,0,0,-1,185.88,161.689)" stroke-width=".3985" stroke-linecap="butt" stroke-miterlimit="10" stroke-linejoin="miter" fill="none" stroke="#000000" d="M 0 0 L 0 85.04045 "/>
<path transform="matrix(1,0,0,-1,185.88,161.689)" stroke-width=".3985" stroke-linecap="butt" stroke-miterlimit="10" stroke-linejoin="miter" fill="none" stroke="#000000" d="M 0 0 L -73.64738 42.52022 "/>
<path transform="matrix(1,0,0,-1,185.88,161.689)" stroke-width=".3985" stroke-linecap="butt" stroke-miterlimit="10" stroke-linejoin="miter" fill="none" stroke="#000000" d="M 0 0 L -73.64738 -42.52022 "/>
<path transform="matrix(1,0,0,-1,185.88,161.689)" stroke-width=".3985" stroke-linecap="butt" stroke-miterlimit="10" stroke-linejoin="miter" fill="none" stroke="#000000" d="M 0 0 L 0 -85.04045 "/>
<path transform="matrix(1,0,0,-1,185.88,161.689)" stroke-width=".3985" stroke-linecap="butt" stroke-miterlimit="10" stroke-linejoin="miter" fill="none" stroke="#000000" d="M 0 0 L 73.64738 -42.52022 "/>
<path transform="matrix(1,0,0,-1,185.88,161.689)" stroke-width=".3985" stroke-linecap="butt" stroke-miterlimit="10" stroke-linejoin="miter" fill="none" stroke="#000000" d="M 73.64738 42.52022 L 0 85.04045 L -73.64738 42.52022 L -73.64738 -42.52022 L 0 -85.04045 L 73.64738 -42.52022 Z "/>
<path transform="matrix(1,0,0,-1,185.88,161.689)" d="M .99628 0 C .99628 .55023 .55023 .99628 0 .99628 C -.55023 .99628 -.99628 .55023 -.99628 0 C -.99628 -.55023 -.55023 -.99628 0 -.99628 C .55023 -.99628 .99628 -.55023 .99628 0 Z M 0 0 "/>
<path transform="matrix(1,0,0,-1,185.88,161.689)" stroke-width=".3985" stroke-linecap="butt" stroke-miterlimit="10" stroke-linejoin="miter" fill="none" stroke="#000000" d="M .99628 0 C .99628 .55023 .55023 .99628 0 .99628 C -.55023 .99628 -.99628 .55023 -.99628 0 C -.99628 -.55023 -.55023 -.99628 0 -.99628 C .55023 -.99628 .99628 -.55023 .99628 0 Z M 0 0 "/>
<path transform="matrix(1,0,0,-1,185.88,161.689)" d="M .99628 85.04045 C .99628 85.59068 .55023 86.03673 0 86.03673 C -.55023 86.03673 -.99628 85.59068 -.99628 85.04045 C -.99628 84.49022 -.55023 84.04417 0 84.04417 C .55023 84.04417 .99628 84.49022 .99628 85.04045 Z M 0 85.04045 "/>
<path transform="matrix(1,0,0,-1,185.88,161.689)" stroke-width=".3985" stroke-linecap="butt" stroke-miterlimit="10" stroke-linejoin="miter" fill="none" stroke="#000000" d="M .99628 85.04045 C .99628 85.59068 .55023 86.03673 0 86.03673 C -.55023 86.03673 -.99628 85.59068 -.99628 85.04045 C -.99628 84.49022 -.55023 84.04417 0 84.04417 C .55023 84.04417 .99628 84.49022 .99628 85.04045 Z M 0 85.04045 "/>
<path transform="matrix(1,0,0,-1,185.88,161.689)" d="M -146.29851 85.04045 C -146.29851 85.59068 -146.74456 86.03673 -147.29479 86.03673 C -147.84503 86.03673 -148.29106 85.59068 -148.29106 85.04045 C -148.29106 84.49022 -147.84503 84.04417 -147.29479 84.04417 C -146.74456 84.04417 -146.29851 84.49022 -146.29851 85.04045 Z M -147.29479 85.04045 "/>
<path transform="matrix(1,0,0,-1,185.88,161.689)" stroke-width=".3985" stroke-linecap="butt" stroke-miterlimit="10" stroke-linejoin="miter" fill="none" stroke="#000000" d="M -146.29851 85.04045 C -146.29851 85.59068 -146.74456 86.03673 -147.29479 86.03673 C -147.84503 86.03673 -148.29106 85.59068 -148.29106 85.04045 C -148.29106 84.49022 -147.84503 84.04417 -147.29479 84.04417 C -146.74456 84.04417 -146.29851 84.49022 -146.29851 85.04045 Z M -147.29479 85.04045 "/>
<text xml:space="preserve" transform="matrix(1 0 -0 1 -110.56199 -11.883003)" font-size="7.9701" font-family="CMMI8" font-style="italic"><tspan y="89.694" x="113.88">w</tspan></text>
<text xml:space="preserve" transform="matrix(1 0 -0 1 -110.56199 -11.883003)" font-size="5.9776" font-family="CMR6"><tspan y="90.801" x="119.957">1</tspan></text>
<text xml:space="preserve" transform="matrix(1 0 -0 1 -110.56199 -11.883003)" font-size="7.9701" font-family="CMR8"><tspan y="89.694" x="126.46">=</tspan></text>
<text xml:space="preserve" transform="matrix(1 0 -0 1 -110.56199 -11.883003)" font-size="7.9701" font-family="CMMI8" font-style="italic"><tspan y="89.694" x="135.399">w</tspan></text>
<text xml:space="preserve" transform="matrix(1 0 -0 1 -110.56199 -11.883003)" font-size="5.9776" font-family="CMR6"><tspan y="90.801" x="141.476">2</tspan></text>
<path transform="matrix(1,0,0,-1,185.88,161.689)" d="M -72.65111 -42.52022 C -72.65111 -41.96999 -73.09715 -41.52394 -73.64738 -41.52394 C -74.19763 -41.52394 -74.64366 -41.96999 -74.64366 -42.52022 C -74.64366 -43.07045 -74.19763 -43.5165 -73.64738 -43.5165 C -73.09715 -43.5165 -72.65111 -43.07045 -72.65111 -42.52022 Z M -73.64738 -42.52022 "/>
<path transform="matrix(1,0,0,-1,185.88,161.689)" stroke-width=".3985" stroke-linecap="butt" stroke-miterlimit="10" stroke-linejoin="miter" fill="none" stroke="#000000" d="M -72.65111 -42.52022 C -72.65111 -41.96999 -73.09715 -41.52394 -73.64738 -41.52394 C -74.19763 -41.52394 -74.64366 -41.96999 -74.64366 -42.52022 C -74.64366 -43.07045 -74.19763 -43.5165 -73.64738 -43.5165 C -73.09715 -43.5165 -72.65111 -43.07045 -72.65111 -42.52022 Z M -73.64738 -42.52022 "/>
<path transform="matrix(1,0,0,-1,185.88,161.689)" stroke-width=".79701" stroke-linecap="butt" stroke-miterlimit="10" stroke-linejoin="miter" fill="none" stroke="#000000" d="M 0 0 L 0 85.04045 "/>
<path transform="matrix(1,0,0,-1,185.88,161.689)" stroke-width=".79701" stroke-linecap="butt" stroke-miterlimit="10" stroke-linejoin="miter" fill="none" stroke="#000000" d="M 0 85.04045 L -147.29479 85.04045 "/>
<path transform="matrix(1,0,0,-1,185.88,161.689)" stroke-width=".79701" stroke-linecap="butt" stroke-miterlimit="10" stroke-linejoin="miter" fill="none" stroke="#000000" d="M -147.29479 85.04045 L -73.64738 -42.52022 "/>
<path transform="matrix(1,0,0,-1,185.88,161.689)" stroke-width=".79701" stroke-linecap="butt" stroke-miterlimit="10" stroke-linejoin="miter" fill="none" stroke="#000000" d="M -73.64738 -42.52022 L 0 0 "/>
<path transform="matrix(1,0,0,-1,185.88,161.689)" stroke-width=".3985" stroke-linecap="butt" stroke-miterlimit="10" stroke-linejoin="miter" fill="none" stroke="#000000" d="M -147.29479 85.04045 L -73.64738 42.52022 "/>
<path transform="matrix(1,0,0,-1,185.88,161.689)" stroke-width=".3985" stroke-linecap="butt" stroke-miterlimit="10" stroke-linejoin="miter" fill="none" stroke="#000000" d="M 325.98844 0 "/>
<text xml:space="preserve" transform="matrix(1 0 -0 1 401.508 73.711)" font-size="7.9701" font-family="CMMI8" font-style="italic"><tspan y="89.694" x="113.88">v</tspan></text>
<path transform="matrix(1,0,0,-1,185.88,161.689)" stroke-width=".3985" stroke-linecap="butt" stroke-miterlimit="10" stroke-linejoin="miter" fill="none" stroke="#000000" d="M 325.98844 85.04045 "/>
<text xml:space="preserve" transform="matrix(1 0 -0 1 393.461 -17.672005)" font-size="7.9701" font-family="CMMI8" font-style="italic"><tspan y="89.694" x="113.88">u</tspan></text>
<text xml:space="preserve" transform="matrix(1 0 -0 1 393.461 -17.672005)" font-size="5.9776" font-family="CMR6"><tspan y="90.801" x="118.783">1</tspan></text>
<path transform="matrix(1,0,0,-1,185.88,161.689)" stroke-width=".3985" stroke-linecap="butt" stroke-miterlimit="10" stroke-linejoin="miter" fill="none" stroke="#000000" d="M 252.34104 42.52022 "/>
<text xml:space="preserve" transform="matrix(1 0 -0 1 327.861 30.636994)" font-size="7.9701" font-family="CMMI8" font-style="italic"><tspan y="89.694" x="113.88">u</tspan></text>
<text xml:space="preserve" transform="matrix(1 0 -0 1 327.861 30.636994)" font-size="5.9776" font-family="CMR6"><tspan y="90.801" x="118.783">2</tspan></text>
<path transform="matrix(1,0,0,-1,185.88,161.689)" stroke-width=".3985" stroke-linecap="butt" stroke-miterlimit="10" stroke-linejoin="miter" fill="none" stroke="#000000" d="M 252.34104 -42.52022 "/>
<text xml:space="preserve" transform="matrix(1 0 -0 1 327.861 115.67799)" font-size="7.9701" font-family="CMMI8" font-style="italic"><tspan y="89.694" x="113.88">u</tspan></text>
<text xml:space="preserve" transform="matrix(1 0 -0 1 327.861 115.67799)" font-size="5.9776" font-family="CMR6"><tspan y="90.801" x="118.783">3</tspan></text>
<path transform="matrix(1,0,0,-1,185.88,161.689)" stroke-width=".3985" stroke-linecap="butt" stroke-miterlimit="10" stroke-linejoin="miter" fill="none" stroke="#000000" d="M 325.98844 -85.04045 "/>
<text xml:space="preserve" transform="matrix(1 0 -0 1 393.461 163.987)" font-size="7.9701" font-family="CMMI8" font-style="italic"><tspan y="89.694" x="113.88">u</tspan></text>
<text xml:space="preserve" transform="matrix(1 0 -0 1 393.461 163.987)" font-size="5.9776" font-family="CMR6"><tspan y="90.801" x="118.783">4</tspan></text>
<path transform="matrix(1,0,0,-1,185.88,161.689)" stroke-width=".3985" stroke-linecap="butt" stroke-miterlimit="10" stroke-linejoin="miter" fill="none" stroke="#000000" d="M 399.63584 -42.52022 "/>
<text xml:space="preserve" transform="matrix(1 0 -0 1 475.156 121.466999)" font-size="7.9701" font-family="CMMI8" font-style="italic"><tspan y="89.694" x="113.88">u</tspan></text>
<text xml:space="preserve" transform="matrix(1 0 -0 1 475.156 121.466999)" font-size="5.9776" font-family="CMR6"><tspan y="90.801" x="118.783">5</tspan></text>
<path transform="matrix(1,0,0,-1,185.88,161.689)" stroke-width=".3985" stroke-linecap="butt" stroke-miterlimit="10" stroke-linejoin="miter" fill="none" stroke="#000000" d="M 399.63584 42.52022 "/>
<text xml:space="preserve" transform="matrix(1 0 -0 1 475.156 24.847996)" font-size="7.9701" font-family="CMMI8" font-style="italic"><tspan y="89.694" x="113.88">u</tspan></text>
<text xml:space="preserve" transform="matrix(1 0 -0 1 475.156 24.847996)" font-size="5.9776" font-family="CMR6"><tspan y="90.801" x="118.783">6</tspan></text>
<path transform="matrix(1,0,0,-1,185.88,161.689)" stroke-width=".3985" stroke-linecap="butt" stroke-miterlimit="10" stroke-linejoin="miter" fill="none" stroke="#000000" d="M 325.98844 0 L 399.63584 42.52022 "/>
<path transform="matrix(1,0,0,-1,185.88,161.689)" stroke-width=".3985" stroke-linecap="butt" stroke-miterlimit="10" stroke-linejoin="miter" fill="none" stroke="#000000" d="M 325.98844 0 L 325.98844 85.04045 "/>
<path transform="matrix(1,0,0,-1,185.88,161.689)" stroke-width=".3985" stroke-linecap="butt" stroke-miterlimit="10" stroke-linejoin="miter" fill="none" stroke="#000000" d="M 325.98844 0 L 252.34104 42.52022 "/>
<path transform="matrix(1,0,0,-1,185.88,161.689)" stroke-width=".3985" stroke-linecap="butt" stroke-miterlimit="10" stroke-linejoin="miter" fill="none" stroke="#000000" d="M 325.98844 0 L 252.34104 -42.52022 "/>
<path transform="matrix(1,0,0,-1,185.88,161.689)" stroke-width=".3985" stroke-linecap="butt" stroke-miterlimit="10" stroke-linejoin="miter" fill="none" stroke="#000000" d="M 325.98844 0 L 325.98844 -85.04045 "/>
<path transform="matrix(1,0,0,-1,185.88,161.689)" stroke-width=".3985" stroke-linecap="butt" stroke-miterlimit="10" stroke-linejoin="miter" fill="none" stroke="#000000" d="M 325.98844 0 L 399.63584 -42.52022 "/>
<path transform="matrix(1,0,0,-1,185.88,161.689)" stroke-width=".3985" stroke-linecap="butt" stroke-miterlimit="10" stroke-linejoin="miter" fill="none" stroke="#000000" d="M 399.63584 42.52022 L 325.98844 85.04045 L 252.34104 42.52022 L 252.34104 -42.52022 L 325.98844 -85.04045 L 399.63584 -42.52022 Z "/>
<path transform="matrix(1,0,0,-1,185.88,161.689)" d="M 326.9847 0 C 326.9847 .55023 326.53868 .99628 325.98844 .99628 C 325.4382 .99628 324.99217 .55023 324.99217 0 C 324.99217 -.55023 325.4382 -.99628 325.98844 -.99628 C 326.53868 -.99628 326.9847 -.55023 326.9847 0 Z M 325.98844 0 "/>
<path transform="matrix(1,0,0,-1,185.88,161.689)" stroke-width=".3985" stroke-linecap="butt" stroke-miterlimit="10" stroke-linejoin="miter" fill="none" stroke="#000000" d="M 326.9847 0 C 326.9847 .55023 326.53868 .99628 325.98844 .99628 C 325.4382 .99628 324.99217 .55023 324.99217 0 C 324.99217 -.55023 325.4382 -.99628 325.98844 -.99628 C 326.53868 -.99628 326.9847 -.55023 326.9847 0 Z M 325.98844 0 "/>
<path transform="matrix(1,0,0,-1,185.88,161.689)" d="M 326.9847 85.04045 C 326.9847 85.59068 326.53868 86.03673 325.98844 86.03673 C 325.4382 86.03673 324.99217 85.59068 324.99217 85.04045 C 324.99217 84.49022 325.4382 84.04417 325.98844 84.04417 C 326.53868 84.04417 326.9847 84.49022 326.9847 85.04045 Z M 325.98844 85.04045 "/>
<path transform="matrix(1,0,0,-1,185.88,161.689)" stroke-width=".3985" stroke-linecap="butt" stroke-miterlimit="10" stroke-linejoin="miter" fill="none" stroke="#000000" d="M 326.9847 85.04045 C 326.9847 85.59068 326.53868 86.03673 325.98844 86.03673 C 325.4382 86.03673 324.99217 85.59068 324.99217 85.04045 C 324.99217 84.49022 325.4382 84.04417 325.98844 84.04417 C 326.53868 84.04417 326.9847 84.49022 326.9847 85.04045 Z M 325.98844 85.04045 "/>
<path transform="matrix(1,0,0,-1,185.88,161.689)" d="M 156.9038 0 C 156.9038 .55023 156.45775 .99628 155.90752 .99628 C 155.35729 .99628 154.91124 .55023 154.91124 0 C 154.91124 -.55023 155.35729 -.99628 155.90752 -.99628 C 156.45775 -.99628 156.9038 -.55023 156.9038 0 Z M 155.90752 0 "/>
<path transform="matrix(1,0,0,-1,185.88,161.689)" stroke-width=".3985" stroke-linecap="butt" stroke-miterlimit="10" stroke-linejoin="miter" fill="none" stroke="#000000" d="M 156.9038 0 C 156.9038 .55023 156.45775 .99628 155.90752 .99628 C 155.35729 .99628 154.91124 .55023 154.91124 0 C 154.91124 -.55023 155.35729 -.99628 155.90752 -.99628 C 156.45775 -.99628 156.9038 -.55023 156.9038 0 Z M 155.90752 0 "/>
<text xml:space="preserve" transform="matrix(1 0 -0 1 192.64002 73.157)" font-size="7.9701" font-family="CMMI8" font-style="italic"><tspan y="89.694" x="113.88">w</tspan></text>
<text xml:space="preserve" transform="matrix(1 0 -0 1 192.64002 73.157)" font-size="5.9776" font-family="CMR6"><tspan y="90.801" x="119.957">1</tspan></text>
<text xml:space="preserve" transform="matrix(1 0 -0 1 192.64002 73.157)" font-size="7.9701" font-family="CMR8"><tspan y="89.694" x="126.46">=</tspan></text>
<text xml:space="preserve" transform="matrix(1 0 -0 1 192.64002 73.157)" font-size="7.9701" font-family="CMMI8" font-style="italic"><tspan y="89.694" x="135.399">w</tspan></text>
<text xml:space="preserve" transform="matrix(1 0 -0 1 192.64002 73.157)" font-size="5.9776" font-family="CMR6"><tspan y="90.801" x="141.476">3</tspan></text>
<path transform="matrix(1,0,0,-1,185.88,161.689)" d="M 326.9847 -85.04045 C 326.9847 -84.49022 326.53868 -84.04417 325.98844 -84.04417 C 325.4382 -84.04417 324.99217 -84.49022 324.99217 -85.04045 C 324.99217 -85.59068 325.4382 -86.03673 325.98844 -86.03673 C 326.53868 -86.03673 326.9847 -85.59068 326.9847 -85.04045 Z M 325.98844 -85.04045 "/>
<path transform="matrix(1,0,0,-1,185.88,161.689)" stroke-width=".3985" stroke-linecap="butt" stroke-miterlimit="10" stroke-linejoin="miter" fill="none" stroke="#000000" d="M 326.9847 -85.04045 C 326.9847 -84.49022 326.53868 -84.04417 325.98844 -84.04417 C 325.4382 -84.04417 324.99217 -84.49022 324.99217 -85.04045 C 324.99217 -85.59068 325.4382 -86.03673 325.98844 -86.03673 C 326.53868 -86.03673 326.9847 -85.59068 326.9847 -85.04045 Z M 325.98844 -85.04045 "/>
<path transform="matrix(1,0,0,-1,185.88,161.689)" stroke-width=".79701" stroke-linecap="butt" stroke-miterlimit="10" stroke-linejoin="miter" fill="none" stroke="#000000" d="M 325.98844 0 L 325.98844 85.04045 "/>
<path transform="matrix(1,0,0,-1,185.88,161.689)" stroke-width=".79701" stroke-linecap="butt" stroke-miterlimit="10" stroke-linejoin="miter" fill="none" stroke="#000000" d="M 325.98844 85.04045 L 155.90752 0 "/>
<path transform="matrix(1,0,0,-1,185.88,161.689)" stroke-width=".79701" stroke-linecap="butt" stroke-miterlimit="10" stroke-linejoin="miter" fill="none" stroke="#000000" d="M 155.90752 0 L 325.98844 -85.04045 "/>
<path transform="matrix(1,0,0,-1,185.88,161.689)" stroke-width=".79701" stroke-linecap="butt" stroke-miterlimit="10" stroke-linejoin="miter" fill="none" stroke="#000000" d="M 325.98844 -85.04045 L 325.98844 0 "/>
<path transform="matrix(1,0,0,-1,185.88,161.689)" stroke-width=".3985" stroke-linecap="butt" stroke-miterlimit="10" stroke-linejoin="miter" fill="none" stroke="#000000" d="M 155.90752 0 L 252.34104 42.52022 "/>
<path transform="matrix(1,0,0,-1,185.88,161.689)" stroke-width=".3985" stroke-linecap="butt" stroke-miterlimit="10" stroke-linejoin="miter" fill="none" stroke="#000000" d="M 155.90752 0 L 252.34104 -42.52022 "/>
<path transform="matrix(1,0,0,-1,185.88,161.689)" stroke-width=".3985" stroke-linecap="butt" stroke-miterlimit="10" stroke-linejoin="miter" fill="none" stroke="#000000" d="M 566.9364 0 "/>
<text xml:space="preserve" transform="matrix(1 0 -0 1 642.456 73.711)" font-size="7.9701" font-family="CMMI8" font-style="italic"><tspan y="89.694" x="113.88">v</tspan></text>
<path transform="matrix(1,0,0,-1,185.88,161.689)" stroke-width=".3985" stroke-linecap="butt" stroke-miterlimit="10" stroke-linejoin="miter" fill="none" stroke="#000000" d="M 566.9364 85.04045 "/>
<text xml:space="preserve" transform="matrix(1 0 -0 1 634.409 -17.672005)" font-size="7.9701" font-family="CMMI8" font-style="italic"><tspan y="89.694" x="113.88">u</tspan></text>
<text xml:space="preserve" transform="matrix(1 0 -0 1 634.409 -17.672005)" font-size="5.9776" font-family="CMR6"><tspan y="90.801" x="118.783">1</tspan></text>
<path transform="matrix(1,0,0,-1,185.88,161.689)" stroke-width=".3985" stroke-linecap="butt" stroke-miterlimit="10" stroke-linejoin="miter" fill="none" stroke="#000000" d="M 493.28904 42.52022 "/>
<text xml:space="preserve" transform="matrix(1 0 -0 1 552.715 24.847996)" font-size="7.9701" font-family="CMMI8" font-style="italic"><tspan y="89.694" x="113.88">u</tspan></text>
<text xml:space="preserve" transform="matrix(1 0 -0 1 552.715 24.847996)" font-size="5.9776" font-family="CMR6"><tspan y="90.801" x="118.783">2</tspan></text>
<path transform="matrix(1,0,0,-1,185.88,161.689)" stroke-width=".3985" stroke-linecap="butt" stroke-miterlimit="10" stroke-linejoin="miter" fill="none" stroke="#000000" d="M 493.28904 -42.52022 "/>
<text xml:space="preserve" transform="matrix(1 0 -0 1 552.715 121.466999)" font-size="7.9701" font-family="CMMI8" font-style="italic"><tspan y="89.694" x="113.88">u</tspan></text>
<text xml:space="preserve" transform="matrix(1 0 -0 1 552.715 121.466999)" font-size="5.9776" font-family="CMR6"><tspan y="90.801" x="118.783">3</tspan></text>
<path transform="matrix(1,0,0,-1,185.88,161.689)" stroke-width=".3985" stroke-linecap="butt" stroke-miterlimit="10" stroke-linejoin="miter" fill="none" stroke="#000000" d="M 566.9364 -85.04045 "/>
<text xml:space="preserve" transform="matrix(1 0 -0 1 634.409 163.987)" font-size="7.9701" font-family="CMMI8" font-style="italic"><tspan y="89.694" x="113.88">u</tspan></text>
<text xml:space="preserve" transform="matrix(1 0 -0 1 634.409 163.987)" font-size="5.9776" font-family="CMR6"><tspan y="90.801" x="118.783">4</tspan></text>
<path transform="matrix(1,0,0,-1,185.88,161.689)" stroke-width=".3985" stroke-linecap="butt" stroke-miterlimit="10" stroke-linejoin="miter" fill="none" stroke="#000000" d="M 640.5838 -42.52022 "/>
<text xml:space="preserve" transform="matrix(1 0 -0 1 716.104 121.466999)" font-size="7.9701" font-family="CMMI8" font-style="italic"><tspan y="89.694" x="113.88">u</tspan></text>
<text xml:space="preserve" transform="matrix(1 0 -0 1 716.104 121.466999)" font-size="5.9776" font-family="CMR6"><tspan y="90.801" x="118.783">5</tspan></text>
<path transform="matrix(1,0,0,-1,185.88,161.689)" stroke-width=".3985" stroke-linecap="butt" stroke-miterlimit="10" stroke-linejoin="miter" fill="none" stroke="#000000" d="M 640.5838 42.52022 "/>
<text xml:space="preserve" transform="matrix(1 0 -0 1 716.104 24.847996)" font-size="7.9701" font-family="CMMI8" font-style="italic"><tspan y="89.694" x="113.88">u</tspan></text>
<text xml:space="preserve" transform="matrix(1 0 -0 1 716.104 24.847996)" font-size="5.9776" font-family="CMR6"><tspan y="90.801" x="118.783">6</tspan></text>
<path transform="matrix(1,0,0,-1,185.88,161.689)" stroke-width=".3985" stroke-linecap="butt" stroke-miterlimit="10" stroke-linejoin="miter" fill="none" stroke="#000000" d="M 566.9364 0 L 640.5838 42.52022 "/>
<path transform="matrix(1,0,0,-1,185.88,161.689)" stroke-width=".3985" stroke-linecap="butt" stroke-miterlimit="10" stroke-linejoin="miter" fill="none" stroke="#000000" d="M 566.9364 0 L 566.9364 85.04045 "/>
<path transform="matrix(1,0,0,-1,185.88,161.689)" stroke-width=".3985" stroke-linecap="butt" stroke-miterlimit="10" stroke-linejoin="miter" fill="none" stroke="#000000" d="M 566.9364 0 L 493.28904 42.52022 "/>
<path transform="matrix(1,0,0,-1,185.88,161.689)" stroke-width=".3985" stroke-linecap="butt" stroke-miterlimit="10" stroke-linejoin="miter" fill="none" stroke="#000000" d="M 566.9364 0 L 493.28904 -42.52022 "/>
<path transform="matrix(1,0,0,-1,185.88,161.689)" stroke-width=".3985" stroke-linecap="butt" stroke-miterlimit="10" stroke-linejoin="miter" fill="none" stroke="#000000" d="M 566.9364 0 L 566.9364 -85.04045 "/>
<path transform="matrix(1,0,0,-1,185.88,161.689)" stroke-width=".3985" stroke-linecap="butt" stroke-miterlimit="10" stroke-linejoin="miter" fill="none" stroke="#000000" d="M 566.9364 0 L 640.5838 -42.52022 "/>
<path transform="matrix(1,0,0,-1,185.88,161.689)" stroke-width=".3985" stroke-linecap="butt" stroke-miterlimit="10" stroke-linejoin="miter" fill="none" stroke="#000000" d="M 640.5838 42.52022 L 566.9364 85.04045 L 493.28904 42.52022 L 493.28904 -42.52022 L 566.9364 -85.04045 L 640.5838 -42.52022 Z "/>
<path transform="matrix(1,0,0,-1,185.88,161.689)" d="M 567.93276 0 C 567.93276 .55023 567.48666 .99628 566.9364 .99628 C 566.3862 .99628 565.9402 .55023 565.9402 0 C 565.9402 -.55023 566.3862 -.99628 566.9364 -.99628 C 567.48666 -.99628 567.93276 -.55023 567.93276 0 Z M 566.9364 0 "/>
<path transform="matrix(1,0,0,-1,185.88,161.689)" stroke-width=".3985" stroke-linecap="butt" stroke-miterlimit="10" stroke-linejoin="miter" fill="none" stroke="#000000" d="M 567.93276 0 C 567.93276 .55023 567.48666 .99628 566.9364 .99628 C 566.3862 .99628 565.9402 .55023 565.9402 0 C 565.9402 -.55023 566.3862 -.99628 566.9364 -.99628 C 567.48666 -.99628 567.93276 -.55023 567.93276 0 Z M 566.9364 0 "/>
<path transform="matrix(1,0,0,-1,185.88,161.689)" d="M 567.93276 85.04045 C 567.93276 85.59068 567.48666 86.03673 566.9364 86.03673 C 566.3862 86.03673 565.9402 85.59068 565.9402 85.04045 C 565.9402 84.49022 566.3862 84.04417 566.9364 84.04417 C 567.48666 84.04417 567.93276 84.49022 567.93276 85.04045 Z M 566.9364 85.04045 "/>
<path transform="matrix(1,0,0,-1,185.88,161.689)" stroke-width=".3985" stroke-linecap="butt" stroke-miterlimit="10" stroke-linejoin="miter" fill="none" stroke="#000000" d="M 567.93276 85.04045 C 567.93276 85.59068 567.48666 86.03673 566.9364 86.03673 C 566.3862 86.03673 565.9402 85.59068 565.9402 85.04045 C 565.9402 84.49022 566.3862 84.04417 566.9364 84.04417 C 567.48666 84.04417 567.93276 84.49022 567.93276 85.04045 Z M 566.9364 85.04045 "/>
<path transform="matrix(1,0,0,-1,185.88,161.689)" d="M 715.22756 85.04045 C 715.22756 85.59068 714.78146 86.03673 714.2312 86.03673 C 713.681 86.03673 713.2349 85.59068 713.2349 85.04045 C 713.2349 84.49022 713.681 84.04417 714.2312 84.04417 C 714.78146 84.04417 715.22756 84.49022 715.22756 85.04045 Z M 714.2312 85.04045 "/>
<path transform="matrix(1,0,0,-1,185.88,161.689)" stroke-width=".3985" stroke-linecap="butt" stroke-miterlimit="10" stroke-linejoin="miter" fill="none" stroke="#000000" d="M 715.22756 85.04045 C 715.22756 85.59068 714.78146 86.03673 714.2312 86.03673 C 713.681 86.03673 713.2349 85.59068 713.2349 85.04045 C 713.2349 84.49022 713.681 84.04417 714.2312 84.04417 C 714.78146 84.04417 715.22756 84.49022 715.22756 85.04045 Z M 714.2312 85.04045 "/>
<text xml:space="preserve" transform="matrix(1 0 -0 1 789.751 -11.883003)" font-size="7.9701" font-family="CMMI8" font-style="italic"><tspan y="89.694" x="113.88">w</tspan></text>
<text xml:space="preserve" transform="matrix(1 0 -0 1 789.751 -11.883003)" font-size="5.9776" font-family="CMR6"><tspan y="90.801" x="119.957">1</tspan></text>
<text xml:space="preserve" transform="matrix(1 0 -0 1 789.751 -11.883003)" font-size="7.9701" font-family="CMR8"><tspan y="89.694" x="126.46">=</tspan></text>
<text xml:space="preserve" transform="matrix(1 0 -0 1 789.751 -11.883003)" font-size="7.9701" font-family="CMMI8" font-style="italic"><tspan y="89.694" x="135.399">w</tspan></text>
<text xml:space="preserve" transform="matrix(1 0 -0 1 789.751 -11.883003)" font-size="5.9776" font-family="CMR6"><tspan y="90.801" x="141.476">4</tspan></text>
<path transform="matrix(1,0,0,-1,185.88,161.689)" d="M 641.58016 -42.52022 C 641.58016 -41.96999 641.13406 -41.52394 640.5838 -41.52394 C 640.0336 -41.52394 639.5875 -41.96999 639.5875 -42.52022 C 639.5875 -43.07045 640.0336 -43.5165 640.5838 -43.5165 C 641.13406 -43.5165 641.58016 -43.07045 641.58016 -42.52022 Z M 640.5838 -42.52022 "/>
<path transform="matrix(1,0,0,-1,185.88,161.689)" stroke-width=".3985" stroke-linecap="butt" stroke-miterlimit="10" stroke-linejoin="miter" fill="none" stroke="#000000" d="M 641.58016 -42.52022 C 641.58016 -41.96999 641.13406 -41.52394 640.5838 -41.52394 C 640.0336 -41.52394 639.5875 -41.96999 639.5875 -42.52022 C 639.5875 -43.07045 640.0336 -43.5165 640.5838 -43.5165 C 641.13406 -43.5165 641.58016 -43.07045 641.58016 -42.52022 Z M 640.5838 -42.52022 "/>
<path transform="matrix(1,0,0,-1,185.88,161.689)" stroke-width=".79701" stroke-linecap="butt" stroke-miterlimit="10" stroke-linejoin="miter" fill="none" stroke="#000000" d="M 566.9364 0 L 566.9364 85.04045 "/>
<path transform="matrix(1,0,0,-1,185.88,161.689)" stroke-width=".79701" stroke-linecap="butt" stroke-miterlimit="10" stroke-linejoin="miter" fill="none" stroke="#000000" d="M 566.9364 85.04045 L 714.2312 85.04045 "/>
<path transform="matrix(1,0,0,-1,185.88,161.689)" stroke-width=".79701" stroke-linecap="butt" stroke-miterlimit="10" stroke-linejoin="miter" fill="none" stroke="#000000" d="M 714.2312 85.04045 L 640.5838 -42.52022 "/>
<path transform="matrix(1,0,0,-1,185.88,161.689)" stroke-width=".79701" stroke-linecap="butt" stroke-miterlimit="10" stroke-linejoin="miter" fill="none" stroke="#000000" d="M 640.5838 -42.52022 L 566.9364 0 "/>
<path transform="matrix(1,0,0,-1,185.88,161.689)" stroke-width=".3985" stroke-linecap="butt" stroke-miterlimit="10" stroke-linejoin="miter" fill="none" stroke="#000000" d="M 714.2312 85.04045 C 681.3544 141.98505 608.5372 161.49645 551.5926 128.61956 C 519.9856 110.37076 498.49034 78.61113 493.2855 42.4896 "/>
<path transform="matrix(1,0,0,-1,185.88,161.689)" stroke-width=".3985" stroke-linecap="butt" stroke-miterlimit="10" stroke-linejoin="miter" fill="none" stroke="#000000" d="M 714.2312 85.04045 C 747.1081 28.09586 727.5967 -44.72127 670.6521 -77.59816 C 639.0451 -95.84694 600.7944 -98.5829 566.90927 -85.0303 "/>
</g>
</svg>
