<?xml version="1.0" encoding="UTF-8" standalone="no"?>
<!DOCTYPE svg PUBLIC "-//W3C//DTD SVG 1.1//EN" "http://www.w3.org/Graphics/SVG/1.1/DTD/svg11.dtd">
<svg xmlns="http://www.w3.org/2000/svg" xmlns:xlink="http://www.w3.org/1999/xlink" version="1.1" width="253.9pt" height="192.84pt" viewBox="0 0 253.9 192.84">
<g enable-background="new">
<path transform="matrix(1,0,0,-1,164.361,96.422)" stroke-width=".3985" stroke-linecap="butt" stroke-miterlimit="10" stroke-linejoin="miter" fill="none" stroke="#000000" d="M 0 0 "/>
<text xml:space="preserve" transform="matrix(1 0 -0 1 75.51999 73.72)" font-size="7.9701" font-family="CMMI8" font-style="italic"><tspan y="24.418" x="92.361">v</tspan></text>
<path transform="matrix(1,0,0,-1,164.361,96.422)" stroke-width=".3985" stroke-linecap="butt" stroke-miterlimit="10" stroke-linejoin="miter" fill="none" stroke="#000000" d="M 0 85.04045 "/>
<text xml:space="preserve" transform="matrix(1 0 -0 1 67.47299 -17.663002)" font-size="7.9701" font-family="CMMI8" font-style="italic"><tspan y="24.418" x="92.361">u</tspan></text>
<text xml:space="preserve" transform="matrix(1 0 -0 1 67.47299 -17.663002)" font-size="5.9776" font-family="CMR6"><tspan y="25.525" x="97.264">1</tspan></text>
<path transform="matrix(1,0,0,-1,164.361,96.422)" stroke-width=".3985" stroke-linecap="butt" stroke-miterlimit="10" stroke-linejoin="miter" fill="none" stroke="#000000" d="M -73.64738 42.52022 "/>
<text xml:space="preserve" transform="matrix(1 0 -0 1 -6.174011 24.856999)" font-size="7.9701" font-family="CMMI8" font-style="italic"><tspan y="24.418" x="92.361">u</tspan></text>
<text xml:space="preserve" transform="matrix(1 0 -0 1 -6.174011 24.856999)" font-size="5.9776" font-family="CMR6"><tspan y="25.525" x="97.264">2</tspan></text>
<path transform="matrix(1,0,0,-1,164.361,96.422)" stroke-width=".3985" stroke-linecap="butt" stroke-miterlimit="10" stroke-linejoin="miter" fill="none" stroke="#000000" d="M -73.64738 -42.52022 "/>
<text xml:space="preserve" transform="matrix(1 0 -0 1 -6.174011 121.476)" font-size="7.9701" font-family="CMMI8" font-style="italic"><tspan y="24.418" x="92.361">u</tspan></text>
<text xml:space="preserve" transform="matrix(1 0 -0 1 -6.174011 121.476)" font-size="5.9776" font-family="CMR6"><tspan y="25.525" x="97.264">3</tspan></text>
<path transform="matrix(1,0,0,-1,164.361,96.422)" stroke-width=".3985" stroke-linecap="butt" stroke-miterlimit="10" stroke-linejoin="miter" fill="none" stroke="#000000" d="M 0 -85.04045 "/>
<text xml:space="preserve" transform="matrix(1 0 -0 1 67.47299 163.996)" font-size="7.9701" font-family="CMMI8" font-style="italic"><tspan y="24.418" x="92.361">u</tspan></text>
<text xml:space="preserve" transform="matrix(1 0 -0 1 67.47299 163.996)" font-size="5.9776" font-family="CMR6"><tspan y="25.525" x="97.264">4</tspan></text>
<path transform="matrix(1,0,0,-1,164.361,96.422)" stroke-width=".3985" stroke-linecap="butt" stroke-miterlimit="10" stroke-linejoin="miter" fill="none" stroke="#000000" d="M 73.64738 -42.52022 "/>
<text xml:space="preserve" transform="matrix(1 0 -0 1 149.16699 121.476)" font-size="7.9701" font-family="CMMI8" font-style="italic"><tspan y="24.418" x="92.361">u</tspan></text>
<text xml:space="preserve" transform="matrix(1 0 -0 1 149.16699 121.476)" font-size="5.9776" font-family="CMR6"><tspan y="25.525" x="97.264">5</tspan></text>
<path transform="matrix(1,0,0,-1,164.361,96.422)" stroke-width=".3985" stroke-linecap="butt" stroke-miterlimit="10" stroke-linejoin="miter" fill="none" stroke="#000000" d="M 73.64738 42.52022 "/>
<text xml:space="preserve" transform="matrix(1 0 -0 1 149.16699 24.856999)" font-size="7.9701" font-family="CMMI8" font-style="italic"><tspan y="24.418" x="92.361">u</tspan></text>
<text xml:space="preserve" transform="matrix(1 0 -0 1 149.16699 24.856999)" font-size="5.9776" font-family="CMR6"><tspan y="25.525" x="97.264">6</tspan></text>
<path transform="matrix(1,0,0,-1,164.361,96.422)" stroke-width=".3985" stroke-linecap="butt" stroke-miterlimit="10" stroke-linejoin="miter" fill="none" stroke="#000000" d="M 0 0 L 73.64738 42.52022 "/>
<path transform="matrix(1,0,0,-1,164.361,96.422)" stroke-width=".3985" stroke-linecap="butt" stroke-miterlimit="10" stroke-linejoin="miter" fill="none" stroke="#000000" d="M 0 0 L 0 85.04045 "/>
<path transform="matrix(1,0,0,-1,164.361,96.422)" stroke-width=".3985" stroke-linecap="butt" stroke-miterlimit="10" stroke-linejoin="miter" fill="none" stroke="#000000" d="M 0 0 L -73.64738 42.52022 "/>
<path transform="matrix(1,0,0,-1,164.361,96.422)" stroke-width=".3985" stroke-linecap="butt" stroke-miterlimit="10" stroke-linejoin="miter" fill="none" stroke="#000000" d="M 0 0 L -73.64738 -42.52022 "/>
<path transform="matrix(1,0,0,-1,164.361,96.422)" stroke-width=".3985" stroke-linecap="butt" stroke-miterlimit="10" stroke-linejoin="miter" fill="none" stroke="#000000" d="M 0 0 L 0 -85.04045 "/>
<path transform="matrix(1,0,0,-1,164.361,96.422)" stroke-width=".3985" stroke-linecap="butt" stroke-miterlimit="10" stroke-linejoin="miter" fill="none" stroke="#000000" d="M 0 0 L 73.64738 -42.52022 "/>
<path transform="matrix(1,0,0,-1,164.361,96.422)" stroke-width=".3985" stroke-linecap="butt" stroke-miterlimit="10" stroke-linejoin="miter" fill="none" stroke="#000000" d="M 73.64738 42.52022 L 0 85.04045 L -73.64738 42.52022 L -73.64738 -42.52022 L 0 -85.04045 L 73.64738 -42.52022 Z "/>
<path transform="matrix(1,0,0,-1,164.361,96.422)" stroke-width=".3985" stroke-linecap="butt" stroke-miterlimit="10" stroke-linejoin="miter" fill="none" stroke="#000000" d="M -85.04045 0 "/>
<text xml:space="preserve" transform="matrix(1 0 -0 1 -26.78801 73.166)" font-size="7.9701" font-family="CMMI8" font-style="italic"><tspan y="24.418" x="92.361">w</tspan></text>
<text xml:space="preserve" transform="matrix(1 0 -0 1 -26.78801 73.166)" font-size="5.9776" font-family="CMR6"><tspan y="25.525" x="98.438">2</tspan></text>
<path transform="matrix(1,0,0,-1,164.361,96.422)" stroke-width=".3985" stroke-linecap="butt" stroke-miterlimit="10" stroke-linejoin="miter" fill="none" stroke="#000000" d="M -147.29479 85.04045 "/>
<text xml:space="preserve" transform="matrix(1 0 -0 1 -89.04301 -17.663002)" font-size="7.9701" font-family="CMMI8" font-style="italic"><tspan y="24.418" x="92.361">w</tspan></text>
<text xml:space="preserve" transform="matrix(1 0 -0 1 -89.04301 -17.663002)" font-size="5.9776" font-family="CMR6"><tspan y="25.525" x="98.438">1</tspan></text>
<path transform="matrix(1,0,0,-1,164.361,96.422)" stroke-width=".3985" stroke-linecap="butt" stroke-miterlimit="10" stroke-linejoin="miter" fill="none" stroke="#000000" d="M -147.29479 -85.04045 "/>
<text xml:space="preserve" transform="matrix(1 0 -0 1 -89.04301 163.996)" font-size="7.9701" font-family="CMMI8" font-style="italic"><tspan y="24.418" x="92.361">w</tspan></text>
<text xml:space="preserve" transform="matrix(1 0 -0 1 -89.04301 163.996)" font-size="5.9776" font-family="CMR6"><tspan y="25.525" x="98.438">3</tspan></text>
<path transform="matrix(1,0,0,-1,164.361,96.422)" stroke-width=".3985" stroke-linecap="butt" stroke-miterlimit="10" stroke-linejoin="miter" fill="none" stroke="#000000" d="M -73.64738 42.52022 L -85.04045 0 "/>
<path transform="matrix(1,0,0,-1,164.361,96.422)" stroke-width=".3985" stroke-linecap="butt" stroke-miterlimit="10" stroke-linejoin="miter" fill="none" stroke="#000000" d="M -85.04045 0 L -73.64738 -42.52022 "/>
<path transform="matrix(1,0,0,-1,164.361,96.422)" stroke-width=".79701" stroke-linecap="butt" stroke-miterlimit="10" stroke-linejoin="miter" fill="none" stroke="#000000" d="M -73.64738 42.52022 L -73.64738 -42.52022 "/>
<path transform="matrix(1,0,0,-1,164.361,96.422)" stroke-width=".79701" stroke-linecap="butt" stroke-miterlimit="10" stroke-linejoin="miter" fill="none" stroke="#000000" d="M -73.64738 42.52022 L -147.29479 85.04045 "/>
<path transform="matrix(1,0,0,-1,164.361,96.422)" stroke-width=".79701" stroke-linecap="butt" stroke-miterlimit="10" stroke-linejoin="miter" fill="none" stroke="#000000" d="M -147.29479 85.04045 L -147.29479 -85.04045 "/>
<path transform="matrix(1,0,0,-1,164.361,96.422)" stroke-width=".79701" stroke-linecap="butt" stroke-miterlimit="10" stroke-linejoin="miter" fill="none" stroke="#000000" d="M -147.29479 -85.04045 L -73.64738 -42.52022 "/>
<path transform="matrix(1,0,0,-1,164.361,96.422)" stroke-width=".3985" stroke-linecap="butt" stroke-miterlimit="10" stroke-linejoin="miter" fill="none" stroke="#000000" d="M -147.29479 85.04045 L 0 85.04045 "/>
<path transform="matrix(1,0,0,-1,164.361,96.422)" stroke-width=".3985" stroke-linecap="butt" stroke-miterlimit="10" stroke-linejoin="miter" fill="none" stroke="#000000" d="M -147.29479 -85.04045 L 0 -85.04045 "/>
<path transform="matrix(1,0,0,-1,164.361,96.422)" d="M -72.65111 42.52022 C -72.65111 43.07045 -73.09715 43.5165 -73.64738 43.5165 C -74.19763 43.5165 -74.64366 43.07045 -74.64366 42.52022 C -74.64366 41.96999 -74.19763 41.52394 -73.64738 41.52394 C -73.09715 41.52394 -72.65111 41.96999 -72.65111 42.52022 Z M -73.64738 42.52022 "/>
<path transform="matrix(1,0,0,-1,164.361,96.422)" stroke-width=".3985" stroke-linecap="butt" stroke-miterlimit="10" stroke-linejoin="miter" fill="none" stroke="#000000" d="M -72.65111 42.52022 C -72.65111 43.07045 -73.09715 43.5165 -73.64738 43.5165 C -74.19763 43.5165 -74.64366 43.07045 -74.64366 42.52022 C -74.64366 41.96999 -74.19763 41.52394 -73.64738 41.52394 C -73.09715 41.52394 -72.65111 41.96999 -72.65111 42.52022 Z M -73.64738 42.52022 "/>
<path transform="matrix(1,0,0,-1,164.361,96.422)" d="M -146.29851 85.04045 C -146.29851 85.59068 -146.74456 86.03673 -147.29479 86.03673 C -147.84503 86.03673 -148.29106 85.59068 -148.29106 85.04045 C -148.29106 84.49022 -147.84503 84.04417 -147.29479 84.04417 C -146.74456 84.04417 -146.29851 84.49022 -146.29851 85.04045 Z M -147.29479 85.04045 "/>
<path transform="matrix(1,0,0,-1,164.361,96.422)" stroke-width=".3985" stroke-linecap="butt" stroke-miterlimit="10" stroke-linejoin="miter" fill="none" stroke="#000000" d="M -146.29851 85.04045 C -146.29851 85.59068 -146.74456 86.03673 -147.29479 86.03673 C -147.84503 86.03673 -148.29106 85.59068 -148.29106 85.04045 C -148.29106 84.49022 -147.84503 84.04417 -147.29479 84.04417 C -146.74456 84.04417 -146.29851 84.49022 -146.29851 85.04045 Z M -147.29479 85.04045 "/>
<path transform="matrix(1,0,0,-1,164.361,96.422)" d="M -146.29851 -85.04045 C -146.29851 -84.49022 -146.74456 -84.04417 -147.29479 -84.04417 C -147.84503 -84.04417 -148.29106 -84.49022 -148.29106 -85.04045 C -148.29106 -85.59068 -147.84503 -86.03673 -147.29479 -86.03673 C -146.74456 -86.03673 -146.29851 -85.59068 -146.29851 -85.04045 Z M -147.29479 -85.04045 "/>
<path transform="matrix(1,0,0,-1,164.361,96.422)" stroke-width=".3985" stroke-linecap="butt" stroke-miterlimit="10" stroke-linejoin="miter" fill="none" stroke="#000000" d="M -146.29851 -85.04045 C -146.29851 -84.49022 -146.74456 -84.04417 -147.29479 -84.04417 C -147.84503 -84.04417 -148.29106 -84.49022 -148.29106 -85.04045 C -148.29106 -85.59068 -147.84503 -86.03673 -147.29479 -86.03673 C -146.74456 -86.03673 -146.29851 -85.59068 -146.29851 -85.04045 Z M -147.29479 -85.04045 "/>
<path transform="matrix(1,0,0,-1,164.361,96.422)" d="M -72.65111 -42.52022 C -72.65111 -41.96999 -73.09715 -41.52394 -73.64738 -41.52394 C -74.19763 -41.52394 -74.64366 -41.96999 -74.64366 -42.52022 C -74.64366 -43.07045 -74.19763 -43.5165 -73.64738 -43.5165 C -73.09715 -43.5165 -72.65111 -43.07045 -72.65111 -42.52022 Z M -73.64738 -42.52022 "/>
<path transform="matrix(1,0,0,-1,164.361,96.422)" stroke-width=".3985" stroke-linecap="butt" stroke-miterlimit="10" stroke-linejoin="miter" fill="none" stroke="#000000" d="M -72.65111 -42.52022 C -72.65111 -41.96999 -73.09715 -41.52394 -73.64738 -41.52394 C -74.19763 -41.52394 -74.64366 -41.96999 -74.64366 -42.52022 C -74.64366 -43.07045 -74.19763 -43.5165 -73.64738 -43.5165 C -73.09715 -43.5165 -72.65111 -43.07045 -72.65111 -42.52022 Z M -73.64738 -42.52022 "/>
</g>
</svg>
