<?xml version="1.0" encoding="UTF-8" standalone="no"?>
<!DOCTYPE svg PUBLIC "-//W3C//DTD SVG 1.1//EN" "http://www.w3.org/Graphics/SVG/1.1/DTD/svg11.dtd">
<svg xmlns="http://www.w3.org/2000/svg" xmlns:xlink="http://www.w3.org/1999/xlink" version="1.1" width="451.93pt" height="304.66pt" viewBox="0 0 451.93 304.66">
<g enable-background="new">
<path transform="matrix(1,0,0,-1,225.965,208.242)" stroke-width=".3985" stroke-linecap="butt" stroke-miterlimit="10" stroke-linejoin="miter" fill="none" stroke="#000000" d="M 0 0 "/>
<text xml:space="preserve" transform="matrix(1 0 -0 1 75.52 73.716)" font-size="7.9701" font-family="CMMI8" font-style="italic"><tspan y="136.242" x="153.965">v</tspan></text>
<path transform="matrix(1,0,0,-1,225.965,208.242)" stroke-width=".3985" stroke-linecap="butt" stroke-miterlimit="10" stroke-linejoin="miter" fill="none" stroke="#000000" d="M 98.1961 0 "/>
<text xml:space="preserve" transform="matrix(1 0 -0 1 173.716 73.162)" font-size="7.9701" font-family="CMMI8" font-style="italic"><tspan y="136.242" x="153.965">w</tspan></text>
<text xml:space="preserve" transform="matrix(1 0 -0 1 173.716 73.162)" font-size="5.9776" font-family="CMR6"><tspan y="137.349" x="160.04199">5</tspan></text>
<path transform="matrix(1,0,0,-1,225.965,208.242)" stroke-width=".3985" stroke-linecap="butt" stroke-miterlimit="10" stroke-linejoin="miter" fill="none" stroke="#000000" d="M 49.09805 85.04056 "/>
<text xml:space="preserve" transform="matrix(1 0 -0 1 124.618 -17.667)" font-size="7.9701" font-family="CMMI8" font-style="italic"><tspan y="136.242" x="153.965">w</tspan></text>
<text xml:space="preserve" transform="matrix(1 0 -0 1 124.618 -17.667)" font-size="5.9776" font-family="CMR6"><tspan y="137.349" x="160.04199">6</tspan></text>
<path transform="matrix(1,0,0,-1,225.965,208.242)" stroke-width=".3985" stroke-linecap="butt" stroke-miterlimit="10" stroke-linejoin="miter" fill="none" stroke="#000000" d="M -49.09805 85.04056 "/>
<text xml:space="preserve" transform="matrix(1 0 -0 1 9.153999 -17.667)" font-size="7.9701" font-family="CMMI8" font-style="italic"><tspan y="136.242" x="153.965">w</tspan></text>
<text xml:space="preserve" transform="matrix(1 0 -0 1 9.153999 -17.667)" font-size="5.9776" font-family="CMR6"><tspan y="137.349" x="160.04199">1</tspan></text>
<path transform="matrix(1,0,0,-1,225.965,208.242)" stroke-width=".3985" stroke-linecap="butt" stroke-miterlimit="10" stroke-linejoin="miter" fill="none" stroke="#000000" d="M -98.1961 0 "/>
<text xml:space="preserve" transform="matrix(1 0 -0 1 -39.944 73.162)" font-size="7.9701" font-family="CMMI8" font-style="italic"><tspan y="136.242" x="153.965">w</tspan></text>
<text xml:space="preserve" transform="matrix(1 0 -0 1 -39.944 73.162)" font-size="5.9776" font-family="CMR6"><tspan y="137.349" x="160.04199">2</tspan></text>
<path transform="matrix(1,0,0,-1,225.965,208.242)" stroke-width=".3985" stroke-linecap="butt" stroke-miterlimit="10" stroke-linejoin="miter" fill="none" stroke="#000000" d="M -49.09805 -85.04056 "/>
<text xml:space="preserve" transform="matrix(1 0 -0 1 17.787999 163.992)" font-size="7.9701" font-family="CMMI8" font-style="italic"><tspan y="136.242" x="153.965">w</tspan></text>
<text xml:space="preserve" transform="matrix(1 0 -0 1 17.787999 163.992)" font-size="5.9776" font-family="CMR6"><tspan y="137.349" x="160.04199">3</tspan></text>
<path transform="matrix(1,0,0,-1,225.965,208.242)" stroke-width=".3985" stroke-linecap="butt" stroke-miterlimit="10" stroke-linejoin="miter" fill="none" stroke="#000000" d="M 49.09805 -85.04056 "/>
<text xml:space="preserve" transform="matrix(1 0 -0 1 115.984 163.992)" font-size="7.9701" font-family="CMMI8" font-style="italic"><tspan y="136.242" x="153.965">w</tspan></text>
<text xml:space="preserve" transform="matrix(1 0 -0 1 115.984 163.992)" font-size="5.9776" font-family="CMR6"><tspan y="137.349" x="160.04199">4</tspan></text>
<path transform="matrix(1,0,0,-1,225.965,208.242)" stroke-width=".3985" stroke-linecap="butt" stroke-miterlimit="10" stroke-linejoin="miter" fill="none" stroke="#000000" d="M 0 85.04045 "/>
<text xml:space="preserve" transform="matrix(1 0 -0 1 75.52 -17.667)" font-size="7.9701" font-family="CMMI8" font-style="italic"><tspan y="136.242" x="153.965">u</tspan></text>
<text xml:space="preserve" transform="matrix(1 0 -0 1 75.52 -17.667)" font-size="5.9776" font-family="CMR6"><tspan y="137.349" x="158.868">1</tspan></text>
<path transform="matrix(1,0,0,-1,225.965,208.242)" stroke-width=".3985" stroke-linecap="butt" stroke-miterlimit="10" stroke-linejoin="miter" fill="none" stroke="#000000" d="M -73.64738 42.52022 "/>
<text xml:space="preserve" transform="matrix(1 0 -0 1 -14.221001 24.853)" font-size="7.9701" font-family="CMMI8" font-style="italic"><tspan y="136.242" x="153.965">u</tspan></text>
<text xml:space="preserve" transform="matrix(1 0 -0 1 -14.221001 24.853)" font-size="5.9776" font-family="CMR6"><tspan y="137.349" x="158.868">2</tspan></text>
<path transform="matrix(1,0,0,-1,225.965,208.242)" stroke-width=".3985" stroke-linecap="butt" stroke-miterlimit="10" stroke-linejoin="miter" fill="none" stroke="#000000" d="M -73.64738 -42.52022 "/>
<text xml:space="preserve" transform="matrix(1 0 -0 1 -14.221001 121.472)" font-size="7.9701" font-family="CMMI8" font-style="italic"><tspan y="136.242" x="153.965">u</tspan></text>
<text xml:space="preserve" transform="matrix(1 0 -0 1 -14.221001 121.472)" font-size="5.9776" font-family="CMR6"><tspan y="137.349" x="158.868">3</tspan></text>
<path transform="matrix(1,0,0,-1,225.965,208.242)" stroke-width=".3985" stroke-linecap="butt" stroke-miterlimit="10" stroke-linejoin="miter" fill="none" stroke="#000000" d="M 0 -85.04045 "/>
<text xml:space="preserve" transform="matrix(1 0 -0 1 67.473 163.992)" font-size="7.9701" font-family="CMMI8" font-style="italic"><tspan y="136.242" x="153.965">u</tspan></text>
<text xml:space="preserve" transform="matrix(1 0 -0 1 67.473 163.992)" font-size="5.9776" font-family="CMR6"><tspan y="137.349" x="158.868">4</tspan></text>
<path transform="matrix(1,0,0,-1,225.965,208.242)" stroke-width=".3985" stroke-linecap="butt" stroke-miterlimit="10" stroke-linejoin="miter" fill="none" stroke="#000000" d="M 73.64738 -42.52022 "/>
<text xml:space="preserve" transform="matrix(1 0 -0 1 149.16699 121.472)" font-size="7.9701" font-family="CMMI8" font-style="italic"><tspan y="136.242" x="153.965">u</tspan></text>
<text xml:space="preserve" transform="matrix(1 0 -0 1 149.16699 121.472)" font-size="5.9776" font-family="CMR6"><tspan y="137.349" x="158.868">5</tspan></text>
<path transform="matrix(1,0,0,-1,225.965,208.242)" stroke-width=".3985" stroke-linecap="butt" stroke-miterlimit="10" stroke-linejoin="miter" fill="none" stroke="#000000" d="M 73.64738 42.52022 "/>
<text xml:space="preserve" transform="matrix(1 0 -0 1 149.16699 24.853)" font-size="7.9701" font-family="CMMI8" font-style="italic"><tspan y="136.242" x="153.965">u</tspan></text>
<text xml:space="preserve" transform="matrix(1 0 -0 1 149.16699 24.853)" font-size="5.9776" font-family="CMR6"><tspan y="137.349" x="158.868">6</tspan></text>
<path transform="matrix(1,0,0,-1,225.965,208.242)" stroke-width=".3985" stroke-linecap="butt" stroke-miterlimit="10" stroke-linejoin="miter" fill="none" stroke="#000000" d="M 0 170.08092 "/>
<text xml:space="preserve" transform="matrix(1 0 -0 1 68.854007 -101.601)" font-size="7.9701" font-family="CMMI8" font-style="italic"><tspan y="136.242" x="153.965">w</tspan></text>
<path transform="matrix(1,0,0,-1,225.965,208.242)" stroke-width=".3985" stroke-linecap="butt" stroke-miterlimit="10" stroke-linejoin="miter" fill="none" stroke="#000000" d="M 98.1961 0 L 98.1961 0 L 49.09805 85.04056 L -49.09805 85.04056 L -98.1961 0 L -49.09805 -85.04056 L 49.09805 -85.04056 Z "/>
<path transform="matrix(1,0,0,-1,225.965,208.242)" stroke-width=".3985" stroke-linecap="butt" stroke-miterlimit="10" stroke-linejoin="miter" fill="none" stroke="#000000" d="M 73.64738 42.52022 L 0 85.04045 L -73.64738 42.52022 L -73.64738 -42.52022 L 0 -85.04045 L 73.64738 -42.52022 Z "/>
<path transform="matrix(1,0,0,-1,225.965,208.242)" stroke-width=".3985" stroke-linecap="butt" stroke-miterlimit="10" stroke-linejoin="miter" fill="none" stroke="#000000" d="M 0 0 L 73.64738 42.52022 "/>
<path transform="matrix(1,0,0,-1,225.965,208.242)" stroke-width=".3985" stroke-linecap="butt" stroke-miterlimit="10" stroke-linejoin="miter" fill="none" stroke="#000000" d="M 0 0 L 0 85.04045 "/>
<path transform="matrix(1,0,0,-1,225.965,208.242)" stroke-width=".3985" stroke-linecap="butt" stroke-miterlimit="10" stroke-linejoin="miter" fill="none" stroke="#000000" d="M 0 0 L -73.64738 42.52022 "/>
<path transform="matrix(1,0,0,-1,225.965,208.242)" stroke-width=".3985" stroke-linecap="butt" stroke-miterlimit="10" stroke-linejoin="miter" fill="none" stroke="#000000" d="M 0 0 L -73.64738 -42.52022 "/>
<path transform="matrix(1,0,0,-1,225.965,208.242)" stroke-width=".3985" stroke-linecap="butt" stroke-miterlimit="10" stroke-linejoin="miter" fill="none" stroke="#000000" d="M 0 0 L 0 -85.04045 "/>
<path transform="matrix(1,0,0,-1,225.965,208.242)" stroke-width=".3985" stroke-linecap="butt" stroke-miterlimit="10" stroke-linejoin="miter" fill="none" stroke="#000000" d="M 0 0 L 73.64738 -42.52022 "/>
<path transform="matrix(1,0,0,-1,225.965,208.242)" stroke-width=".3985" stroke-linecap="butt" stroke-miterlimit="10" stroke-linejoin="miter" fill="none" stroke="#000000" d="M 0 170.08092 L 0 85.04045 "/>
<path transform="matrix(1,0,0,-1,225.965,208.242)" stroke-width=".3985" stroke-linecap="butt" stroke-miterlimit="10" stroke-linejoin="miter" fill="none" stroke="#000000" d="M 0 170.08092 L 49.09805 85.04056 "/>
<path transform="matrix(1,0,0,-1,225.965,208.242)" stroke-width=".3985" stroke-linecap="butt" stroke-miterlimit="10" stroke-linejoin="miter" fill="none" stroke="#000000" d="M 0 170.08092 L -49.09805 85.04056 "/>
<path transform="matrix(1,0,0,-1,225.965,208.242)" stroke-width=".3985" stroke-linecap="butt" stroke-miterlimit="10" stroke-linejoin="miter" fill="none" stroke="#000000" d="M 0 170.08092 C -65.75589 208.04502 -149.8404 185.51451 -187.80449 119.7586 C -225.76859 54.00272 -203.23809 -30.08177 -137.48218 -68.04587 C -110.78125 -83.46268 -79.65181 -89.44983 -49.13495 -85.05283 "/>
<path transform="matrix(1,0,0,-1,225.965,208.242)" stroke-width=".3985" stroke-linecap="butt" stroke-miterlimit="10" stroke-linejoin="miter" fill="none" stroke="#000000" d="M 0 170.08092 C 65.75589 208.04502 149.8404 185.51451 187.80449 119.7586 C 225.76859 54.00272 203.23809 -30.08177 137.48218 -68.04587 C 110.78125 -83.46268 79.65181 -89.44983 49.13495 -85.05283 "/>
</g>
</svg>
