<?xml version="1.0" encoding="UTF-8" standalone="no"?>
<!DOCTYPE svg PUBLIC "-//W3C//DTD SVG 1.1//EN" "http://www.w3.org/Graphics/SVG/1.1/DTD/svg11.dtd">
<svg xmlns="http://www.w3.org/2000/svg" xmlns:xlink="http://www.w3.org/1999/xlink" version="1.1" width="626.18pt" height="286.93pt" viewBox="0 0 626.18 286.93">
<g enable-background="new">
<path transform="matrix(1,0,0,-1,132.845,127.84898)" stroke-width=".3985" stroke-linecap="butt" stroke-miterlimit="10" stroke-linejoin="miter" fill="none" stroke="#000000" d="M 0 0 "/>
<text xml:space="preserve" transform="matrix(1 0 -0 1 75.52 73.71399)" font-size="7.9701" font-family="CMMI8" font-style="italic"><tspan y="55.851" x="60.845">v</tspan></text>
<path transform="matrix(1,0,0,-1,132.845,127.84898)" stroke-width=".3985" stroke-linecap="butt" stroke-miterlimit="10" stroke-linejoin="miter" fill="none" stroke="#000000" d="M 98.1961 0 "/>
<text xml:space="preserve" transform="matrix(1 0 -0 1 173.716 73.15999)" font-size="7.9701" font-family="CMMI8" font-style="italic"><tspan y="55.851" x="60.845">w</tspan></text>
<text xml:space="preserve" transform="matrix(1 0 -0 1 173.716 73.15999)" font-size="5.9776" font-family="CMR6"><tspan y="56.958" x="66.922008">5</tspan></text>
<path transform="matrix(1,0,0,-1,132.845,127.84898)" stroke-width=".3985" stroke-linecap="butt" stroke-miterlimit="10" stroke-linejoin="miter" fill="none" stroke="#000000" d="M 49.09805 85.04056 "/>
<text xml:space="preserve" transform="matrix(1 0 -0 1 124.618 -17.669014)" font-size="7.9701" font-family="CMMI8" font-style="italic"><tspan y="55.851" x="60.845">w</tspan></text>
<text xml:space="preserve" transform="matrix(1 0 -0 1 124.618 -17.669014)" font-size="5.9776" font-family="CMR6"><tspan y="56.958" x="66.922008">6</tspan></text>
<path transform="matrix(1,0,0,-1,132.845,127.84898)" stroke-width=".3985" stroke-linecap="butt" stroke-miterlimit="10" stroke-linejoin="miter" fill="none" stroke="#000000" d="M -49.09805 85.04056 "/>
<text xml:space="preserve" transform="matrix(1 0 -0 1 9.153999 -17.669014)" font-size="7.9701" font-family="CMMI8" font-style="italic"><tspan y="55.851" x="60.845">w</tspan></text>
<text xml:space="preserve" transform="matrix(1 0 -0 1 9.153999 -17.669014)" font-size="5.9776" font-family="CMR6"><tspan y="56.958" x="66.922008">1</tspan></text>
<path transform="matrix(1,0,0,-1,132.845,127.84898)" stroke-width=".3985" stroke-linecap="butt" stroke-miterlimit="10" stroke-linejoin="miter" fill="none" stroke="#000000" d="M -98.1961 0 "/>
<text xml:space="preserve" transform="matrix(1 0 -0 1 -57.526994 73.15999)" font-size="7.9701" font-family="CMMI8" font-style="italic"><tspan y="55.851" x="60.845">w</tspan></text>
<text xml:space="preserve" transform="matrix(1 0 -0 1 -57.526994 73.15999)" font-size="7.9701" font-family="CMR8"><tspan y="55.851" x="69.489">=</tspan></text>
<text xml:space="preserve" transform="matrix(1 0 -0 1 -57.526994 73.15999)" font-size="7.9701" font-family="CMMI8" font-style="italic"><tspan y="55.851" x="78.428">w</tspan></text>
<text xml:space="preserve" transform="matrix(1 0 -0 1 -57.526994 73.15999)" font-size="5.9776" font-family="CMR6"><tspan y="56.958" x="84.505008">2</tspan></text>
<path transform="matrix(1,0,0,-1,132.845,127.84898)" stroke-width=".3985" stroke-linecap="butt" stroke-miterlimit="10" stroke-linejoin="miter" fill="none" stroke="#000000" d="M -49.09805 -85.04056 "/>
<text xml:space="preserve" transform="matrix(1 0 -0 1 9.153999 163.98999)" font-size="7.9701" font-family="CMMI8" font-style="italic"><tspan y="55.851" x="60.845">w</tspan></text>
<text xml:space="preserve" transform="matrix(1 0 -0 1 9.153999 163.98999)" font-size="5.9776" font-family="CMR6"><tspan y="56.958" x="66.922008">3</tspan></text>
<path transform="matrix(1,0,0,-1,132.845,127.84898)" stroke-width=".3985" stroke-linecap="butt" stroke-miterlimit="10" stroke-linejoin="miter" fill="none" stroke="#000000" d="M 49.09805 -85.04056 "/>
<text xml:space="preserve" transform="matrix(1 0 -0 1 124.618 163.98999)" font-size="7.9701" font-family="CMMI8" font-style="italic"><tspan y="55.851" x="60.845">w</tspan></text>
<text xml:space="preserve" transform="matrix(1 0 -0 1 124.618 163.98999)" font-size="5.9776" font-family="CMR6"><tspan y="56.958" x="66.922008">4</tspan></text>
<path transform="matrix(1,0,0,-1,132.845,127.84898)" stroke-width=".3985" stroke-linecap="butt" stroke-miterlimit="10" stroke-linejoin="miter" fill="none" stroke="#000000" d="M 0 85.04045 "/>
<text xml:space="preserve" transform="matrix(1 0 -0 1 75.52 -17.669014)" font-size="7.9701" font-family="CMMI8" font-style="italic"><tspan y="55.851" x="60.845">u</tspan></text>
<text xml:space="preserve" transform="matrix(1 0 -0 1 75.52 -17.669014)" font-size="5.9776" font-family="CMR6"><tspan y="56.958" x="65.748">1</tspan></text>
<path transform="matrix(1,0,0,-1,132.845,127.84898)" stroke-width=".3985" stroke-linecap="butt" stroke-miterlimit="10" stroke-linejoin="miter" fill="none" stroke="#000000" d="M -73.64738 42.52022 "/>
<text xml:space="preserve" transform="matrix(1 0 -0 1 -14.221001 24.850987)" font-size="7.9701" font-family="CMMI8" font-style="italic"><tspan y="55.851" x="60.845">u</tspan></text>
<text xml:space="preserve" transform="matrix(1 0 -0 1 -14.221001 24.850987)" font-size="5.9776" font-family="CMR6"><tspan y="56.958" x="65.748">2</tspan></text>
<path transform="matrix(1,0,0,-1,132.845,127.84898)" stroke-width=".3985" stroke-linecap="butt" stroke-miterlimit="10" stroke-linejoin="miter" fill="none" stroke="#000000" d="M -73.64738 -42.52022 "/>
<text xml:space="preserve" transform="matrix(1 0 -0 1 -14.221001 121.469989)" font-size="7.9701" font-family="CMMI8" font-style="italic"><tspan y="55.851" x="60.845">u</tspan></text>
<text xml:space="preserve" transform="matrix(1 0 -0 1 -14.221001 121.469989)" font-size="5.9776" font-family="CMR6"><tspan y="56.958" x="65.748">3</tspan></text>
<path transform="matrix(1,0,0,-1,132.845,127.84898)" stroke-width=".3985" stroke-linecap="butt" stroke-miterlimit="10" stroke-linejoin="miter" fill="none" stroke="#000000" d="M 0 -85.04045 "/>
<text xml:space="preserve" transform="matrix(1 0 -0 1 67.473 163.98999)" font-size="7.9701" font-family="CMMI8" font-style="italic"><tspan y="55.851" x="60.845">u</tspan></text>
<text xml:space="preserve" transform="matrix(1 0 -0 1 67.473 163.98999)" font-size="5.9776" font-family="CMR6"><tspan y="56.958" x="65.748">4</tspan></text>
<path transform="matrix(1,0,0,-1,132.845,127.84898)" stroke-width=".3985" stroke-linecap="butt" stroke-miterlimit="10" stroke-linejoin="miter" fill="none" stroke="#000000" d="M 73.64738 -42.52022 "/>
<text xml:space="preserve" transform="matrix(1 0 -0 1 149.16699 121.469989)" font-size="7.9701" font-family="CMMI8" font-style="italic"><tspan y="55.851" x="60.845">u</tspan></text>
<text xml:space="preserve" transform="matrix(1 0 -0 1 149.16699 121.469989)" font-size="5.9776" font-family="CMR6"><tspan y="56.958" x="65.748">5</tspan></text>
<path transform="matrix(1,0,0,-1,132.845,127.84898)" stroke-width=".3985" stroke-linecap="butt" stroke-miterlimit="10" stroke-linejoin="miter" fill="none" stroke="#000000" d="M 73.64738 42.52022 "/>
<text xml:space="preserve" transform="matrix(1 0 -0 1 149.16699 24.850987)" font-size="7.9701" font-family="CMMI8" font-style="italic"><tspan y="55.851" x="60.845">u</tspan></text>
<text xml:space="preserve" transform="matrix(1 0 -0 1 149.16699 24.850987)" font-size="5.9776" font-family="CMR6"><tspan y="56.958" x="65.748">6</tspan></text>
<path transform="matrix(1,0,0,-1,132.845,127.84898)" stroke-width=".3985" stroke-linecap="butt" stroke-miterlimit="10" stroke-linejoin="miter" fill="none" stroke="#000000" d="M 98.1961 0 L 98.1961 0 L 49.09805 85.04056 L -49.09805 85.04056 L -98.1961 0 L -49.09805 -85.04056 L 49.09805 -85.04056 Z "/>
<path transform="matrix(1,0,0,-1,132.845,127.84898)" stroke-width=".3985" stroke-linecap="butt" stroke-miterlimit="10" stroke-linejoin="miter" fill="none" stroke="#000000" d="M 73.64738 42.52022 L 0 85.04045 L -73.64738 42.52022 L -73.64738 -42.52022 L 0 -85.04045 L 73.64738 -42.52022 Z "/>
<path transform="matrix(1,0,0,-1,132.845,127.84898)" stroke-width=".3985" stroke-linecap="butt" stroke-miterlimit="10" stroke-linejoin="miter" fill="none" stroke="#000000" d="M 0 0 L 73.64738 42.52022 "/>
<path transform="matrix(1,0,0,-1,132.845,127.84898)" stroke-width=".3985" stroke-linecap="butt" stroke-miterlimit="10" stroke-linejoin="miter" fill="none" stroke="#000000" d="M 0 0 L 0 85.04045 "/>
<path transform="matrix(1,0,0,-1,132.845,127.84898)" stroke-width=".3985" stroke-linecap="butt" stroke-miterlimit="10" stroke-linejoin="miter" fill="none" stroke="#000000" d="M 0 0 L -73.64738 42.52022 "/>
<path transform="matrix(1,0,0,-1,132.845,127.84898)" stroke-width=".3985" stroke-linecap="butt" stroke-miterlimit="10" stroke-linejoin="miter" fill="none" stroke="#000000" d="M 0 0 L -73.64738 -42.52022 "/>
<path transform="matrix(1,0,0,-1,132.845,127.84898)" stroke-width=".3985" stroke-linecap="butt" stroke-miterlimit="10" stroke-linejoin="miter" fill="none" stroke="#000000" d="M 0 0 L 0 -85.04045 "/>
<path transform="matrix(1,0,0,-1,132.845,127.84898)" stroke-width=".3985" stroke-linecap="butt" stroke-miterlimit="10" stroke-linejoin="miter" fill="none" stroke="#000000" d="M 0 0 L 73.64738 -42.52022 "/>
<path transform="matrix(1,0,0,-1,132.845,127.84898)" d="M .99628 0 C .99628 .55023 .55023 .99628 0 .99628 C -.55023 .99628 -.99628 .55023 -.99628 0 C -.99628 -.55023 -.55023 -.99628 0 -.99628 C .55023 -.99628 .99628 -.55023 .99628 0 Z M 0 0 "/>
<path transform="matrix(1,0,0,-1,132.845,127.84898)" stroke-width=".3985" stroke-linecap="butt" stroke-miterlimit="10" stroke-linejoin="miter" fill="none" stroke="#000000" d="M .99628 0 C .99628 .55023 .55023 .99628 0 .99628 C -.55023 .99628 -.99628 .55023 -.99628 0 C -.99628 -.55023 -.55023 -.99628 0 -.99628 C .55023 -.99628 .99628 -.55023 .99628 0 Z M 0 0 "/>
<path transform="matrix(1,0,0,-1,132.845,127.84898)" d="M .99628 85.04045 C .99628 85.59068 .55023 86.03673 0 86.03673 C -.55023 86.03673 -.99628 85.59068 -.99628 85.04045 C -.99628 84.49022 -.55023 84.04417 0 84.04417 C .55023 84.04417 .99628 84.49022 .99628 85.04045 Z M 0 85.04045 "/>
<path transform="matrix(1,0,0,-1,132.845,127.84898)" stroke-width=".3985" stroke-linecap="butt" stroke-miterlimit="10" stroke-linejoin="miter" fill="none" stroke="#000000" d="M .99628 85.04045 C .99628 85.59068 .55023 86.03673 0 86.03673 C -.55023 86.03673 -.99628 85.59068 -.99628 85.04045 C -.99628 84.49022 -.55023 84.04417 0 84.04417 C .55023 84.04417 .99628 84.49022 .99628 85.04045 Z M 0 85.04045 "/>
<path transform="matrix(1,0,0,-1,132.845,127.84898)" d="M -97.19983 0 C -97.19983 .55023 -97.64587 .99628 -98.1961 .99628 C -98.74634 .99628 -99.19238 .55023 -99.19238 0 C -99.19238 -.55023 -98.74634 -.99628 -98.1961 -.99628 C -97.64587 -.99628 -97.19983 -.55023 -97.19983 0 Z M -98.1961 0 "/>
<path transform="matrix(1,0,0,-1,132.845,127.84898)" stroke-width=".3985" stroke-linecap="butt" stroke-miterlimit="10" stroke-linejoin="miter" fill="none" stroke="#000000" d="M -97.19983 0 C -97.19983 .55023 -97.64587 .99628 -98.1961 .99628 C -98.74634 .99628 -99.19238 .55023 -99.19238 0 C -99.19238 -.55023 -98.74634 -.99628 -98.1961 -.99628 C -97.64587 -.99628 -97.19983 -.55023 -97.19983 0 Z M -98.1961 0 "/>
<path transform="matrix(1,0,0,-1,132.845,127.84898)" d="M -72.65111 -42.52022 C -72.65111 -41.96999 -73.09715 -41.52394 -73.64738 -41.52394 C -74.19763 -41.52394 -74.64366 -41.96999 -74.64366 -42.52022 C -74.64366 -43.07045 -74.19763 -43.5165 -73.64738 -43.5165 C -73.09715 -43.5165 -72.65111 -43.07045 -72.65111 -42.52022 Z M -73.64738 -42.52022 "/>
<path transform="matrix(1,0,0,-1,132.845,127.84898)" stroke-width=".3985" stroke-linecap="butt" stroke-miterlimit="10" stroke-linejoin="miter" fill="none" stroke="#000000" d="M -72.65111 -42.52022 C -72.65111 -41.96999 -73.09715 -41.52394 -73.64738 -41.52394 C -74.19763 -41.52394 -74.64366 -41.96999 -74.64366 -42.52022 C -74.64366 -43.07045 -74.19763 -43.5165 -73.64738 -43.5165 C -73.09715 -43.5165 -72.65111 -43.07045 -72.65111 -42.52022 Z M -73.64738 -42.52022 "/>
<path transform="matrix(1,0,0,-1,132.845,127.84898)" stroke-width=".79701" stroke-linecap="butt" stroke-miterlimit="10" stroke-linejoin="miter" fill="none" stroke="#000000" d="M 0 0 L 0 85.04045 "/>
<path transform="matrix(1,0,0,-1,132.845,127.84898)" stroke-width=".79701" stroke-linecap="butt" stroke-miterlimit="10" stroke-linejoin="miter" fill="none" stroke="#000000" d="M 0 85.04045 C -18.2384 116.63037 -58.6336 127.4543 -90.22354 109.2159 C -110.65596 97.41943 -123.2476 75.61034 -123.2476 52.0164 C -123.2476 32.09294 -114.24782 13.22464 -98.76477 .68742 "/>
<path transform="matrix(1,0,0,-1,132.845,127.84898)" stroke-width=".79701" stroke-linecap="butt" stroke-miterlimit="10" stroke-linejoin="miter" fill="none" stroke="#000000" d="M -98.1961 0 L -73.64738 -42.52022 "/>
<path transform="matrix(1,0,0,-1,132.845,127.84898)" stroke-width=".79701" stroke-linecap="butt" stroke-miterlimit="10" stroke-linejoin="miter" fill="none" stroke="#000000" d="M -73.64738 -42.52022 L 0 0 "/>
<path transform="matrix(1,0,0,-1,132.845,127.84898)" stroke-width=".3985" stroke-linecap="butt" stroke-miterlimit="10" stroke-linejoin="miter" fill="none" stroke="#000000" d="M 283.46824 0 "/>
<text xml:space="preserve" transform="matrix(1 0 -0 1 358.988 73.71399)" font-size="7.9701" font-family="CMMI8" font-style="italic"><tspan y="55.851" x="60.845">v</tspan></text>
<path transform="matrix(1,0,0,-1,132.845,127.84898)" stroke-width=".3985" stroke-linecap="butt" stroke-miterlimit="10" stroke-linejoin="miter" fill="none" stroke="#000000" d="M 381.6643 0 "/>
<text xml:space="preserve" transform="matrix(1 0 -0 1 457.184 73.15999)" font-size="7.9701" font-family="CMMI8" font-style="italic"><tspan y="55.851" x="60.845">w</tspan></text>
<text xml:space="preserve" transform="matrix(1 0 -0 1 457.184 73.15999)" font-size="5.9776" font-family="CMR6"><tspan y="56.958" x="66.922008">5</tspan></text>
<path transform="matrix(1,0,0,-1,132.845,127.84898)" stroke-width=".3985" stroke-linecap="butt" stroke-miterlimit="10" stroke-linejoin="miter" fill="none" stroke="#000000" d="M 332.56629 85.04056 "/>
<text xml:space="preserve" transform="matrix(1 0 -0 1 408.086 -17.669014)" font-size="7.9701" font-family="CMMI8" font-style="italic"><tspan y="55.851" x="60.845">w</tspan></text>
<text xml:space="preserve" transform="matrix(1 0 -0 1 408.086 -17.669014)" font-size="5.9776" font-family="CMR6"><tspan y="56.958" x="66.922008">6</tspan></text>
<path transform="matrix(1,0,0,-1,132.845,127.84898)" stroke-width=".3985" stroke-linecap="butt" stroke-miterlimit="10" stroke-linejoin="miter" fill="none" stroke="#000000" d="M 234.37015 85.04056 "/>
<text xml:space="preserve" transform="matrix(1 0 -0 1 292.622 -17.669014)" font-size="7.9701" font-family="CMMI8" font-style="italic"><tspan y="55.851" x="60.845">w</tspan></text>
<text xml:space="preserve" transform="matrix(1 0 -0 1 292.622 -17.669014)" font-size="5.9776" font-family="CMR6"><tspan y="56.958" x="66.922008">1</tspan></text>
<path transform="matrix(1,0,0,-1,132.845,127.84898)" stroke-width=".3985" stroke-linecap="butt" stroke-miterlimit="10" stroke-linejoin="miter" fill="none" stroke="#000000" d="M 185.2721 0 "/>
<text xml:space="preserve" transform="matrix(1 0 -0 1 243.524 73.15999)" font-size="7.9701" font-family="CMMI8" font-style="italic"><tspan y="55.851" x="60.845">w</tspan></text>
<text xml:space="preserve" transform="matrix(1 0 -0 1 243.524 73.15999)" font-size="5.9776" font-family="CMR6"><tspan y="56.958" x="66.922008">2</tspan></text>
<path transform="matrix(1,0,0,-1,132.845,127.84898)" stroke-width=".3985" stroke-linecap="butt" stroke-miterlimit="10" stroke-linejoin="miter" fill="none" stroke="#000000" d="M 234.37015 -85.04056 "/>
<text xml:space="preserve" transform="matrix(1 0 -0 1 275.03999 163.98999)" font-size="7.9701" font-family="CMMI8" font-style="italic"><tspan y="55.851" x="60.845">w</tspan></text>
<text xml:space="preserve" transform="matrix(1 0 -0 1 275.03999 163.98999)" font-size="7.9701" font-family="CMR8"><tspan y="55.851" x="69.489">=</tspan></text>
<text xml:space="preserve" transform="matrix(1 0 -0 1 275.03999 163.98999)" font-size="7.9701" font-family="CMMI8" font-style="italic"><tspan y="55.851" x="78.428">w</tspan></text>
<text xml:space="preserve" transform="matrix(1 0 -0 1 275.03999 163.98999)" font-size="5.9776" font-family="CMR6"><tspan y="56.958" x="84.505008">3</tspan></text>
<path transform="matrix(1,0,0,-1,132.845,127.84898)" stroke-width=".3985" stroke-linecap="butt" stroke-miterlimit="10" stroke-linejoin="miter" fill="none" stroke="#000000" d="M 332.56629 -85.04056 "/>
<text xml:space="preserve" transform="matrix(1 0 -0 1 408.086 163.98999)" font-size="7.9701" font-family="CMMI8" font-style="italic"><tspan y="55.851" x="60.845">w</tspan></text>
<text xml:space="preserve" transform="matrix(1 0 -0 1 408.086 163.98999)" font-size="5.9776" font-family="CMR6"><tspan y="56.958" x="66.922008">4</tspan></text>
<path transform="matrix(1,0,0,-1,132.845,127.84898)" stroke-width=".3985" stroke-linecap="butt" stroke-miterlimit="10" stroke-linejoin="miter" fill="none" stroke="#000000" d="M 283.46824 85.04045 "/>
<text xml:space="preserve" transform="matrix(1 0 -0 1 350.941 -17.669014)" font-size="7.9701" font-family="CMMI8" font-style="italic"><tspan y="55.851" x="60.845">u</tspan></text>
<text xml:space="preserve" transform="matrix(1 0 -0 1 350.941 -17.669014)" font-size="5.9776" font-family="CMR6"><tspan y="56.958" x="65.748">1</tspan></text>
<path transform="matrix(1,0,0,-1,132.845,127.84898)" stroke-width=".3985" stroke-linecap="butt" stroke-miterlimit="10" stroke-linejoin="miter" fill="none" stroke="#000000" d="M 209.82082 42.52022 "/>
<text xml:space="preserve" transform="matrix(1 0 -0 1 269.247 24.850987)" font-size="7.9701" font-family="CMMI8" font-style="italic"><tspan y="55.851" x="60.845">u</tspan></text>
<text xml:space="preserve" transform="matrix(1 0 -0 1 269.247 24.850987)" font-size="5.9776" font-family="CMR6"><tspan y="56.958" x="65.748">2</tspan></text>
<path transform="matrix(1,0,0,-1,132.845,127.84898)" stroke-width=".3985" stroke-linecap="butt" stroke-miterlimit="10" stroke-linejoin="miter" fill="none" stroke="#000000" d="M 209.82082 -42.52022 "/>
<text xml:space="preserve" transform="matrix(1 0 -0 1 269.247 121.469989)" font-size="7.9701" font-family="CMMI8" font-style="italic"><tspan y="55.851" x="60.845">u</tspan></text>
<text xml:space="preserve" transform="matrix(1 0 -0 1 269.247 121.469989)" font-size="5.9776" font-family="CMR6"><tspan y="56.958" x="65.748">3</tspan></text>
<path transform="matrix(1,0,0,-1,132.845,127.84898)" stroke-width=".3985" stroke-linecap="butt" stroke-miterlimit="10" stroke-linejoin="miter" fill="none" stroke="#000000" d="M 283.46824 -85.04045 "/>
<text xml:space="preserve" transform="matrix(1 0 -0 1 350.941 163.98999)" font-size="7.9701" font-family="CMMI8" font-style="italic"><tspan y="55.851" x="60.845">u</tspan></text>
<text xml:space="preserve" transform="matrix(1 0 -0 1 350.941 163.98999)" font-size="5.9776" font-family="CMR6"><tspan y="56.958" x="65.748">4</tspan></text>
<path transform="matrix(1,0,0,-1,132.845,127.84898)" stroke-width=".3985" stroke-linecap="butt" stroke-miterlimit="10" stroke-linejoin="miter" fill="none" stroke="#000000" d="M 357.11564 -42.52022 "/>
<text xml:space="preserve" transform="matrix(1 0 -0 1 432.635 121.469989)" font-size="7.9701" font-family="CMMI8" font-style="italic"><tspan y="55.851" x="60.845">u</tspan></text>
<text xml:space="preserve" transform="matrix(1 0 -0 1 432.635 121.469989)" font-size="5.9776" font-family="CMR6"><tspan y="56.958" x="65.748">5</tspan></text>
<path transform="matrix(1,0,0,-1,132.845,127.84898)" stroke-width=".3985" stroke-linecap="butt" stroke-miterlimit="10" stroke-linejoin="miter" fill="none" stroke="#000000" d="M 357.11564 42.52022 "/>
<text xml:space="preserve" transform="matrix(1 0 -0 1 432.635 24.850987)" font-size="7.9701" font-family="CMMI8" font-style="italic"><tspan y="55.851" x="60.845">u</tspan></text>
<text xml:space="preserve" transform="matrix(1 0 -0 1 432.635 24.850987)" font-size="5.9776" font-family="CMR6"><tspan y="56.958" x="65.748">6</tspan></text>
<path transform="matrix(1,0,0,-1,132.845,127.84898)" stroke-width=".3985" stroke-linecap="butt" stroke-miterlimit="10" stroke-linejoin="miter" fill="none" stroke="#000000" d="M 381.6643 0 L 381.6643 0 L 332.56629 85.04056 L 234.37015 85.04056 L 185.2721 0 L 234.37015 -85.04056 L 332.56629 -85.04056 Z "/>
<path transform="matrix(1,0,0,-1,132.845,127.84898)" stroke-width=".3985" stroke-linecap="butt" stroke-miterlimit="10" stroke-linejoin="miter" fill="none" stroke="#000000" d="M 357.11564 42.52022 L 283.46824 85.04045 L 209.82082 42.52022 L 209.82082 -42.52022 L 283.46824 -85.04045 L 357.11564 -42.52022 Z "/>
<path transform="matrix(1,0,0,-1,132.845,127.84898)" stroke-width=".3985" stroke-linecap="butt" stroke-miterlimit="10" stroke-linejoin="miter" fill="none" stroke="#000000" d="M 283.46824 0 L 357.11564 42.52022 "/>
<path transform="matrix(1,0,0,-1,132.845,127.84898)" stroke-width=".3985" stroke-linecap="butt" stroke-miterlimit="10" stroke-linejoin="miter" fill="none" stroke="#000000" d="M 283.46824 0 L 283.46824 85.04045 "/>
<path transform="matrix(1,0,0,-1,132.845,127.84898)" stroke-width=".3985" stroke-linecap="butt" stroke-miterlimit="10" stroke-linejoin="miter" fill="none" stroke="#000000" d="M 283.46824 0 L 209.82082 42.52022 "/>
<path transform="matrix(1,0,0,-1,132.845,127.84898)" stroke-width=".3985" stroke-linecap="butt" stroke-miterlimit="10" stroke-linejoin="miter" fill="none" stroke="#000000" d="M 283.46824 0 L 209.82082 -42.52022 "/>
<path transform="matrix(1,0,0,-1,132.845,127.84898)" stroke-width=".3985" stroke-linecap="butt" stroke-miterlimit="10" stroke-linejoin="miter" fill="none" stroke="#000000" d="M 283.46824 0 L 283.46824 -85.04045 "/>
<path transform="matrix(1,0,0,-1,132.845,127.84898)" stroke-width=".3985" stroke-linecap="butt" stroke-miterlimit="10" stroke-linejoin="miter" fill="none" stroke="#000000" d="M 283.46824 0 L 357.11564 -42.52022 "/>
<path transform="matrix(1,0,0,-1,132.845,127.84898)" d="M 284.4645 0 C 284.4645 .55023 284.01847 .99628 283.46824 .99628 C 282.91798 .99628 282.47196 .55023 282.47196 0 C 282.47196 -.55023 282.91798 -.99628 283.46824 -.99628 C 284.01847 -.99628 284.4645 -.55023 284.4645 0 Z M 283.46824 0 "/>
<path transform="matrix(1,0,0,-1,132.845,127.84898)" stroke-width=".3985" stroke-linecap="butt" stroke-miterlimit="10" stroke-linejoin="miter" fill="none" stroke="#000000" d="M 284.4645 0 C 284.4645 .55023 284.01847 .99628 283.46824 .99628 C 282.91798 .99628 282.47196 .55023 282.47196 0 C 282.47196 -.55023 282.91798 -.99628 283.46824 -.99628 C 284.01847 -.99628 284.4645 -.55023 284.4645 0 Z M 283.46824 0 "/>
<path transform="matrix(1,0,0,-1,132.845,127.84898)" d="M 284.4645 85.04045 C 284.4645 85.59068 284.01847 86.03673 283.46824 86.03673 C 282.91798 86.03673 282.47196 85.59068 282.47196 85.04045 C 282.47196 84.49022 282.91798 84.04417 283.46824 84.04417 C 284.01847 84.04417 284.4645 84.49022 284.4645 85.04045 Z M 283.46824 85.04045 "/>
<path transform="matrix(1,0,0,-1,132.845,127.84898)" stroke-width=".3985" stroke-linecap="butt" stroke-miterlimit="10" stroke-linejoin="miter" fill="none" stroke="#000000" d="M 284.4645 85.04045 C 284.4645 85.59068 284.01847 86.03673 283.46824 86.03673 C 282.91798 86.03673 282.47196 85.59068 282.47196 85.04045 C 282.47196 84.49022 282.91798 84.04417 283.46824 84.04417 C 284.01847 84.04417 284.4645 84.49022 284.4645 85.04045 Z M 283.46824 85.04045 "/>
<path transform="matrix(1,0,0,-1,132.845,127.84898)" d="M 210.8171 -42.52022 C 210.8171 -41.96999 210.37105 -41.52394 209.82082 -41.52394 C 209.27059 -41.52394 208.82454 -41.96999 208.82454 -42.52022 C 208.82454 -43.07045 209.27059 -43.5165 209.82082 -43.5165 C 210.37105 -43.5165 210.8171 -43.07045 210.8171 -42.52022 Z M 209.82082 -42.52022 "/>
<path transform="matrix(1,0,0,-1,132.845,127.84898)" stroke-width=".3985" stroke-linecap="butt" stroke-miterlimit="10" stroke-linejoin="miter" fill="none" stroke="#000000" d="M 210.8171 -42.52022 C 210.8171 -41.96999 210.37105 -41.52394 209.82082 -41.52394 C 209.27059 -41.52394 208.82454 -41.96999 208.82454 -42.52022 C 208.82454 -43.07045 209.27059 -43.5165 209.82082 -43.5165 C 210.37105 -43.5165 210.8171 -43.07045 210.8171 -42.52022 Z M 209.82082 -42.52022 "/>
<path transform="matrix(1,0,0,-1,132.845,127.84898)" d="M 235.36643 -85.04056 C 235.36643 -84.49033 234.9204 -84.04428 234.37015 -84.04428 C 233.81992 -84.04428 233.37387 -84.49033 233.37387 -85.04056 C 233.37387 -85.59079 233.81992 -86.03683 234.37015 -86.03683 C 234.9204 -86.03683 235.36643 -85.59079 235.36643 -85.04056 Z M 234.37015 -85.04056 "/>
<path transform="matrix(1,0,0,-1,132.845,127.84898)" stroke-width=".3985" stroke-linecap="butt" stroke-miterlimit="10" stroke-linejoin="miter" fill="none" stroke="#000000" d="M 235.36643 -85.04056 C 235.36643 -84.49033 234.9204 -84.04428 234.37015 -84.04428 C 233.81992 -84.04428 233.37387 -84.49033 233.37387 -85.04056 C 233.37387 -85.59079 233.81992 -86.03683 234.37015 -86.03683 C 234.9204 -86.03683 235.36643 -85.59079 235.36643 -85.04056 Z M 234.37015 -85.04056 "/>
<path transform="matrix(1,0,0,-1,132.845,127.84898)" stroke-width=".79701" stroke-linecap="butt" stroke-miterlimit="10" stroke-linejoin="miter" fill="none" stroke="#000000" d="M 283.46824 0 L 283.46824 85.04045 "/>
<path transform="matrix(1,0,0,-1,132.845,127.84898)" stroke-width=".79701" stroke-linecap="butt" stroke-miterlimit="10" stroke-linejoin="miter" fill="none" stroke="#000000" d="M 283.46824 85.04045 C 344.4788 120.26482 422.4952 99.36026 457.7196 38.3497 C 492.94395 -22.66084 472.03938 -100.67728 411.02885 -135.90166 C 371.5671 -158.68451 322.92994 -158.68451 283.46824 -135.90166 C 262.70576 -123.91367 245.7349 -106.30435 234.51767 -85.11757 "/>
<path transform="matrix(1,0,0,-1,132.845,127.84898)" stroke-width=".79701" stroke-linecap="butt" stroke-miterlimit="10" stroke-linejoin="miter" fill="none" stroke="#000000" d="M 234.37015 -85.04056 L 209.82082 -42.52022 "/>
<path transform="matrix(1,0,0,-1,132.845,127.84898)" stroke-width=".79701" stroke-linecap="butt" stroke-miterlimit="10" stroke-linejoin="miter" fill="none" stroke="#000000" d="M 209.82082 -42.52022 L 283.46824 0 "/>
</g>
</svg>
